<?xml version="1.0" encoding="utf-8" standalone="no"?>
<!DOCTYPE svg PUBLIC "-//W3C//DTD SVG 1.1//EN"
  "http://www.w3.org/Graphics/SVG/1.1/DTD/svg11.dtd">
<svg xmlns:xlink="http://www.w3.org/1999/xlink" width="460.8pt" height="345.6pt" viewBox="0 0 460.8 345.6" xmlns="http://www.w3.org/2000/svg" version="1.1">
 <metadata>
  <rdf:RDF xmlns:dc="http://purl.org/dc/elements/1.1/" xmlns:cc="http://creativecommons.org/ns#" xmlns:rdf="http://www.w3.org/1999/02/22-rdf-syntax-ns#">
   <cc:Work>
    <dc:type rdf:resource="http://purl.org/dc/dcmitype/StillImage"/>
    <dc:date>2025-11-10T18:21:31.080960</dc:date>
    <dc:format>image/svg+xml</dc:format>
    <dc:creator>
     <cc:Agent>
      <dc:title>Matplotlib v3.10.0, https://matplotlib.org/</dc:title>
     </cc:Agent>
    </dc:creator>
   </cc:Work>
  </rdf:RDF>
 </metadata>
 <defs>
  <style type="text/css">*{stroke-linejoin: round; stroke-linecap: butt}</style>
 </defs>
 <g id="figure_1">
  <g id="patch_1">
   <path d="M 0 345.6 
L 460.8 345.6 
L 460.8 0 
L 0 0 
z
" style="fill: #ffffff"/>
  </g>
  <g id="axes_1">
   <g id="patch_2">
    <path d="M 57.6 307.584 
L 414.72 307.584 
L 414.72 41.472 
L 57.6 41.472 
z
" style="fill: #ffffff"/>
   </g>
   <g id="FillBetweenPolyCollection_1">
    <defs>
     <path id="md87f5cb320" d="M 73.832727 -156.575053 
L 73.832727 -138.017248 
L 85.85697 -147.579826 
L 97.881212 -167.033238 
L 109.905455 -186.599704 
L 121.929697 -198.680941 
L 133.953939 -204.304181 
L 145.978182 -207.733597 
L 158.002424 -218.553911 
L 170.026667 -218.553911 
L 182.050909 -218.553911 
L 194.075152 -218.553911 
L 206.099394 -237.200767 
L 218.123636 -237.200767 
L 230.147879 -238.788504 
L 242.172121 -245.56224 
L 254.196364 -245.56224 
L 266.220606 -245.56224 
L 278.244848 -245.56224 
L 290.269091 -245.56224 
L 302.293333 -245.56224 
L 314.317576 -245.56224 
L 326.341818 -245.56224 
L 338.366061 -246.413372 
L 350.390303 -246.413372 
L 362.414545 -246.413372 
L 374.438788 -246.413372 
L 386.46303 -248.442053 
L 398.487273 -254.374741 
L 398.487273 -292.032 
L 398.487273 -292.032 
L 386.46303 -288.903879 
L 374.438788 -287.561285 
L 362.414545 -287.561285 
L 350.390303 -287.561285 
L 338.366061 -287.561285 
L 326.341818 -287.184047 
L 314.317576 -287.184047 
L 302.293333 -287.184047 
L 290.269091 -287.184047 
L 278.244848 -287.184047 
L 266.220606 -287.184047 
L 254.196364 -287.184047 
L 242.172121 -287.184047 
L 230.147879 -284.819899 
L 218.123636 -283.271298 
L 206.099394 -283.271298 
L 194.075152 -260.275644 
L 182.050909 -260.275644 
L 170.026667 -260.275644 
L 158.002424 -260.275644 
L 145.978182 -249.911235 
L 133.953939 -246.626806 
L 121.929697 -244.000035 
L 109.905455 -233.949693 
L 97.881212 -218.737424 
L 85.85697 -199.031785 
L 73.832727 -156.575053 
z
" style="stroke: #008000; stroke-opacity: 0.2"/>
    </defs>
    <g clip-path="url(#p5963d5828d)">
     <use xlink:href="#md87f5cb320" x="0" y="345.6" style="fill: #008000; fill-opacity: 0.2; stroke: #008000; stroke-opacity: 0.2"/>
    </g>
   </g>
   <g id="FillBetweenPolyCollection_2">
    <defs>
     <path id="mccbe4a8845" d="M 73.832727 -76.287386 
L 73.832727 -73.374161 
L 85.85697 -79.948374 
L 97.881212 -86.364623 
L 109.905455 -92.323986 
L 121.929697 -96.964459 
L 133.953939 -100.406703 
L 145.978182 -103.916617 
L 158.002424 -106.727522 
L 170.026667 -109.365142 
L 182.050909 -111.875902 
L 194.075152 -114.360099 
L 206.099394 -119.241287 
L 218.123636 -121.033545 
L 230.147879 -122.335728 
L 242.172121 -126.751508 
L 254.196364 -128.882081 
L 266.220606 -131.115455 
L 278.244848 -133.688382 
L 290.269091 -135.160336 
L 302.293333 -137.792554 
L 314.317576 -140.189103 
L 326.341818 -140.96225 
L 338.366061 -143.15256 
L 350.390303 -145.019873 
L 362.414545 -145.761835 
L 374.438788 -147.285459 
L 386.46303 -148.998244 
L 398.487273 -150.258841 
L 398.487273 -158.386669 
L 398.487273 -158.386669 
L 386.46303 -156.990926 
L 374.438788 -154.681111 
L 362.414545 -153.016689 
L 350.390303 -152.357937 
L 338.366061 -150.664255 
L 326.341818 -148.487891 
L 314.317576 -147.443 
L 302.293333 -145.534961 
L 290.269091 -143.389574 
L 278.244848 -141.894578 
L 266.220606 -138.619259 
L 254.196364 -135.969465 
L 242.172121 -133.650892 
L 230.147879 -129.879557 
L 218.123636 -127.559377 
L 206.099394 -125.67652 
L 194.075152 -121.09637 
L 182.050909 -118.215714 
L 170.026667 -115.254732 
L 158.002424 -112.76204 
L 145.978182 -110.219169 
L 133.953939 -106.283981 
L 121.929697 -103.663749 
L 109.905455 -97.858712 
L 97.881212 -91.451399 
L 85.85697 -84.723922 
L 73.832727 -76.287386 
z
" style="stroke: #0000ff; stroke-opacity: 0.2"/>
    </defs>
    <g clip-path="url(#p5963d5828d)">
     <use xlink:href="#mccbe4a8845" x="0" y="345.6" style="fill: #0000ff; fill-opacity: 0.2; stroke: #0000ff; stroke-opacity: 0.2"/>
    </g>
   </g>
   <g id="FillBetweenPolyCollection_3">
    <defs>
     <path id="ma5994945ae" d="M 73.832727 -50.822075 
L 73.832727 -50.112 
L 85.85697 -56.830148 
L 97.881212 -61.818905 
L 109.905455 -66.647505 
L 121.929697 -70.734051 
L 133.953939 -74.603625 
L 145.978182 -77.547495 
L 158.002424 -80.213985 
L 170.026667 -82.665409 
L 182.050909 -84.488772 
L 194.075152 -86.475463 
L 206.099394 -89.977364 
L 218.123636 -91.370381 
L 230.147879 -92.762951 
L 242.172121 -94.931352 
L 254.196364 -96.704594 
L 266.220606 -99.466462 
L 278.244848 -101.57036 
L 290.269091 -102.847477 
L 302.293333 -104.715232 
L 314.317576 -106.46116 
L 326.341818 -108.072899 
L 338.366061 -109.73125 
L 350.390303 -110.858531 
L 362.414545 -111.19937 
L 374.438788 -114.123214 
L 386.46303 -116.202012 
L 398.487273 -117.297386 
L 398.487273 -123.685486 
L 398.487273 -123.685486 
L 386.46303 -122.711903 
L 374.438788 -120.606571 
L 362.414545 -117.508538 
L 350.390303 -117.225918 
L 338.366061 -116.441722 
L 326.341818 -114.774466 
L 314.317576 -112.22148 
L 302.293333 -110.833495 
L 290.269091 -108.710005 
L 278.244848 -107.713356 
L 266.220606 -104.248065 
L 254.196364 -100.996278 
L 242.172121 -98.508939 
L 230.147879 -95.903445 
L 218.123636 -94.697807 
L 206.099394 -92.476167 
L 194.075152 -89.69557 
L 182.050909 -87.671642 
L 170.026667 -85.391119 
L 158.002424 -83.049075 
L 145.978182 -80.100933 
L 133.953939 -77.126451 
L 121.929697 -73.363387 
L 109.905455 -68.750825 
L 97.881212 -63.489123 
L 85.85697 -58.04154 
L 73.832727 -50.822075 
z
" style="stroke: #ff0000; stroke-opacity: 0.2"/>
    </defs>
    <g clip-path="url(#p5963d5828d)">
     <use xlink:href="#ma5994945ae" x="0" y="345.6" style="fill: #ff0000; fill-opacity: 0.2; stroke: #ff0000; stroke-opacity: 0.2"/>
    </g>
   </g>
   <g id="matplotlib.axis_1">
    <g id="xtick_1">
     <g id="line2d_1">
      <defs>
       <path id="m4c7c1590db" d="M 0 0 
L 0 3.5 
" style="stroke: #000000; stroke-width: 0.8"/>
      </defs>
      <g>
       <use xlink:href="#m4c7c1590db" x="73.832727" y="307.584" style="stroke: #000000; stroke-width: 0.8"/>
      </g>
     </g>
     <g id="text_1">
      <!-- 0 -->
      <g transform="translate(70.651477 322.182437) scale(0.1 -0.1)">
       <defs>
        <path id="DejaVuSans-30" d="M 2034 4250 
Q 1547 4250 1301 3770 
Q 1056 3291 1056 2328 
Q 1056 1369 1301 889 
Q 1547 409 2034 409 
Q 2525 409 2770 889 
Q 3016 1369 3016 2328 
Q 3016 3291 2770 3770 
Q 2525 4250 2034 4250 
z
M 2034 4750 
Q 2819 4750 3233 4129 
Q 3647 3509 3647 2328 
Q 3647 1150 3233 529 
Q 2819 -91 2034 -91 
Q 1250 -91 836 529 
Q 422 1150 422 2328 
Q 422 3509 836 4129 
Q 1250 4750 2034 4750 
z
" transform="scale(0.015625)"/>
       </defs>
       <use xlink:href="#DejaVuSans-30"/>
      </g>
     </g>
    </g>
    <g id="xtick_2">
     <g id="line2d_2">
      <g>
       <use xlink:href="#m4c7c1590db" x="133.953939" y="307.584" style="stroke: #000000; stroke-width: 0.8"/>
      </g>
     </g>
     <g id="text_2">
      <!-- 5 -->
      <g transform="translate(130.772689 322.182437) scale(0.1 -0.1)">
       <defs>
        <path id="DejaVuSans-35" d="M 691 4666 
L 3169 4666 
L 3169 4134 
L 1269 4134 
L 1269 2991 
Q 1406 3038 1543 3061 
Q 1681 3084 1819 3084 
Q 2600 3084 3056 2656 
Q 3513 2228 3513 1497 
Q 3513 744 3044 326 
Q 2575 -91 1722 -91 
Q 1428 -91 1123 -41 
Q 819 9 494 109 
L 494 744 
Q 775 591 1075 516 
Q 1375 441 1709 441 
Q 2250 441 2565 725 
Q 2881 1009 2881 1497 
Q 2881 1984 2565 2268 
Q 2250 2553 1709 2553 
Q 1456 2553 1204 2497 
Q 953 2441 691 2322 
L 691 4666 
z
" transform="scale(0.015625)"/>
       </defs>
       <use xlink:href="#DejaVuSans-35"/>
      </g>
     </g>
    </g>
    <g id="xtick_3">
     <g id="line2d_3">
      <g>
       <use xlink:href="#m4c7c1590db" x="194.075152" y="307.584" style="stroke: #000000; stroke-width: 0.8"/>
      </g>
     </g>
     <g id="text_3">
      <!-- 10 -->
      <g transform="translate(187.712652 322.182437) scale(0.1 -0.1)">
       <defs>
        <path id="DejaVuSans-31" d="M 794 531 
L 1825 531 
L 1825 4091 
L 703 3866 
L 703 4441 
L 1819 4666 
L 2450 4666 
L 2450 531 
L 3481 531 
L 3481 0 
L 794 0 
L 794 531 
z
" transform="scale(0.015625)"/>
       </defs>
       <use xlink:href="#DejaVuSans-31"/>
       <use xlink:href="#DejaVuSans-30" transform="translate(63.623047 0)"/>
      </g>
     </g>
    </g>
    <g id="xtick_4">
     <g id="line2d_4">
      <g>
       <use xlink:href="#m4c7c1590db" x="254.196364" y="307.584" style="stroke: #000000; stroke-width: 0.8"/>
      </g>
     </g>
     <g id="text_4">
      <!-- 15 -->
      <g transform="translate(247.833864 322.182437) scale(0.1 -0.1)">
       <use xlink:href="#DejaVuSans-31"/>
       <use xlink:href="#DejaVuSans-35" transform="translate(63.623047 0)"/>
      </g>
     </g>
    </g>
    <g id="xtick_5">
     <g id="line2d_5">
      <g>
       <use xlink:href="#m4c7c1590db" x="314.317576" y="307.584" style="stroke: #000000; stroke-width: 0.8"/>
      </g>
     </g>
     <g id="text_5">
      <!-- 20 -->
      <g transform="translate(307.955076 322.182437) scale(0.1 -0.1)">
       <defs>
        <path id="DejaVuSans-32" d="M 1228 531 
L 3431 531 
L 3431 0 
L 469 0 
L 469 531 
Q 828 903 1448 1529 
Q 2069 2156 2228 2338 
Q 2531 2678 2651 2914 
Q 2772 3150 2772 3378 
Q 2772 3750 2511 3984 
Q 2250 4219 1831 4219 
Q 1534 4219 1204 4116 
Q 875 4013 500 3803 
L 500 4441 
Q 881 4594 1212 4672 
Q 1544 4750 1819 4750 
Q 2544 4750 2975 4387 
Q 3406 4025 3406 3419 
Q 3406 3131 3298 2873 
Q 3191 2616 2906 2266 
Q 2828 2175 2409 1742 
Q 1991 1309 1228 531 
z
" transform="scale(0.015625)"/>
       </defs>
       <use xlink:href="#DejaVuSans-32"/>
       <use xlink:href="#DejaVuSans-30" transform="translate(63.623047 0)"/>
      </g>
     </g>
    </g>
    <g id="xtick_6">
     <g id="line2d_6">
      <g>
       <use xlink:href="#m4c7c1590db" x="374.438788" y="307.584" style="stroke: #000000; stroke-width: 0.8"/>
      </g>
     </g>
     <g id="text_6">
      <!-- 25 -->
      <g transform="translate(368.076288 322.182437) scale(0.1 -0.1)">
       <use xlink:href="#DejaVuSans-32"/>
       <use xlink:href="#DejaVuSans-35" transform="translate(63.623047 0)"/>
      </g>
     </g>
    </g>
    <g id="text_7">
     <!-- Generation -->
     <g transform="translate(208.267031 335.860562) scale(0.1 -0.1)">
      <defs>
       <path id="DejaVuSans-47" d="M 3809 666 
L 3809 1919 
L 2778 1919 
L 2778 2438 
L 4434 2438 
L 4434 434 
Q 4069 175 3628 42 
Q 3188 -91 2688 -91 
Q 1594 -91 976 548 
Q 359 1188 359 2328 
Q 359 3472 976 4111 
Q 1594 4750 2688 4750 
Q 3144 4750 3555 4637 
Q 3966 4525 4313 4306 
L 4313 3634 
Q 3963 3931 3569 4081 
Q 3175 4231 2741 4231 
Q 1884 4231 1454 3753 
Q 1025 3275 1025 2328 
Q 1025 1384 1454 906 
Q 1884 428 2741 428 
Q 3075 428 3337 486 
Q 3600 544 3809 666 
z
" transform="scale(0.015625)"/>
       <path id="DejaVuSans-65" d="M 3597 1894 
L 3597 1613 
L 953 1613 
Q 991 1019 1311 708 
Q 1631 397 2203 397 
Q 2534 397 2845 478 
Q 3156 559 3463 722 
L 3463 178 
Q 3153 47 2828 -22 
Q 2503 -91 2169 -91 
Q 1331 -91 842 396 
Q 353 884 353 1716 
Q 353 2575 817 3079 
Q 1281 3584 2069 3584 
Q 2775 3584 3186 3129 
Q 3597 2675 3597 1894 
z
M 3022 2063 
Q 3016 2534 2758 2815 
Q 2500 3097 2075 3097 
Q 1594 3097 1305 2825 
Q 1016 2553 972 2059 
L 3022 2063 
z
" transform="scale(0.015625)"/>
       <path id="DejaVuSans-6e" d="M 3513 2113 
L 3513 0 
L 2938 0 
L 2938 2094 
Q 2938 2591 2744 2837 
Q 2550 3084 2163 3084 
Q 1697 3084 1428 2787 
Q 1159 2491 1159 1978 
L 1159 0 
L 581 0 
L 581 3500 
L 1159 3500 
L 1159 2956 
Q 1366 3272 1645 3428 
Q 1925 3584 2291 3584 
Q 2894 3584 3203 3211 
Q 3513 2838 3513 2113 
z
" transform="scale(0.015625)"/>
       <path id="DejaVuSans-72" d="M 2631 2963 
Q 2534 3019 2420 3045 
Q 2306 3072 2169 3072 
Q 1681 3072 1420 2755 
Q 1159 2438 1159 1844 
L 1159 0 
L 581 0 
L 581 3500 
L 1159 3500 
L 1159 2956 
Q 1341 3275 1631 3429 
Q 1922 3584 2338 3584 
Q 2397 3584 2469 3576 
Q 2541 3569 2628 3553 
L 2631 2963 
z
" transform="scale(0.015625)"/>
       <path id="DejaVuSans-61" d="M 2194 1759 
Q 1497 1759 1228 1600 
Q 959 1441 959 1056 
Q 959 750 1161 570 
Q 1363 391 1709 391 
Q 2188 391 2477 730 
Q 2766 1069 2766 1631 
L 2766 1759 
L 2194 1759 
z
M 3341 1997 
L 3341 0 
L 2766 0 
L 2766 531 
Q 2569 213 2275 61 
Q 1981 -91 1556 -91 
Q 1019 -91 701 211 
Q 384 513 384 1019 
Q 384 1609 779 1909 
Q 1175 2209 1959 2209 
L 2766 2209 
L 2766 2266 
Q 2766 2663 2505 2880 
Q 2244 3097 1772 3097 
Q 1472 3097 1187 3025 
Q 903 2953 641 2809 
L 641 3341 
Q 956 3463 1253 3523 
Q 1550 3584 1831 3584 
Q 2591 3584 2966 3190 
Q 3341 2797 3341 1997 
z
" transform="scale(0.015625)"/>
       <path id="DejaVuSans-74" d="M 1172 4494 
L 1172 3500 
L 2356 3500 
L 2356 3053 
L 1172 3053 
L 1172 1153 
Q 1172 725 1289 603 
Q 1406 481 1766 481 
L 2356 481 
L 2356 0 
L 1766 0 
Q 1100 0 847 248 
Q 594 497 594 1153 
L 594 3053 
L 172 3053 
L 172 3500 
L 594 3500 
L 594 4494 
L 1172 4494 
z
" transform="scale(0.015625)"/>
       <path id="DejaVuSans-69" d="M 603 3500 
L 1178 3500 
L 1178 0 
L 603 0 
L 603 3500 
z
M 603 4863 
L 1178 4863 
L 1178 4134 
L 603 4134 
L 603 4863 
z
" transform="scale(0.015625)"/>
       <path id="DejaVuSans-6f" d="M 1959 3097 
Q 1497 3097 1228 2736 
Q 959 2375 959 1747 
Q 959 1119 1226 758 
Q 1494 397 1959 397 
Q 2419 397 2687 759 
Q 2956 1122 2956 1747 
Q 2956 2369 2687 2733 
Q 2419 3097 1959 3097 
z
M 1959 3584 
Q 2709 3584 3137 3096 
Q 3566 2609 3566 1747 
Q 3566 888 3137 398 
Q 2709 -91 1959 -91 
Q 1206 -91 779 398 
Q 353 888 353 1747 
Q 353 2609 779 3096 
Q 1206 3584 1959 3584 
z
" transform="scale(0.015625)"/>
      </defs>
      <use xlink:href="#DejaVuSans-47"/>
      <use xlink:href="#DejaVuSans-65" transform="translate(77.490234 0)"/>
      <use xlink:href="#DejaVuSans-6e" transform="translate(139.013672 0)"/>
      <use xlink:href="#DejaVuSans-65" transform="translate(202.392578 0)"/>
      <use xlink:href="#DejaVuSans-72" transform="translate(263.916016 0)"/>
      <use xlink:href="#DejaVuSans-61" transform="translate(305.029297 0)"/>
      <use xlink:href="#DejaVuSans-74" transform="translate(366.308594 0)"/>
      <use xlink:href="#DejaVuSans-69" transform="translate(405.517578 0)"/>
      <use xlink:href="#DejaVuSans-6f" transform="translate(433.300781 0)"/>
      <use xlink:href="#DejaVuSans-6e" transform="translate(494.482422 0)"/>
     </g>
    </g>
   </g>
   <g id="matplotlib.axis_2">
    <g id="ytick_1">
     <g id="line2d_7">
      <defs>
       <path id="m23596dcca6" d="M 0 0 
L -3.5 0 
" style="stroke: #000000; stroke-width: 0.8"/>
      </defs>
      <g>
       <use xlink:href="#m23596dcca6" x="57.6" y="298.676817" style="stroke: #000000; stroke-width: 0.8"/>
      </g>
     </g>
     <g id="text_8">
      <!-- 0 -->
      <g transform="translate(44.2375 302.476036) scale(0.1 -0.1)">
       <use xlink:href="#DejaVuSans-30"/>
      </g>
     </g>
    </g>
    <g id="ytick_2">
     <g id="line2d_8">
      <g>
       <use xlink:href="#m23596dcca6" x="57.6" y="266.608093" style="stroke: #000000; stroke-width: 0.8"/>
      </g>
     </g>
     <g id="text_9">
      <!-- 1 -->
      <g transform="translate(44.2375 270.407312) scale(0.1 -0.1)">
       <use xlink:href="#DejaVuSans-31"/>
      </g>
     </g>
    </g>
    <g id="ytick_3">
     <g id="line2d_9">
      <g>
       <use xlink:href="#m23596dcca6" x="57.6" y="234.539369" style="stroke: #000000; stroke-width: 0.8"/>
      </g>
     </g>
     <g id="text_10">
      <!-- 2 -->
      <g transform="translate(44.2375 238.338588) scale(0.1 -0.1)">
       <use xlink:href="#DejaVuSans-32"/>
      </g>
     </g>
    </g>
    <g id="ytick_4">
     <g id="line2d_10">
      <g>
       <use xlink:href="#m23596dcca6" x="57.6" y="202.470645" style="stroke: #000000; stroke-width: 0.8"/>
      </g>
     </g>
     <g id="text_11">
      <!-- 3 -->
      <g transform="translate(44.2375 206.269864) scale(0.1 -0.1)">
       <defs>
        <path id="DejaVuSans-33" d="M 2597 2516 
Q 3050 2419 3304 2112 
Q 3559 1806 3559 1356 
Q 3559 666 3084 287 
Q 2609 -91 1734 -91 
Q 1441 -91 1130 -33 
Q 819 25 488 141 
L 488 750 
Q 750 597 1062 519 
Q 1375 441 1716 441 
Q 2309 441 2620 675 
Q 2931 909 2931 1356 
Q 2931 1769 2642 2001 
Q 2353 2234 1838 2234 
L 1294 2234 
L 1294 2753 
L 1863 2753 
Q 2328 2753 2575 2939 
Q 2822 3125 2822 3475 
Q 2822 3834 2567 4026 
Q 2313 4219 1838 4219 
Q 1578 4219 1281 4162 
Q 984 4106 628 3988 
L 628 4550 
Q 988 4650 1302 4700 
Q 1616 4750 1894 4750 
Q 2613 4750 3031 4423 
Q 3450 4097 3450 3541 
Q 3450 3153 3228 2886 
Q 3006 2619 2597 2516 
z
" transform="scale(0.015625)"/>
       </defs>
       <use xlink:href="#DejaVuSans-33"/>
      </g>
     </g>
    </g>
    <g id="ytick_5">
     <g id="line2d_11">
      <g>
       <use xlink:href="#m23596dcca6" x="57.6" y="170.401921" style="stroke: #000000; stroke-width: 0.8"/>
      </g>
     </g>
     <g id="text_12">
      <!-- 4 -->
      <g transform="translate(44.2375 174.20114) scale(0.1 -0.1)">
       <defs>
        <path id="DejaVuSans-34" d="M 2419 4116 
L 825 1625 
L 2419 1625 
L 2419 4116 
z
M 2253 4666 
L 3047 4666 
L 3047 1625 
L 3713 1625 
L 3713 1100 
L 3047 1100 
L 3047 0 
L 2419 0 
L 2419 1100 
L 313 1100 
L 313 1709 
L 2253 4666 
z
" transform="scale(0.015625)"/>
       </defs>
       <use xlink:href="#DejaVuSans-34"/>
      </g>
     </g>
    </g>
    <g id="ytick_6">
     <g id="line2d_12">
      <g>
       <use xlink:href="#m23596dcca6" x="57.6" y="138.333197" style="stroke: #000000; stroke-width: 0.8"/>
      </g>
     </g>
     <g id="text_13">
      <!-- 5 -->
      <g transform="translate(44.2375 142.132415) scale(0.1 -0.1)">
       <use xlink:href="#DejaVuSans-35"/>
      </g>
     </g>
    </g>
    <g id="ytick_7">
     <g id="line2d_13">
      <g>
       <use xlink:href="#m23596dcca6" x="57.6" y="106.264473" style="stroke: #000000; stroke-width: 0.8"/>
      </g>
     </g>
     <g id="text_14">
      <!-- 6 -->
      <g transform="translate(44.2375 110.063691) scale(0.1 -0.1)">
       <defs>
        <path id="DejaVuSans-36" d="M 2113 2584 
Q 1688 2584 1439 2293 
Q 1191 2003 1191 1497 
Q 1191 994 1439 701 
Q 1688 409 2113 409 
Q 2538 409 2786 701 
Q 3034 994 3034 1497 
Q 3034 2003 2786 2293 
Q 2538 2584 2113 2584 
z
M 3366 4563 
L 3366 3988 
Q 3128 4100 2886 4159 
Q 2644 4219 2406 4219 
Q 1781 4219 1451 3797 
Q 1122 3375 1075 2522 
Q 1259 2794 1537 2939 
Q 1816 3084 2150 3084 
Q 2853 3084 3261 2657 
Q 3669 2231 3669 1497 
Q 3669 778 3244 343 
Q 2819 -91 2113 -91 
Q 1303 -91 875 529 
Q 447 1150 447 2328 
Q 447 3434 972 4092 
Q 1497 4750 2381 4750 
Q 2619 4750 2861 4703 
Q 3103 4656 3366 4563 
z
" transform="scale(0.015625)"/>
       </defs>
       <use xlink:href="#DejaVuSans-36"/>
      </g>
     </g>
    </g>
    <g id="ytick_8">
     <g id="line2d_14">
      <g>
       <use xlink:href="#m23596dcca6" x="57.6" y="74.195748" style="stroke: #000000; stroke-width: 0.8"/>
      </g>
     </g>
     <g id="text_15">
      <!-- 7 -->
      <g transform="translate(44.2375 77.994967) scale(0.1 -0.1)">
       <defs>
        <path id="DejaVuSans-37" d="M 525 4666 
L 3525 4666 
L 3525 4397 
L 1831 0 
L 1172 0 
L 2766 4134 
L 525 4134 
L 525 4666 
z
" transform="scale(0.015625)"/>
       </defs>
       <use xlink:href="#DejaVuSans-37"/>
      </g>
     </g>
    </g>
    <g id="ytick_9">
     <g id="line2d_15">
      <g>
       <use xlink:href="#m23596dcca6" x="57.6" y="42.127024" style="stroke: #000000; stroke-width: 0.8"/>
      </g>
     </g>
     <g id="text_16">
      <!-- 8 -->
      <g transform="translate(44.2375 45.926243) scale(0.1 -0.1)">
       <defs>
        <path id="DejaVuSans-38" d="M 2034 2216 
Q 1584 2216 1326 1975 
Q 1069 1734 1069 1313 
Q 1069 891 1326 650 
Q 1584 409 2034 409 
Q 2484 409 2743 651 
Q 3003 894 3003 1313 
Q 3003 1734 2745 1975 
Q 2488 2216 2034 2216 
z
M 1403 2484 
Q 997 2584 770 2862 
Q 544 3141 544 3541 
Q 544 4100 942 4425 
Q 1341 4750 2034 4750 
Q 2731 4750 3128 4425 
Q 3525 4100 3525 3541 
Q 3525 3141 3298 2862 
Q 3072 2584 2669 2484 
Q 3125 2378 3379 2068 
Q 3634 1759 3634 1313 
Q 3634 634 3220 271 
Q 2806 -91 2034 -91 
Q 1263 -91 848 271 
Q 434 634 434 1313 
Q 434 1759 690 2068 
Q 947 2378 1403 2484 
z
M 1172 3481 
Q 1172 3119 1398 2916 
Q 1625 2713 2034 2713 
Q 2441 2713 2670 2916 
Q 2900 3119 2900 3481 
Q 2900 3844 2670 4047 
Q 2441 4250 2034 4250 
Q 1625 4250 1398 4047 
Q 1172 3844 1172 3481 
z
" transform="scale(0.015625)"/>
       </defs>
       <use xlink:href="#DejaVuSans-38"/>
      </g>
     </g>
    </g>
    <g id="text_17">
     <!-- Average Fitness -->
     <g transform="translate(38.157812 213.967062) rotate(-90) scale(0.1 -0.1)">
      <defs>
       <path id="DejaVuSans-41" d="M 2188 4044 
L 1331 1722 
L 3047 1722 
L 2188 4044 
z
M 1831 4666 
L 2547 4666 
L 4325 0 
L 3669 0 
L 3244 1197 
L 1141 1197 
L 716 0 
L 50 0 
L 1831 4666 
z
" transform="scale(0.015625)"/>
       <path id="DejaVuSans-76" d="M 191 3500 
L 800 3500 
L 1894 563 
L 2988 3500 
L 3597 3500 
L 2284 0 
L 1503 0 
L 191 3500 
z
" transform="scale(0.015625)"/>
       <path id="DejaVuSans-67" d="M 2906 1791 
Q 2906 2416 2648 2759 
Q 2391 3103 1925 3103 
Q 1463 3103 1205 2759 
Q 947 2416 947 1791 
Q 947 1169 1205 825 
Q 1463 481 1925 481 
Q 2391 481 2648 825 
Q 2906 1169 2906 1791 
z
M 3481 434 
Q 3481 -459 3084 -895 
Q 2688 -1331 1869 -1331 
Q 1566 -1331 1297 -1286 
Q 1028 -1241 775 -1147 
L 775 -588 
Q 1028 -725 1275 -790 
Q 1522 -856 1778 -856 
Q 2344 -856 2625 -561 
Q 2906 -266 2906 331 
L 2906 616 
Q 2728 306 2450 153 
Q 2172 0 1784 0 
Q 1141 0 747 490 
Q 353 981 353 1791 
Q 353 2603 747 3093 
Q 1141 3584 1784 3584 
Q 2172 3584 2450 3431 
Q 2728 3278 2906 2969 
L 2906 3500 
L 3481 3500 
L 3481 434 
z
" transform="scale(0.015625)"/>
       <path id="DejaVuSans-20" transform="scale(0.015625)"/>
       <path id="DejaVuSans-46" d="M 628 4666 
L 3309 4666 
L 3309 4134 
L 1259 4134 
L 1259 2759 
L 3109 2759 
L 3109 2228 
L 1259 2228 
L 1259 0 
L 628 0 
L 628 4666 
z
" transform="scale(0.015625)"/>
       <path id="DejaVuSans-73" d="M 2834 3397 
L 2834 2853 
Q 2591 2978 2328 3040 
Q 2066 3103 1784 3103 
Q 1356 3103 1142 2972 
Q 928 2841 928 2578 
Q 928 2378 1081 2264 
Q 1234 2150 1697 2047 
L 1894 2003 
Q 2506 1872 2764 1633 
Q 3022 1394 3022 966 
Q 3022 478 2636 193 
Q 2250 -91 1575 -91 
Q 1294 -91 989 -36 
Q 684 19 347 128 
L 347 722 
Q 666 556 975 473 
Q 1284 391 1588 391 
Q 1994 391 2212 530 
Q 2431 669 2431 922 
Q 2431 1156 2273 1281 
Q 2116 1406 1581 1522 
L 1381 1569 
Q 847 1681 609 1914 
Q 372 2147 372 2553 
Q 372 3047 722 3315 
Q 1072 3584 1716 3584 
Q 2034 3584 2315 3537 
Q 2597 3491 2834 3397 
z
" transform="scale(0.015625)"/>
      </defs>
      <use xlink:href="#DejaVuSans-41"/>
      <use xlink:href="#DejaVuSans-76" transform="translate(62.533203 0)"/>
      <use xlink:href="#DejaVuSans-65" transform="translate(121.712891 0)"/>
      <use xlink:href="#DejaVuSans-72" transform="translate(183.236328 0)"/>
      <use xlink:href="#DejaVuSans-61" transform="translate(224.349609 0)"/>
      <use xlink:href="#DejaVuSans-67" transform="translate(285.628906 0)"/>
      <use xlink:href="#DejaVuSans-65" transform="translate(349.105469 0)"/>
      <use xlink:href="#DejaVuSans-20" transform="translate(410.628906 0)"/>
      <use xlink:href="#DejaVuSans-46" transform="translate(442.416016 0)"/>
      <use xlink:href="#DejaVuSans-69" transform="translate(492.685547 0)"/>
      <use xlink:href="#DejaVuSans-74" transform="translate(520.46875 0)"/>
      <use xlink:href="#DejaVuSans-6e" transform="translate(559.677734 0)"/>
      <use xlink:href="#DejaVuSans-65" transform="translate(623.056641 0)"/>
      <use xlink:href="#DejaVuSans-73" transform="translate(684.580078 0)"/>
      <use xlink:href="#DejaVuSans-73" transform="translate(736.679688 0)"/>
     </g>
    </g>
   </g>
   <g id="line2d_16">
    <path d="M 73.832727 198.30385 
L 85.85697 172.294194 
L 97.881212 152.714669 
L 109.905455 135.325301 
L 121.929697 124.259512 
L 133.953939 120.134507 
L 145.978182 116.777584 
L 158.002424 106.185223 
L 170.026667 106.185223 
L 182.050909 106.185223 
L 194.075152 106.185223 
L 206.099394 85.363967 
L 218.123636 85.363967 
L 230.147879 83.795798 
L 242.172121 79.226857 
L 254.196364 79.226857 
L 266.220606 79.226857 
L 278.244848 79.226857 
L 290.269091 79.226857 
L 302.293333 79.226857 
L 314.317576 79.226857 
L 326.341818 79.226857 
L 338.366061 78.612672 
L 350.390303 78.612672 
L 362.414545 78.612672 
L 374.438788 78.612672 
L 386.46303 76.927034 
L 398.487273 72.39663 
" clip-path="url(#p5963d5828d)" style="fill: none; stroke: #008000; stroke-width: 1.5; stroke-linecap: square"/>
   </g>
   <g id="line2d_17">
    <path d="M 73.832727 270.769227 
L 85.85697 263.263852 
L 97.881212 256.691989 
L 109.905455 250.508651 
L 121.929697 245.285896 
L 133.953939 242.254658 
L 145.978182 238.532107 
L 158.002424 235.855219 
L 170.026667 233.290063 
L 182.050909 230.554192 
L 194.075152 227.871766 
L 206.099394 223.141096 
L 218.123636 221.303539 
L 230.147879 219.492357 
L 242.172121 215.3988 
L 254.196364 213.174227 
L 266.220606 210.732643 
L 278.244848 207.80852 
L 290.269091 206.325045 
L 302.293333 203.936242 
L 314.317576 201.783949 
L 326.341818 200.87493 
L 338.366061 198.691592 
L 350.390303 196.911095 
L 362.414545 196.210738 
L 374.438788 194.616715 
L 386.46303 192.605415 
L 398.487273 191.277245 
" clip-path="url(#p5963d5828d)" style="fill: none; stroke: #0000ff; stroke-width: 1.5; stroke-linecap: square"/>
   </g>
   <g id="line2d_18">
    <path d="M 73.832727 295.132962 
L 85.85697 288.164156 
L 97.881212 282.945986 
L 109.905455 277.900835 
L 121.929697 273.551281 
L 133.953939 269.734962 
L 145.978182 266.775786 
L 158.002424 263.96847 
L 170.026667 261.571736 
L 182.050909 259.519793 
L 194.075152 257.514484 
L 206.099394 254.373235 
L 218.123636 252.565906 
L 230.147879 251.266802 
L 242.172121 248.879855 
L 254.196364 246.749564 
L 266.220606 243.742737 
L 278.244848 240.958142 
L 290.269091 239.821259 
L 302.293333 237.825636 
L 314.317576 236.25868 
L 326.341818 234.176317 
L 338.366061 232.513514 
L 350.390303 231.557775 
L 362.414545 231.246046 
L 374.438788 228.235107 
L 386.46303 226.143043 
L 398.487273 225.108564 
" clip-path="url(#p5963d5828d)" style="fill: none; stroke: #ff0000; stroke-width: 1.5; stroke-linecap: square"/>
   </g>
   <g id="line2d_19">
    <path d="M 73.832727 270.769227 
L 85.85697 263.263852 
L 97.881212 256.691989 
L 109.905455 250.508651 
L 121.929697 245.285896 
L 133.953939 242.254658 
L 145.978182 238.532107 
L 158.002424 235.855219 
L 170.026667 233.290063 
L 182.050909 230.554192 
L 194.075152 227.871766 
L 206.099394 223.141096 
L 218.123636 221.303539 
L 230.147879 219.492357 
L 242.172121 215.3988 
L 254.196364 213.174227 
L 266.220606 210.732643 
L 278.244848 207.80852 
L 290.269091 206.325045 
L 302.293333 203.936242 
L 314.317576 201.783949 
L 326.341818 200.87493 
L 338.366061 198.691592 
L 350.390303 196.911095 
L 362.414545 196.210738 
L 374.438788 194.616715 
L 386.46303 192.605415 
L 398.487273 191.277245 
" clip-path="url(#p5963d5828d)" style="fill: none; stroke: #0000ff; stroke-width: 1.5; stroke-linecap: square"/>
   </g>
   <g id="line2d_20">
    <path d="M 73.832727 295.132962 
L 85.85697 288.164156 
L 97.881212 282.945986 
L 109.905455 277.900835 
L 121.929697 273.551281 
L 133.953939 269.734962 
L 145.978182 266.775786 
L 158.002424 263.96847 
L 170.026667 261.571736 
L 182.050909 259.519793 
L 194.075152 257.514484 
L 206.099394 254.373235 
L 218.123636 252.565906 
L 230.147879 251.266802 
L 242.172121 248.879855 
L 254.196364 246.749564 
L 266.220606 243.742737 
L 278.244848 240.958142 
L 290.269091 239.821259 
L 302.293333 237.825636 
L 314.317576 236.25868 
L 326.341818 234.176317 
L 338.366061 232.513514 
L 350.390303 231.557775 
L 362.414545 231.246046 
L 374.438788 228.235107 
L 386.46303 226.143043 
L 398.487273 225.108564 
" clip-path="url(#p5963d5828d)" style="fill: none; stroke: #ff0000; stroke-width: 1.5; stroke-linecap: square"/>
   </g>
   <g id="patch_3">
    <path d="M 57.6 307.584 
L 57.6 41.472 
" style="fill: none; stroke: #000000; stroke-width: 0.8; stroke-linejoin: miter; stroke-linecap: square"/>
   </g>
   <g id="patch_4">
    <path d="M 414.72 307.584 
L 414.72 41.472 
" style="fill: none; stroke: #000000; stroke-width: 0.8; stroke-linejoin: miter; stroke-linecap: square"/>
   </g>
   <g id="patch_5">
    <path d="M 57.6 307.584 
L 414.72 307.584 
" style="fill: none; stroke: #000000; stroke-width: 0.8; stroke-linejoin: miter; stroke-linecap: square"/>
   </g>
   <g id="patch_6">
    <path d="M 57.6 41.472 
L 414.72 41.472 
" style="fill: none; stroke: #000000; stroke-width: 0.8; stroke-linejoin: miter; stroke-linecap: square"/>
   </g>
   <g id="text_18">
    <!-- Average Fitness over Generations -->
    <g transform="translate(135.04125 35.472) scale(0.12 -0.12)">
     <use xlink:href="#DejaVuSans-41"/>
     <use xlink:href="#DejaVuSans-76" transform="translate(62.533203 0)"/>
     <use xlink:href="#DejaVuSans-65" transform="translate(121.712891 0)"/>
     <use xlink:href="#DejaVuSans-72" transform="translate(183.236328 0)"/>
     <use xlink:href="#DejaVuSans-61" transform="translate(224.349609 0)"/>
     <use xlink:href="#DejaVuSans-67" transform="translate(285.628906 0)"/>
     <use xlink:href="#DejaVuSans-65" transform="translate(349.105469 0)"/>
     <use xlink:href="#DejaVuSans-20" transform="translate(410.628906 0)"/>
     <use xlink:href="#DejaVuSans-46" transform="translate(442.416016 0)"/>
     <use xlink:href="#DejaVuSans-69" transform="translate(492.685547 0)"/>
     <use xlink:href="#DejaVuSans-74" transform="translate(520.46875 0)"/>
     <use xlink:href="#DejaVuSans-6e" transform="translate(559.677734 0)"/>
     <use xlink:href="#DejaVuSans-65" transform="translate(623.056641 0)"/>
     <use xlink:href="#DejaVuSans-73" transform="translate(684.580078 0)"/>
     <use xlink:href="#DejaVuSans-73" transform="translate(736.679688 0)"/>
     <use xlink:href="#DejaVuSans-20" transform="translate(788.779297 0)"/>
     <use xlink:href="#DejaVuSans-6f" transform="translate(820.566406 0)"/>
     <use xlink:href="#DejaVuSans-76" transform="translate(881.748047 0)"/>
     <use xlink:href="#DejaVuSans-65" transform="translate(940.927734 0)"/>
     <use xlink:href="#DejaVuSans-72" transform="translate(1002.451172 0)"/>
     <use xlink:href="#DejaVuSans-20" transform="translate(1043.564453 0)"/>
     <use xlink:href="#DejaVuSans-47" transform="translate(1075.351562 0)"/>
     <use xlink:href="#DejaVuSans-65" transform="translate(1152.841797 0)"/>
     <use xlink:href="#DejaVuSans-6e" transform="translate(1214.365234 0)"/>
     <use xlink:href="#DejaVuSans-65" transform="translate(1277.744141 0)"/>
     <use xlink:href="#DejaVuSans-72" transform="translate(1339.267578 0)"/>
     <use xlink:href="#DejaVuSans-61" transform="translate(1380.380859 0)"/>
     <use xlink:href="#DejaVuSans-74" transform="translate(1441.660156 0)"/>
     <use xlink:href="#DejaVuSans-69" transform="translate(1480.869141 0)"/>
     <use xlink:href="#DejaVuSans-6f" transform="translate(1508.652344 0)"/>
     <use xlink:href="#DejaVuSans-6e" transform="translate(1569.833984 0)"/>
     <use xlink:href="#DejaVuSans-73" transform="translate(1633.212891 0)"/>
    </g>
   </g>
   <g id="legend_1">
    <g id="patch_7">
     <path d="M 309.248125 302.584 
L 407.72 302.584 
Q 409.72 302.584 409.72 300.584 
L 409.72 257.549625 
Q 409.72 255.549625 407.72 255.549625 
L 309.248125 255.549625 
Q 307.248125 255.549625 307.248125 257.549625 
L 307.248125 300.584 
Q 307.248125 302.584 309.248125 302.584 
z
" style="fill: #ffffff; opacity: 0.8; stroke: #cccccc; stroke-linejoin: miter"/>
    </g>
    <g id="line2d_21">
     <path d="M 311.248125 263.648062 
L 321.248125 263.648062 
L 331.248125 263.648062 
" style="fill: none; stroke: #008000; stroke-width: 1.5; stroke-linecap: square"/>
    </g>
    <g id="text_19">
     <!-- Best Fitness -->
     <g transform="translate(339.248125 267.148062) scale(0.1 -0.1)">
      <defs>
       <path id="DejaVuSans-42" d="M 1259 2228 
L 1259 519 
L 2272 519 
Q 2781 519 3026 730 
Q 3272 941 3272 1375 
Q 3272 1813 3026 2020 
Q 2781 2228 2272 2228 
L 1259 2228 
z
M 1259 4147 
L 1259 2741 
L 2194 2741 
Q 2656 2741 2882 2914 
Q 3109 3088 3109 3444 
Q 3109 3797 2882 3972 
Q 2656 4147 2194 4147 
L 1259 4147 
z
M 628 4666 
L 2241 4666 
Q 2963 4666 3353 4366 
Q 3744 4066 3744 3513 
Q 3744 3084 3544 2831 
Q 3344 2578 2956 2516 
Q 3422 2416 3680 2098 
Q 3938 1781 3938 1306 
Q 3938 681 3513 340 
Q 3088 0 2303 0 
L 628 0 
L 628 4666 
z
" transform="scale(0.015625)"/>
      </defs>
      <use xlink:href="#DejaVuSans-42"/>
      <use xlink:href="#DejaVuSans-65" transform="translate(68.603516 0)"/>
      <use xlink:href="#DejaVuSans-73" transform="translate(130.126953 0)"/>
      <use xlink:href="#DejaVuSans-74" transform="translate(182.226562 0)"/>
      <use xlink:href="#DejaVuSans-20" transform="translate(221.435547 0)"/>
      <use xlink:href="#DejaVuSans-46" transform="translate(253.222656 0)"/>
      <use xlink:href="#DejaVuSans-69" transform="translate(303.492188 0)"/>
      <use xlink:href="#DejaVuSans-74" transform="translate(331.275391 0)"/>
      <use xlink:href="#DejaVuSans-6e" transform="translate(370.484375 0)"/>
      <use xlink:href="#DejaVuSans-65" transform="translate(433.863281 0)"/>
      <use xlink:href="#DejaVuSans-73" transform="translate(495.386719 0)"/>
      <use xlink:href="#DejaVuSans-73" transform="translate(547.486328 0)"/>
     </g>
    </g>
    <g id="line2d_22">
     <path d="M 311.248125 278.326188 
L 321.248125 278.326188 
L 331.248125 278.326188 
" style="fill: none; stroke: #0000ff; stroke-width: 1.5; stroke-linecap: square"/>
    </g>
    <g id="text_20">
     <!-- Mean Fitness -->
     <g transform="translate(339.248125 281.826188) scale(0.1 -0.1)">
      <defs>
       <path id="DejaVuSans-4d" d="M 628 4666 
L 1569 4666 
L 2759 1491 
L 3956 4666 
L 4897 4666 
L 4897 0 
L 4281 0 
L 4281 4097 
L 3078 897 
L 2444 897 
L 1241 4097 
L 1241 0 
L 628 0 
L 628 4666 
z
" transform="scale(0.015625)"/>
      </defs>
      <use xlink:href="#DejaVuSans-4d"/>
      <use xlink:href="#DejaVuSans-65" transform="translate(86.279297 0)"/>
      <use xlink:href="#DejaVuSans-61" transform="translate(147.802734 0)"/>
      <use xlink:href="#DejaVuSans-6e" transform="translate(209.082031 0)"/>
      <use xlink:href="#DejaVuSans-20" transform="translate(272.460938 0)"/>
      <use xlink:href="#DejaVuSans-46" transform="translate(304.248047 0)"/>
      <use xlink:href="#DejaVuSans-69" transform="translate(354.517578 0)"/>
      <use xlink:href="#DejaVuSans-74" transform="translate(382.300781 0)"/>
      <use xlink:href="#DejaVuSans-6e" transform="translate(421.509766 0)"/>
      <use xlink:href="#DejaVuSans-65" transform="translate(484.888672 0)"/>
      <use xlink:href="#DejaVuSans-73" transform="translate(546.412109 0)"/>
      <use xlink:href="#DejaVuSans-73" transform="translate(598.511719 0)"/>
     </g>
    </g>
    <g id="line2d_23">
     <path d="M 311.248125 293.004312 
L 321.248125 293.004312 
L 331.248125 293.004312 
" style="fill: none; stroke: #ff0000; stroke-width: 1.5; stroke-linecap: square"/>
    </g>
    <g id="text_21">
     <!-- Worst Fitness -->
     <g transform="translate(339.248125 296.504312) scale(0.1 -0.1)">
      <defs>
       <path id="DejaVuSans-57" d="M 213 4666 
L 850 4666 
L 1831 722 
L 2809 4666 
L 3519 4666 
L 4500 722 
L 5478 4666 
L 6119 4666 
L 4947 0 
L 4153 0 
L 3169 4050 
L 2175 0 
L 1381 0 
L 213 4666 
z
" transform="scale(0.015625)"/>
      </defs>
      <use xlink:href="#DejaVuSans-57"/>
      <use xlink:href="#DejaVuSans-6f" transform="translate(93.001953 0)"/>
      <use xlink:href="#DejaVuSans-72" transform="translate(154.183594 0)"/>
      <use xlink:href="#DejaVuSans-73" transform="translate(195.296875 0)"/>
      <use xlink:href="#DejaVuSans-74" transform="translate(247.396484 0)"/>
      <use xlink:href="#DejaVuSans-20" transform="translate(286.605469 0)"/>
      <use xlink:href="#DejaVuSans-46" transform="translate(318.392578 0)"/>
      <use xlink:href="#DejaVuSans-69" transform="translate(368.662109 0)"/>
      <use xlink:href="#DejaVuSans-74" transform="translate(396.445312 0)"/>
      <use xlink:href="#DejaVuSans-6e" transform="translate(435.654297 0)"/>
      <use xlink:href="#DejaVuSans-65" transform="translate(499.033203 0)"/>
      <use xlink:href="#DejaVuSans-73" transform="translate(560.556641 0)"/>
      <use xlink:href="#DejaVuSans-73" transform="translate(612.65625 0)"/>
     </g>
    </g>
   </g>
  </g>
 </g>
 <defs>
  <clipPath id="p5963d5828d">
   <rect x="57.6" y="41.472" width="357.12" height="266.112"/>
  </clipPath>
 </defs>
</svg>
