<?xml version="1.0" encoding="utf-8" standalone="no"?>
<!DOCTYPE svg PUBLIC "-//W3C//DTD SVG 1.1//EN"
  "http://www.w3.org/Graphics/SVG/1.1/DTD/svg11.dtd">
<svg xmlns:xlink="http://www.w3.org/1999/xlink" width="460.8pt" height="345.6pt" viewBox="0 0 460.8 345.6" xmlns="http://www.w3.org/2000/svg" version="1.1">
 <metadata>
  <rdf:RDF xmlns:dc="http://purl.org/dc/elements/1.1/" xmlns:cc="http://creativecommons.org/ns#" xmlns:rdf="http://www.w3.org/1999/02/22-rdf-syntax-ns#">
   <cc:Work>
    <dc:type rdf:resource="http://purl.org/dc/dcmitype/StillImage"/>
    <dc:date>2025-11-13T11:16:36.598745</dc:date>
    <dc:format>image/svg+xml</dc:format>
    <dc:creator>
     <cc:Agent>
      <dc:title>Matplotlib v3.10.0, https://matplotlib.org/</dc:title>
     </cc:Agent>
    </dc:creator>
   </cc:Work>
  </rdf:RDF>
 </metadata>
 <defs>
  <style type="text/css">*{stroke-linejoin: round; stroke-linecap: butt}</style>
 </defs>
 <g id="figure_1">
  <g id="patch_1">
   <path d="M 0 345.6 
L 460.8 345.6 
L 460.8 0 
L 0 0 
z
" style="fill: #ffffff"/>
  </g>
  <g id="axes_1">
   <g id="patch_2">
    <path d="M 57.6 307.584 
L 414.72 307.584 
L 414.72 41.472 
L 57.6 41.472 
z
" style="fill: #ffffff"/>
   </g>
   <g id="FillBetweenPolyCollection_1">
    <path d="M 57.6 158.021176 
L 57.6 186.077962 
L 66.310244 169.17692 
L 75.020488 168.468643 
L 83.730732 168.468643 
L 92.440976 163.627112 
L 101.15122 160.467221 
L 109.861463 159.137418 
L 118.571707 157.729252 
L 127.281951 157.042195 
L 135.992195 157.042195 
L 144.702439 142.958492 
L 153.412683 142.958492 
L 162.122927 114.178991 
L 170.833171 114.178991 
L 179.543415 112.88946 
L 188.253659 112.88946 
L 196.963902 112.88946 
L 205.674146 111.125494 
L 214.38439 111.125494 
L 223.094634 111.125494 
L 231.804878 111.125494 
L 240.515122 111.125494 
L 249.225366 111.125494 
L 257.93561 111.125494 
L 266.645854 111.125494 
L 275.356098 111.125494 
L 284.066341 111.125494 
L 292.776585 110.02678 
L 301.486829 98.714787 
L 310.197073 98.714787 
L 318.907317 98.714787 
L 327.617561 98.714787 
L 336.327805 98.714787 
L 345.038049 98.714787 
L 353.748293 97.842781 
L 362.458537 97.842781 
L 371.16878 90.066092 
L 379.879024 90.066092 
L 388.589268 90.066092 
L 397.299512 90.066092 
L 406.009756 90.066092 
L 414.72 89.285358 
L 423.430244 82.352419 
L 432.140488 77.056866 
L 440.850732 77.056866 
L 449.560976 65.674731 
L 458.27122 65.674731 
L 466.981463 65.674731 
L 475.691707 65.674731 
L 484.401951 65.674731 
L 493.112195 65.674731 
L 501.822439 65.674731 
L 510.532683 56.203966 
L 519.242927 56.203966 
L 527.953171 56.203966 
L 536.663415 56.203966 
L 545.373659 56.203966 
L 554.083902 56.203966 
L 562.794146 55.354094 
L 571.50439 55.354094 
L 580.214634 55.354094 
L 588.924878 55.354094 
L 597.635122 55.354094 
L 606.345366 54.184409 
L 615.05561 54.184409 
L 615.05561 0.508525 
L 615.05561 0.508525 
L 606.345366 0.508525 
L 597.635122 0.991919 
L 588.924878 0.991919 
L 580.214634 0.991919 
L 571.50439 0.991919 
L 562.794146 0.991919 
L 554.083902 2.108789 
L 545.373659 2.108789 
L 536.663415 2.108789 
L 527.953171 2.108789 
L 519.242927 2.108789 
L 510.532683 2.108789 
L 501.822439 12.517484 
L 493.112195 12.517484 
L 484.401951 12.517484 
L 475.691707 12.517484 
L 466.981463 12.517484 
L 458.27122 12.517484 
L 449.560976 12.517484 
L 440.850732 30.758192 
L 432.140488 30.758192 
L 423.430244 34.187514 
L 414.72 38.97574 
L 406.009756 39.421688 
L 397.299512 39.421688 
L 388.589268 39.421688 
L 379.879024 39.421688 
L 371.16878 39.421688 
L 362.458537 49.148925 
L 353.748293 49.148925 
L 345.038049 53.396943 
L 336.327805 53.396943 
L 327.617561 53.396943 
L 318.907317 53.396943 
L 310.197073 53.396943 
L 301.486829 53.396943 
L 292.776585 60.234718 
L 284.066341 60.934106 
L 275.356098 60.934106 
L 266.645854 60.934106 
L 257.93561 60.934106 
L 249.225366 60.934106 
L 240.515122 60.934106 
L 231.804878 60.934106 
L 223.094634 60.934106 
L 214.38439 60.934106 
L 205.674146 60.934106 
L 196.963902 63.011554 
L 188.253659 63.011554 
L 179.543415 63.011554 
L 170.833171 63.782948 
L 162.122927 63.782948 
L 153.412683 96.725585 
L 144.702439 96.725585 
L 135.992195 108.719231 
L 127.281951 108.719231 
L 118.571707 109.289157 
L 109.861463 109.877331 
L 101.15122 110.51502 
L 92.440976 112.860549 
L 83.730732 135.998741 
L 75.020488 135.998741 
L 66.310244 136.257519 
L 57.6 158.021176 
z
" clip-path="url(#p88e9164190)" style="fill: #008000; fill-opacity: 0.2; stroke: #008000; stroke-opacity: 0.2"/>
   </g>
   <g id="FillBetweenPolyCollection_2">
    <path d="M 57.6 282.348498 
L 57.6 284.690725 
L 66.310244 278.379194 
L 75.020488 274.976131 
L 83.730732 272.337439 
L 92.440976 269.025468 
L 101.15122 265.968673 
L 109.861463 263.420479 
L 118.571707 261.124988 
L 127.281951 258.571786 
L 135.992195 256.413762 
L 144.702439 253.209112 
L 153.412683 251.122695 
L 162.122927 247.529861 
L 170.833171 246.194199 
L 179.543415 244.57754 
L 188.253659 243.066471 
L 196.963902 242.329229 
L 205.674146 240.844458 
L 214.38439 239.848713 
L 223.094634 238.221127 
L 231.804878 237.506843 
L 240.515122 235.736746 
L 249.225366 235.004326 
L 257.93561 233.79406 
L 266.645854 233.128043 
L 275.356098 232.321566 
L 284.066341 231.089115 
L 292.776585 229.781958 
L 301.486829 227.89763 
L 310.197073 226.876787 
L 318.907317 225.83239 
L 327.617561 225.352754 
L 336.327805 223.788302 
L 345.038049 222.607671 
L 353.748293 221.221498 
L 362.458537 220.039958 
L 371.16878 218.526579 
L 379.879024 218.024163 
L 388.589268 216.652731 
L 397.299512 216.04479 
L 406.009756 214.427966 
L 414.72 213.387446 
L 423.430244 212.245475 
L 432.140488 211.430992 
L 440.850732 210.447951 
L 449.560976 209.042076 
L 458.27122 208.050992 
L 466.981463 206.825068 
L 475.691707 205.616525 
L 484.401951 204.857616 
L 493.112195 204.66298 
L 501.822439 204.513411 
L 510.532683 203.278141 
L 519.242927 202.535915 
L 527.953171 202.264147 
L 536.663415 202.005721 
L 545.373659 201.057783 
L 554.083902 200.372297 
L 562.794146 197.722488 
L 571.50439 197.194428 
L 580.214634 196.703981 
L 588.924878 195.625586 
L 597.635122 194.852725 
L 606.345366 193.73187 
L 615.05561 192.511672 
L 615.05561 165.236727 
L 615.05561 165.236727 
L 606.345366 166.517599 
L 597.635122 168.001534 
L 588.924878 169.006883 
L 580.214634 170.144302 
L 571.50439 171.626802 
L 562.794146 173.653007 
L 554.083902 177.236787 
L 545.373659 177.784853 
L 536.663415 179.584877 
L 527.953171 179.896432 
L 519.242927 180.135464 
L 510.532683 181.250053 
L 501.822439 183.495409 
L 493.112195 183.604777 
L 484.401951 183.784917 
L 475.691707 184.789105 
L 466.981463 186.258796 
L 458.27122 187.365695 
L 449.560976 189.005081 
L 440.850732 190.332459 
L 432.140488 191.737655 
L 423.430244 192.518111 
L 414.72 194.139959 
L 406.009756 194.964327 
L 397.299512 196.153843 
L 388.589268 197.735011 
L 379.879024 198.734606 
L 371.16878 200.698135 
L 362.458537 203.059846 
L 353.748293 204.32258 
L 345.038049 209.998036 
L 336.327805 212.191973 
L 327.617561 213.776977 
L 318.907317 216.392186 
L 310.197073 217.772334 
L 301.486829 218.837536 
L 292.776585 221.611573 
L 284.066341 224.082413 
L 275.356098 225.117487 
L 266.645854 226.026208 
L 257.93561 227.08978 
L 249.225366 228.373866 
L 240.515122 229.127948 
L 231.804878 230.819262 
L 223.094634 231.495787 
L 214.38439 232.715086 
L 205.674146 233.795723 
L 196.963902 235.057892 
L 188.253659 236.39415 
L 179.543415 237.861784 
L 170.833171 239.637213 
L 162.122927 242.168609 
L 153.412683 245.728271 
L 144.702439 247.724795 
L 135.992195 251.129386 
L 127.281951 252.953059 
L 118.571707 255.518853 
L 109.861463 257.455274 
L 101.15122 260.199001 
L 92.440976 264.146707 
L 83.730732 268.132448 
L 75.020488 271.027579 
L 66.310244 273.942763 
L 57.6 282.348498 
z
" clip-path="url(#p88e9164190)" style="fill: #0000ff; fill-opacity: 0.2; stroke: #0000ff; stroke-opacity: 0.2"/>
   </g>
   <g id="FillBetweenPolyCollection_3">
    <path d="M 57.6 304.594336 
L 57.6 305.013113 
L 66.310244 300.530052 
L 75.020488 296.265726 
L 83.730732 293.717475 
L 92.440976 290.790491 
L 101.15122 288.565144 
L 109.861463 286.554887 
L 118.571707 284.643039 
L 127.281951 282.955661 
L 135.992195 281.62421 
L 144.702439 279.838109 
L 153.412683 278.048553 
L 162.122927 276.535399 
L 170.833171 275.091956 
L 179.543415 273.456714 
L 188.253659 271.970956 
L 196.963902 271.073843 
L 205.674146 269.803326 
L 214.38439 268.982613 
L 223.094634 267.53123 
L 231.804878 266.773261 
L 240.515122 264.879344 
L 249.225366 264.171817 
L 257.93561 263.687993 
L 266.645854 263.036953 
L 275.356098 262.597688 
L 284.066341 261.842566 
L 292.776585 260.688389 
L 301.486829 259.186755 
L 310.197073 258.197602 
L 318.907317 257.656112 
L 327.617561 257.21926 
L 336.327805 255.878567 
L 345.038049 255.127016 
L 353.748293 253.887483 
L 362.458537 252.833723 
L 371.16878 252.063035 
L 379.879024 251.385779 
L 388.589268 250.550606 
L 397.299512 249.804517 
L 406.009756 249.140052 
L 414.72 248.679926 
L 423.430244 247.852708 
L 432.140488 247.142683 
L 440.850732 246.687629 
L 449.560976 245.920357 
L 458.27122 244.866364 
L 466.981463 244.108149 
L 475.691707 243.126896 
L 484.401951 241.757367 
L 493.112195 241.351192 
L 501.822439 240.84078 
L 510.532683 240.570137 
L 519.242927 240.382598 
L 527.953171 239.846871 
L 536.663415 239.768046 
L 545.373659 239.372758 
L 554.083902 238.780551 
L 562.794146 238.296012 
L 571.50439 237.603446 
L 580.214634 237.448137 
L 588.924878 236.645696 
L 597.635122 235.657506 
L 606.345366 235.095008 
L 615.05561 233.98613 
L 615.05561 218.103204 
L 615.05561 218.103204 
L 606.345366 219.179403 
L 597.635122 220.953007 
L 588.924878 221.900928 
L 580.214634 222.551181 
L 571.50439 223.335356 
L 562.794146 224.164995 
L 554.083902 226.414376 
L 545.373659 227.011671 
L 536.663415 227.920177 
L 527.953171 228.449965 
L 519.242927 228.97237 
L 510.532683 229.895621 
L 501.822439 231.199168 
L 493.112195 231.624759 
L 484.401951 232.2811 
L 475.691707 233.487776 
L 466.981463 235.384941 
L 458.27122 235.979158 
L 449.560976 238.460967 
L 440.850732 238.960863 
L 432.140488 239.714068 
L 423.430244 240.272581 
L 414.72 241.344167 
L 406.009756 241.761518 
L 397.299512 242.193761 
L 388.589268 243.241552 
L 379.879024 243.823046 
L 371.16878 244.737597 
L 362.458537 245.867848 
L 353.748293 248.752269 
L 345.038049 250.260271 
L 336.327805 251.776994 
L 327.617561 252.927695 
L 318.907317 254.107848 
L 310.197073 254.506995 
L 301.486829 255.772716 
L 292.776585 257.460844 
L 284.066341 258.797073 
L 275.356098 259.399187 
L 266.645854 259.973691 
L 257.93561 260.668742 
L 249.225366 261.40001 
L 240.515122 262.311852 
L 231.804878 263.553582 
L 223.094634 264.655782 
L 214.38439 265.313114 
L 205.674146 266.349015 
L 196.963902 267.572207 
L 188.253659 268.719082 
L 179.543415 270.216999 
L 170.833171 271.80208 
L 162.122927 273.252518 
L 153.412683 274.85089 
L 144.702439 276.704157 
L 135.992195 278.894366 
L 127.281951 280.465586 
L 118.571707 282.500927 
L 109.861463 284.788049 
L 101.15122 286.620023 
L 92.440976 288.924969 
L 83.730732 291.970057 
L 75.020488 294.613366 
L 66.310244 299.502251 
L 57.6 304.594336 
z
" clip-path="url(#p88e9164190)" style="fill: #ff0000; fill-opacity: 0.2; stroke: #ff0000; stroke-opacity: 0.2"/>
   </g>
   <g id="matplotlib.axis_1">
    <g id="xtick_1">
     <g id="line2d_1">
      <defs>
       <path id="m4b4feb2d31" d="M 0 0 
L 0 3.5 
" style="stroke: #000000; stroke-width: 0.8"/>
      </defs>
      <g>
       <use xlink:href="#m4b4feb2d31" x="57.6" y="307.584" style="stroke: #000000; stroke-width: 0.8"/>
      </g>
     </g>
     <g id="text_1">
      <!-- 0 -->
      <g transform="translate(54.41875 322.182437) scale(0.1 -0.1)">
       <defs>
        <path id="DejaVuSans-30" d="M 2034 4250 
Q 1547 4250 1301 3770 
Q 1056 3291 1056 2328 
Q 1056 1369 1301 889 
Q 1547 409 2034 409 
Q 2525 409 2770 889 
Q 3016 1369 3016 2328 
Q 3016 3291 2770 3770 
Q 2525 4250 2034 4250 
z
M 2034 4750 
Q 2819 4750 3233 4129 
Q 3647 3509 3647 2328 
Q 3647 1150 3233 529 
Q 2819 -91 2034 -91 
Q 1250 -91 836 529 
Q 422 1150 422 2328 
Q 422 3509 836 4129 
Q 1250 4750 2034 4750 
z
" transform="scale(0.015625)"/>
       </defs>
       <use xlink:href="#DejaVuSans-30"/>
      </g>
     </g>
    </g>
    <g id="xtick_2">
     <g id="line2d_2">
      <g>
       <use xlink:href="#m4b4feb2d31" x="101.15122" y="307.584" style="stroke: #000000; stroke-width: 0.8"/>
      </g>
     </g>
     <g id="text_2">
      <!-- 5 -->
      <g transform="translate(97.96997 322.182437) scale(0.1 -0.1)">
       <defs>
        <path id="DejaVuSans-35" d="M 691 4666 
L 3169 4666 
L 3169 4134 
L 1269 4134 
L 1269 2991 
Q 1406 3038 1543 3061 
Q 1681 3084 1819 3084 
Q 2600 3084 3056 2656 
Q 3513 2228 3513 1497 
Q 3513 744 3044 326 
Q 2575 -91 1722 -91 
Q 1428 -91 1123 -41 
Q 819 9 494 109 
L 494 744 
Q 775 591 1075 516 
Q 1375 441 1709 441 
Q 2250 441 2565 725 
Q 2881 1009 2881 1497 
Q 2881 1984 2565 2268 
Q 2250 2553 1709 2553 
Q 1456 2553 1204 2497 
Q 953 2441 691 2322 
L 691 4666 
z
" transform="scale(0.015625)"/>
       </defs>
       <use xlink:href="#DejaVuSans-35"/>
      </g>
     </g>
    </g>
    <g id="xtick_3">
     <g id="line2d_3">
      <g>
       <use xlink:href="#m4b4feb2d31" x="144.702439" y="307.584" style="stroke: #000000; stroke-width: 0.8"/>
      </g>
     </g>
     <g id="text_3">
      <!-- 10 -->
      <g transform="translate(138.339939 322.182437) scale(0.1 -0.1)">
       <defs>
        <path id="DejaVuSans-31" d="M 794 531 
L 1825 531 
L 1825 4091 
L 703 3866 
L 703 4441 
L 1819 4666 
L 2450 4666 
L 2450 531 
L 3481 531 
L 3481 0 
L 794 0 
L 794 531 
z
" transform="scale(0.015625)"/>
       </defs>
       <use xlink:href="#DejaVuSans-31"/>
       <use xlink:href="#DejaVuSans-30" transform="translate(63.623047 0)"/>
      </g>
     </g>
    </g>
    <g id="xtick_4">
     <g id="line2d_4">
      <g>
       <use xlink:href="#m4b4feb2d31" x="188.253659" y="307.584" style="stroke: #000000; stroke-width: 0.8"/>
      </g>
     </g>
     <g id="text_4">
      <!-- 15 -->
      <g transform="translate(181.891159 322.182437) scale(0.1 -0.1)">
       <use xlink:href="#DejaVuSans-31"/>
       <use xlink:href="#DejaVuSans-35" transform="translate(63.623047 0)"/>
      </g>
     </g>
    </g>
    <g id="xtick_5">
     <g id="line2d_5">
      <g>
       <use xlink:href="#m4b4feb2d31" x="231.804878" y="307.584" style="stroke: #000000; stroke-width: 0.8"/>
      </g>
     </g>
     <g id="text_5">
      <!-- 20 -->
      <g transform="translate(225.442378 322.182437) scale(0.1 -0.1)">
       <defs>
        <path id="DejaVuSans-32" d="M 1228 531 
L 3431 531 
L 3431 0 
L 469 0 
L 469 531 
Q 828 903 1448 1529 
Q 2069 2156 2228 2338 
Q 2531 2678 2651 2914 
Q 2772 3150 2772 3378 
Q 2772 3750 2511 3984 
Q 2250 4219 1831 4219 
Q 1534 4219 1204 4116 
Q 875 4013 500 3803 
L 500 4441 
Q 881 4594 1212 4672 
Q 1544 4750 1819 4750 
Q 2544 4750 2975 4387 
Q 3406 4025 3406 3419 
Q 3406 3131 3298 2873 
Q 3191 2616 2906 2266 
Q 2828 2175 2409 1742 
Q 1991 1309 1228 531 
z
" transform="scale(0.015625)"/>
       </defs>
       <use xlink:href="#DejaVuSans-32"/>
       <use xlink:href="#DejaVuSans-30" transform="translate(63.623047 0)"/>
      </g>
     </g>
    </g>
    <g id="xtick_6">
     <g id="line2d_6">
      <g>
       <use xlink:href="#m4b4feb2d31" x="275.356098" y="307.584" style="stroke: #000000; stroke-width: 0.8"/>
      </g>
     </g>
     <g id="text_6">
      <!-- 25 -->
      <g transform="translate(268.993598 322.182437) scale(0.1 -0.1)">
       <use xlink:href="#DejaVuSans-32"/>
       <use xlink:href="#DejaVuSans-35" transform="translate(63.623047 0)"/>
      </g>
     </g>
    </g>
    <g id="xtick_7">
     <g id="line2d_7">
      <g>
       <use xlink:href="#m4b4feb2d31" x="318.907317" y="307.584" style="stroke: #000000; stroke-width: 0.8"/>
      </g>
     </g>
     <g id="text_7">
      <!-- 30 -->
      <g transform="translate(312.544817 322.182437) scale(0.1 -0.1)">
       <defs>
        <path id="DejaVuSans-33" d="M 2597 2516 
Q 3050 2419 3304 2112 
Q 3559 1806 3559 1356 
Q 3559 666 3084 287 
Q 2609 -91 1734 -91 
Q 1441 -91 1130 -33 
Q 819 25 488 141 
L 488 750 
Q 750 597 1062 519 
Q 1375 441 1716 441 
Q 2309 441 2620 675 
Q 2931 909 2931 1356 
Q 2931 1769 2642 2001 
Q 2353 2234 1838 2234 
L 1294 2234 
L 1294 2753 
L 1863 2753 
Q 2328 2753 2575 2939 
Q 2822 3125 2822 3475 
Q 2822 3834 2567 4026 
Q 2313 4219 1838 4219 
Q 1578 4219 1281 4162 
Q 984 4106 628 3988 
L 628 4550 
Q 988 4650 1302 4700 
Q 1616 4750 1894 4750 
Q 2613 4750 3031 4423 
Q 3450 4097 3450 3541 
Q 3450 3153 3228 2886 
Q 3006 2619 2597 2516 
z
" transform="scale(0.015625)"/>
       </defs>
       <use xlink:href="#DejaVuSans-33"/>
       <use xlink:href="#DejaVuSans-30" transform="translate(63.623047 0)"/>
      </g>
     </g>
    </g>
    <g id="xtick_8">
     <g id="line2d_8">
      <g>
       <use xlink:href="#m4b4feb2d31" x="362.458537" y="307.584" style="stroke: #000000; stroke-width: 0.8"/>
      </g>
     </g>
     <g id="text_8">
      <!-- 35 -->
      <g transform="translate(356.096037 322.182437) scale(0.1 -0.1)">
       <use xlink:href="#DejaVuSans-33"/>
       <use xlink:href="#DejaVuSans-35" transform="translate(63.623047 0)"/>
      </g>
     </g>
    </g>
    <g id="xtick_9">
     <g id="line2d_9">
      <g>
       <use xlink:href="#m4b4feb2d31" x="406.009756" y="307.584" style="stroke: #000000; stroke-width: 0.8"/>
      </g>
     </g>
     <g id="text_9">
      <!-- 40 -->
      <g transform="translate(399.647256 322.182437) scale(0.1 -0.1)">
       <defs>
        <path id="DejaVuSans-34" d="M 2419 4116 
L 825 1625 
L 2419 1625 
L 2419 4116 
z
M 2253 4666 
L 3047 4666 
L 3047 1625 
L 3713 1625 
L 3713 1100 
L 3047 1100 
L 3047 0 
L 2419 0 
L 2419 1100 
L 313 1100 
L 313 1709 
L 2253 4666 
z
" transform="scale(0.015625)"/>
       </defs>
       <use xlink:href="#DejaVuSans-34"/>
       <use xlink:href="#DejaVuSans-30" transform="translate(63.623047 0)"/>
      </g>
     </g>
    </g>
    <g id="text_10">
     <!-- Generation -->
     <g transform="translate(208.267031 335.860562) scale(0.1 -0.1)">
      <defs>
       <path id="DejaVuSans-47" d="M 3809 666 
L 3809 1919 
L 2778 1919 
L 2778 2438 
L 4434 2438 
L 4434 434 
Q 4069 175 3628 42 
Q 3188 -91 2688 -91 
Q 1594 -91 976 548 
Q 359 1188 359 2328 
Q 359 3472 976 4111 
Q 1594 4750 2688 4750 
Q 3144 4750 3555 4637 
Q 3966 4525 4313 4306 
L 4313 3634 
Q 3963 3931 3569 4081 
Q 3175 4231 2741 4231 
Q 1884 4231 1454 3753 
Q 1025 3275 1025 2328 
Q 1025 1384 1454 906 
Q 1884 428 2741 428 
Q 3075 428 3337 486 
Q 3600 544 3809 666 
z
" transform="scale(0.015625)"/>
       <path id="DejaVuSans-65" d="M 3597 1894 
L 3597 1613 
L 953 1613 
Q 991 1019 1311 708 
Q 1631 397 2203 397 
Q 2534 397 2845 478 
Q 3156 559 3463 722 
L 3463 178 
Q 3153 47 2828 -22 
Q 2503 -91 2169 -91 
Q 1331 -91 842 396 
Q 353 884 353 1716 
Q 353 2575 817 3079 
Q 1281 3584 2069 3584 
Q 2775 3584 3186 3129 
Q 3597 2675 3597 1894 
z
M 3022 2063 
Q 3016 2534 2758 2815 
Q 2500 3097 2075 3097 
Q 1594 3097 1305 2825 
Q 1016 2553 972 2059 
L 3022 2063 
z
" transform="scale(0.015625)"/>
       <path id="DejaVuSans-6e" d="M 3513 2113 
L 3513 0 
L 2938 0 
L 2938 2094 
Q 2938 2591 2744 2837 
Q 2550 3084 2163 3084 
Q 1697 3084 1428 2787 
Q 1159 2491 1159 1978 
L 1159 0 
L 581 0 
L 581 3500 
L 1159 3500 
L 1159 2956 
Q 1366 3272 1645 3428 
Q 1925 3584 2291 3584 
Q 2894 3584 3203 3211 
Q 3513 2838 3513 2113 
z
" transform="scale(0.015625)"/>
       <path id="DejaVuSans-72" d="M 2631 2963 
Q 2534 3019 2420 3045 
Q 2306 3072 2169 3072 
Q 1681 3072 1420 2755 
Q 1159 2438 1159 1844 
L 1159 0 
L 581 0 
L 581 3500 
L 1159 3500 
L 1159 2956 
Q 1341 3275 1631 3429 
Q 1922 3584 2338 3584 
Q 2397 3584 2469 3576 
Q 2541 3569 2628 3553 
L 2631 2963 
z
" transform="scale(0.015625)"/>
       <path id="DejaVuSans-61" d="M 2194 1759 
Q 1497 1759 1228 1600 
Q 959 1441 959 1056 
Q 959 750 1161 570 
Q 1363 391 1709 391 
Q 2188 391 2477 730 
Q 2766 1069 2766 1631 
L 2766 1759 
L 2194 1759 
z
M 3341 1997 
L 3341 0 
L 2766 0 
L 2766 531 
Q 2569 213 2275 61 
Q 1981 -91 1556 -91 
Q 1019 -91 701 211 
Q 384 513 384 1019 
Q 384 1609 779 1909 
Q 1175 2209 1959 2209 
L 2766 2209 
L 2766 2266 
Q 2766 2663 2505 2880 
Q 2244 3097 1772 3097 
Q 1472 3097 1187 3025 
Q 903 2953 641 2809 
L 641 3341 
Q 956 3463 1253 3523 
Q 1550 3584 1831 3584 
Q 2591 3584 2966 3190 
Q 3341 2797 3341 1997 
z
" transform="scale(0.015625)"/>
       <path id="DejaVuSans-74" d="M 1172 4494 
L 1172 3500 
L 2356 3500 
L 2356 3053 
L 1172 3053 
L 1172 1153 
Q 1172 725 1289 603 
Q 1406 481 1766 481 
L 2356 481 
L 2356 0 
L 1766 0 
Q 1100 0 847 248 
Q 594 497 594 1153 
L 594 3053 
L 172 3053 
L 172 3500 
L 594 3500 
L 594 4494 
L 1172 4494 
z
" transform="scale(0.015625)"/>
       <path id="DejaVuSans-69" d="M 603 3500 
L 1178 3500 
L 1178 0 
L 603 0 
L 603 3500 
z
M 603 4863 
L 1178 4863 
L 1178 4134 
L 603 4134 
L 603 4863 
z
" transform="scale(0.015625)"/>
       <path id="DejaVuSans-6f" d="M 1959 3097 
Q 1497 3097 1228 2736 
Q 959 2375 959 1747 
Q 959 1119 1226 758 
Q 1494 397 1959 397 
Q 2419 397 2687 759 
Q 2956 1122 2956 1747 
Q 2956 2369 2687 2733 
Q 2419 3097 1959 3097 
z
M 1959 3584 
Q 2709 3584 3137 3096 
Q 3566 2609 3566 1747 
Q 3566 888 3137 398 
Q 2709 -91 1959 -91 
Q 1206 -91 779 398 
Q 353 888 353 1747 
Q 353 2609 779 3096 
Q 1206 3584 1959 3584 
z
" transform="scale(0.015625)"/>
      </defs>
      <use xlink:href="#DejaVuSans-47"/>
      <use xlink:href="#DejaVuSans-65" transform="translate(77.490234 0)"/>
      <use xlink:href="#DejaVuSans-6e" transform="translate(139.013672 0)"/>
      <use xlink:href="#DejaVuSans-65" transform="translate(202.392578 0)"/>
      <use xlink:href="#DejaVuSans-72" transform="translate(263.916016 0)"/>
      <use xlink:href="#DejaVuSans-61" transform="translate(305.029297 0)"/>
      <use xlink:href="#DejaVuSans-74" transform="translate(366.308594 0)"/>
      <use xlink:href="#DejaVuSans-69" transform="translate(405.517578 0)"/>
      <use xlink:href="#DejaVuSans-6f" transform="translate(433.300781 0)"/>
      <use xlink:href="#DejaVuSans-6e" transform="translate(494.482422 0)"/>
     </g>
    </g>
   </g>
   <g id="matplotlib.axis_2">
    <g id="ytick_1">
     <g id="line2d_10">
      <defs>
       <path id="mcad69d9380" d="M 0 0 
L -3.5 0 
" style="stroke: #000000; stroke-width: 0.8"/>
      </defs>
      <g>
       <use xlink:href="#mcad69d9380" x="57.6" y="307.584" style="stroke: #000000; stroke-width: 0.8"/>
      </g>
     </g>
     <g id="text_11">
      <!-- 0 -->
      <g transform="translate(44.2375 311.383219) scale(0.1 -0.1)">
       <use xlink:href="#DejaVuSans-30"/>
      </g>
     </g>
    </g>
    <g id="ytick_2">
     <g id="line2d_11">
      <g>
       <use xlink:href="#mcad69d9380" x="57.6" y="254.3616" style="stroke: #000000; stroke-width: 0.8"/>
      </g>
     </g>
     <g id="text_12">
      <!-- 2 -->
      <g transform="translate(44.2375 258.160819) scale(0.1 -0.1)">
       <use xlink:href="#DejaVuSans-32"/>
      </g>
     </g>
    </g>
    <g id="ytick_3">
     <g id="line2d_12">
      <g>
       <use xlink:href="#mcad69d9380" x="57.6" y="201.1392" style="stroke: #000000; stroke-width: 0.8"/>
      </g>
     </g>
     <g id="text_13">
      <!-- 4 -->
      <g transform="translate(44.2375 204.938419) scale(0.1 -0.1)">
       <use xlink:href="#DejaVuSans-34"/>
      </g>
     </g>
    </g>
    <g id="ytick_4">
     <g id="line2d_13">
      <g>
       <use xlink:href="#mcad69d9380" x="57.6" y="147.9168" style="stroke: #000000; stroke-width: 0.8"/>
      </g>
     </g>
     <g id="text_14">
      <!-- 6 -->
      <g transform="translate(44.2375 151.716019) scale(0.1 -0.1)">
       <defs>
        <path id="DejaVuSans-36" d="M 2113 2584 
Q 1688 2584 1439 2293 
Q 1191 2003 1191 1497 
Q 1191 994 1439 701 
Q 1688 409 2113 409 
Q 2538 409 2786 701 
Q 3034 994 3034 1497 
Q 3034 2003 2786 2293 
Q 2538 2584 2113 2584 
z
M 3366 4563 
L 3366 3988 
Q 3128 4100 2886 4159 
Q 2644 4219 2406 4219 
Q 1781 4219 1451 3797 
Q 1122 3375 1075 2522 
Q 1259 2794 1537 2939 
Q 1816 3084 2150 3084 
Q 2853 3084 3261 2657 
Q 3669 2231 3669 1497 
Q 3669 778 3244 343 
Q 2819 -91 2113 -91 
Q 1303 -91 875 529 
Q 447 1150 447 2328 
Q 447 3434 972 4092 
Q 1497 4750 2381 4750 
Q 2619 4750 2861 4703 
Q 3103 4656 3366 4563 
z
" transform="scale(0.015625)"/>
       </defs>
       <use xlink:href="#DejaVuSans-36"/>
      </g>
     </g>
    </g>
    <g id="ytick_5">
     <g id="line2d_14">
      <g>
       <use xlink:href="#mcad69d9380" x="57.6" y="94.6944" style="stroke: #000000; stroke-width: 0.8"/>
      </g>
     </g>
     <g id="text_15">
      <!-- 8 -->
      <g transform="translate(44.2375 98.493619) scale(0.1 -0.1)">
       <defs>
        <path id="DejaVuSans-38" d="M 2034 2216 
Q 1584 2216 1326 1975 
Q 1069 1734 1069 1313 
Q 1069 891 1326 650 
Q 1584 409 2034 409 
Q 2484 409 2743 651 
Q 3003 894 3003 1313 
Q 3003 1734 2745 1975 
Q 2488 2216 2034 2216 
z
M 1403 2484 
Q 997 2584 770 2862 
Q 544 3141 544 3541 
Q 544 4100 942 4425 
Q 1341 4750 2034 4750 
Q 2731 4750 3128 4425 
Q 3525 4100 3525 3541 
Q 3525 3141 3298 2862 
Q 3072 2584 2669 2484 
Q 3125 2378 3379 2068 
Q 3634 1759 3634 1313 
Q 3634 634 3220 271 
Q 2806 -91 2034 -91 
Q 1263 -91 848 271 
Q 434 634 434 1313 
Q 434 1759 690 2068 
Q 947 2378 1403 2484 
z
M 1172 3481 
Q 1172 3119 1398 2916 
Q 1625 2713 2034 2713 
Q 2441 2713 2670 2916 
Q 2900 3119 2900 3481 
Q 2900 3844 2670 4047 
Q 2441 4250 2034 4250 
Q 1625 4250 1398 4047 
Q 1172 3844 1172 3481 
z
" transform="scale(0.015625)"/>
       </defs>
       <use xlink:href="#DejaVuSans-38"/>
      </g>
     </g>
    </g>
    <g id="ytick_6">
     <g id="line2d_15">
      <g>
       <use xlink:href="#mcad69d9380" x="57.6" y="41.472" style="stroke: #000000; stroke-width: 0.8"/>
      </g>
     </g>
     <g id="text_16">
      <!-- 10 -->
      <g transform="translate(37.875 45.271219) scale(0.1 -0.1)">
       <use xlink:href="#DejaVuSans-31"/>
       <use xlink:href="#DejaVuSans-30" transform="translate(63.623047 0)"/>
      </g>
     </g>
    </g>
    <g id="text_17">
     <!-- Average Fitness -->
     <g transform="translate(31.795312 213.967062) rotate(-90) scale(0.1 -0.1)">
      <defs>
       <path id="DejaVuSans-41" d="M 2188 4044 
L 1331 1722 
L 3047 1722 
L 2188 4044 
z
M 1831 4666 
L 2547 4666 
L 4325 0 
L 3669 0 
L 3244 1197 
L 1141 1197 
L 716 0 
L 50 0 
L 1831 4666 
z
" transform="scale(0.015625)"/>
       <path id="DejaVuSans-76" d="M 191 3500 
L 800 3500 
L 1894 563 
L 2988 3500 
L 3597 3500 
L 2284 0 
L 1503 0 
L 191 3500 
z
" transform="scale(0.015625)"/>
       <path id="DejaVuSans-67" d="M 2906 1791 
Q 2906 2416 2648 2759 
Q 2391 3103 1925 3103 
Q 1463 3103 1205 2759 
Q 947 2416 947 1791 
Q 947 1169 1205 825 
Q 1463 481 1925 481 
Q 2391 481 2648 825 
Q 2906 1169 2906 1791 
z
M 3481 434 
Q 3481 -459 3084 -895 
Q 2688 -1331 1869 -1331 
Q 1566 -1331 1297 -1286 
Q 1028 -1241 775 -1147 
L 775 -588 
Q 1028 -725 1275 -790 
Q 1522 -856 1778 -856 
Q 2344 -856 2625 -561 
Q 2906 -266 2906 331 
L 2906 616 
Q 2728 306 2450 153 
Q 2172 0 1784 0 
Q 1141 0 747 490 
Q 353 981 353 1791 
Q 353 2603 747 3093 
Q 1141 3584 1784 3584 
Q 2172 3584 2450 3431 
Q 2728 3278 2906 2969 
L 2906 3500 
L 3481 3500 
L 3481 434 
z
" transform="scale(0.015625)"/>
       <path id="DejaVuSans-20" transform="scale(0.015625)"/>
       <path id="DejaVuSans-46" d="M 628 4666 
L 3309 4666 
L 3309 4134 
L 1259 4134 
L 1259 2759 
L 3109 2759 
L 3109 2228 
L 1259 2228 
L 1259 0 
L 628 0 
L 628 4666 
z
" transform="scale(0.015625)"/>
       <path id="DejaVuSans-73" d="M 2834 3397 
L 2834 2853 
Q 2591 2978 2328 3040 
Q 2066 3103 1784 3103 
Q 1356 3103 1142 2972 
Q 928 2841 928 2578 
Q 928 2378 1081 2264 
Q 1234 2150 1697 2047 
L 1894 2003 
Q 2506 1872 2764 1633 
Q 3022 1394 3022 966 
Q 3022 478 2636 193 
Q 2250 -91 1575 -91 
Q 1294 -91 989 -36 
Q 684 19 347 128 
L 347 722 
Q 666 556 975 473 
Q 1284 391 1588 391 
Q 1994 391 2212 530 
Q 2431 669 2431 922 
Q 2431 1156 2273 1281 
Q 2116 1406 1581 1522 
L 1381 1569 
Q 847 1681 609 1914 
Q 372 2147 372 2553 
Q 372 3047 722 3315 
Q 1072 3584 1716 3584 
Q 2034 3584 2315 3537 
Q 2597 3491 2834 3397 
z
" transform="scale(0.015625)"/>
      </defs>
      <use xlink:href="#DejaVuSans-41"/>
      <use xlink:href="#DejaVuSans-76" transform="translate(62.533203 0)"/>
      <use xlink:href="#DejaVuSans-65" transform="translate(121.712891 0)"/>
      <use xlink:href="#DejaVuSans-72" transform="translate(183.236328 0)"/>
      <use xlink:href="#DejaVuSans-61" transform="translate(224.349609 0)"/>
      <use xlink:href="#DejaVuSans-67" transform="translate(285.628906 0)"/>
      <use xlink:href="#DejaVuSans-65" transform="translate(349.105469 0)"/>
      <use xlink:href="#DejaVuSans-20" transform="translate(410.628906 0)"/>
      <use xlink:href="#DejaVuSans-46" transform="translate(442.416016 0)"/>
      <use xlink:href="#DejaVuSans-69" transform="translate(492.685547 0)"/>
      <use xlink:href="#DejaVuSans-74" transform="translate(520.46875 0)"/>
      <use xlink:href="#DejaVuSans-6e" transform="translate(559.677734 0)"/>
      <use xlink:href="#DejaVuSans-65" transform="translate(623.056641 0)"/>
      <use xlink:href="#DejaVuSans-73" transform="translate(684.580078 0)"/>
      <use xlink:href="#DejaVuSans-73" transform="translate(736.679688 0)"/>
     </g>
    </g>
   </g>
   <g id="line2d_16">
    <path d="M 57.6 172.049569 
L 66.310244 152.71722 
L 75.020488 152.233692 
L 83.730732 152.233692 
L 92.440976 138.243831 
L 101.15122 135.49112 
L 109.861463 134.507375 
L 118.571707 133.509205 
L 127.281951 132.880713 
L 135.992195 132.880713 
L 144.702439 119.842038 
L 153.412683 119.842038 
L 162.122927 88.98097 
L 170.833171 88.98097 
L 179.543415 87.950507 
L 188.253659 87.950507 
L 196.963902 87.950507 
L 205.674146 86.0298 
L 214.38439 86.0298 
L 223.094634 86.0298 
L 231.804878 86.0298 
L 240.515122 86.0298 
L 249.225366 86.0298 
L 257.93561 86.0298 
L 266.645854 86.0298 
L 275.356098 86.0298 
L 284.066341 86.0298 
L 292.776585 85.130749 
L 301.486829 76.055865 
L 310.197073 76.055865 
L 318.907317 76.055865 
L 327.617561 76.055865 
L 336.327805 76.055865 
L 345.038049 76.055865 
L 353.748293 73.495853 
L 362.458537 73.495853 
L 371.16878 64.74389 
L 379.879024 64.74389 
L 388.589268 64.74389 
L 397.299512 64.74389 
L 406.009756 64.74389 
L 414.72 64.130549 
L 423.430244 58.269966 
L 432.140488 53.907529 
L 440.850732 53.907529 
L 449.560976 39.096108 
L 458.27122 39.096108 
L 461.8 39.096108 
" clip-path="url(#p88e9164190)" style="fill: none; stroke: #008000; stroke-width: 1.5; stroke-linecap: square"/>
   </g>
   <g id="line2d_17">
    <path d="M 57.6 283.519612 
L 66.310244 276.160978 
L 75.020488 273.001855 
L 83.730732 270.234944 
L 92.440976 266.586088 
L 101.15122 263.083837 
L 109.861463 260.437876 
L 118.571707 258.321921 
L 127.281951 255.762422 
L 135.992195 253.771574 
L 144.702439 250.466953 
L 153.412683 248.425483 
L 162.122927 244.849235 
L 170.833171 242.915706 
L 179.543415 241.219662 
L 188.253659 239.730311 
L 196.963902 238.693561 
L 205.674146 237.320091 
L 214.38439 236.281899 
L 223.094634 234.858457 
L 231.804878 234.163052 
L 240.515122 232.432347 
L 249.225366 231.689096 
L 257.93561 230.44192 
L 266.645854 229.577126 
L 275.356098 228.719527 
L 284.066341 227.585764 
L 292.776585 225.696765 
L 301.486829 223.367583 
L 310.197073 222.324561 
L 318.907317 221.112288 
L 327.617561 219.564865 
L 336.327805 217.990137 
L 345.038049 216.302854 
L 353.748293 212.772039 
L 362.458537 211.549902 
L 371.16878 209.612357 
L 379.879024 208.379385 
L 388.589268 207.193871 
L 397.299512 206.099316 
L 406.009756 204.696146 
L 414.72 203.763702 
L 423.430244 202.381793 
L 432.140488 201.584324 
L 440.850732 200.390205 
L 449.560976 199.023578 
L 458.27122 197.708344 
L 461.8 197.235795 
" clip-path="url(#p88e9164190)" style="fill: none; stroke: #0000ff; stroke-width: 1.5; stroke-linecap: square"/>
   </g>
   <g id="line2d_18">
    <path d="M 57.6 304.803724 
L 66.310244 300.016151 
L 75.020488 295.439546 
L 83.730732 292.843766 
L 92.440976 289.85773 
L 101.15122 287.592584 
L 109.861463 285.671468 
L 118.571707 283.571983 
L 127.281951 281.710624 
L 135.992195 280.259288 
L 144.702439 278.271133 
L 153.412683 276.449721 
L 162.122927 274.893959 
L 170.833171 273.447018 
L 179.543415 271.836856 
L 188.253659 270.345019 
L 196.963902 269.323025 
L 205.674146 268.07617 
L 214.38439 267.147863 
L 223.094634 266.093506 
L 231.804878 265.163421 
L 240.515122 263.595598 
L 249.225366 262.785913 
L 257.93561 262.178367 
L 266.645854 261.505322 
L 275.356098 260.998437 
L 284.066341 260.31982 
L 292.776585 259.074617 
L 301.486829 257.479735 
L 310.197073 256.352298 
L 318.907317 255.88198 
L 327.617561 255.073477 
L 336.327805 253.827781 
L 345.038049 252.693644 
L 353.748293 251.319876 
L 362.458537 249.350785 
L 371.16878 248.400316 
L 379.879024 247.604412 
L 388.589268 246.896079 
L 397.299512 245.999139 
L 406.009756 245.450785 
L 414.72 245.012047 
L 423.430244 244.062645 
L 432.140488 243.428375 
L 440.850732 242.824246 
L 449.560976 242.190662 
L 458.27122 240.422761 
L 461.8 240.148806 
" clip-path="url(#p88e9164190)" style="fill: none; stroke: #ff0000; stroke-width: 1.5; stroke-linecap: square"/>
   </g>
   <g id="line2d_19">
    <path d="M 57.6 283.519612 
L 66.310244 276.160978 
L 75.020488 273.001855 
L 83.730732 270.234944 
L 92.440976 266.586088 
L 101.15122 263.083837 
L 109.861463 260.437876 
L 118.571707 258.321921 
L 127.281951 255.762422 
L 135.992195 253.771574 
L 144.702439 250.466953 
L 153.412683 248.425483 
L 162.122927 244.849235 
L 170.833171 242.915706 
L 179.543415 241.219662 
L 188.253659 239.730311 
L 196.963902 238.693561 
L 205.674146 237.320091 
L 214.38439 236.281899 
L 223.094634 234.858457 
L 231.804878 234.163052 
L 240.515122 232.432347 
L 249.225366 231.689096 
L 257.93561 230.44192 
L 266.645854 229.577126 
L 275.356098 228.719527 
L 284.066341 227.585764 
L 292.776585 225.696765 
L 301.486829 223.367583 
L 310.197073 222.324561 
L 318.907317 221.112288 
L 327.617561 219.564865 
L 336.327805 217.990137 
L 345.038049 216.302854 
L 353.748293 212.772039 
L 362.458537 211.549902 
L 371.16878 209.612357 
L 379.879024 208.379385 
L 388.589268 207.193871 
L 397.299512 206.099316 
L 406.009756 204.696146 
L 414.72 203.763702 
L 423.430244 202.381793 
L 432.140488 201.584324 
L 440.850732 200.390205 
L 449.560976 199.023578 
L 458.27122 197.708344 
L 461.8 197.235795 
" clip-path="url(#p88e9164190)" style="fill: none; stroke: #0000ff; stroke-width: 1.5; stroke-linecap: square"/>
   </g>
   <g id="line2d_20">
    <path d="M 57.6 304.803724 
L 66.310244 300.016151 
L 75.020488 295.439546 
L 83.730732 292.843766 
L 92.440976 289.85773 
L 101.15122 287.592584 
L 109.861463 285.671468 
L 118.571707 283.571983 
L 127.281951 281.710624 
L 135.992195 280.259288 
L 144.702439 278.271133 
L 153.412683 276.449721 
L 162.122927 274.893959 
L 170.833171 273.447018 
L 179.543415 271.836856 
L 188.253659 270.345019 
L 196.963902 269.323025 
L 205.674146 268.07617 
L 214.38439 267.147863 
L 223.094634 266.093506 
L 231.804878 265.163421 
L 240.515122 263.595598 
L 249.225366 262.785913 
L 257.93561 262.178367 
L 266.645854 261.505322 
L 275.356098 260.998437 
L 284.066341 260.31982 
L 292.776585 259.074617 
L 301.486829 257.479735 
L 310.197073 256.352298 
L 318.907317 255.88198 
L 327.617561 255.073477 
L 336.327805 253.827781 
L 345.038049 252.693644 
L 353.748293 251.319876 
L 362.458537 249.350785 
L 371.16878 248.400316 
L 379.879024 247.604412 
L 388.589268 246.896079 
L 397.299512 245.999139 
L 406.009756 245.450785 
L 414.72 245.012047 
L 423.430244 244.062645 
L 432.140488 243.428375 
L 440.850732 242.824246 
L 449.560976 242.190662 
L 458.27122 240.422761 
L 461.8 240.148806 
" clip-path="url(#p88e9164190)" style="fill: none; stroke: #ff0000; stroke-width: 1.5; stroke-linecap: square"/>
   </g>
   <g id="patch_3">
    <path d="M 57.6 307.584 
L 57.6 41.472 
" style="fill: none; stroke: #000000; stroke-width: 0.8; stroke-linejoin: miter; stroke-linecap: square"/>
   </g>
   <g id="patch_4">
    <path d="M 414.72 307.584 
L 414.72 41.472 
" style="fill: none; stroke: #000000; stroke-width: 0.8; stroke-linejoin: miter; stroke-linecap: square"/>
   </g>
   <g id="patch_5">
    <path d="M 57.6 307.584 
L 414.72 307.584 
" style="fill: none; stroke: #000000; stroke-width: 0.8; stroke-linejoin: miter; stroke-linecap: square"/>
   </g>
   <g id="patch_6">
    <path d="M 57.6 41.472 
L 414.72 41.472 
" style="fill: none; stroke: #000000; stroke-width: 0.8; stroke-linejoin: miter; stroke-linecap: square"/>
   </g>
  </g>
 </g>
 <defs>
  <clipPath id="p88e9164190">
   <rect x="57.6" y="41.472" width="357.12" height="266.112"/>
  </clipPath>
 </defs>
</svg>
