<?xml version="1.0" encoding="utf-8" standalone="no"?>
<!DOCTYPE svg PUBLIC "-//W3C//DTD SVG 1.1//EN"
  "http://www.w3.org/Graphics/SVG/1.1/DTD/svg11.dtd">
<svg xmlns:xlink="http://www.w3.org/1999/xlink" width="460.8pt" height="345.6pt" viewBox="0 0 460.8 345.6" xmlns="http://www.w3.org/2000/svg" version="1.1">
 <metadata>
  <rdf:RDF xmlns:dc="http://purl.org/dc/elements/1.1/" xmlns:cc="http://creativecommons.org/ns#" xmlns:rdf="http://www.w3.org/1999/02/22-rdf-syntax-ns#">
   <cc:Work>
    <dc:type rdf:resource="http://purl.org/dc/dcmitype/StillImage"/>
    <dc:date>2025-11-13T11:20:24.322589</dc:date>
    <dc:format>image/svg+xml</dc:format>
    <dc:creator>
     <cc:Agent>
      <dc:title>Matplotlib v3.10.0, https://matplotlib.org/</dc:title>
     </cc:Agent>
    </dc:creator>
   </cc:Work>
  </rdf:RDF>
 </metadata>
 <defs>
  <style type="text/css">*{stroke-linejoin: round; stroke-linecap: butt}</style>
 </defs>
 <g id="figure_1">
  <g id="patch_1">
   <path d="M 0 345.6 
L 460.8 345.6 
L 460.8 0 
L 0 0 
z
" style="fill: #ffffff"/>
  </g>
  <g id="axes_1">
   <g id="patch_2">
    <path d="M 57.6 307.584 
L 414.72 307.584 
L 414.72 41.472 
L 57.6 41.472 
z
" style="fill: #ffffff"/>
   </g>
   <g id="FillBetweenPolyCollection_1">
    <defs>
     <path id="m896d1335ee" d="M 73.832727 -151.805159 
L 73.832727 -134.078805 
L 81.949091 -143.212948 
L 90.065455 -161.794783 
L 98.181818 -180.484607 
L 106.298182 -192.024565 
L 114.414545 -197.395865 
L 122.530909 -200.671632 
L 130.647273 -211.00716 
L 138.763636 -211.00716 
L 146.88 -211.00716 
L 154.996364 -211.00716 
L 163.112727 -228.818576 
L 171.229091 -228.818576 
L 179.345455 -230.335178 
L 187.461818 -236.805428 
L 195.578182 -236.805428 
L 203.694545 -236.805428 
L 211.810909 -236.805428 
L 219.927273 -236.805428 
L 228.043636 -236.805428 
L 236.16 -236.805428 
L 244.276364 -236.805428 
L 252.392727 -237.618426 
L 260.509091 -237.618426 
L 268.625455 -237.618426 
L 276.741818 -237.618426 
L 284.858182 -239.556216 
L 292.974545 -245.2231 
L 301.090909 -249.522386 
L 309.207273 -249.522386 
L 317.323636 -249.522386 
L 325.44 -249.522386 
L 333.556364 -249.522386 
L 341.672727 -253.175817 
L 349.789091 -253.175817 
L 357.905455 -253.175817 
L 366.021818 -253.175817 
L 374.138182 -253.175817 
L 382.254545 -254.533611 
L 390.370909 -257.263934 
L 398.487273 -257.263934 
L 398.487273 -292.032 
L 398.487273 -292.032 
L 390.370909 -292.032 
L 382.254545 -289.416157 
L 374.138182 -288.555685 
L 366.021818 -288.555685 
L 357.905455 -288.555685 
L 349.789091 -288.555685 
L 341.672727 -288.555685 
L 333.556364 -284.374507 
L 325.44 -284.374507 
L 317.323636 -284.374507 
L 309.207273 -284.374507 
L 301.090909 -284.374507 
L 292.974545 -281.19319 
L 284.858182 -278.20522 
L 276.741818 -276.922778 
L 268.625455 -276.922778 
L 260.509091 -276.922778 
L 252.392727 -276.922778 
L 244.276364 -276.562441 
L 236.16 -276.562441 
L 228.043636 -276.562441 
L 219.927273 -276.562441 
L 211.810909 -276.562441 
L 203.694545 -276.562441 
L 195.578182 -276.562441 
L 187.461818 -276.562441 
L 179.345455 -274.304215 
L 171.229091 -272.824997 
L 163.112727 -272.824997 
L 154.996364 -250.859623 
L 146.88 -250.859623 
L 138.763636 -250.859623 
L 130.647273 -250.859623 
L 122.530909 -240.959574 
L 114.414545 -237.822298 
L 106.298182 -235.313215 
L 98.181818 -225.713161 
L 90.065455 -211.182452 
L 81.949091 -192.35969 
L 73.832727 -151.805159 
z
" style="stroke: #008000; stroke-opacity: 0.2"/>
    </defs>
    <g clip-path="url(#p6c2a2aaa5d)">
     <use xlink:href="#m896d1335ee" x="0" y="345.6" style="fill: #008000; fill-opacity: 0.2; stroke: #008000; stroke-opacity: 0.2"/>
    </g>
   </g>
   <g id="FillBetweenPolyCollection_2">
    <defs>
     <path id="mbce2c389b2" d="M 73.832727 -75.114642 
L 73.832727 -72.33194 
L 81.949091 -78.611607 
L 90.065455 -84.740387 
L 98.181818 -90.43275 
L 106.298182 -94.865315 
L 114.414545 -98.153335 
L 122.530909 -101.505994 
L 130.647273 -104.190961 
L 138.763636 -106.710407 
L 146.88 -109.108677 
L 154.996364 -111.481573 
L 163.112727 -116.144068 
L 171.229091 -117.856027 
L 179.345455 -119.099868 
L 187.461818 -123.317806 
L 195.578182 -125.352923 
L 203.694545 -127.486234 
L 211.810909 -129.943886 
L 219.927273 -131.349891 
L 228.043636 -133.864178 
L 236.16 -136.153353 
L 244.276364 -136.891861 
L 252.392727 -138.984038 
L 260.509091 -140.767689 
L 268.625455 -141.476409 
L 276.741818 -142.931769 
L 284.858182 -144.567816 
L 292.974545 -145.771934 
L 301.090909 -147.81365 
L 309.207273 -149.40328 
L 317.323636 -151.130898 
L 325.44 -152.269738 
L 333.556364 -153.497343 
L 341.672727 -155.041866 
L 349.789091 -156.061954 
L 357.905455 -156.768537 
L 366.021818 -157.42656 
L 374.138182 -159.253354 
L 382.254545 -160.477809 
L 390.370909 -161.950971 
L 398.487273 -162.709819 
L 398.487273 -172.619425 
L 398.487273 -172.619425 
L 390.370909 -170.742516 
L 382.254545 -169.455137 
L 374.138182 -168.141868 
L 366.021818 -165.678502 
L 357.905455 -164.746309 
L 349.789091 -164.018432 
L 341.672727 -162.71127 
L 333.556364 -161.481111 
L 325.44 -159.76352 
L 317.323636 -158.266425 
L 309.207273 -156.324985 
L 301.090909 -155.030495 
L 292.974545 -153.535609 
L 284.858182 -152.2024 
L 276.741818 -149.996072 
L 268.625455 -148.406221 
L 260.509091 -147.776983 
L 252.392727 -146.159184 
L 244.276364 -144.080328 
L 236.16 -143.082252 
L 228.043636 -141.2597 
L 219.927273 -139.210432 
L 211.810909 -137.782417 
L 203.694545 -134.653843 
L 195.578182 -132.122769 
L 187.461818 -129.908075 
L 179.345455 -126.305708 
L 171.229091 -124.08948 
L 163.112727 -122.290982 
L 154.996364 -117.916037 
L 146.88 -115.164444 
L 138.763636 -112.336124 
L 130.647273 -109.955113 
L 122.530909 -107.526171 
L 114.414545 -103.767292 
L 106.298182 -101.264455 
L 98.181818 -95.719502 
L 90.065455 -89.599258 
L 81.949091 -83.173194 
L 73.832727 -75.114642 
z
" style="stroke: #0000ff; stroke-opacity: 0.2"/>
    </defs>
    <g clip-path="url(#p6c2a2aaa5d)">
     <use xlink:href="#mbce2c389b2" x="0" y="345.6" style="fill: #0000ff; fill-opacity: 0.2; stroke: #0000ff; stroke-opacity: 0.2"/>
    </g>
   </g>
   <g id="FillBetweenPolyCollection_3">
    <defs>
     <path id="m5acd18dce1" d="M 73.832727 -50.790262 
L 73.832727 -50.112 
L 81.949091 -56.529153 
L 90.065455 -61.294397 
L 98.181818 -65.90666 
L 106.298182 -69.810116 
L 114.414545 -73.50632 
L 122.530909 -76.318294 
L 130.647273 -78.865318 
L 138.763636 -81.206909 
L 146.88 -82.948579 
L 154.996364 -84.84626 
L 163.112727 -88.191264 
L 171.229091 -89.52187 
L 179.345455 -90.852049 
L 187.461818 -92.923298 
L 195.578182 -94.617093 
L 203.694545 -97.25522 
L 211.810909 -99.264857 
L 219.927273 -100.484754 
L 228.043636 -102.268828 
L 236.16 -103.936533 
L 244.276364 -105.476061 
L 252.392727 -107.060112 
L 260.509091 -108.136887 
L 268.625455 -108.462456 
L 276.741818 -111.255302 
L 284.858182 -113.240962 
L 292.974545 -114.28726 
L 301.090909 -114.9031 
L 309.207273 -116.232947 
L 317.323636 -117.923695 
L 325.44 -118.830097 
L 333.556364 -119.566769 
L 341.672727 -120.522578 
L 349.789091 -120.707122 
L 357.905455 -121.007807 
L 366.021818 -121.858571 
L 374.138182 -123.694464 
L 382.254545 -124.52327 
L 390.370909 -126.415486 
L 398.487273 -126.643928 
L 398.487273 -132.341093 
L 398.487273 -132.341093 
L 390.370909 -131.812865 
L 382.254545 -130.261586 
L 374.138182 -129.446347 
L 366.021818 -127.600391 
L 357.905455 -126.835338 
L 349.789091 -126.495815 
L 341.672727 -126.308759 
L 333.556364 -125.462122 
L 325.44 -124.54474 
L 317.323636 -123.49117 
L 309.207273 -121.710337 
L 301.090909 -120.822395 
L 292.974545 -120.389152 
L 284.858182 -119.459189 
L 276.741818 -117.448183 
L 268.625455 -114.488951 
L 260.509091 -114.218994 
L 252.392727 -113.469933 
L 244.276364 -111.877375 
L 236.16 -109.438771 
L 228.043636 -108.112973 
L 219.927273 -106.084623 
L 211.810909 -105.132626 
L 203.694545 -101.822592 
L 195.578182 -98.716495 
L 187.461818 -96.340597 
L 179.345455 -93.851838 
L 171.229091 -92.700217 
L 163.112727 -90.578113 
L 154.996364 -87.922096 
L 146.88 -85.988847 
L 138.763636 -83.810498 
L 130.647273 -81.573385 
L 122.530909 -78.757331 
L 114.414545 -75.916115 
L 106.298182 -72.321649 
L 98.181818 -67.915744 
L 90.065455 -62.889784 
L 81.949091 -57.68627 
L 73.832727 -50.790262 
z
" style="stroke: #ff0000; stroke-opacity: 0.2"/>
    </defs>
    <g clip-path="url(#p6c2a2aaa5d)">
     <use xlink:href="#m5acd18dce1" x="0" y="345.6" style="fill: #ff0000; fill-opacity: 0.2; stroke: #ff0000; stroke-opacity: 0.2"/>
    </g>
   </g>
   <g id="matplotlib.axis_1">
    <g id="xtick_1">
     <g id="line2d_1">
      <defs>
       <path id="m424c7f73f4" d="M 0 0 
L 0 3.5 
" style="stroke: #000000; stroke-width: 0.8"/>
      </defs>
      <g>
       <use xlink:href="#m424c7f73f4" x="73.832727" y="307.584" style="stroke: #000000; stroke-width: 0.8"/>
      </g>
     </g>
     <g id="text_1">
      <!-- 0 -->
      <g transform="translate(70.651477 322.182437) scale(0.1 -0.1)">
       <defs>
        <path id="DejaVuSans-30" d="M 2034 4250 
Q 1547 4250 1301 3770 
Q 1056 3291 1056 2328 
Q 1056 1369 1301 889 
Q 1547 409 2034 409 
Q 2525 409 2770 889 
Q 3016 1369 3016 2328 
Q 3016 3291 2770 3770 
Q 2525 4250 2034 4250 
z
M 2034 4750 
Q 2819 4750 3233 4129 
Q 3647 3509 3647 2328 
Q 3647 1150 3233 529 
Q 2819 -91 2034 -91 
Q 1250 -91 836 529 
Q 422 1150 422 2328 
Q 422 3509 836 4129 
Q 1250 4750 2034 4750 
z
" transform="scale(0.015625)"/>
       </defs>
       <use xlink:href="#DejaVuSans-30"/>
      </g>
     </g>
    </g>
    <g id="xtick_2">
     <g id="line2d_2">
      <g>
       <use xlink:href="#m424c7f73f4" x="114.414545" y="307.584" style="stroke: #000000; stroke-width: 0.8"/>
      </g>
     </g>
     <g id="text_2">
      <!-- 5 -->
      <g transform="translate(111.233295 322.182437) scale(0.1 -0.1)">
       <defs>
        <path id="DejaVuSans-35" d="M 691 4666 
L 3169 4666 
L 3169 4134 
L 1269 4134 
L 1269 2991 
Q 1406 3038 1543 3061 
Q 1681 3084 1819 3084 
Q 2600 3084 3056 2656 
Q 3513 2228 3513 1497 
Q 3513 744 3044 326 
Q 2575 -91 1722 -91 
Q 1428 -91 1123 -41 
Q 819 9 494 109 
L 494 744 
Q 775 591 1075 516 
Q 1375 441 1709 441 
Q 2250 441 2565 725 
Q 2881 1009 2881 1497 
Q 2881 1984 2565 2268 
Q 2250 2553 1709 2553 
Q 1456 2553 1204 2497 
Q 953 2441 691 2322 
L 691 4666 
z
" transform="scale(0.015625)"/>
       </defs>
       <use xlink:href="#DejaVuSans-35"/>
      </g>
     </g>
    </g>
    <g id="xtick_3">
     <g id="line2d_3">
      <g>
       <use xlink:href="#m424c7f73f4" x="154.996364" y="307.584" style="stroke: #000000; stroke-width: 0.8"/>
      </g>
     </g>
     <g id="text_3">
      <!-- 10 -->
      <g transform="translate(148.633864 322.182437) scale(0.1 -0.1)">
       <defs>
        <path id="DejaVuSans-31" d="M 794 531 
L 1825 531 
L 1825 4091 
L 703 3866 
L 703 4441 
L 1819 4666 
L 2450 4666 
L 2450 531 
L 3481 531 
L 3481 0 
L 794 0 
L 794 531 
z
" transform="scale(0.015625)"/>
       </defs>
       <use xlink:href="#DejaVuSans-31"/>
       <use xlink:href="#DejaVuSans-30" transform="translate(63.623047 0)"/>
      </g>
     </g>
    </g>
    <g id="xtick_4">
     <g id="line2d_4">
      <g>
       <use xlink:href="#m424c7f73f4" x="195.578182" y="307.584" style="stroke: #000000; stroke-width: 0.8"/>
      </g>
     </g>
     <g id="text_4">
      <!-- 15 -->
      <g transform="translate(189.215682 322.182437) scale(0.1 -0.1)">
       <use xlink:href="#DejaVuSans-31"/>
       <use xlink:href="#DejaVuSans-35" transform="translate(63.623047 0)"/>
      </g>
     </g>
    </g>
    <g id="xtick_5">
     <g id="line2d_5">
      <g>
       <use xlink:href="#m424c7f73f4" x="236.16" y="307.584" style="stroke: #000000; stroke-width: 0.8"/>
      </g>
     </g>
     <g id="text_5">
      <!-- 20 -->
      <g transform="translate(229.7975 322.182437) scale(0.1 -0.1)">
       <defs>
        <path id="DejaVuSans-32" d="M 1228 531 
L 3431 531 
L 3431 0 
L 469 0 
L 469 531 
Q 828 903 1448 1529 
Q 2069 2156 2228 2338 
Q 2531 2678 2651 2914 
Q 2772 3150 2772 3378 
Q 2772 3750 2511 3984 
Q 2250 4219 1831 4219 
Q 1534 4219 1204 4116 
Q 875 4013 500 3803 
L 500 4441 
Q 881 4594 1212 4672 
Q 1544 4750 1819 4750 
Q 2544 4750 2975 4387 
Q 3406 4025 3406 3419 
Q 3406 3131 3298 2873 
Q 3191 2616 2906 2266 
Q 2828 2175 2409 1742 
Q 1991 1309 1228 531 
z
" transform="scale(0.015625)"/>
       </defs>
       <use xlink:href="#DejaVuSans-32"/>
       <use xlink:href="#DejaVuSans-30" transform="translate(63.623047 0)"/>
      </g>
     </g>
    </g>
    <g id="xtick_6">
     <g id="line2d_6">
      <g>
       <use xlink:href="#m424c7f73f4" x="276.741818" y="307.584" style="stroke: #000000; stroke-width: 0.8"/>
      </g>
     </g>
     <g id="text_6">
      <!-- 25 -->
      <g transform="translate(270.379318 322.182437) scale(0.1 -0.1)">
       <use xlink:href="#DejaVuSans-32"/>
       <use xlink:href="#DejaVuSans-35" transform="translate(63.623047 0)"/>
      </g>
     </g>
    </g>
    <g id="xtick_7">
     <g id="line2d_7">
      <g>
       <use xlink:href="#m424c7f73f4" x="317.323636" y="307.584" style="stroke: #000000; stroke-width: 0.8"/>
      </g>
     </g>
     <g id="text_7">
      <!-- 30 -->
      <g transform="translate(310.961136 322.182437) scale(0.1 -0.1)">
       <defs>
        <path id="DejaVuSans-33" d="M 2597 2516 
Q 3050 2419 3304 2112 
Q 3559 1806 3559 1356 
Q 3559 666 3084 287 
Q 2609 -91 1734 -91 
Q 1441 -91 1130 -33 
Q 819 25 488 141 
L 488 750 
Q 750 597 1062 519 
Q 1375 441 1716 441 
Q 2309 441 2620 675 
Q 2931 909 2931 1356 
Q 2931 1769 2642 2001 
Q 2353 2234 1838 2234 
L 1294 2234 
L 1294 2753 
L 1863 2753 
Q 2328 2753 2575 2939 
Q 2822 3125 2822 3475 
Q 2822 3834 2567 4026 
Q 2313 4219 1838 4219 
Q 1578 4219 1281 4162 
Q 984 4106 628 3988 
L 628 4550 
Q 988 4650 1302 4700 
Q 1616 4750 1894 4750 
Q 2613 4750 3031 4423 
Q 3450 4097 3450 3541 
Q 3450 3153 3228 2886 
Q 3006 2619 2597 2516 
z
" transform="scale(0.015625)"/>
       </defs>
       <use xlink:href="#DejaVuSans-33"/>
       <use xlink:href="#DejaVuSans-30" transform="translate(63.623047 0)"/>
      </g>
     </g>
    </g>
    <g id="xtick_8">
     <g id="line2d_8">
      <g>
       <use xlink:href="#m424c7f73f4" x="357.905455" y="307.584" style="stroke: #000000; stroke-width: 0.8"/>
      </g>
     </g>
     <g id="text_8">
      <!-- 35 -->
      <g transform="translate(351.542955 322.182437) scale(0.1 -0.1)">
       <use xlink:href="#DejaVuSans-33"/>
       <use xlink:href="#DejaVuSans-35" transform="translate(63.623047 0)"/>
      </g>
     </g>
    </g>
    <g id="xtick_9">
     <g id="line2d_9">
      <g>
       <use xlink:href="#m424c7f73f4" x="398.487273" y="307.584" style="stroke: #000000; stroke-width: 0.8"/>
      </g>
     </g>
     <g id="text_9">
      <!-- 40 -->
      <g transform="translate(392.124773 322.182437) scale(0.1 -0.1)">
       <defs>
        <path id="DejaVuSans-34" d="M 2419 4116 
L 825 1625 
L 2419 1625 
L 2419 4116 
z
M 2253 4666 
L 3047 4666 
L 3047 1625 
L 3713 1625 
L 3713 1100 
L 3047 1100 
L 3047 0 
L 2419 0 
L 2419 1100 
L 313 1100 
L 313 1709 
L 2253 4666 
z
" transform="scale(0.015625)"/>
       </defs>
       <use xlink:href="#DejaVuSans-34"/>
       <use xlink:href="#DejaVuSans-30" transform="translate(63.623047 0)"/>
      </g>
     </g>
    </g>
    <g id="text_10">
     <!-- Generation -->
     <g transform="translate(208.267031 335.860562) scale(0.1 -0.1)">
      <defs>
       <path id="DejaVuSans-47" d="M 3809 666 
L 3809 1919 
L 2778 1919 
L 2778 2438 
L 4434 2438 
L 4434 434 
Q 4069 175 3628 42 
Q 3188 -91 2688 -91 
Q 1594 -91 976 548 
Q 359 1188 359 2328 
Q 359 3472 976 4111 
Q 1594 4750 2688 4750 
Q 3144 4750 3555 4637 
Q 3966 4525 4313 4306 
L 4313 3634 
Q 3963 3931 3569 4081 
Q 3175 4231 2741 4231 
Q 1884 4231 1454 3753 
Q 1025 3275 1025 2328 
Q 1025 1384 1454 906 
Q 1884 428 2741 428 
Q 3075 428 3337 486 
Q 3600 544 3809 666 
z
" transform="scale(0.015625)"/>
       <path id="DejaVuSans-65" d="M 3597 1894 
L 3597 1613 
L 953 1613 
Q 991 1019 1311 708 
Q 1631 397 2203 397 
Q 2534 397 2845 478 
Q 3156 559 3463 722 
L 3463 178 
Q 3153 47 2828 -22 
Q 2503 -91 2169 -91 
Q 1331 -91 842 396 
Q 353 884 353 1716 
Q 353 2575 817 3079 
Q 1281 3584 2069 3584 
Q 2775 3584 3186 3129 
Q 3597 2675 3597 1894 
z
M 3022 2063 
Q 3016 2534 2758 2815 
Q 2500 3097 2075 3097 
Q 1594 3097 1305 2825 
Q 1016 2553 972 2059 
L 3022 2063 
z
" transform="scale(0.015625)"/>
       <path id="DejaVuSans-6e" d="M 3513 2113 
L 3513 0 
L 2938 0 
L 2938 2094 
Q 2938 2591 2744 2837 
Q 2550 3084 2163 3084 
Q 1697 3084 1428 2787 
Q 1159 2491 1159 1978 
L 1159 0 
L 581 0 
L 581 3500 
L 1159 3500 
L 1159 2956 
Q 1366 3272 1645 3428 
Q 1925 3584 2291 3584 
Q 2894 3584 3203 3211 
Q 3513 2838 3513 2113 
z
" transform="scale(0.015625)"/>
       <path id="DejaVuSans-72" d="M 2631 2963 
Q 2534 3019 2420 3045 
Q 2306 3072 2169 3072 
Q 1681 3072 1420 2755 
Q 1159 2438 1159 1844 
L 1159 0 
L 581 0 
L 581 3500 
L 1159 3500 
L 1159 2956 
Q 1341 3275 1631 3429 
Q 1922 3584 2338 3584 
Q 2397 3584 2469 3576 
Q 2541 3569 2628 3553 
L 2631 2963 
z
" transform="scale(0.015625)"/>
       <path id="DejaVuSans-61" d="M 2194 1759 
Q 1497 1759 1228 1600 
Q 959 1441 959 1056 
Q 959 750 1161 570 
Q 1363 391 1709 391 
Q 2188 391 2477 730 
Q 2766 1069 2766 1631 
L 2766 1759 
L 2194 1759 
z
M 3341 1997 
L 3341 0 
L 2766 0 
L 2766 531 
Q 2569 213 2275 61 
Q 1981 -91 1556 -91 
Q 1019 -91 701 211 
Q 384 513 384 1019 
Q 384 1609 779 1909 
Q 1175 2209 1959 2209 
L 2766 2209 
L 2766 2266 
Q 2766 2663 2505 2880 
Q 2244 3097 1772 3097 
Q 1472 3097 1187 3025 
Q 903 2953 641 2809 
L 641 3341 
Q 956 3463 1253 3523 
Q 1550 3584 1831 3584 
Q 2591 3584 2966 3190 
Q 3341 2797 3341 1997 
z
" transform="scale(0.015625)"/>
       <path id="DejaVuSans-74" d="M 1172 4494 
L 1172 3500 
L 2356 3500 
L 2356 3053 
L 1172 3053 
L 1172 1153 
Q 1172 725 1289 603 
Q 1406 481 1766 481 
L 2356 481 
L 2356 0 
L 1766 0 
Q 1100 0 847 248 
Q 594 497 594 1153 
L 594 3053 
L 172 3053 
L 172 3500 
L 594 3500 
L 594 4494 
L 1172 4494 
z
" transform="scale(0.015625)"/>
       <path id="DejaVuSans-69" d="M 603 3500 
L 1178 3500 
L 1178 0 
L 603 0 
L 603 3500 
z
M 603 4863 
L 1178 4863 
L 1178 4134 
L 603 4134 
L 603 4863 
z
" transform="scale(0.015625)"/>
       <path id="DejaVuSans-6f" d="M 1959 3097 
Q 1497 3097 1228 2736 
Q 959 2375 959 1747 
Q 959 1119 1226 758 
Q 1494 397 1959 397 
Q 2419 397 2687 759 
Q 2956 1122 2956 1747 
Q 2956 2369 2687 2733 
Q 2419 3097 1959 3097 
z
M 1959 3584 
Q 2709 3584 3137 3096 
Q 3566 2609 3566 1747 
Q 3566 888 3137 398 
Q 2709 -91 1959 -91 
Q 1206 -91 779 398 
Q 353 888 353 1747 
Q 353 2609 779 3096 
Q 1206 3584 1959 3584 
z
" transform="scale(0.015625)"/>
      </defs>
      <use xlink:href="#DejaVuSans-47"/>
      <use xlink:href="#DejaVuSans-65" transform="translate(77.490234 0)"/>
      <use xlink:href="#DejaVuSans-6e" transform="translate(139.013672 0)"/>
      <use xlink:href="#DejaVuSans-65" transform="translate(202.392578 0)"/>
      <use xlink:href="#DejaVuSans-72" transform="translate(263.916016 0)"/>
      <use xlink:href="#DejaVuSans-61" transform="translate(305.029297 0)"/>
      <use xlink:href="#DejaVuSans-74" transform="translate(366.308594 0)"/>
      <use xlink:href="#DejaVuSans-69" transform="translate(405.517578 0)"/>
      <use xlink:href="#DejaVuSans-6f" transform="translate(433.300781 0)"/>
      <use xlink:href="#DejaVuSans-6e" transform="translate(494.482422 0)"/>
     </g>
    </g>
   </g>
   <g id="matplotlib.axis_2">
    <g id="ytick_1">
     <g id="line2d_10">
      <defs>
       <path id="m671d032a63" d="M 0 0 
L -3.5 0 
" style="stroke: #000000; stroke-width: 0.8"/>
      </defs>
      <g>
       <use xlink:href="#m671d032a63" x="57.6" y="298.533948" style="stroke: #000000; stroke-width: 0.8"/>
      </g>
     </g>
     <g id="text_11">
      <!-- 0 -->
      <g transform="translate(44.2375 302.333167) scale(0.1 -0.1)">
       <use xlink:href="#DejaVuSans-30"/>
      </g>
     </g>
    </g>
    <g id="ytick_2">
     <g id="line2d_11">
      <g>
       <use xlink:href="#m671d032a63" x="57.6" y="267.902008" style="stroke: #000000; stroke-width: 0.8"/>
      </g>
     </g>
     <g id="text_12">
      <!-- 1 -->
      <g transform="translate(44.2375 271.701227) scale(0.1 -0.1)">
       <use xlink:href="#DejaVuSans-31"/>
      </g>
     </g>
    </g>
    <g id="ytick_3">
     <g id="line2d_12">
      <g>
       <use xlink:href="#m671d032a63" x="57.6" y="237.270068" style="stroke: #000000; stroke-width: 0.8"/>
      </g>
     </g>
     <g id="text_13">
      <!-- 2 -->
      <g transform="translate(44.2375 241.069287) scale(0.1 -0.1)">
       <use xlink:href="#DejaVuSans-32"/>
      </g>
     </g>
    </g>
    <g id="ytick_4">
     <g id="line2d_13">
      <g>
       <use xlink:href="#m671d032a63" x="57.6" y="206.638128" style="stroke: #000000; stroke-width: 0.8"/>
      </g>
     </g>
     <g id="text_14">
      <!-- 3 -->
      <g transform="translate(44.2375 210.437347) scale(0.1 -0.1)">
       <use xlink:href="#DejaVuSans-33"/>
      </g>
     </g>
    </g>
    <g id="ytick_5">
     <g id="line2d_14">
      <g>
       <use xlink:href="#m671d032a63" x="57.6" y="176.006188" style="stroke: #000000; stroke-width: 0.8"/>
      </g>
     </g>
     <g id="text_15">
      <!-- 4 -->
      <g transform="translate(44.2375 179.805406) scale(0.1 -0.1)">
       <use xlink:href="#DejaVuSans-34"/>
      </g>
     </g>
    </g>
    <g id="ytick_6">
     <g id="line2d_15">
      <g>
       <use xlink:href="#m671d032a63" x="57.6" y="145.374248" style="stroke: #000000; stroke-width: 0.8"/>
      </g>
     </g>
     <g id="text_16">
      <!-- 5 -->
      <g transform="translate(44.2375 149.173466) scale(0.1 -0.1)">
       <use xlink:href="#DejaVuSans-35"/>
      </g>
     </g>
    </g>
    <g id="ytick_7">
     <g id="line2d_16">
      <g>
       <use xlink:href="#m671d032a63" x="57.6" y="114.742308" style="stroke: #000000; stroke-width: 0.8"/>
      </g>
     </g>
     <g id="text_17">
      <!-- 6 -->
      <g transform="translate(44.2375 118.541526) scale(0.1 -0.1)">
       <defs>
        <path id="DejaVuSans-36" d="M 2113 2584 
Q 1688 2584 1439 2293 
Q 1191 2003 1191 1497 
Q 1191 994 1439 701 
Q 1688 409 2113 409 
Q 2538 409 2786 701 
Q 3034 994 3034 1497 
Q 3034 2003 2786 2293 
Q 2538 2584 2113 2584 
z
M 3366 4563 
L 3366 3988 
Q 3128 4100 2886 4159 
Q 2644 4219 2406 4219 
Q 1781 4219 1451 3797 
Q 1122 3375 1075 2522 
Q 1259 2794 1537 2939 
Q 1816 3084 2150 3084 
Q 2853 3084 3261 2657 
Q 3669 2231 3669 1497 
Q 3669 778 3244 343 
Q 2819 -91 2113 -91 
Q 1303 -91 875 529 
Q 447 1150 447 2328 
Q 447 3434 972 4092 
Q 1497 4750 2381 4750 
Q 2619 4750 2861 4703 
Q 3103 4656 3366 4563 
z
" transform="scale(0.015625)"/>
       </defs>
       <use xlink:href="#DejaVuSans-36"/>
      </g>
     </g>
    </g>
    <g id="ytick_8">
     <g id="line2d_17">
      <g>
       <use xlink:href="#m671d032a63" x="57.6" y="84.110368" style="stroke: #000000; stroke-width: 0.8"/>
      </g>
     </g>
     <g id="text_18">
      <!-- 7 -->
      <g transform="translate(44.2375 87.909586) scale(0.1 -0.1)">
       <defs>
        <path id="DejaVuSans-37" d="M 525 4666 
L 3525 4666 
L 3525 4397 
L 1831 0 
L 1172 0 
L 2766 4134 
L 525 4134 
L 525 4666 
z
" transform="scale(0.015625)"/>
       </defs>
       <use xlink:href="#DejaVuSans-37"/>
      </g>
     </g>
    </g>
    <g id="ytick_9">
     <g id="line2d_18">
      <g>
       <use xlink:href="#m671d032a63" x="57.6" y="53.478427" style="stroke: #000000; stroke-width: 0.8"/>
      </g>
     </g>
     <g id="text_19">
      <!-- 8 -->
      <g transform="translate(44.2375 57.277646) scale(0.1 -0.1)">
       <defs>
        <path id="DejaVuSans-38" d="M 2034 2216 
Q 1584 2216 1326 1975 
Q 1069 1734 1069 1313 
Q 1069 891 1326 650 
Q 1584 409 2034 409 
Q 2484 409 2743 651 
Q 3003 894 3003 1313 
Q 3003 1734 2745 1975 
Q 2488 2216 2034 2216 
z
M 1403 2484 
Q 997 2584 770 2862 
Q 544 3141 544 3541 
Q 544 4100 942 4425 
Q 1341 4750 2034 4750 
Q 2731 4750 3128 4425 
Q 3525 4100 3525 3541 
Q 3525 3141 3298 2862 
Q 3072 2584 2669 2484 
Q 3125 2378 3379 2068 
Q 3634 1759 3634 1313 
Q 3634 634 3220 271 
Q 2806 -91 2034 -91 
Q 1263 -91 848 271 
Q 434 634 434 1313 
Q 434 1759 690 2068 
Q 947 2378 1403 2484 
z
M 1172 3481 
Q 1172 3119 1398 2916 
Q 1625 2713 2034 2713 
Q 2441 2713 2670 2916 
Q 2900 3119 2900 3481 
Q 2900 3844 2670 4047 
Q 2441 4250 2034 4250 
Q 1625 4250 1398 4047 
Q 1172 3844 1172 3481 
z
" transform="scale(0.015625)"/>
       </defs>
       <use xlink:href="#DejaVuSans-38"/>
      </g>
     </g>
    </g>
    <g id="text_20">
     <!-- Average Fitness -->
     <g transform="translate(38.157812 213.967062) rotate(-90) scale(0.1 -0.1)">
      <defs>
       <path id="DejaVuSans-41" d="M 2188 4044 
L 1331 1722 
L 3047 1722 
L 2188 4044 
z
M 1831 4666 
L 2547 4666 
L 4325 0 
L 3669 0 
L 3244 1197 
L 1141 1197 
L 716 0 
L 50 0 
L 1831 4666 
z
" transform="scale(0.015625)"/>
       <path id="DejaVuSans-76" d="M 191 3500 
L 800 3500 
L 1894 563 
L 2988 3500 
L 3597 3500 
L 2284 0 
L 1503 0 
L 191 3500 
z
" transform="scale(0.015625)"/>
       <path id="DejaVuSans-67" d="M 2906 1791 
Q 2906 2416 2648 2759 
Q 2391 3103 1925 3103 
Q 1463 3103 1205 2759 
Q 947 2416 947 1791 
Q 947 1169 1205 825 
Q 1463 481 1925 481 
Q 2391 481 2648 825 
Q 2906 1169 2906 1791 
z
M 3481 434 
Q 3481 -459 3084 -895 
Q 2688 -1331 1869 -1331 
Q 1566 -1331 1297 -1286 
Q 1028 -1241 775 -1147 
L 775 -588 
Q 1028 -725 1275 -790 
Q 1522 -856 1778 -856 
Q 2344 -856 2625 -561 
Q 2906 -266 2906 331 
L 2906 616 
Q 2728 306 2450 153 
Q 2172 0 1784 0 
Q 1141 0 747 490 
Q 353 981 353 1791 
Q 353 2603 747 3093 
Q 1141 3584 1784 3584 
Q 2172 3584 2450 3431 
Q 2728 3278 2906 2969 
L 2906 3500 
L 3481 3500 
L 3481 434 
z
" transform="scale(0.015625)"/>
       <path id="DejaVuSans-20" transform="scale(0.015625)"/>
       <path id="DejaVuSans-46" d="M 628 4666 
L 3309 4666 
L 3309 4134 
L 1259 4134 
L 1259 2759 
L 3109 2759 
L 3109 2228 
L 1259 2228 
L 1259 0 
L 628 0 
L 628 4666 
z
" transform="scale(0.015625)"/>
       <path id="DejaVuSans-73" d="M 2834 3397 
L 2834 2853 
Q 2591 2978 2328 3040 
Q 2066 3103 1784 3103 
Q 1356 3103 1142 2972 
Q 928 2841 928 2578 
Q 928 2378 1081 2264 
Q 1234 2150 1697 2047 
L 1894 2003 
Q 2506 1872 2764 1633 
Q 3022 1394 3022 966 
Q 3022 478 2636 193 
Q 2250 -91 1575 -91 
Q 1294 -91 989 -36 
Q 684 19 347 128 
L 347 722 
Q 666 556 975 473 
Q 1284 391 1588 391 
Q 1994 391 2212 530 
Q 2431 669 2431 922 
Q 2431 1156 2273 1281 
Q 2116 1406 1581 1522 
L 1381 1569 
Q 847 1681 609 1914 
Q 372 2147 372 2553 
Q 372 3047 722 3315 
Q 1072 3584 1716 3584 
Q 2034 3584 2315 3537 
Q 2597 3491 2834 3397 
z
" transform="scale(0.015625)"/>
      </defs>
      <use xlink:href="#DejaVuSans-41"/>
      <use xlink:href="#DejaVuSans-76" transform="translate(62.533203 0)"/>
      <use xlink:href="#DejaVuSans-65" transform="translate(121.712891 0)"/>
      <use xlink:href="#DejaVuSans-72" transform="translate(183.236328 0)"/>
      <use xlink:href="#DejaVuSans-61" transform="translate(224.349609 0)"/>
      <use xlink:href="#DejaVuSans-67" transform="translate(285.628906 0)"/>
      <use xlink:href="#DejaVuSans-65" transform="translate(349.105469 0)"/>
      <use xlink:href="#DejaVuSans-20" transform="translate(410.628906 0)"/>
      <use xlink:href="#DejaVuSans-46" transform="translate(442.416016 0)"/>
      <use xlink:href="#DejaVuSans-69" transform="translate(492.685547 0)"/>
      <use xlink:href="#DejaVuSans-74" transform="translate(520.46875 0)"/>
      <use xlink:href="#DejaVuSans-6e" transform="translate(559.677734 0)"/>
      <use xlink:href="#DejaVuSans-65" transform="translate(623.056641 0)"/>
      <use xlink:href="#DejaVuSans-73" transform="translate(684.580078 0)"/>
      <use xlink:href="#DejaVuSans-73" transform="translate(736.679688 0)"/>
     </g>
    </g>
   </g>
   <g id="line2d_19">
    <path d="M 73.832727 202.658018 
L 81.949091 177.813681 
L 90.065455 159.111383 
L 98.181818 142.501116 
L 106.298182 131.93111 
L 114.414545 127.990919 
L 122.530909 124.784397 
L 130.647273 114.666608 
L 138.763636 114.666608 
L 146.88 114.666608 
L 154.996364 114.666608 
L 163.112727 94.778214 
L 171.229091 94.778214 
L 179.345455 93.280304 
L 187.461818 88.916066 
L 195.578182 88.916066 
L 203.694545 88.916066 
L 211.810909 88.916066 
L 219.927273 88.916066 
L 228.043636 88.916066 
L 236.16 88.916066 
L 244.276364 88.916066 
L 252.392727 88.329398 
L 260.509091 88.329398 
L 268.625455 88.329398 
L 276.741818 88.329398 
L 284.858182 86.719282 
L 292.974545 82.391855 
L 301.090909 78.651554 
L 309.207273 78.651554 
L 317.323636 78.651554 
L 325.44 78.651554 
L 333.556364 78.651554 
L 341.672727 74.734249 
L 349.789091 74.734249 
L 357.905455 74.734249 
L 366.021818 74.734249 
L 374.138182 74.734249 
L 382.254545 73.625116 
L 390.370909 70.952033 
L 398.487273 70.952033 
" clip-path="url(#p6c2a2aaa5d)" style="fill: none; stroke: #008000; stroke-width: 1.5; stroke-linecap: square"/>
   </g>
   <g id="line2d_20">
    <path d="M 73.832727 271.876709 
L 81.949091 264.707599 
L 90.065455 258.430178 
L 98.181818 252.523874 
L 106.298182 247.535115 
L 114.414545 244.639687 
L 122.530909 241.083918 
L 130.647273 238.526963 
L 138.763636 236.076735 
L 146.88 233.46344 
L 154.996364 230.901195 
L 163.112727 226.382475 
L 171.229091 224.627246 
L 179.345455 222.897212 
L 187.461818 218.987059 
L 195.578182 216.862154 
L 203.694545 214.529962 
L 211.810909 211.736849 
L 219.927273 210.319838 
L 228.043636 208.038061 
L 236.16 205.982198 
L 244.276364 205.113906 
L 252.392727 203.028389 
L 260.509091 201.327664 
L 268.625455 200.658685 
L 276.741818 199.136079 
L 284.858182 197.214892 
L 292.974545 195.946228 
L 301.090909 194.177928 
L 309.207273 192.735868 
L 317.323636 190.901338 
L 325.44 189.583371 
L 333.556364 188.110773 
L 341.672727 186.723432 
L 349.789091 185.559807 
L 357.905455 184.842577 
L 366.021818 184.047469 
L 374.138182 181.902389 
L 382.254545 180.633527 
L 390.370909 179.253256 
L 398.487273 177.935378 
" clip-path="url(#p6c2a2aaa5d)" style="fill: none; stroke: #0000ff; stroke-width: 1.5; stroke-linecap: square"/>
   </g>
   <g id="line2d_21">
    <path d="M 73.832727 295.148869 
L 81.949091 288.492288 
L 90.065455 283.507909 
L 98.181818 278.688798 
L 106.298182 274.534118 
L 114.414545 270.888783 
L 122.530909 268.062187 
L 130.647273 265.380648 
L 138.763636 263.091296 
L 146.88 261.131287 
L 154.996364 259.215822 
L 163.112727 256.215311 
L 171.229091 254.488956 
L 179.345455 253.248056 
L 187.461818 250.968053 
L 195.578182 248.933206 
L 203.694545 246.061094 
L 211.810909 243.401258 
L 219.927273 242.315312 
L 228.043636 240.409099 
L 236.16 238.912348 
L 244.276364 236.923282 
L 252.392727 235.334978 
L 260.509091 234.422059 
L 268.625455 234.124296 
L 276.741818 231.248258 
L 284.858182 229.249924 
L 292.974545 228.261794 
L 301.090909 227.737252 
L 309.207273 226.628358 
L 317.323636 224.892568 
L 325.44 223.912581 
L 333.556364 223.085555 
L 341.672727 222.184331 
L 349.789091 221.998532 
L 357.905455 221.678428 
L 366.021818 220.870519 
L 374.138182 219.029595 
L 382.254545 218.207572 
L 390.370909 216.485824 
L 398.487273 216.10749 
" clip-path="url(#p6c2a2aaa5d)" style="fill: none; stroke: #ff0000; stroke-width: 1.5; stroke-linecap: square"/>
   </g>
   <g id="line2d_22">
    <path d="M 73.832727 271.876709 
L 81.949091 264.707599 
L 90.065455 258.430178 
L 98.181818 252.523874 
L 106.298182 247.535115 
L 114.414545 244.639687 
L 122.530909 241.083918 
L 130.647273 238.526963 
L 138.763636 236.076735 
L 146.88 233.46344 
L 154.996364 230.901195 
L 163.112727 226.382475 
L 171.229091 224.627246 
L 179.345455 222.897212 
L 187.461818 218.987059 
L 195.578182 216.862154 
L 203.694545 214.529962 
L 211.810909 211.736849 
L 219.927273 210.319838 
L 228.043636 208.038061 
L 236.16 205.982198 
L 244.276364 205.113906 
L 252.392727 203.028389 
L 260.509091 201.327664 
L 268.625455 200.658685 
L 276.741818 199.136079 
L 284.858182 197.214892 
L 292.974545 195.946228 
L 301.090909 194.177928 
L 309.207273 192.735868 
L 317.323636 190.901338 
L 325.44 189.583371 
L 333.556364 188.110773 
L 341.672727 186.723432 
L 349.789091 185.559807 
L 357.905455 184.842577 
L 366.021818 184.047469 
L 374.138182 181.902389 
L 382.254545 180.633527 
L 390.370909 179.253256 
L 398.487273 177.935378 
" clip-path="url(#p6c2a2aaa5d)" style="fill: none; stroke: #0000ff; stroke-width: 1.5; stroke-linecap: square"/>
   </g>
   <g id="line2d_23">
    <path d="M 73.832727 295.148869 
L 81.949091 288.492288 
L 90.065455 283.507909 
L 98.181818 278.688798 
L 106.298182 274.534118 
L 114.414545 270.888783 
L 122.530909 268.062187 
L 130.647273 265.380648 
L 138.763636 263.091296 
L 146.88 261.131287 
L 154.996364 259.215822 
L 163.112727 256.215311 
L 171.229091 254.488956 
L 179.345455 253.248056 
L 187.461818 250.968053 
L 195.578182 248.933206 
L 203.694545 246.061094 
L 211.810909 243.401258 
L 219.927273 242.315312 
L 228.043636 240.409099 
L 236.16 238.912348 
L 244.276364 236.923282 
L 252.392727 235.334978 
L 260.509091 234.422059 
L 268.625455 234.124296 
L 276.741818 231.248258 
L 284.858182 229.249924 
L 292.974545 228.261794 
L 301.090909 227.737252 
L 309.207273 226.628358 
L 317.323636 224.892568 
L 325.44 223.912581 
L 333.556364 223.085555 
L 341.672727 222.184331 
L 349.789091 221.998532 
L 357.905455 221.678428 
L 366.021818 220.870519 
L 374.138182 219.029595 
L 382.254545 218.207572 
L 390.370909 216.485824 
L 398.487273 216.10749 
" clip-path="url(#p6c2a2aaa5d)" style="fill: none; stroke: #ff0000; stroke-width: 1.5; stroke-linecap: square"/>
   </g>
   <g id="patch_3">
    <path d="M 57.6 307.584 
L 57.6 41.472 
" style="fill: none; stroke: #000000; stroke-width: 0.8; stroke-linejoin: miter; stroke-linecap: square"/>
   </g>
   <g id="patch_4">
    <path d="M 414.72 307.584 
L 414.72 41.472 
" style="fill: none; stroke: #000000; stroke-width: 0.8; stroke-linejoin: miter; stroke-linecap: square"/>
   </g>
   <g id="patch_5">
    <path d="M 57.6 307.584 
L 414.72 307.584 
" style="fill: none; stroke: #000000; stroke-width: 0.8; stroke-linejoin: miter; stroke-linecap: square"/>
   </g>
   <g id="patch_6">
    <path d="M 57.6 41.472 
L 414.72 41.472 
" style="fill: none; stroke: #000000; stroke-width: 0.8; stroke-linejoin: miter; stroke-linecap: square"/>
   </g>
  </g>
 </g>
 <defs>
  <clipPath id="p6c2a2aaa5d">
   <rect x="57.6" y="41.472" width="357.12" height="266.112"/>
  </clipPath>
 </defs>
</svg>
