<?xml version="1.0" encoding="utf-8" standalone="no"?>
<!DOCTYPE svg PUBLIC "-//W3C//DTD SVG 1.1//EN"
  "http://www.w3.org/Graphics/SVG/1.1/DTD/svg11.dtd">
<svg xmlns:xlink="http://www.w3.org/1999/xlink" width="460.8pt" height="345.6pt" viewBox="0 0 460.8 345.6" xmlns="http://www.w3.org/2000/svg" version="1.1">
 <metadata>
  <rdf:RDF xmlns:dc="http://purl.org/dc/elements/1.1/" xmlns:cc="http://creativecommons.org/ns#" xmlns:rdf="http://www.w3.org/1999/02/22-rdf-syntax-ns#">
   <cc:Work>
    <dc:type rdf:resource="http://purl.org/dc/dcmitype/StillImage"/>
    <dc:date>2025-11-10T18:25:04.806179</dc:date>
    <dc:format>image/svg+xml</dc:format>
    <dc:creator>
     <cc:Agent>
      <dc:title>Matplotlib v3.10.0, https://matplotlib.org/</dc:title>
     </cc:Agent>
    </dc:creator>
   </cc:Work>
  </rdf:RDF>
 </metadata>
 <defs>
  <style type="text/css">*{stroke-linejoin: round; stroke-linecap: butt}</style>
 </defs>
 <g id="figure_1">
  <g id="patch_1">
   <path d="M 0 345.6 
L 460.8 345.6 
L 460.8 0 
L 0 0 
z
" style="fill: #ffffff"/>
  </g>
  <g id="axes_1">
   <g id="patch_2">
    <path d="M 57.6 307.584 
L 414.72 307.584 
L 414.72 41.472 
L 57.6 41.472 
z
" style="fill: #ffffff"/>
   </g>
   <g id="FillBetweenPolyCollection_1">
    <defs>
     <path id="mec73711a58" d="M 73.832727 -179.773445 
L 73.832727 -155.024581 
L 81.382833 -169.932974 
L 88.932939 -170.557745 
L 96.483044 -170.557745 
L 104.03315 -174.828454 
L 111.583256 -177.615791 
L 119.133362 -178.788809 
L 126.683467 -180.030951 
L 134.233573 -180.637003 
L 141.783679 -180.637003 
L 149.333784 -193.060224 
L 156.88389 -193.060224 
L 164.433996 -218.446594 
L 171.984101 -218.446594 
L 179.534207 -219.584088 
L 187.084313 -219.584088 
L 194.634419 -219.584088 
L 202.184524 -221.140081 
L 209.73463 -221.140081 
L 217.284736 -221.140081 
L 224.834841 -221.140081 
L 232.384947 -221.140081 
L 239.935053 -221.140081 
L 247.485159 -221.140081 
L 255.035264 -221.140081 
L 262.58537 -221.140081 
L 270.135476 -221.140081 
L 277.685581 -222.109255 
L 285.235687 -232.087553 
L 292.785793 -232.087553 
L 300.335899 -232.087553 
L 307.886004 -232.087553 
L 315.43611 -232.087553 
L 322.986216 -232.087553 
L 330.536321 -232.856749 
L 338.086427 -232.856749 
L 345.636533 -239.716559 
L 353.186638 -239.716559 
L 360.736744 -239.716559 
L 368.28685 -239.716559 
L 375.836956 -239.716559 
L 383.387061 -240.405244 
L 390.937167 -246.520783 
L 398.487273 -251.191984 
L 398.487273 -292.032 
L 398.487273 -292.032 
L 390.937167 -289.006998 
L 383.387061 -284.783308 
L 375.836956 -284.389938 
L 368.28685 -284.389938 
L 360.736744 -284.389938 
L 353.186638 -284.389938 
L 345.636533 -284.389938 
L 338.086427 -275.809552 
L 330.536321 -275.809552 
L 322.986216 -272.062379 
L 315.43611 -272.062379 
L 307.886004 -272.062379 
L 300.335899 -272.062379 
L 292.785793 -272.062379 
L 285.235687 -272.062379 
L 277.685581 -266.030785 
L 270.135476 -265.413855 
L 262.58537 -265.413855 
L 255.035264 -265.413855 
L 247.485159 -265.413855 
L 239.935053 -265.413855 
L 232.384947 -265.413855 
L 224.834841 -265.413855 
L 217.284736 -265.413855 
L 209.73463 -265.413855 
L 202.184524 -265.413855 
L 194.634419 -263.58134 
L 187.084313 -263.58134 
L 179.534207 -263.58134 
L 171.984101 -262.900894 
L 164.433996 -262.900894 
L 156.88389 -233.842227 
L 149.333784 -233.842227 
L 141.783679 -223.262642 
L 134.233573 -223.262642 
L 126.683467 -222.759912 
L 119.133362 -222.241084 
L 111.583256 -221.678579 
L 104.03315 -219.60959 
L 96.483044 -199.199413 
L 88.932939 -199.199413 
L 81.382833 -198.971146 
L 73.832727 -179.773445 
z
" style="stroke: #008000; stroke-opacity: 0.2"/>
    </defs>
    <g clip-path="url(#p055badd8ef)">
     <use xlink:href="#mec73711a58" x="0" y="345.6" style="fill: #008000; fill-opacity: 0.2; stroke: #008000; stroke-opacity: 0.2"/>
    </g>
   </g>
   <g id="FillBetweenPolyCollection_2">
    <defs>
     <path id="mac11a96c40" d="M 73.832727 -70.104434 
L 73.832727 -68.038358 
L 81.382833 -73.605754 
L 88.932939 -76.607592 
L 96.483044 -78.93518 
L 104.03315 -81.856666 
L 111.583256 -84.553062 
L 119.133362 -86.800822 
L 126.683467 -88.825672 
L 134.233573 -91.077849 
L 141.783679 -92.98144 
L 149.333784 -95.808259 
L 156.88389 -97.648685 
L 164.433996 -100.81792 
L 171.984101 -101.996106 
L 179.534207 -103.42216 
L 187.084313 -104.755073 
L 194.634419 -105.405393 
L 202.184524 -106.715108 
L 209.73463 -107.593454 
L 217.284736 -109.029146 
L 224.834841 -109.659216 
L 232.384947 -111.220616 
L 239.935053 -111.866683 
L 247.485159 -112.934257 
L 255.035264 -113.521751 
L 262.58537 -114.233143 
L 270.135476 -115.320287 
L 277.685581 -116.473329 
L 285.235687 -118.135493 
L 292.785793 -119.035977 
L 300.335899 -119.957239 
L 307.886004 -120.380326 
L 315.43611 -121.760327 
L 322.986216 -122.80176 
L 330.536321 -124.024503 
L 338.086427 -125.066737 
L 345.636533 -126.401688 
L 353.186638 -126.844868 
L 360.736744 -128.054607 
L 368.28685 -128.590871 
L 375.836956 -130.01707 
L 383.387061 -130.934912 
L 390.937167 -131.942243 
L 398.487273 -132.660698 
L 398.487273 -150.032171 
L 398.487273 -150.032171 
L 390.937167 -149.343732 
L 383.387061 -147.913101 
L 375.836956 -147.185927 
L 368.28685 -146.136656 
L 360.736744 -144.74191 
L 353.186638 -143.860168 
L 345.636533 -142.128141 
L 338.086427 -140.044878 
L 330.536321 -138.931021 
L 322.986216 -133.924707 
L 315.43611 -131.989438 
L 307.886004 -130.591307 
L 300.335899 -128.284434 
L 292.785793 -127.067006 
L 285.235687 -126.127393 
L 277.685581 -123.680417 
L 270.135476 -121.500892 
L 262.58537 -120.587854 
L 255.035264 -119.786272 
L 247.485159 -118.848097 
L 239.935053 -117.715405 
L 232.384947 -117.05023 
L 224.834841 -115.558324 
L 217.284736 -114.961562 
L 209.73463 -113.886019 
L 202.184524 -112.93279 
L 194.634419 -111.819432 
L 187.084313 -110.64072 
L 179.534207 -109.346122 
L 171.984101 -107.780017 
L 164.433996 -105.547076 
L 156.88389 -102.407102 
L 149.333784 -100.64597 
L 141.783679 -97.642783 
L 134.233573 -96.034123 
L 126.683467 -93.770839 
L 119.133362 -92.062724 
L 111.583256 -89.642484 
L 104.03315 -86.160217 
L 96.483044 -82.644399 
L 88.932939 -80.090607 
L 81.382833 -77.519126 
L 73.832727 -70.104434 
z
" style="stroke: #0000ff; stroke-opacity: 0.2"/>
    </defs>
    <g clip-path="url(#p055badd8ef)">
     <use xlink:href="#mac11a96c40" x="0" y="345.6" style="fill: #0000ff; fill-opacity: 0.2; stroke: #0000ff; stroke-opacity: 0.2"/>
    </g>
   </g>
   <g id="FillBetweenPolyCollection_3">
    <defs>
     <path id="me53e23c0ea" d="M 73.832727 -50.481403 
L 73.832727 -50.112 
L 81.382833 -54.066503 
L 88.932939 -57.828062 
L 96.483044 -60.075871 
L 104.03315 -62.657761 
L 111.583256 -64.620737 
L 119.133362 -66.393983 
L 126.683467 -68.080422 
L 134.233573 -69.568857 
L 141.783679 -70.743329 
L 149.333784 -72.318846 
L 156.88389 -73.897412 
L 164.433996 -75.232164 
L 171.984101 -76.505423 
L 179.534207 -77.947869 
L 187.084313 -79.258455 
L 194.634419 -80.049797 
L 202.184524 -81.170519 
L 209.73463 -81.894469 
L 217.284736 -83.174732 
L 224.834841 -83.843336 
L 232.384947 -85.513959 
L 239.935053 -86.138068 
L 247.485159 -86.564848 
L 255.035264 -87.13913 
L 262.58537 -87.526605 
L 270.135476 -88.192697 
L 277.685581 -89.210796 
L 285.235687 -90.535386 
L 292.785793 -91.407917 
L 300.335899 -91.885565 
L 307.886004 -92.270912 
L 315.43611 -93.453535 
L 322.986216 -94.116478 
L 330.536321 -95.209869 
L 338.086427 -96.139389 
L 345.636533 -96.819212 
L 353.186638 -97.41662 
L 360.736744 -98.153324 
L 368.28685 -98.811449 
L 375.836956 -99.397573 
L 383.387061 -99.803449 
L 390.937167 -100.533138 
L 398.487273 -101.15945 
L 398.487273 -107.712225 
L 398.487273 -107.712225 
L 390.937167 -107.21956 
L 383.387061 -106.274315 
L 375.836956 -105.90617 
L 368.28685 -105.524889 
L 360.736744 -104.600634 
L 353.186638 -104.087699 
L 345.636533 -103.280974 
L 338.086427 -102.283981 
L 330.536321 -99.739636 
L 322.986216 -98.409429 
L 315.43611 -97.071529 
L 307.886004 -96.056497 
L 300.335899 -95.015485 
L 292.785793 -94.663398 
L 285.235687 -93.546906 
L 277.685581 -92.05781 
L 270.135476 -90.879124 
L 262.58537 -90.348 
L 255.035264 -89.841231 
L 247.485159 -89.228127 
L 239.935053 -88.583076 
L 232.384947 -87.77874 
L 224.834841 -86.683412 
L 217.284736 -85.711163 
L 209.73463 -85.131331 
L 202.184524 -84.217563 
L 194.634419 -83.138587 
L 187.084313 -82.12693 
L 179.534207 -80.805619 
L 171.984101 -79.40742 
L 164.433996 -78.12799 
L 156.88389 -76.718068 
L 149.333784 -75.083302 
L 141.783679 -73.151322 
L 134.233573 -71.765349 
L 126.683467 -69.969978 
L 119.133362 -67.95251 
L 111.583256 -66.336527 
L 104.03315 -64.303336 
L 96.483044 -61.617267 
L 88.932939 -59.285607 
L 81.382833 -54.973126 
L 73.832727 -50.481403 
z
" style="stroke: #ff0000; stroke-opacity: 0.2"/>
    </defs>
    <g clip-path="url(#p055badd8ef)">
     <use xlink:href="#me53e23c0ea" x="0" y="345.6" style="fill: #ff0000; fill-opacity: 0.2; stroke: #ff0000; stroke-opacity: 0.2"/>
    </g>
   </g>
   <g id="matplotlib.axis_1">
    <g id="xtick_1">
     <g id="line2d_1">
      <defs>
       <path id="mef319d1a58" d="M 0 0 
L 0 3.5 
" style="stroke: #000000; stroke-width: 0.8"/>
      </defs>
      <g>
       <use xlink:href="#mef319d1a58" x="73.832727" y="307.584" style="stroke: #000000; stroke-width: 0.8"/>
      </g>
     </g>
     <g id="text_1">
      <!-- 0 -->
      <g transform="translate(70.651477 322.182437) scale(0.1 -0.1)">
       <defs>
        <path id="DejaVuSans-30" d="M 2034 4250 
Q 1547 4250 1301 3770 
Q 1056 3291 1056 2328 
Q 1056 1369 1301 889 
Q 1547 409 2034 409 
Q 2525 409 2770 889 
Q 3016 1369 3016 2328 
Q 3016 3291 2770 3770 
Q 2525 4250 2034 4250 
z
M 2034 4750 
Q 2819 4750 3233 4129 
Q 3647 3509 3647 2328 
Q 3647 1150 3233 529 
Q 2819 -91 2034 -91 
Q 1250 -91 836 529 
Q 422 1150 422 2328 
Q 422 3509 836 4129 
Q 1250 4750 2034 4750 
z
" transform="scale(0.015625)"/>
       </defs>
       <use xlink:href="#DejaVuSans-30"/>
      </g>
     </g>
    </g>
    <g id="xtick_2">
     <g id="line2d_2">
      <g>
       <use xlink:href="#mef319d1a58" x="149.333784" y="307.584" style="stroke: #000000; stroke-width: 0.8"/>
      </g>
     </g>
     <g id="text_2">
      <!-- 10 -->
      <g transform="translate(142.971284 322.182437) scale(0.1 -0.1)">
       <defs>
        <path id="DejaVuSans-31" d="M 794 531 
L 1825 531 
L 1825 4091 
L 703 3866 
L 703 4441 
L 1819 4666 
L 2450 4666 
L 2450 531 
L 3481 531 
L 3481 0 
L 794 0 
L 794 531 
z
" transform="scale(0.015625)"/>
       </defs>
       <use xlink:href="#DejaVuSans-31"/>
       <use xlink:href="#DejaVuSans-30" transform="translate(63.623047 0)"/>
      </g>
     </g>
    </g>
    <g id="xtick_3">
     <g id="line2d_3">
      <g>
       <use xlink:href="#mef319d1a58" x="224.834841" y="307.584" style="stroke: #000000; stroke-width: 0.8"/>
      </g>
     </g>
     <g id="text_3">
      <!-- 20 -->
      <g transform="translate(218.472341 322.182437) scale(0.1 -0.1)">
       <defs>
        <path id="DejaVuSans-32" d="M 1228 531 
L 3431 531 
L 3431 0 
L 469 0 
L 469 531 
Q 828 903 1448 1529 
Q 2069 2156 2228 2338 
Q 2531 2678 2651 2914 
Q 2772 3150 2772 3378 
Q 2772 3750 2511 3984 
Q 2250 4219 1831 4219 
Q 1534 4219 1204 4116 
Q 875 4013 500 3803 
L 500 4441 
Q 881 4594 1212 4672 
Q 1544 4750 1819 4750 
Q 2544 4750 2975 4387 
Q 3406 4025 3406 3419 
Q 3406 3131 3298 2873 
Q 3191 2616 2906 2266 
Q 2828 2175 2409 1742 
Q 1991 1309 1228 531 
z
" transform="scale(0.015625)"/>
       </defs>
       <use xlink:href="#DejaVuSans-32"/>
       <use xlink:href="#DejaVuSans-30" transform="translate(63.623047 0)"/>
      </g>
     </g>
    </g>
    <g id="xtick_4">
     <g id="line2d_4">
      <g>
       <use xlink:href="#mef319d1a58" x="300.335899" y="307.584" style="stroke: #000000; stroke-width: 0.8"/>
      </g>
     </g>
     <g id="text_4">
      <!-- 30 -->
      <g transform="translate(293.973399 322.182437) scale(0.1 -0.1)">
       <defs>
        <path id="DejaVuSans-33" d="M 2597 2516 
Q 3050 2419 3304 2112 
Q 3559 1806 3559 1356 
Q 3559 666 3084 287 
Q 2609 -91 1734 -91 
Q 1441 -91 1130 -33 
Q 819 25 488 141 
L 488 750 
Q 750 597 1062 519 
Q 1375 441 1716 441 
Q 2309 441 2620 675 
Q 2931 909 2931 1356 
Q 2931 1769 2642 2001 
Q 2353 2234 1838 2234 
L 1294 2234 
L 1294 2753 
L 1863 2753 
Q 2328 2753 2575 2939 
Q 2822 3125 2822 3475 
Q 2822 3834 2567 4026 
Q 2313 4219 1838 4219 
Q 1578 4219 1281 4162 
Q 984 4106 628 3988 
L 628 4550 
Q 988 4650 1302 4700 
Q 1616 4750 1894 4750 
Q 2613 4750 3031 4423 
Q 3450 4097 3450 3541 
Q 3450 3153 3228 2886 
Q 3006 2619 2597 2516 
z
" transform="scale(0.015625)"/>
       </defs>
       <use xlink:href="#DejaVuSans-33"/>
       <use xlink:href="#DejaVuSans-30" transform="translate(63.623047 0)"/>
      </g>
     </g>
    </g>
    <g id="xtick_5">
     <g id="line2d_5">
      <g>
       <use xlink:href="#mef319d1a58" x="375.836956" y="307.584" style="stroke: #000000; stroke-width: 0.8"/>
      </g>
     </g>
     <g id="text_5">
      <!-- 40 -->
      <g transform="translate(369.474456 322.182437) scale(0.1 -0.1)">
       <defs>
        <path id="DejaVuSans-34" d="M 2419 4116 
L 825 1625 
L 2419 1625 
L 2419 4116 
z
M 2253 4666 
L 3047 4666 
L 3047 1625 
L 3713 1625 
L 3713 1100 
L 3047 1100 
L 3047 0 
L 2419 0 
L 2419 1100 
L 313 1100 
L 313 1709 
L 2253 4666 
z
" transform="scale(0.015625)"/>
       </defs>
       <use xlink:href="#DejaVuSans-34"/>
       <use xlink:href="#DejaVuSans-30" transform="translate(63.623047 0)"/>
      </g>
     </g>
    </g>
    <g id="text_6">
     <!-- Generation -->
     <g transform="translate(208.267031 335.860562) scale(0.1 -0.1)">
      <defs>
       <path id="DejaVuSans-47" d="M 3809 666 
L 3809 1919 
L 2778 1919 
L 2778 2438 
L 4434 2438 
L 4434 434 
Q 4069 175 3628 42 
Q 3188 -91 2688 -91 
Q 1594 -91 976 548 
Q 359 1188 359 2328 
Q 359 3472 976 4111 
Q 1594 4750 2688 4750 
Q 3144 4750 3555 4637 
Q 3966 4525 4313 4306 
L 4313 3634 
Q 3963 3931 3569 4081 
Q 3175 4231 2741 4231 
Q 1884 4231 1454 3753 
Q 1025 3275 1025 2328 
Q 1025 1384 1454 906 
Q 1884 428 2741 428 
Q 3075 428 3337 486 
Q 3600 544 3809 666 
z
" transform="scale(0.015625)"/>
       <path id="DejaVuSans-65" d="M 3597 1894 
L 3597 1613 
L 953 1613 
Q 991 1019 1311 708 
Q 1631 397 2203 397 
Q 2534 397 2845 478 
Q 3156 559 3463 722 
L 3463 178 
Q 3153 47 2828 -22 
Q 2503 -91 2169 -91 
Q 1331 -91 842 396 
Q 353 884 353 1716 
Q 353 2575 817 3079 
Q 1281 3584 2069 3584 
Q 2775 3584 3186 3129 
Q 3597 2675 3597 1894 
z
M 3022 2063 
Q 3016 2534 2758 2815 
Q 2500 3097 2075 3097 
Q 1594 3097 1305 2825 
Q 1016 2553 972 2059 
L 3022 2063 
z
" transform="scale(0.015625)"/>
       <path id="DejaVuSans-6e" d="M 3513 2113 
L 3513 0 
L 2938 0 
L 2938 2094 
Q 2938 2591 2744 2837 
Q 2550 3084 2163 3084 
Q 1697 3084 1428 2787 
Q 1159 2491 1159 1978 
L 1159 0 
L 581 0 
L 581 3500 
L 1159 3500 
L 1159 2956 
Q 1366 3272 1645 3428 
Q 1925 3584 2291 3584 
Q 2894 3584 3203 3211 
Q 3513 2838 3513 2113 
z
" transform="scale(0.015625)"/>
       <path id="DejaVuSans-72" d="M 2631 2963 
Q 2534 3019 2420 3045 
Q 2306 3072 2169 3072 
Q 1681 3072 1420 2755 
Q 1159 2438 1159 1844 
L 1159 0 
L 581 0 
L 581 3500 
L 1159 3500 
L 1159 2956 
Q 1341 3275 1631 3429 
Q 1922 3584 2338 3584 
Q 2397 3584 2469 3576 
Q 2541 3569 2628 3553 
L 2631 2963 
z
" transform="scale(0.015625)"/>
       <path id="DejaVuSans-61" d="M 2194 1759 
Q 1497 1759 1228 1600 
Q 959 1441 959 1056 
Q 959 750 1161 570 
Q 1363 391 1709 391 
Q 2188 391 2477 730 
Q 2766 1069 2766 1631 
L 2766 1759 
L 2194 1759 
z
M 3341 1997 
L 3341 0 
L 2766 0 
L 2766 531 
Q 2569 213 2275 61 
Q 1981 -91 1556 -91 
Q 1019 -91 701 211 
Q 384 513 384 1019 
Q 384 1609 779 1909 
Q 1175 2209 1959 2209 
L 2766 2209 
L 2766 2266 
Q 2766 2663 2505 2880 
Q 2244 3097 1772 3097 
Q 1472 3097 1187 3025 
Q 903 2953 641 2809 
L 641 3341 
Q 956 3463 1253 3523 
Q 1550 3584 1831 3584 
Q 2591 3584 2966 3190 
Q 3341 2797 3341 1997 
z
" transform="scale(0.015625)"/>
       <path id="DejaVuSans-74" d="M 1172 4494 
L 1172 3500 
L 2356 3500 
L 2356 3053 
L 1172 3053 
L 1172 1153 
Q 1172 725 1289 603 
Q 1406 481 1766 481 
L 2356 481 
L 2356 0 
L 1766 0 
Q 1100 0 847 248 
Q 594 497 594 1153 
L 594 3053 
L 172 3053 
L 172 3500 
L 594 3500 
L 594 4494 
L 1172 4494 
z
" transform="scale(0.015625)"/>
       <path id="DejaVuSans-69" d="M 603 3500 
L 1178 3500 
L 1178 0 
L 603 0 
L 603 3500 
z
M 603 4863 
L 1178 4863 
L 1178 4134 
L 603 4134 
L 603 4863 
z
" transform="scale(0.015625)"/>
       <path id="DejaVuSans-6f" d="M 1959 3097 
Q 1497 3097 1228 2736 
Q 959 2375 959 1747 
Q 959 1119 1226 758 
Q 1494 397 1959 397 
Q 2419 397 2687 759 
Q 2956 1122 2956 1747 
Q 2956 2369 2687 2733 
Q 2419 3097 1959 3097 
z
M 1959 3584 
Q 2709 3584 3137 3096 
Q 3566 2609 3566 1747 
Q 3566 888 3137 398 
Q 2709 -91 1959 -91 
Q 1206 -91 779 398 
Q 353 888 353 1747 
Q 353 2609 779 3096 
Q 1206 3584 1959 3584 
z
" transform="scale(0.015625)"/>
      </defs>
      <use xlink:href="#DejaVuSans-47"/>
      <use xlink:href="#DejaVuSans-65" transform="translate(77.490234 0)"/>
      <use xlink:href="#DejaVuSans-6e" transform="translate(139.013672 0)"/>
      <use xlink:href="#DejaVuSans-65" transform="translate(202.392578 0)"/>
      <use xlink:href="#DejaVuSans-72" transform="translate(263.916016 0)"/>
      <use xlink:href="#DejaVuSans-61" transform="translate(305.029297 0)"/>
      <use xlink:href="#DejaVuSans-74" transform="translate(366.308594 0)"/>
      <use xlink:href="#DejaVuSans-69" transform="translate(405.517578 0)"/>
      <use xlink:href="#DejaVuSans-6f" transform="translate(433.300781 0)"/>
      <use xlink:href="#DejaVuSans-6e" transform="translate(494.482422 0)"/>
     </g>
    </g>
   </g>
   <g id="matplotlib.axis_2">
    <g id="ytick_1">
     <g id="line2d_6">
      <defs>
       <path id="m019674233a" d="M 0 0 
L -3.5 0 
" style="stroke: #000000; stroke-width: 0.8"/>
      </defs>
      <g>
       <use xlink:href="#m019674233a" x="57.6" y="297.755777" style="stroke: #000000; stroke-width: 0.8"/>
      </g>
     </g>
     <g id="text_7">
      <!-- 0 -->
      <g transform="translate(44.2375 301.554996) scale(0.1 -0.1)">
       <use xlink:href="#DejaVuSans-30"/>
      </g>
     </g>
    </g>
    <g id="ytick_2">
     <g id="line2d_7">
      <g>
       <use xlink:href="#m019674233a" x="57.6" y="250.80835" style="stroke: #000000; stroke-width: 0.8"/>
      </g>
     </g>
     <g id="text_8">
      <!-- 2 -->
      <g transform="translate(44.2375 254.607568) scale(0.1 -0.1)">
       <use xlink:href="#DejaVuSans-32"/>
      </g>
     </g>
    </g>
    <g id="ytick_3">
     <g id="line2d_8">
      <g>
       <use xlink:href="#m019674233a" x="57.6" y="203.860922" style="stroke: #000000; stroke-width: 0.8"/>
      </g>
     </g>
     <g id="text_9">
      <!-- 4 -->
      <g transform="translate(44.2375 207.660141) scale(0.1 -0.1)">
       <use xlink:href="#DejaVuSans-34"/>
      </g>
     </g>
    </g>
    <g id="ytick_4">
     <g id="line2d_9">
      <g>
       <use xlink:href="#m019674233a" x="57.6" y="156.913495" style="stroke: #000000; stroke-width: 0.8"/>
      </g>
     </g>
     <g id="text_10">
      <!-- 6 -->
      <g transform="translate(44.2375 160.712714) scale(0.1 -0.1)">
       <defs>
        <path id="DejaVuSans-36" d="M 2113 2584 
Q 1688 2584 1439 2293 
Q 1191 2003 1191 1497 
Q 1191 994 1439 701 
Q 1688 409 2113 409 
Q 2538 409 2786 701 
Q 3034 994 3034 1497 
Q 3034 2003 2786 2293 
Q 2538 2584 2113 2584 
z
M 3366 4563 
L 3366 3988 
Q 3128 4100 2886 4159 
Q 2644 4219 2406 4219 
Q 1781 4219 1451 3797 
Q 1122 3375 1075 2522 
Q 1259 2794 1537 2939 
Q 1816 3084 2150 3084 
Q 2853 3084 3261 2657 
Q 3669 2231 3669 1497 
Q 3669 778 3244 343 
Q 2819 -91 2113 -91 
Q 1303 -91 875 529 
Q 447 1150 447 2328 
Q 447 3434 972 4092 
Q 1497 4750 2381 4750 
Q 2619 4750 2861 4703 
Q 3103 4656 3366 4563 
z
" transform="scale(0.015625)"/>
       </defs>
       <use xlink:href="#DejaVuSans-36"/>
      </g>
     </g>
    </g>
    <g id="ytick_5">
     <g id="line2d_10">
      <g>
       <use xlink:href="#m019674233a" x="57.6" y="109.966067" style="stroke: #000000; stroke-width: 0.8"/>
      </g>
     </g>
     <g id="text_11">
      <!-- 8 -->
      <g transform="translate(44.2375 113.765286) scale(0.1 -0.1)">
       <defs>
        <path id="DejaVuSans-38" d="M 2034 2216 
Q 1584 2216 1326 1975 
Q 1069 1734 1069 1313 
Q 1069 891 1326 650 
Q 1584 409 2034 409 
Q 2484 409 2743 651 
Q 3003 894 3003 1313 
Q 3003 1734 2745 1975 
Q 2488 2216 2034 2216 
z
M 1403 2484 
Q 997 2584 770 2862 
Q 544 3141 544 3541 
Q 544 4100 942 4425 
Q 1341 4750 2034 4750 
Q 2731 4750 3128 4425 
Q 3525 4100 3525 3541 
Q 3525 3141 3298 2862 
Q 3072 2584 2669 2484 
Q 3125 2378 3379 2068 
Q 3634 1759 3634 1313 
Q 3634 634 3220 271 
Q 2806 -91 2034 -91 
Q 1263 -91 848 271 
Q 434 634 434 1313 
Q 434 1759 690 2068 
Q 947 2378 1403 2484 
z
M 1172 3481 
Q 1172 3119 1398 2916 
Q 1625 2713 2034 2713 
Q 2441 2713 2670 2916 
Q 2900 3119 2900 3481 
Q 2900 3844 2670 4047 
Q 2441 4250 2034 4250 
Q 1625 4250 1398 4047 
Q 1172 3844 1172 3481 
z
" transform="scale(0.015625)"/>
       </defs>
       <use xlink:href="#DejaVuSans-38"/>
      </g>
     </g>
    </g>
    <g id="ytick_6">
     <g id="line2d_11">
      <g>
       <use xlink:href="#m019674233a" x="57.6" y="63.01864" style="stroke: #000000; stroke-width: 0.8"/>
      </g>
     </g>
     <g id="text_12">
      <!-- 10 -->
      <g transform="translate(37.875 66.817859) scale(0.1 -0.1)">
       <use xlink:href="#DejaVuSans-31"/>
       <use xlink:href="#DejaVuSans-30" transform="translate(63.623047 0)"/>
      </g>
     </g>
    </g>
    <g id="text_13">
     <!-- Average Fitness -->
     <g transform="translate(31.795312 213.967062) rotate(-90) scale(0.1 -0.1)">
      <defs>
       <path id="DejaVuSans-41" d="M 2188 4044 
L 1331 1722 
L 3047 1722 
L 2188 4044 
z
M 1831 4666 
L 2547 4666 
L 4325 0 
L 3669 0 
L 3244 1197 
L 1141 1197 
L 716 0 
L 50 0 
L 1831 4666 
z
" transform="scale(0.015625)"/>
       <path id="DejaVuSans-76" d="M 191 3500 
L 800 3500 
L 1894 563 
L 2988 3500 
L 3597 3500 
L 2284 0 
L 1503 0 
L 191 3500 
z
" transform="scale(0.015625)"/>
       <path id="DejaVuSans-67" d="M 2906 1791 
Q 2906 2416 2648 2759 
Q 2391 3103 1925 3103 
Q 1463 3103 1205 2759 
Q 947 2416 947 1791 
Q 947 1169 1205 825 
Q 1463 481 1925 481 
Q 2391 481 2648 825 
Q 2906 1169 2906 1791 
z
M 3481 434 
Q 3481 -459 3084 -895 
Q 2688 -1331 1869 -1331 
Q 1566 -1331 1297 -1286 
Q 1028 -1241 775 -1147 
L 775 -588 
Q 1028 -725 1275 -790 
Q 1522 -856 1778 -856 
Q 2344 -856 2625 -561 
Q 2906 -266 2906 331 
L 2906 616 
Q 2728 306 2450 153 
Q 2172 0 1784 0 
Q 1141 0 747 490 
Q 353 981 353 1791 
Q 353 2603 747 3093 
Q 1141 3584 1784 3584 
Q 2172 3584 2450 3431 
Q 2728 3278 2906 2969 
L 2906 3500 
L 3481 3500 
L 3481 434 
z
" transform="scale(0.015625)"/>
       <path id="DejaVuSans-20" transform="scale(0.015625)"/>
       <path id="DejaVuSans-46" d="M 628 4666 
L 3309 4666 
L 3309 4134 
L 1259 4134 
L 1259 2759 
L 3109 2759 
L 3109 2228 
L 1259 2228 
L 1259 0 
L 628 0 
L 628 4666 
z
" transform="scale(0.015625)"/>
       <path id="DejaVuSans-73" d="M 2834 3397 
L 2834 2853 
Q 2591 2978 2328 3040 
Q 2066 3103 1784 3103 
Q 1356 3103 1142 2972 
Q 928 2841 928 2578 
Q 928 2378 1081 2264 
Q 1234 2150 1697 2047 
L 1894 2003 
Q 2506 1872 2764 1633 
Q 3022 1394 3022 966 
Q 3022 478 2636 193 
Q 2250 -91 1575 -91 
Q 1294 -91 989 -36 
Q 684 19 347 128 
L 347 722 
Q 666 556 975 473 
Q 1284 391 1588 391 
Q 1994 391 2212 530 
Q 2431 669 2431 922 
Q 2431 1156 2273 1281 
Q 2116 1406 1581 1522 
L 1381 1569 
Q 847 1681 609 1914 
Q 372 2147 372 2553 
Q 372 3047 722 3315 
Q 1072 3584 1716 3584 
Q 2034 3584 2315 3537 
Q 2597 3491 2834 3397 
z
" transform="scale(0.015625)"/>
      </defs>
      <use xlink:href="#DejaVuSans-41"/>
      <use xlink:href="#DejaVuSans-76" transform="translate(62.533203 0)"/>
      <use xlink:href="#DejaVuSans-65" transform="translate(121.712891 0)"/>
      <use xlink:href="#DejaVuSans-72" transform="translate(183.236328 0)"/>
      <use xlink:href="#DejaVuSans-61" transform="translate(224.349609 0)"/>
      <use xlink:href="#DejaVuSans-67" transform="translate(285.628906 0)"/>
      <use xlink:href="#DejaVuSans-65" transform="translate(349.105469 0)"/>
      <use xlink:href="#DejaVuSans-20" transform="translate(410.628906 0)"/>
      <use xlink:href="#DejaVuSans-46" transform="translate(442.416016 0)"/>
      <use xlink:href="#DejaVuSans-69" transform="translate(492.685547 0)"/>
      <use xlink:href="#DejaVuSans-74" transform="translate(520.46875 0)"/>
      <use xlink:href="#DejaVuSans-6e" transform="translate(559.677734 0)"/>
      <use xlink:href="#DejaVuSans-65" transform="translate(623.056641 0)"/>
      <use xlink:href="#DejaVuSans-73" transform="translate(684.580078 0)"/>
      <use xlink:href="#DejaVuSans-73" transform="translate(736.679688 0)"/>
     </g>
    </g>
   </g>
   <g id="line2d_12">
    <path d="M 73.832727 178.200987 
L 81.382833 161.14794 
L 88.932939 160.721421 
L 96.483044 160.721421 
L 104.03315 148.380978 
L 111.583256 145.952815 
L 119.133362 145.085054 
L 126.683467 144.204569 
L 134.233573 143.650177 
L 141.783679 143.650177 
L 149.333784 132.148775 
L 156.88389 132.148775 
L 164.433996 104.926256 
L 171.984101 104.926256 
L 179.534207 104.017286 
L 187.084313 104.017286 
L 194.634419 104.017286 
L 202.184524 102.323032 
L 209.73463 102.323032 
L 217.284736 102.323032 
L 224.834841 102.323032 
L 232.384947 102.323032 
L 239.935053 102.323032 
L 247.485159 102.323032 
L 255.035264 102.323032 
L 262.58537 102.323032 
L 270.135476 102.323032 
L 277.685581 101.52998 
L 285.235687 93.525034 
L 292.785793 93.525034 
L 300.335899 93.525034 
L 307.886004 93.525034 
L 315.43611 93.525034 
L 322.986216 93.525034 
L 330.536321 91.26685 
L 338.086427 91.26685 
L 345.636533 83.546751 
L 353.186638 83.546751 
L 360.736744 83.546751 
L 368.28685 83.546751 
L 375.836956 83.546751 
L 383.387061 83.005724 
L 390.937167 77.83611 
L 398.487273 73.988008 
" clip-path="url(#p055badd8ef)" style="fill: none; stroke: #008000; stroke-width: 1.5; stroke-linecap: square"/>
   </g>
   <g id="line2d_13">
    <path d="M 73.832727 276.528604 
L 81.382833 270.03756 
L 88.932939 267.2509 
L 96.483044 264.810211 
L 104.03315 261.591558 
L 111.583256 258.502227 
L 119.133362 256.168227 
L 126.683467 254.301744 
L 134.233573 252.044014 
L 141.783679 250.287888 
L 149.333784 247.372885 
L 156.88389 245.572107 
L 164.433996 242.417502 
L 171.984101 240.711938 
L 179.534207 239.215859 
L 187.084313 237.902103 
L 194.634419 236.987587 
L 202.184524 235.776051 
L 209.73463 234.860263 
L 217.284736 233.604646 
L 224.834841 232.99123 
L 232.384947 231.464577 
L 239.935053 230.808956 
L 247.485159 229.708823 
L 255.035264 228.945989 
L 262.58537 228.189502 
L 270.135476 227.18941 
L 277.685581 225.523127 
L 285.235687 223.468557 
L 292.785793 222.548508 
L 300.335899 221.479164 
L 307.886004 220.114184 
L 315.43611 218.725118 
L 322.986216 217.236767 
L 330.536321 214.122238 
L 338.086427 213.044192 
L 345.636533 211.335086 
L 353.186638 210.247482 
L 360.736744 209.201741 
L 368.28685 208.236236 
L 375.836956 206.998501 
L 383.387061 206.175993 
L 390.937167 204.957012 
L 398.487273 204.253565 
" clip-path="url(#p055badd8ef)" style="fill: none; stroke: #0000ff; stroke-width: 1.5; stroke-linecap: square"/>
   </g>
   <g id="line2d_14">
    <path d="M 73.832727 295.303299 
L 81.382833 291.080185 
L 88.932939 287.043166 
L 96.483044 284.753431 
L 104.03315 282.119452 
L 111.583256 280.121368 
L 119.133362 278.426754 
L 126.683467 276.5748 
L 134.233573 274.932897 
L 141.783679 273.652675 
L 149.333784 271.898926 
L 156.88389 270.29226 
L 164.433996 268.919923 
L 171.984101 267.643578 
L 179.534207 266.223256 
L 187.084313 264.907308 
L 194.634419 264.005808 
L 202.184524 262.905959 
L 209.73463 262.0871 
L 217.284736 261.157052 
L 224.834841 260.336626 
L 232.384947 258.95365 
L 239.935053 258.239428 
L 247.485159 257.703513 
L 255.035264 257.10982 
L 262.58537 256.662697 
L 270.135476 256.064089 
L 277.685581 254.965697 
L 285.235687 253.558854 
L 292.785793 252.564343 
L 300.335899 252.149475 
L 307.886004 251.436296 
L 315.43611 250.337468 
L 322.986216 249.337047 
L 330.536321 248.125248 
L 338.086427 246.388315 
L 345.636533 245.549907 
L 353.186638 244.847841 
L 360.736744 244.223021 
L 368.28685 243.431831 
L 375.836956 242.948128 
L 383.387061 242.561118 
L 390.937167 241.723651 
L 398.487273 241.164163 
" clip-path="url(#p055badd8ef)" style="fill: none; stroke: #ff0000; stroke-width: 1.5; stroke-linecap: square"/>
   </g>
   <g id="line2d_15">
    <path d="M 73.832727 276.528604 
L 81.382833 270.03756 
L 88.932939 267.2509 
L 96.483044 264.810211 
L 104.03315 261.591558 
L 111.583256 258.502227 
L 119.133362 256.168227 
L 126.683467 254.301744 
L 134.233573 252.044014 
L 141.783679 250.287888 
L 149.333784 247.372885 
L 156.88389 245.572107 
L 164.433996 242.417502 
L 171.984101 240.711938 
L 179.534207 239.215859 
L 187.084313 237.902103 
L 194.634419 236.987587 
L 202.184524 235.776051 
L 209.73463 234.860263 
L 217.284736 233.604646 
L 224.834841 232.99123 
L 232.384947 231.464577 
L 239.935053 230.808956 
L 247.485159 229.708823 
L 255.035264 228.945989 
L 262.58537 228.189502 
L 270.135476 227.18941 
L 277.685581 225.523127 
L 285.235687 223.468557 
L 292.785793 222.548508 
L 300.335899 221.479164 
L 307.886004 220.114184 
L 315.43611 218.725118 
L 322.986216 217.236767 
L 330.536321 214.122238 
L 338.086427 213.044192 
L 345.636533 211.335086 
L 353.186638 210.247482 
L 360.736744 209.201741 
L 368.28685 208.236236 
L 375.836956 206.998501 
L 383.387061 206.175993 
L 390.937167 204.957012 
L 398.487273 204.253565 
" clip-path="url(#p055badd8ef)" style="fill: none; stroke: #0000ff; stroke-width: 1.5; stroke-linecap: square"/>
   </g>
   <g id="line2d_16">
    <path d="M 73.832727 295.303299 
L 81.382833 291.080185 
L 88.932939 287.043166 
L 96.483044 284.753431 
L 104.03315 282.119452 
L 111.583256 280.121368 
L 119.133362 278.426754 
L 126.683467 276.5748 
L 134.233573 274.932897 
L 141.783679 273.652675 
L 149.333784 271.898926 
L 156.88389 270.29226 
L 164.433996 268.919923 
L 171.984101 267.643578 
L 179.534207 266.223256 
L 187.084313 264.907308 
L 194.634419 264.005808 
L 202.184524 262.905959 
L 209.73463 262.0871 
L 217.284736 261.157052 
L 224.834841 260.336626 
L 232.384947 258.95365 
L 239.935053 258.239428 
L 247.485159 257.703513 
L 255.035264 257.10982 
L 262.58537 256.662697 
L 270.135476 256.064089 
L 277.685581 254.965697 
L 285.235687 253.558854 
L 292.785793 252.564343 
L 300.335899 252.149475 
L 307.886004 251.436296 
L 315.43611 250.337468 
L 322.986216 249.337047 
L 330.536321 248.125248 
L 338.086427 246.388315 
L 345.636533 245.549907 
L 353.186638 244.847841 
L 360.736744 244.223021 
L 368.28685 243.431831 
L 375.836956 242.948128 
L 383.387061 242.561118 
L 390.937167 241.723651 
L 398.487273 241.164163 
" clip-path="url(#p055badd8ef)" style="fill: none; stroke: #ff0000; stroke-width: 1.5; stroke-linecap: square"/>
   </g>
   <g id="patch_3">
    <path d="M 57.6 307.584 
L 57.6 41.472 
" style="fill: none; stroke: #000000; stroke-width: 0.8; stroke-linejoin: miter; stroke-linecap: square"/>
   </g>
   <g id="patch_4">
    <path d="M 414.72 307.584 
L 414.72 41.472 
" style="fill: none; stroke: #000000; stroke-width: 0.8; stroke-linejoin: miter; stroke-linecap: square"/>
   </g>
   <g id="patch_5">
    <path d="M 57.6 307.584 
L 414.72 307.584 
" style="fill: none; stroke: #000000; stroke-width: 0.8; stroke-linejoin: miter; stroke-linecap: square"/>
   </g>
   <g id="patch_6">
    <path d="M 57.6 41.472 
L 414.72 41.472 
" style="fill: none; stroke: #000000; stroke-width: 0.8; stroke-linejoin: miter; stroke-linecap: square"/>
   </g>
   <g id="text_14">
    <!-- Average Fitness over Generations -->
    <g transform="translate(135.04125 35.472) scale(0.12 -0.12)">
     <use xlink:href="#DejaVuSans-41"/>
     <use xlink:href="#DejaVuSans-76" transform="translate(62.533203 0)"/>
     <use xlink:href="#DejaVuSans-65" transform="translate(121.712891 0)"/>
     <use xlink:href="#DejaVuSans-72" transform="translate(183.236328 0)"/>
     <use xlink:href="#DejaVuSans-61" transform="translate(224.349609 0)"/>
     <use xlink:href="#DejaVuSans-67" transform="translate(285.628906 0)"/>
     <use xlink:href="#DejaVuSans-65" transform="translate(349.105469 0)"/>
     <use xlink:href="#DejaVuSans-20" transform="translate(410.628906 0)"/>
     <use xlink:href="#DejaVuSans-46" transform="translate(442.416016 0)"/>
     <use xlink:href="#DejaVuSans-69" transform="translate(492.685547 0)"/>
     <use xlink:href="#DejaVuSans-74" transform="translate(520.46875 0)"/>
     <use xlink:href="#DejaVuSans-6e" transform="translate(559.677734 0)"/>
     <use xlink:href="#DejaVuSans-65" transform="translate(623.056641 0)"/>
     <use xlink:href="#DejaVuSans-73" transform="translate(684.580078 0)"/>
     <use xlink:href="#DejaVuSans-73" transform="translate(736.679688 0)"/>
     <use xlink:href="#DejaVuSans-20" transform="translate(788.779297 0)"/>
     <use xlink:href="#DejaVuSans-6f" transform="translate(820.566406 0)"/>
     <use xlink:href="#DejaVuSans-76" transform="translate(881.748047 0)"/>
     <use xlink:href="#DejaVuSans-65" transform="translate(940.927734 0)"/>
     <use xlink:href="#DejaVuSans-72" transform="translate(1002.451172 0)"/>
     <use xlink:href="#DejaVuSans-20" transform="translate(1043.564453 0)"/>
     <use xlink:href="#DejaVuSans-47" transform="translate(1075.351562 0)"/>
     <use xlink:href="#DejaVuSans-65" transform="translate(1152.841797 0)"/>
     <use xlink:href="#DejaVuSans-6e" transform="translate(1214.365234 0)"/>
     <use xlink:href="#DejaVuSans-65" transform="translate(1277.744141 0)"/>
     <use xlink:href="#DejaVuSans-72" transform="translate(1339.267578 0)"/>
     <use xlink:href="#DejaVuSans-61" transform="translate(1380.380859 0)"/>
     <use xlink:href="#DejaVuSans-74" transform="translate(1441.660156 0)"/>
     <use xlink:href="#DejaVuSans-69" transform="translate(1480.869141 0)"/>
     <use xlink:href="#DejaVuSans-6f" transform="translate(1508.652344 0)"/>
     <use xlink:href="#DejaVuSans-6e" transform="translate(1569.833984 0)"/>
     <use xlink:href="#DejaVuSans-73" transform="translate(1633.212891 0)"/>
    </g>
   </g>
   <g id="legend_1">
    <g id="patch_7">
     <path d="M 309.248125 302.584 
L 407.72 302.584 
Q 409.72 302.584 409.72 300.584 
L 409.72 257.549625 
Q 409.72 255.549625 407.72 255.549625 
L 309.248125 255.549625 
Q 307.248125 255.549625 307.248125 257.549625 
L 307.248125 300.584 
Q 307.248125 302.584 309.248125 302.584 
z
" style="fill: #ffffff; opacity: 0.8; stroke: #cccccc; stroke-linejoin: miter"/>
    </g>
    <g id="line2d_17">
     <path d="M 311.248125 263.648062 
L 321.248125 263.648062 
L 331.248125 263.648062 
" style="fill: none; stroke: #008000; stroke-width: 1.5; stroke-linecap: square"/>
    </g>
    <g id="text_15">
     <!-- Best Fitness -->
     <g transform="translate(339.248125 267.148062) scale(0.1 -0.1)">
      <defs>
       <path id="DejaVuSans-42" d="M 1259 2228 
L 1259 519 
L 2272 519 
Q 2781 519 3026 730 
Q 3272 941 3272 1375 
Q 3272 1813 3026 2020 
Q 2781 2228 2272 2228 
L 1259 2228 
z
M 1259 4147 
L 1259 2741 
L 2194 2741 
Q 2656 2741 2882 2914 
Q 3109 3088 3109 3444 
Q 3109 3797 2882 3972 
Q 2656 4147 2194 4147 
L 1259 4147 
z
M 628 4666 
L 2241 4666 
Q 2963 4666 3353 4366 
Q 3744 4066 3744 3513 
Q 3744 3084 3544 2831 
Q 3344 2578 2956 2516 
Q 3422 2416 3680 2098 
Q 3938 1781 3938 1306 
Q 3938 681 3513 340 
Q 3088 0 2303 0 
L 628 0 
L 628 4666 
z
" transform="scale(0.015625)"/>
      </defs>
      <use xlink:href="#DejaVuSans-42"/>
      <use xlink:href="#DejaVuSans-65" transform="translate(68.603516 0)"/>
      <use xlink:href="#DejaVuSans-73" transform="translate(130.126953 0)"/>
      <use xlink:href="#DejaVuSans-74" transform="translate(182.226562 0)"/>
      <use xlink:href="#DejaVuSans-20" transform="translate(221.435547 0)"/>
      <use xlink:href="#DejaVuSans-46" transform="translate(253.222656 0)"/>
      <use xlink:href="#DejaVuSans-69" transform="translate(303.492188 0)"/>
      <use xlink:href="#DejaVuSans-74" transform="translate(331.275391 0)"/>
      <use xlink:href="#DejaVuSans-6e" transform="translate(370.484375 0)"/>
      <use xlink:href="#DejaVuSans-65" transform="translate(433.863281 0)"/>
      <use xlink:href="#DejaVuSans-73" transform="translate(495.386719 0)"/>
      <use xlink:href="#DejaVuSans-73" transform="translate(547.486328 0)"/>
     </g>
    </g>
    <g id="line2d_18">
     <path d="M 311.248125 278.326188 
L 321.248125 278.326188 
L 331.248125 278.326188 
" style="fill: none; stroke: #0000ff; stroke-width: 1.5; stroke-linecap: square"/>
    </g>
    <g id="text_16">
     <!-- Mean Fitness -->
     <g transform="translate(339.248125 281.826188) scale(0.1 -0.1)">
      <defs>
       <path id="DejaVuSans-4d" d="M 628 4666 
L 1569 4666 
L 2759 1491 
L 3956 4666 
L 4897 4666 
L 4897 0 
L 4281 0 
L 4281 4097 
L 3078 897 
L 2444 897 
L 1241 4097 
L 1241 0 
L 628 0 
L 628 4666 
z
" transform="scale(0.015625)"/>
      </defs>
      <use xlink:href="#DejaVuSans-4d"/>
      <use xlink:href="#DejaVuSans-65" transform="translate(86.279297 0)"/>
      <use xlink:href="#DejaVuSans-61" transform="translate(147.802734 0)"/>
      <use xlink:href="#DejaVuSans-6e" transform="translate(209.082031 0)"/>
      <use xlink:href="#DejaVuSans-20" transform="translate(272.460938 0)"/>
      <use xlink:href="#DejaVuSans-46" transform="translate(304.248047 0)"/>
      <use xlink:href="#DejaVuSans-69" transform="translate(354.517578 0)"/>
      <use xlink:href="#DejaVuSans-74" transform="translate(382.300781 0)"/>
      <use xlink:href="#DejaVuSans-6e" transform="translate(421.509766 0)"/>
      <use xlink:href="#DejaVuSans-65" transform="translate(484.888672 0)"/>
      <use xlink:href="#DejaVuSans-73" transform="translate(546.412109 0)"/>
      <use xlink:href="#DejaVuSans-73" transform="translate(598.511719 0)"/>
     </g>
    </g>
    <g id="line2d_19">
     <path d="M 311.248125 293.004312 
L 321.248125 293.004312 
L 331.248125 293.004312 
" style="fill: none; stroke: #ff0000; stroke-width: 1.5; stroke-linecap: square"/>
    </g>
    <g id="text_17">
     <!-- Worst Fitness -->
     <g transform="translate(339.248125 296.504312) scale(0.1 -0.1)">
      <defs>
       <path id="DejaVuSans-57" d="M 213 4666 
L 850 4666 
L 1831 722 
L 2809 4666 
L 3519 4666 
L 4500 722 
L 5478 4666 
L 6119 4666 
L 4947 0 
L 4153 0 
L 3169 4050 
L 2175 0 
L 1381 0 
L 213 4666 
z
" transform="scale(0.015625)"/>
      </defs>
      <use xlink:href="#DejaVuSans-57"/>
      <use xlink:href="#DejaVuSans-6f" transform="translate(93.001953 0)"/>
      <use xlink:href="#DejaVuSans-72" transform="translate(154.183594 0)"/>
      <use xlink:href="#DejaVuSans-73" transform="translate(195.296875 0)"/>
      <use xlink:href="#DejaVuSans-74" transform="translate(247.396484 0)"/>
      <use xlink:href="#DejaVuSans-20" transform="translate(286.605469 0)"/>
      <use xlink:href="#DejaVuSans-46" transform="translate(318.392578 0)"/>
      <use xlink:href="#DejaVuSans-69" transform="translate(368.662109 0)"/>
      <use xlink:href="#DejaVuSans-74" transform="translate(396.445312 0)"/>
      <use xlink:href="#DejaVuSans-6e" transform="translate(435.654297 0)"/>
      <use xlink:href="#DejaVuSans-65" transform="translate(499.033203 0)"/>
      <use xlink:href="#DejaVuSans-73" transform="translate(560.556641 0)"/>
      <use xlink:href="#DejaVuSans-73" transform="translate(612.65625 0)"/>
     </g>
    </g>
   </g>
  </g>
 </g>
 <defs>
  <clipPath id="p055badd8ef">
   <rect x="57.6" y="41.472" width="357.12" height="266.112"/>
  </clipPath>
 </defs>
</svg>
