<?xml version="1.0" encoding="utf-8" standalone="no"?>
<!DOCTYPE svg PUBLIC "-//W3C//DTD SVG 1.1//EN"
  "http://www.w3.org/Graphics/SVG/1.1/DTD/svg11.dtd">
<svg xmlns:xlink="http://www.w3.org/1999/xlink" width="460.8pt" height="345.6pt" viewBox="0 0 460.8 345.6" xmlns="http://www.w3.org/2000/svg" version="1.1">
 <metadata>
  <rdf:RDF xmlns:dc="http://purl.org/dc/elements/1.1/" xmlns:cc="http://creativecommons.org/ns#" xmlns:rdf="http://www.w3.org/1999/02/22-rdf-syntax-ns#">
   <cc:Work>
    <dc:type rdf:resource="http://purl.org/dc/dcmitype/StillImage"/>
    <dc:date>2025-11-13T11:20:08.007663</dc:date>
    <dc:format>image/svg+xml</dc:format>
    <dc:creator>
     <cc:Agent>
      <dc:title>Matplotlib v3.10.0, https://matplotlib.org/</dc:title>
     </cc:Agent>
    </dc:creator>
   </cc:Work>
  </rdf:RDF>
 </metadata>
 <defs>
  <style type="text/css">*{stroke-linejoin: round; stroke-linecap: butt}</style>
 </defs>
 <g id="figure_1">
  <g id="patch_1">
   <path d="M 0 345.6 
L 460.8 345.6 
L 460.8 0 
L 0 0 
z
" style="fill: #ffffff"/>
  </g>
  <g id="axes_1">
   <g id="patch_2">
    <path d="M 57.6 307.584 
L 414.72 307.584 
L 414.72 41.472 
L 57.6 41.472 
z
" style="fill: #ffffff"/>
   </g>
   <g id="FillBetweenPolyCollection_1">
    <defs>
     <path id="m27c5beae14" d="M 73.832727 -166.8928 
L 73.832727 -144.602503 
L 78.905455 -158.029887 
L 83.978182 -158.592593 
L 89.050909 -158.592593 
L 94.123636 -162.439047 
L 99.196364 -164.949489 
L 104.269091 -166.005978 
L 109.341818 -167.124725 
L 114.414545 -167.670572 
L 119.487273 -167.670572 
L 124.56 -178.859662 
L 129.632727 -178.859662 
L 134.705455 -201.724136 
L 139.778182 -201.724136 
L 144.850909 -202.74863 
L 149.923636 -202.74863 
L 154.996364 -202.74863 
L 160.069091 -204.15005 
L 165.141818 -204.15005 
L 170.214545 -204.15005 
L 175.287273 -204.15005 
L 180.36 -204.15005 
L 185.432727 -204.15005 
L 190.505455 -204.15005 
L 195.578182 -204.15005 
L 200.650909 -204.15005 
L 205.723636 -204.15005 
L 210.796364 -205.022946 
L 215.869091 -214.009994 
L 220.941818 -214.009994 
L 226.014545 -214.009994 
L 231.087273 -214.009994 
L 236.16 -214.009994 
L 241.232727 -214.009994 
L 246.305455 -214.702777 
L 251.378182 -214.702777 
L 256.450909 -220.881129 
L 261.523636 -220.881129 
L 266.596364 -220.881129 
L 271.669091 -220.881129 
L 276.741818 -220.881129 
L 281.814545 -221.5014 
L 286.887273 -227.009417 
L 291.96 -231.216579 
L 297.032727 -231.216579 
L 302.105455 -240.259353 
L 307.178182 -240.259353 
L 312.250909 -240.259353 
L 317.323636 -240.259353 
L 322.396364 -240.259353 
L 327.469091 -240.259353 
L 332.541818 -240.259353 
L 337.614545 -247.783599 
L 342.687273 -247.783599 
L 347.76 -247.783599 
L 352.832727 -247.783599 
L 357.905455 -247.783599 
L 362.978182 -247.783599 
L 368.050909 -248.458798 
L 373.123636 -248.458798 
L 378.196364 -248.458798 
L 383.269091 -248.458798 
L 388.341818 -248.458798 
L 393.414545 -249.388078 
L 398.487273 -249.388078 
L 398.487273 -292.032 
L 398.487273 -292.032 
L 393.414545 -292.032 
L 388.341818 -291.647958 
L 383.269091 -291.647958 
L 378.196364 -291.647958 
L 373.123636 -291.647958 
L 368.050909 -291.647958 
L 362.978182 -290.760637 
L 357.905455 -290.760637 
L 352.832727 -290.760637 
L 347.76 -290.760637 
L 342.687273 -290.760637 
L 337.614545 -290.760637 
L 332.541818 -282.491233 
L 327.469091 -282.491233 
L 322.396364 -282.491233 
L 317.323636 -282.491233 
L 312.250909 -282.491233 
L 307.178182 -282.491233 
L 302.105455 -282.491233 
L 297.032727 -267.999523 
L 291.96 -267.999523 
L 286.887273 -265.275027 
L 281.814545 -261.470921 
L 276.741818 -261.116629 
L 271.669091 -261.116629 
L 266.596364 -261.116629 
L 261.523636 -261.116629 
L 256.450909 -261.116629 
L 251.378182 -253.388623 
L 246.305455 -253.388623 
L 241.232727 -250.013697 
L 236.16 -250.013697 
L 231.087273 -250.013697 
L 226.014545 -250.013697 
L 220.941818 -250.013697 
L 215.869091 -250.013697 
L 210.796364 -244.581285 
L 205.723636 -244.025641 
L 200.650909 -244.025641 
L 195.578182 -244.025641 
L 190.505455 -244.025641 
L 185.432727 -244.025641 
L 180.36 -244.025641 
L 175.287273 -244.025641 
L 170.214545 -244.025641 
L 165.141818 -244.025641 
L 160.069091 -244.025641 
L 154.996364 -242.375169 
L 149.923636 -242.375169 
L 144.850909 -242.375169 
L 139.778182 -241.762319 
L 134.705455 -241.762319 
L 129.632727 -215.590357 
L 124.56 -215.590357 
L 119.487273 -206.061755 
L 114.414545 -206.061755 
L 109.341818 -205.608965 
L 104.269091 -205.141678 
L 99.196364 -204.635053 
L 94.123636 -202.771599 
L 89.050909 -184.388981 
L 83.978182 -184.388981 
L 78.905455 -184.18339 
L 73.832727 -166.8928 
z
" style="stroke: #008000; stroke-opacity: 0.2"/>
    </defs>
    <g clip-path="url(#p3abbb63da9)">
     <use xlink:href="#m27c5beae14" x="0" y="345.6" style="fill: #008000; fill-opacity: 0.2; stroke: #008000; stroke-opacity: 0.2"/>
    </g>
   </g>
   <g id="FillBetweenPolyCollection_2">
    <defs>
     <path id="mdbdcba18f5" d="M 73.832727 -68.118374 
L 73.832727 -66.257543 
L 78.905455 -71.27187 
L 83.978182 -73.975505 
L 89.050909 -76.071868 
L 94.123636 -78.703132 
L 99.196364 -81.131667 
L 104.269091 -83.156132 
L 109.341818 -84.979833 
L 114.414545 -87.008277 
L 119.487273 -88.722765 
L 124.56 -91.268766 
L 129.632727 -92.926363 
L 134.705455 -95.780764 
L 139.778182 -96.841908 
L 144.850909 -98.126297 
L 149.923636 -99.326797 
L 154.996364 -99.912514 
L 160.069091 -101.092122 
L 165.141818 -101.883212 
L 170.214545 -103.176281 
L 175.287273 -103.74376 
L 180.36 -105.15005 
L 185.432727 -105.731936 
L 190.505455 -106.693457 
L 195.578182 -107.222588 
L 200.650909 -107.86331 
L 205.723636 -108.842457 
L 210.796364 -109.880955 
L 215.869091 -111.377999 
L 220.941818 -112.189028 
L 226.014545 -113.018772 
L 231.087273 -113.399828 
L 236.16 -114.642739 
L 241.232727 -115.580716 
L 246.305455 -116.681991 
L 251.378182 -117.620689 
L 256.450909 -118.823025 
L 261.523636 -119.22218 
L 266.596364 -120.311742 
L 271.669091 -120.794734 
L 276.741818 -122.079253 
L 281.814545 -122.905916 
L 286.887273 -123.813178 
L 291.96 -124.460261 
L 297.032727 -125.241258 
L 302.105455 -126.358185 
L 307.178182 -127.145572 
L 312.250909 -128.119534 
L 317.323636 -129.079686 
L 322.396364 -129.682617 
L 327.469091 -129.837249 
L 332.541818 -129.956078 
L 337.614545 -130.937464 
L 342.687273 -131.527141 
L 347.76 -131.743052 
L 352.832727 -131.948364 
L 357.905455 -132.701473 
L 362.978182 -133.246072 
L 368.050909 -135.351267 
L 373.123636 -135.770796 
L 378.196364 -136.160441 
L 383.269091 -137.017195 
L 388.341818 -137.63121 
L 393.414545 -138.521697 
L 398.487273 -139.491109 
L 398.487273 -161.160255 
L 398.487273 -161.160255 
L 393.414545 -160.14264 
L 388.341818 -158.963697 
L 383.269091 -158.164977 
L 378.196364 -157.26133 
L 373.123636 -156.083528 
L 368.050909 -154.473767 
L 362.978182 -151.626558 
L 357.905455 -151.191136 
L 352.832727 -149.761069 
L 347.76 -149.513548 
L 342.687273 -149.323644 
L 337.614545 -148.438136 
L 332.541818 -146.654266 
L 327.469091 -146.567376 
L 322.396364 -146.424261 
L 317.323636 -145.626462 
L 312.250909 -144.458836 
L 307.178182 -143.579437 
L 302.105455 -142.276993 
L 297.032727 -141.222429 
L 291.96 -140.106042 
L 286.887273 -139.485993 
L 281.814545 -138.197482 
L 276.741818 -137.542546 
L 271.669091 -136.59751 
L 266.596364 -135.341318 
L 261.523636 -134.547169 
L 256.450909 -132.987203 
L 251.378182 -131.110893 
L 246.305455 -130.107687 
L 241.232727 -125.598703 
L 236.16 -123.855684 
L 231.087273 -122.596445 
L 226.014545 -120.518738 
L 220.941818 -119.42225 
L 215.869091 -118.575978 
L 210.796364 -116.372087 
L 205.723636 -114.409077 
L 200.650909 -113.586741 
L 195.578182 -112.864788 
L 190.505455 -112.019812 
L 185.432727 -110.999643 
L 180.36 -110.400547 
L 175.287273 -109.056847 
L 170.214545 -108.519368 
L 165.141818 -107.55067 
L 160.069091 -106.692136 
L 154.996364 -105.689379 
L 149.923636 -104.627761 
L 144.850909 -103.461769 
L 139.778182 -102.051242 
L 134.705455 -100.040122 
L 129.632727 -97.212075 
L 124.56 -95.625895 
L 119.487273 -92.921047 
L 114.414545 -91.472192 
L 109.341818 -89.433744 
L 104.269091 -87.895314 
L 99.196364 -85.715503 
L 94.123636 -82.579165 
L 89.050909 -79.412611 
L 83.978182 -77.112514 
L 78.905455 -74.796486 
L 73.832727 -68.118374 
z
" style="stroke: #0000ff; stroke-opacity: 0.2"/>
    </defs>
    <g clip-path="url(#p3abbb63da9)">
     <use xlink:href="#mdbdcba18f5" x="0" y="345.6" style="fill: #0000ff; fill-opacity: 0.2; stroke: #0000ff; stroke-opacity: 0.2"/>
    </g>
   </g>
   <g id="FillBetweenPolyCollection_3">
    <defs>
     <path id="m9df65b0e5a" d="M 73.832727 -50.444706 
L 73.832727 -50.112 
L 78.905455 -53.673661 
L 83.978182 -57.061543 
L 89.050909 -59.086054 
L 94.123636 -61.411457 
L 99.196364 -63.179431 
L 104.269091 -64.776521 
L 109.341818 -66.295429 
L 114.414545 -67.636001 
L 119.487273 -68.6938 
L 124.56 -70.112805 
L 129.632727 -71.534555 
L 134.705455 -72.736712 
L 139.778182 -73.883485 
L 144.850909 -75.182637 
L 149.923636 -76.363029 
L 154.996364 -77.075758 
L 160.069091 -78.085148 
L 165.141818 -78.73718 
L 170.214545 -79.890261 
L 175.287273 -80.492445 
L 180.36 -81.997107 
L 185.432727 -82.559217 
L 190.505455 -82.943601 
L 195.578182 -83.460833 
L 200.650909 -83.809816 
L 205.723636 -84.409738 
L 210.796364 -85.326698 
L 215.869091 -86.519703 
L 220.941818 -87.305556 
L 226.014545 -87.735754 
L 231.087273 -88.08282 
L 236.16 -89.147961 
L 241.232727 -89.745047 
L 246.305455 -90.72982 
L 251.378182 -91.567001 
L 256.450909 -92.17929 
L 261.523636 -92.71735 
L 266.596364 -93.38087 
L 271.669091 -93.973617 
L 276.741818 -94.501515 
L 281.814545 -94.867071 
L 286.887273 -95.524272 
L 291.96 -96.088366 
L 297.032727 -96.449893 
L 302.105455 -97.059468 
L 307.178182 -97.896835 
L 312.250909 -98.499215 
L 317.323636 -99.278792 
L 322.396364 -100.366842 
L 327.469091 -100.689536 
L 332.541818 -101.095044 
L 337.614545 -101.310062 
L 342.687273 -101.459056 
L 347.76 -101.884676 
L 352.832727 -101.9473 
L 357.905455 -102.261344 
L 362.978182 -102.731835 
L 368.050909 -103.116787 
L 373.123636 -103.667011 
L 378.196364 -103.7904 
L 383.269091 -104.427916 
L 388.341818 -105.213004 
L 393.414545 -105.659892 
L 398.487273 -106.540863 
L 398.487273 -119.159384 
L 398.487273 -119.159384 
L 393.414545 -118.304375 
L 388.341818 -116.895299 
L 383.269091 -116.142203 
L 378.196364 -115.625596 
L 373.123636 -115.002592 
L 368.050909 -114.343468 
L 362.978182 -112.5564 
L 357.905455 -112.081867 
L 352.832727 -111.360085 
L 347.76 -110.939184 
L 342.687273 -110.524149 
L 337.614545 -109.790653 
L 332.541818 -108.755023 
L 327.469091 -108.416904 
L 322.396364 -107.895459 
L 317.323636 -106.936791 
L 312.250909 -105.429549 
L 307.178182 -104.957461 
L 302.105455 -102.985735 
L 297.032727 -102.588583 
L 291.96 -101.990184 
L 286.887273 -101.546461 
L 281.814545 -100.695117 
L 276.741818 -100.363544 
L 271.669091 -100.02014 
L 266.596364 -99.1877 
L 261.523636 -98.725721 
L 256.450909 -97.999136 
L 251.378182 -97.101185 
L 246.305455 -94.809597 
L 241.232727 -93.611533 
L 236.16 -92.406541 
L 231.087273 -91.492343 
L 226.014545 -90.554746 
L 220.941818 -90.237635 
L 215.869091 -89.232057 
L 210.796364 -87.890888 
L 205.723636 -86.829294 
L 200.650909 -86.350932 
L 195.578182 -85.894505 
L 190.505455 -85.342307 
L 185.432727 -84.761336 
L 180.36 -84.036904 
L 175.287273 -83.050386 
L 170.214545 -82.174721 
L 165.141818 -81.65249 
L 160.069091 -80.829496 
L 154.996364 -79.857706 
L 149.923636 -78.946548 
L 144.850909 -77.756496 
L 139.778182 -76.497195 
L 134.705455 -75.344864 
L 129.632727 -74.075005 
L 124.56 -72.602638 
L 119.487273 -70.862582 
L 114.414545 -69.614293 
L 109.341818 -67.997274 
L 104.269091 -66.180223 
L 99.196364 -64.724773 
L 94.123636 -62.89356 
L 89.050909 -60.474327 
L 83.978182 -58.374295 
L 78.905455 -54.490219 
L 73.832727 -50.444706 
z
" style="stroke: #ff0000; stroke-opacity: 0.2"/>
    </defs>
    <g clip-path="url(#p3abbb63da9)">
     <use xlink:href="#m9df65b0e5a" x="0" y="345.6" style="fill: #ff0000; fill-opacity: 0.2; stroke: #ff0000; stroke-opacity: 0.2"/>
    </g>
   </g>
   <g id="matplotlib.axis_1">
    <g id="xtick_1">
     <g id="line2d_1">
      <defs>
       <path id="m994a6e2cd0" d="M 0 0 
L 0 3.5 
" style="stroke: #000000; stroke-width: 0.8"/>
      </defs>
      <g>
       <use xlink:href="#m994a6e2cd0" x="73.832727" y="307.584" style="stroke: #000000; stroke-width: 0.8"/>
      </g>
     </g>
     <g id="text_1">
      <!-- 0 -->
      <g transform="translate(70.651477 322.182437) scale(0.1 -0.1)">
       <defs>
        <path id="DejaVuSans-30" d="M 2034 4250 
Q 1547 4250 1301 3770 
Q 1056 3291 1056 2328 
Q 1056 1369 1301 889 
Q 1547 409 2034 409 
Q 2525 409 2770 889 
Q 3016 1369 3016 2328 
Q 3016 3291 2770 3770 
Q 2525 4250 2034 4250 
z
M 2034 4750 
Q 2819 4750 3233 4129 
Q 3647 3509 3647 2328 
Q 3647 1150 3233 529 
Q 2819 -91 2034 -91 
Q 1250 -91 836 529 
Q 422 1150 422 2328 
Q 422 3509 836 4129 
Q 1250 4750 2034 4750 
z
" transform="scale(0.015625)"/>
       </defs>
       <use xlink:href="#DejaVuSans-30"/>
      </g>
     </g>
    </g>
    <g id="xtick_2">
     <g id="line2d_2">
      <g>
       <use xlink:href="#m994a6e2cd0" x="124.56" y="307.584" style="stroke: #000000; stroke-width: 0.8"/>
      </g>
     </g>
     <g id="text_2">
      <!-- 10 -->
      <g transform="translate(118.1975 322.182437) scale(0.1 -0.1)">
       <defs>
        <path id="DejaVuSans-31" d="M 794 531 
L 1825 531 
L 1825 4091 
L 703 3866 
L 703 4441 
L 1819 4666 
L 2450 4666 
L 2450 531 
L 3481 531 
L 3481 0 
L 794 0 
L 794 531 
z
" transform="scale(0.015625)"/>
       </defs>
       <use xlink:href="#DejaVuSans-31"/>
       <use xlink:href="#DejaVuSans-30" transform="translate(63.623047 0)"/>
      </g>
     </g>
    </g>
    <g id="xtick_3">
     <g id="line2d_3">
      <g>
       <use xlink:href="#m994a6e2cd0" x="175.287273" y="307.584" style="stroke: #000000; stroke-width: 0.8"/>
      </g>
     </g>
     <g id="text_3">
      <!-- 20 -->
      <g transform="translate(168.924773 322.182437) scale(0.1 -0.1)">
       <defs>
        <path id="DejaVuSans-32" d="M 1228 531 
L 3431 531 
L 3431 0 
L 469 0 
L 469 531 
Q 828 903 1448 1529 
Q 2069 2156 2228 2338 
Q 2531 2678 2651 2914 
Q 2772 3150 2772 3378 
Q 2772 3750 2511 3984 
Q 2250 4219 1831 4219 
Q 1534 4219 1204 4116 
Q 875 4013 500 3803 
L 500 4441 
Q 881 4594 1212 4672 
Q 1544 4750 1819 4750 
Q 2544 4750 2975 4387 
Q 3406 4025 3406 3419 
Q 3406 3131 3298 2873 
Q 3191 2616 2906 2266 
Q 2828 2175 2409 1742 
Q 1991 1309 1228 531 
z
" transform="scale(0.015625)"/>
       </defs>
       <use xlink:href="#DejaVuSans-32"/>
       <use xlink:href="#DejaVuSans-30" transform="translate(63.623047 0)"/>
      </g>
     </g>
    </g>
    <g id="xtick_4">
     <g id="line2d_4">
      <g>
       <use xlink:href="#m994a6e2cd0" x="226.014545" y="307.584" style="stroke: #000000; stroke-width: 0.8"/>
      </g>
     </g>
     <g id="text_4">
      <!-- 30 -->
      <g transform="translate(219.652045 322.182437) scale(0.1 -0.1)">
       <defs>
        <path id="DejaVuSans-33" d="M 2597 2516 
Q 3050 2419 3304 2112 
Q 3559 1806 3559 1356 
Q 3559 666 3084 287 
Q 2609 -91 1734 -91 
Q 1441 -91 1130 -33 
Q 819 25 488 141 
L 488 750 
Q 750 597 1062 519 
Q 1375 441 1716 441 
Q 2309 441 2620 675 
Q 2931 909 2931 1356 
Q 2931 1769 2642 2001 
Q 2353 2234 1838 2234 
L 1294 2234 
L 1294 2753 
L 1863 2753 
Q 2328 2753 2575 2939 
Q 2822 3125 2822 3475 
Q 2822 3834 2567 4026 
Q 2313 4219 1838 4219 
Q 1578 4219 1281 4162 
Q 984 4106 628 3988 
L 628 4550 
Q 988 4650 1302 4700 
Q 1616 4750 1894 4750 
Q 2613 4750 3031 4423 
Q 3450 4097 3450 3541 
Q 3450 3153 3228 2886 
Q 3006 2619 2597 2516 
z
" transform="scale(0.015625)"/>
       </defs>
       <use xlink:href="#DejaVuSans-33"/>
       <use xlink:href="#DejaVuSans-30" transform="translate(63.623047 0)"/>
      </g>
     </g>
    </g>
    <g id="xtick_5">
     <g id="line2d_5">
      <g>
       <use xlink:href="#m994a6e2cd0" x="276.741818" y="307.584" style="stroke: #000000; stroke-width: 0.8"/>
      </g>
     </g>
     <g id="text_5">
      <!-- 40 -->
      <g transform="translate(270.379318 322.182437) scale(0.1 -0.1)">
       <defs>
        <path id="DejaVuSans-34" d="M 2419 4116 
L 825 1625 
L 2419 1625 
L 2419 4116 
z
M 2253 4666 
L 3047 4666 
L 3047 1625 
L 3713 1625 
L 3713 1100 
L 3047 1100 
L 3047 0 
L 2419 0 
L 2419 1100 
L 313 1100 
L 313 1709 
L 2253 4666 
z
" transform="scale(0.015625)"/>
       </defs>
       <use xlink:href="#DejaVuSans-34"/>
       <use xlink:href="#DejaVuSans-30" transform="translate(63.623047 0)"/>
      </g>
     </g>
    </g>
    <g id="xtick_6">
     <g id="line2d_6">
      <g>
       <use xlink:href="#m994a6e2cd0" x="327.469091" y="307.584" style="stroke: #000000; stroke-width: 0.8"/>
      </g>
     </g>
     <g id="text_6">
      <!-- 50 -->
      <g transform="translate(321.106591 322.182437) scale(0.1 -0.1)">
       <defs>
        <path id="DejaVuSans-35" d="M 691 4666 
L 3169 4666 
L 3169 4134 
L 1269 4134 
L 1269 2991 
Q 1406 3038 1543 3061 
Q 1681 3084 1819 3084 
Q 2600 3084 3056 2656 
Q 3513 2228 3513 1497 
Q 3513 744 3044 326 
Q 2575 -91 1722 -91 
Q 1428 -91 1123 -41 
Q 819 9 494 109 
L 494 744 
Q 775 591 1075 516 
Q 1375 441 1709 441 
Q 2250 441 2565 725 
Q 2881 1009 2881 1497 
Q 2881 1984 2565 2268 
Q 2250 2553 1709 2553 
Q 1456 2553 1204 2497 
Q 953 2441 691 2322 
L 691 4666 
z
" transform="scale(0.015625)"/>
       </defs>
       <use xlink:href="#DejaVuSans-35"/>
       <use xlink:href="#DejaVuSans-30" transform="translate(63.623047 0)"/>
      </g>
     </g>
    </g>
    <g id="xtick_7">
     <g id="line2d_7">
      <g>
       <use xlink:href="#m994a6e2cd0" x="378.196364" y="307.584" style="stroke: #000000; stroke-width: 0.8"/>
      </g>
     </g>
     <g id="text_7">
      <!-- 60 -->
      <g transform="translate(371.833864 322.182437) scale(0.1 -0.1)">
       <defs>
        <path id="DejaVuSans-36" d="M 2113 2584 
Q 1688 2584 1439 2293 
Q 1191 2003 1191 1497 
Q 1191 994 1439 701 
Q 1688 409 2113 409 
Q 2538 409 2786 701 
Q 3034 994 3034 1497 
Q 3034 2003 2786 2293 
Q 2538 2584 2113 2584 
z
M 3366 4563 
L 3366 3988 
Q 3128 4100 2886 4159 
Q 2644 4219 2406 4219 
Q 1781 4219 1451 3797 
Q 1122 3375 1075 2522 
Q 1259 2794 1537 2939 
Q 1816 3084 2150 3084 
Q 2853 3084 3261 2657 
Q 3669 2231 3669 1497 
Q 3669 778 3244 343 
Q 2819 -91 2113 -91 
Q 1303 -91 875 529 
Q 447 1150 447 2328 
Q 447 3434 972 4092 
Q 1497 4750 2381 4750 
Q 2619 4750 2861 4703 
Q 3103 4656 3366 4563 
z
" transform="scale(0.015625)"/>
       </defs>
       <use xlink:href="#DejaVuSans-36"/>
       <use xlink:href="#DejaVuSans-30" transform="translate(63.623047 0)"/>
      </g>
     </g>
    </g>
    <g id="text_8">
     <!-- Generation -->
     <g transform="translate(208.267031 335.860562) scale(0.1 -0.1)">
      <defs>
       <path id="DejaVuSans-47" d="M 3809 666 
L 3809 1919 
L 2778 1919 
L 2778 2438 
L 4434 2438 
L 4434 434 
Q 4069 175 3628 42 
Q 3188 -91 2688 -91 
Q 1594 -91 976 548 
Q 359 1188 359 2328 
Q 359 3472 976 4111 
Q 1594 4750 2688 4750 
Q 3144 4750 3555 4637 
Q 3966 4525 4313 4306 
L 4313 3634 
Q 3963 3931 3569 4081 
Q 3175 4231 2741 4231 
Q 1884 4231 1454 3753 
Q 1025 3275 1025 2328 
Q 1025 1384 1454 906 
Q 1884 428 2741 428 
Q 3075 428 3337 486 
Q 3600 544 3809 666 
z
" transform="scale(0.015625)"/>
       <path id="DejaVuSans-65" d="M 3597 1894 
L 3597 1613 
L 953 1613 
Q 991 1019 1311 708 
Q 1631 397 2203 397 
Q 2534 397 2845 478 
Q 3156 559 3463 722 
L 3463 178 
Q 3153 47 2828 -22 
Q 2503 -91 2169 -91 
Q 1331 -91 842 396 
Q 353 884 353 1716 
Q 353 2575 817 3079 
Q 1281 3584 2069 3584 
Q 2775 3584 3186 3129 
Q 3597 2675 3597 1894 
z
M 3022 2063 
Q 3016 2534 2758 2815 
Q 2500 3097 2075 3097 
Q 1594 3097 1305 2825 
Q 1016 2553 972 2059 
L 3022 2063 
z
" transform="scale(0.015625)"/>
       <path id="DejaVuSans-6e" d="M 3513 2113 
L 3513 0 
L 2938 0 
L 2938 2094 
Q 2938 2591 2744 2837 
Q 2550 3084 2163 3084 
Q 1697 3084 1428 2787 
Q 1159 2491 1159 1978 
L 1159 0 
L 581 0 
L 581 3500 
L 1159 3500 
L 1159 2956 
Q 1366 3272 1645 3428 
Q 1925 3584 2291 3584 
Q 2894 3584 3203 3211 
Q 3513 2838 3513 2113 
z
" transform="scale(0.015625)"/>
       <path id="DejaVuSans-72" d="M 2631 2963 
Q 2534 3019 2420 3045 
Q 2306 3072 2169 3072 
Q 1681 3072 1420 2755 
Q 1159 2438 1159 1844 
L 1159 0 
L 581 0 
L 581 3500 
L 1159 3500 
L 1159 2956 
Q 1341 3275 1631 3429 
Q 1922 3584 2338 3584 
Q 2397 3584 2469 3576 
Q 2541 3569 2628 3553 
L 2631 2963 
z
" transform="scale(0.015625)"/>
       <path id="DejaVuSans-61" d="M 2194 1759 
Q 1497 1759 1228 1600 
Q 959 1441 959 1056 
Q 959 750 1161 570 
Q 1363 391 1709 391 
Q 2188 391 2477 730 
Q 2766 1069 2766 1631 
L 2766 1759 
L 2194 1759 
z
M 3341 1997 
L 3341 0 
L 2766 0 
L 2766 531 
Q 2569 213 2275 61 
Q 1981 -91 1556 -91 
Q 1019 -91 701 211 
Q 384 513 384 1019 
Q 384 1609 779 1909 
Q 1175 2209 1959 2209 
L 2766 2209 
L 2766 2266 
Q 2766 2663 2505 2880 
Q 2244 3097 1772 3097 
Q 1472 3097 1187 3025 
Q 903 2953 641 2809 
L 641 3341 
Q 956 3463 1253 3523 
Q 1550 3584 1831 3584 
Q 2591 3584 2966 3190 
Q 3341 2797 3341 1997 
z
" transform="scale(0.015625)"/>
       <path id="DejaVuSans-74" d="M 1172 4494 
L 1172 3500 
L 2356 3500 
L 2356 3053 
L 1172 3053 
L 1172 1153 
Q 1172 725 1289 603 
Q 1406 481 1766 481 
L 2356 481 
L 2356 0 
L 1766 0 
Q 1100 0 847 248 
Q 594 497 594 1153 
L 594 3053 
L 172 3053 
L 172 3500 
L 594 3500 
L 594 4494 
L 1172 4494 
z
" transform="scale(0.015625)"/>
       <path id="DejaVuSans-69" d="M 603 3500 
L 1178 3500 
L 1178 0 
L 603 0 
L 603 3500 
z
M 603 4863 
L 1178 4863 
L 1178 4134 
L 603 4134 
L 603 4863 
z
" transform="scale(0.015625)"/>
       <path id="DejaVuSans-6f" d="M 1959 3097 
Q 1497 3097 1228 2736 
Q 959 2375 959 1747 
Q 959 1119 1226 758 
Q 1494 397 1959 397 
Q 2419 397 2687 759 
Q 2956 1122 2956 1747 
Q 2956 2369 2687 2733 
Q 2419 3097 1959 3097 
z
M 1959 3584 
Q 2709 3584 3137 3096 
Q 3566 2609 3566 1747 
Q 3566 888 3137 398 
Q 2709 -91 1959 -91 
Q 1206 -91 779 398 
Q 353 888 353 1747 
Q 353 2609 779 3096 
Q 1206 3584 1959 3584 
z
" transform="scale(0.015625)"/>
      </defs>
      <use xlink:href="#DejaVuSans-47"/>
      <use xlink:href="#DejaVuSans-65" transform="translate(77.490234 0)"/>
      <use xlink:href="#DejaVuSans-6e" transform="translate(139.013672 0)"/>
      <use xlink:href="#DejaVuSans-65" transform="translate(202.392578 0)"/>
      <use xlink:href="#DejaVuSans-72" transform="translate(263.916016 0)"/>
      <use xlink:href="#DejaVuSans-61" transform="translate(305.029297 0)"/>
      <use xlink:href="#DejaVuSans-74" transform="translate(366.308594 0)"/>
      <use xlink:href="#DejaVuSans-69" transform="translate(405.517578 0)"/>
      <use xlink:href="#DejaVuSans-6f" transform="translate(433.300781 0)"/>
      <use xlink:href="#DejaVuSans-6e" transform="translate(494.482422 0)"/>
     </g>
    </g>
   </g>
   <g id="matplotlib.axis_2">
    <g id="ytick_1">
     <g id="line2d_8">
      <defs>
       <path id="m49121cea73" d="M 0 0 
L -3.5 0 
" style="stroke: #000000; stroke-width: 0.8"/>
      </defs>
      <g>
       <use xlink:href="#m49121cea73" x="57.6" y="297.530495" style="stroke: #000000; stroke-width: 0.8"/>
      </g>
     </g>
     <g id="text_9">
      <!-- 0 -->
      <g transform="translate(44.2375 301.329713) scale(0.1 -0.1)">
       <use xlink:href="#DejaVuSans-30"/>
      </g>
     </g>
    </g>
    <g id="ytick_2">
     <g id="line2d_9">
      <g>
       <use xlink:href="#m49121cea73" x="57.6" y="255.246853" style="stroke: #000000; stroke-width: 0.8"/>
      </g>
     </g>
     <g id="text_10">
      <!-- 2 -->
      <g transform="translate(44.2375 259.046071) scale(0.1 -0.1)">
       <use xlink:href="#DejaVuSans-32"/>
      </g>
     </g>
    </g>
    <g id="ytick_3">
     <g id="line2d_10">
      <g>
       <use xlink:href="#m49121cea73" x="57.6" y="212.963211" style="stroke: #000000; stroke-width: 0.8"/>
      </g>
     </g>
     <g id="text_11">
      <!-- 4 -->
      <g transform="translate(44.2375 216.762429) scale(0.1 -0.1)">
       <use xlink:href="#DejaVuSans-34"/>
      </g>
     </g>
    </g>
    <g id="ytick_4">
     <g id="line2d_11">
      <g>
       <use xlink:href="#m49121cea73" x="57.6" y="170.679568" style="stroke: #000000; stroke-width: 0.8"/>
      </g>
     </g>
     <g id="text_12">
      <!-- 6 -->
      <g transform="translate(44.2375 174.478787) scale(0.1 -0.1)">
       <use xlink:href="#DejaVuSans-36"/>
      </g>
     </g>
    </g>
    <g id="ytick_5">
     <g id="line2d_12">
      <g>
       <use xlink:href="#m49121cea73" x="57.6" y="128.395926" style="stroke: #000000; stroke-width: 0.8"/>
      </g>
     </g>
     <g id="text_13">
      <!-- 8 -->
      <g transform="translate(44.2375 132.195145) scale(0.1 -0.1)">
       <defs>
        <path id="DejaVuSans-38" d="M 2034 2216 
Q 1584 2216 1326 1975 
Q 1069 1734 1069 1313 
Q 1069 891 1326 650 
Q 1584 409 2034 409 
Q 2484 409 2743 651 
Q 3003 894 3003 1313 
Q 3003 1734 2745 1975 
Q 2488 2216 2034 2216 
z
M 1403 2484 
Q 997 2584 770 2862 
Q 544 3141 544 3541 
Q 544 4100 942 4425 
Q 1341 4750 2034 4750 
Q 2731 4750 3128 4425 
Q 3525 4100 3525 3541 
Q 3525 3141 3298 2862 
Q 3072 2584 2669 2484 
Q 3125 2378 3379 2068 
Q 3634 1759 3634 1313 
Q 3634 634 3220 271 
Q 2806 -91 2034 -91 
Q 1263 -91 848 271 
Q 434 634 434 1313 
Q 434 1759 690 2068 
Q 947 2378 1403 2484 
z
M 1172 3481 
Q 1172 3119 1398 2916 
Q 1625 2713 2034 2713 
Q 2441 2713 2670 2916 
Q 2900 3119 2900 3481 
Q 2900 3844 2670 4047 
Q 2441 4250 2034 4250 
Q 1625 4250 1398 4047 
Q 1172 3844 1172 3481 
z
" transform="scale(0.015625)"/>
       </defs>
       <use xlink:href="#DejaVuSans-38"/>
      </g>
     </g>
    </g>
    <g id="ytick_6">
     <g id="line2d_13">
      <g>
       <use xlink:href="#m49121cea73" x="57.6" y="86.112284" style="stroke: #000000; stroke-width: 0.8"/>
      </g>
     </g>
     <g id="text_14">
      <!-- 10 -->
      <g transform="translate(37.875 89.911503) scale(0.1 -0.1)">
       <use xlink:href="#DejaVuSans-31"/>
       <use xlink:href="#DejaVuSans-30" transform="translate(63.623047 0)"/>
      </g>
     </g>
    </g>
    <g id="ytick_7">
     <g id="line2d_14">
      <g>
       <use xlink:href="#m49121cea73" x="57.6" y="43.828642" style="stroke: #000000; stroke-width: 0.8"/>
      </g>
     </g>
     <g id="text_15">
      <!-- 12 -->
      <g transform="translate(37.875 47.627861) scale(0.1 -0.1)">
       <use xlink:href="#DejaVuSans-31"/>
       <use xlink:href="#DejaVuSans-32" transform="translate(63.623047 0)"/>
      </g>
     </g>
    </g>
    <g id="text_16">
     <!-- Average Fitness -->
     <g transform="translate(31.795312 213.967062) rotate(-90) scale(0.1 -0.1)">
      <defs>
       <path id="DejaVuSans-41" d="M 2188 4044 
L 1331 1722 
L 3047 1722 
L 2188 4044 
z
M 1831 4666 
L 2547 4666 
L 4325 0 
L 3669 0 
L 3244 1197 
L 1141 1197 
L 716 0 
L 50 0 
L 1831 4666 
z
" transform="scale(0.015625)"/>
       <path id="DejaVuSans-76" d="M 191 3500 
L 800 3500 
L 1894 563 
L 2988 3500 
L 3597 3500 
L 2284 0 
L 1503 0 
L 191 3500 
z
" transform="scale(0.015625)"/>
       <path id="DejaVuSans-67" d="M 2906 1791 
Q 2906 2416 2648 2759 
Q 2391 3103 1925 3103 
Q 1463 3103 1205 2759 
Q 947 2416 947 1791 
Q 947 1169 1205 825 
Q 1463 481 1925 481 
Q 2391 481 2648 825 
Q 2906 1169 2906 1791 
z
M 3481 434 
Q 3481 -459 3084 -895 
Q 2688 -1331 1869 -1331 
Q 1566 -1331 1297 -1286 
Q 1028 -1241 775 -1147 
L 775 -588 
Q 1028 -725 1275 -790 
Q 1522 -856 1778 -856 
Q 2344 -856 2625 -561 
Q 2906 -266 2906 331 
L 2906 616 
Q 2728 306 2450 153 
Q 2172 0 1784 0 
Q 1141 0 747 490 
Q 353 981 353 1791 
Q 353 2603 747 3093 
Q 1141 3584 1784 3584 
Q 2172 3584 2450 3431 
Q 2728 3278 2906 2969 
L 2906 3500 
L 3481 3500 
L 3481 434 
z
" transform="scale(0.015625)"/>
       <path id="DejaVuSans-20" transform="scale(0.015625)"/>
       <path id="DejaVuSans-46" d="M 628 4666 
L 3309 4666 
L 3309 4134 
L 1259 4134 
L 1259 2759 
L 3109 2759 
L 3109 2228 
L 1259 2228 
L 1259 0 
L 628 0 
L 628 4666 
z
" transform="scale(0.015625)"/>
       <path id="DejaVuSans-73" d="M 2834 3397 
L 2834 2853 
Q 2591 2978 2328 3040 
Q 2066 3103 1784 3103 
Q 1356 3103 1142 2972 
Q 928 2841 928 2578 
Q 928 2378 1081 2264 
Q 1234 2150 1697 2047 
L 1894 2003 
Q 2506 1872 2764 1633 
Q 3022 1394 3022 966 
Q 3022 478 2636 193 
Q 2250 -91 1575 -91 
Q 1294 -91 989 -36 
Q 684 19 347 128 
L 347 722 
Q 666 556 975 473 
Q 1284 391 1588 391 
Q 1994 391 2212 530 
Q 2431 669 2431 922 
Q 2431 1156 2273 1281 
Q 2116 1406 1581 1522 
L 1381 1569 
Q 847 1681 609 1914 
Q 372 2147 372 2553 
Q 372 3047 722 3315 
Q 1072 3584 1716 3584 
Q 2034 3584 2315 3537 
Q 2597 3491 2834 3397 
z
" transform="scale(0.015625)"/>
      </defs>
      <use xlink:href="#DejaVuSans-41"/>
      <use xlink:href="#DejaVuSans-76" transform="translate(62.533203 0)"/>
      <use xlink:href="#DejaVuSans-65" transform="translate(121.712891 0)"/>
      <use xlink:href="#DejaVuSans-72" transform="translate(183.236328 0)"/>
      <use xlink:href="#DejaVuSans-61" transform="translate(224.349609 0)"/>
      <use xlink:href="#DejaVuSans-67" transform="translate(285.628906 0)"/>
      <use xlink:href="#DejaVuSans-65" transform="translate(349.105469 0)"/>
      <use xlink:href="#DejaVuSans-20" transform="translate(410.628906 0)"/>
      <use xlink:href="#DejaVuSans-46" transform="translate(442.416016 0)"/>
      <use xlink:href="#DejaVuSans-69" transform="translate(492.685547 0)"/>
      <use xlink:href="#DejaVuSans-74" transform="translate(520.46875 0)"/>
      <use xlink:href="#DejaVuSans-6e" transform="translate(559.677734 0)"/>
      <use xlink:href="#DejaVuSans-65" transform="translate(623.056641 0)"/>
      <use xlink:href="#DejaVuSans-73" transform="translate(684.580078 0)"/>
      <use xlink:href="#DejaVuSans-73" transform="translate(736.679688 0)"/>
     </g>
    </g>
   </g>
   <g id="line2d_15">
    <path d="M 73.832727 189.852349 
L 78.905455 174.493362 
L 83.978182 174.109213 
L 89.050909 174.109213 
L 94.123636 162.994677 
L 99.196364 160.807729 
L 104.269091 160.026172 
L 109.341818 159.233155 
L 114.414545 158.733837 
L 119.487273 158.733837 
L 124.56 148.37499 
L 129.632727 148.37499 
L 134.705455 123.856773 
L 139.778182 123.856773 
L 144.850909 123.0381 
L 149.923636 123.0381 
L 154.996364 123.0381 
L 160.069091 121.512155 
L 165.141818 121.512155 
L 170.214545 121.512155 
L 175.287273 121.512155 
L 180.36 121.512155 
L 185.432727 121.512155 
L 190.505455 121.512155 
L 195.578182 121.512155 
L 200.650909 121.512155 
L 205.723636 121.512155 
L 210.796364 120.797885 
L 215.869091 113.588155 
L 220.941818 113.588155 
L 226.014545 113.588155 
L 231.087273 113.588155 
L 236.16 113.588155 
L 241.232727 113.588155 
L 246.305455 111.5543 
L 251.378182 111.5543 
L 256.450909 104.601121 
L 261.523636 104.601121 
L 266.596364 104.601121 
L 271.669091 104.601121 
L 276.741818 104.601121 
L 281.814545 104.113839 
L 286.887273 99.457778 
L 291.96 95.991949 
L 297.032727 95.991949 
L 302.105455 84.224707 
L 307.178182 84.224707 
L 312.250909 84.224707 
L 317.323636 84.224707 
L 322.396364 84.224707 
L 327.469091 84.224707 
L 332.541818 84.224707 
L 337.614545 76.327882 
L 342.687273 76.327882 
L 347.76 76.327882 
L 352.832727 76.327882 
L 357.905455 76.327882 
L 362.978182 76.327882 
L 368.050909 75.546622 
L 373.123636 75.546622 
L 378.196364 75.546622 
L 383.269091 75.546622 
L 388.341818 75.546622 
L 393.414545 74.889961 
L 398.487273 74.889961 
" clip-path="url(#p3abbb63da9)" style="fill: none; stroke: #008000; stroke-width: 1.5; stroke-linecap: square"/>
   </g>
   <g id="line2d_16">
    <path d="M 73.832727 278.412041 
L 78.905455 272.565822 
L 83.978182 270.055991 
L 89.050909 267.857761 
L 94.123636 264.958851 
L 99.196364 262.176415 
L 104.269091 260.074277 
L 109.341818 258.393212 
L 114.414545 256.359765 
L 119.487273 254.778094 
L 124.56 252.152669 
L 129.632727 250.530781 
L 134.705455 247.689557 
L 139.778182 246.153425 
L 144.850909 244.805967 
L 149.923636 243.622721 
L 154.996364 242.799053 
L 160.069091 241.707871 
L 165.141818 240.883059 
L 170.214545 239.752175 
L 175.287273 239.199697 
L 180.36 237.824702 
L 185.432727 237.234211 
L 190.505455 236.243366 
L 195.578182 235.556312 
L 200.650909 234.874974 
L 205.723636 233.974233 
L 210.796364 232.473479 
L 215.869091 230.623011 
L 220.941818 229.794361 
L 226.014545 228.831245 
L 231.087273 227.601863 
L 236.16 226.350788 
L 241.232727 225.010291 
L 246.305455 222.205161 
L 251.378182 221.234209 
L 256.450909 219.694886 
L 261.523636 218.715326 
L 266.596364 217.77347 
L 271.669091 216.903878 
L 276.741818 215.789101 
L 281.814545 215.048301 
L 286.887273 213.950414 
L 291.96 213.316848 
L 297.032727 212.368156 
L 302.105455 211.282411 
L 307.178182 210.237495 
L 312.250909 209.310815 
L 317.323636 208.246926 
L 322.396364 207.546561 
L 327.469091 207.397687 
L 332.541818 207.294828 
L 337.614545 205.9122 
L 342.687273 205.174608 
L 347.76 204.9717 
L 352.832727 204.745283 
L 357.905455 203.653695 
L 362.978182 203.163685 
L 368.050909 200.687483 
L 373.123636 199.672838 
L 378.196364 198.889114 
L 383.269091 198.008914 
L 388.341818 197.302547 
L 393.414545 196.267831 
L 398.487273 195.274318 
" clip-path="url(#p3abbb63da9)" style="fill: none; stroke: #0000ff; stroke-width: 1.5; stroke-linecap: square"/>
   </g>
   <g id="line2d_17">
    <path d="M 73.832727 295.321647 
L 78.905455 291.51806 
L 83.978182 287.882081 
L 89.050909 285.819809 
L 94.123636 283.447491 
L 99.196364 281.647898 
L 104.269091 280.121628 
L 109.341818 278.453649 
L 114.414545 276.974853 
L 119.487273 275.821809 
L 124.56 274.242278 
L 129.632727 272.79522 
L 134.705455 271.559212 
L 139.778182 270.40966 
L 144.850909 269.130433 
L 149.923636 267.945212 
L 154.996364 267.133268 
L 160.069091 266.142678 
L 165.141818 265.405165 
L 170.214545 264.567509 
L 175.287273 263.828584 
L 180.36 262.582994 
L 185.432727 261.939723 
L 190.505455 261.457046 
L 195.578182 260.922331 
L 200.650909 260.519626 
L 205.723636 259.980484 
L 210.796364 258.991207 
L 215.869091 257.72412 
L 220.941818 256.828404 
L 226.014545 256.45475 
L 231.087273 255.812418 
L 236.16 254.822749 
L 241.232727 253.92171 
L 246.305455 252.830292 
L 251.378182 251.265907 
L 256.450909 250.510787 
L 261.523636 249.878464 
L 266.596364 249.315715 
L 271.669091 248.603122 
L 276.741818 248.16747 
L 281.814545 247.818906 
L 286.887273 247.064634 
L 291.96 246.560725 
L 297.032727 246.080762 
L 302.105455 245.577398 
L 307.178182 244.172852 
L 312.250909 243.635618 
L 317.323636 242.492209 
L 322.396364 241.468849 
L 327.469091 241.04678 
L 332.541818 240.674966 
L 337.614545 240.049643 
L 342.687273 239.608397 
L 347.76 239.18807 
L 352.832727 238.946307 
L 357.905455 238.428395 
L 362.978182 237.955882 
L 368.050909 236.869872 
L 373.123636 236.265199 
L 378.196364 235.892002 
L 383.269091 235.31494 
L 388.341818 234.545849 
L 393.414545 233.617866 
L 398.487273 232.749876 
" clip-path="url(#p3abbb63da9)" style="fill: none; stroke: #ff0000; stroke-width: 1.5; stroke-linecap: square"/>
   </g>
   <g id="line2d_18">
    <path d="M 73.832727 278.412041 
L 78.905455 272.565822 
L 83.978182 270.055991 
L 89.050909 267.857761 
L 94.123636 264.958851 
L 99.196364 262.176415 
L 104.269091 260.074277 
L 109.341818 258.393212 
L 114.414545 256.359765 
L 119.487273 254.778094 
L 124.56 252.152669 
L 129.632727 250.530781 
L 134.705455 247.689557 
L 139.778182 246.153425 
L 144.850909 244.805967 
L 149.923636 243.622721 
L 154.996364 242.799053 
L 160.069091 241.707871 
L 165.141818 240.883059 
L 170.214545 239.752175 
L 175.287273 239.199697 
L 180.36 237.824702 
L 185.432727 237.234211 
L 190.505455 236.243366 
L 195.578182 235.556312 
L 200.650909 234.874974 
L 205.723636 233.974233 
L 210.796364 232.473479 
L 215.869091 230.623011 
L 220.941818 229.794361 
L 226.014545 228.831245 
L 231.087273 227.601863 
L 236.16 226.350788 
L 241.232727 225.010291 
L 246.305455 222.205161 
L 251.378182 221.234209 
L 256.450909 219.694886 
L 261.523636 218.715326 
L 266.596364 217.77347 
L 271.669091 216.903878 
L 276.741818 215.789101 
L 281.814545 215.048301 
L 286.887273 213.950414 
L 291.96 213.316848 
L 297.032727 212.368156 
L 302.105455 211.282411 
L 307.178182 210.237495 
L 312.250909 209.310815 
L 317.323636 208.246926 
L 322.396364 207.546561 
L 327.469091 207.397687 
L 332.541818 207.294828 
L 337.614545 205.9122 
L 342.687273 205.174608 
L 347.76 204.9717 
L 352.832727 204.745283 
L 357.905455 203.653695 
L 362.978182 203.163685 
L 368.050909 200.687483 
L 373.123636 199.672838 
L 378.196364 198.889114 
L 383.269091 198.008914 
L 388.341818 197.302547 
L 393.414545 196.267831 
L 398.487273 195.274318 
" clip-path="url(#p3abbb63da9)" style="fill: none; stroke: #0000ff; stroke-width: 1.5; stroke-linecap: square"/>
   </g>
   <g id="line2d_19">
    <path d="M 73.832727 295.321647 
L 78.905455 291.51806 
L 83.978182 287.882081 
L 89.050909 285.819809 
L 94.123636 283.447491 
L 99.196364 281.647898 
L 104.269091 280.121628 
L 109.341818 278.453649 
L 114.414545 276.974853 
L 119.487273 275.821809 
L 124.56 274.242278 
L 129.632727 272.79522 
L 134.705455 271.559212 
L 139.778182 270.40966 
L 144.850909 269.130433 
L 149.923636 267.945212 
L 154.996364 267.133268 
L 160.069091 266.142678 
L 165.141818 265.405165 
L 170.214545 264.567509 
L 175.287273 263.828584 
L 180.36 262.582994 
L 185.432727 261.939723 
L 190.505455 261.457046 
L 195.578182 260.922331 
L 200.650909 260.519626 
L 205.723636 259.980484 
L 210.796364 258.991207 
L 215.869091 257.72412 
L 220.941818 256.828404 
L 226.014545 256.45475 
L 231.087273 255.812418 
L 236.16 254.822749 
L 241.232727 253.92171 
L 246.305455 252.830292 
L 251.378182 251.265907 
L 256.450909 250.510787 
L 261.523636 249.878464 
L 266.596364 249.315715 
L 271.669091 248.603122 
L 276.741818 248.16747 
L 281.814545 247.818906 
L 286.887273 247.064634 
L 291.96 246.560725 
L 297.032727 246.080762 
L 302.105455 245.577398 
L 307.178182 244.172852 
L 312.250909 243.635618 
L 317.323636 242.492209 
L 322.396364 241.468849 
L 327.469091 241.04678 
L 332.541818 240.674966 
L 337.614545 240.049643 
L 342.687273 239.608397 
L 347.76 239.18807 
L 352.832727 238.946307 
L 357.905455 238.428395 
L 362.978182 237.955882 
L 368.050909 236.869872 
L 373.123636 236.265199 
L 378.196364 235.892002 
L 383.269091 235.31494 
L 388.341818 234.545849 
L 393.414545 233.617866 
L 398.487273 232.749876 
" clip-path="url(#p3abbb63da9)" style="fill: none; stroke: #ff0000; stroke-width: 1.5; stroke-linecap: square"/>
   </g>
   <g id="patch_3">
    <path d="M 57.6 307.584 
L 57.6 41.472 
" style="fill: none; stroke: #000000; stroke-width: 0.8; stroke-linejoin: miter; stroke-linecap: square"/>
   </g>
   <g id="patch_4">
    <path d="M 414.72 307.584 
L 414.72 41.472 
" style="fill: none; stroke: #000000; stroke-width: 0.8; stroke-linejoin: miter; stroke-linecap: square"/>
   </g>
   <g id="patch_5">
    <path d="M 57.6 307.584 
L 414.72 307.584 
" style="fill: none; stroke: #000000; stroke-width: 0.8; stroke-linejoin: miter; stroke-linecap: square"/>
   </g>
   <g id="patch_6">
    <path d="M 57.6 41.472 
L 414.72 41.472 
" style="fill: none; stroke: #000000; stroke-width: 0.8; stroke-linejoin: miter; stroke-linecap: square"/>
   </g>
  </g>
 </g>
 <defs>
  <clipPath id="p3abbb63da9">
   <rect x="57.6" y="41.472" width="357.12" height="266.112"/>
  </clipPath>
 </defs>
</svg>
