<?xml version="1.0" encoding="utf-8" standalone="no"?>
<!DOCTYPE svg PUBLIC "-//W3C//DTD SVG 1.1//EN"
  "http://www.w3.org/Graphics/SVG/1.1/DTD/svg11.dtd">
<svg xmlns:xlink="http://www.w3.org/1999/xlink" width="460.8pt" height="345.6pt" viewBox="0 0 460.8 345.6" xmlns="http://www.w3.org/2000/svg" version="1.1">
 <metadata>
  <rdf:RDF xmlns:dc="http://purl.org/dc/elements/1.1/" xmlns:cc="http://creativecommons.org/ns#" xmlns:rdf="http://www.w3.org/1999/02/22-rdf-syntax-ns#">
   <cc:Work>
    <dc:type rdf:resource="http://purl.org/dc/dcmitype/StillImage"/>
    <dc:date>2025-11-11T17:56:30.678167</dc:date>
    <dc:format>image/svg+xml</dc:format>
    <dc:creator>
     <cc:Agent>
      <dc:title>Matplotlib v3.10.0, https://matplotlib.org/</dc:title>
     </cc:Agent>
    </dc:creator>
   </cc:Work>
  </rdf:RDF>
 </metadata>
 <defs>
  <style type="text/css">*{stroke-linejoin: round; stroke-linecap: butt}</style>
 </defs>
 <g id="figure_1">
  <g id="patch_1">
   <path d="M 0 345.6 
L 460.8 345.6 
L 460.8 0 
L 0 0 
z
" style="fill: #ffffff"/>
  </g>
  <g id="axes_1">
   <g id="patch_2">
    <path d="M 57.6 307.584 
L 414.72 307.584 
L 414.72 41.472 
L 57.6 41.472 
z
" style="fill: #ffffff"/>
   </g>
   <g id="FillBetweenPolyCollection_1">
    <defs>
     <path id="mde34f418e9" d="M 73.832727 -129.00708 
L 73.832727 -113.607482 
L 83.978182 -121.542681 
L 94.123636 -137.685469 
L 104.269091 -153.922072 
L 114.414545 -163.947298 
L 124.56 -168.613563 
L 134.705455 -171.459354 
L 144.850909 -180.438243 
L 154.996364 -180.438243 
L 165.141818 -180.438243 
L 175.287273 -180.438243 
L 185.432727 -195.911737 
L 195.578182 -195.911737 
L 205.723636 -197.22927 
L 215.869091 -202.850237 
L 226.014545 -202.850237 
L 236.16 -202.850237 
L 246.305455 -202.850237 
L 256.450909 -202.850237 
L 266.596364 -202.850237 
L 276.741818 -202.850237 
L 286.887273 -202.850237 
L 297.032727 -203.556522 
L 307.178182 -203.556522 
L 317.323636 -203.556522 
L 327.469091 -203.556522 
L 337.614545 -205.239958 
L 347.76 -210.163008 
L 357.905455 -213.897971 
L 368.050909 -213.897971 
L 378.196364 -213.897971 
L 388.341818 -213.897971 
L 398.487273 -213.897971 
L 398.487273 -244.175412 
L 398.487273 -244.175412 
L 388.341818 -244.175412 
L 378.196364 -244.175412 
L 368.050909 -244.175412 
L 357.905455 -244.175412 
L 347.76 -241.411674 
L 337.614545 -238.815904 
L 327.469091 -237.701795 
L 317.323636 -237.701795 
L 307.178182 -237.701795 
L 297.032727 -237.701795 
L 286.887273 -237.388756 
L 276.741818 -237.388756 
L 266.596364 -237.388756 
L 256.450909 -237.388756 
L 246.305455 -237.388756 
L 236.16 -237.388756 
L 226.014545 -237.388756 
L 215.869091 -237.388756 
L 205.723636 -235.426944 
L 195.578182 -234.141887 
L 185.432727 -234.141887 
L 175.287273 -215.059682 
L 165.141818 -215.059682 
L 154.996364 -215.059682 
L 144.850909 -215.059682 
L 134.705455 -206.459111 
L 124.56 -203.733633 
L 114.414545 -201.553892 
L 104.269091 -193.213938 
L 94.123636 -180.590526 
L 83.978182 -164.238435 
L 73.832727 -129.00708 
z
" style="stroke: #008000; stroke-opacity: 0.2"/>
    </defs>
    <g clip-path="url(#p6b7a03304d)">
     <use xlink:href="#mde34f418e9" x="0" y="345.6" style="fill: #008000; fill-opacity: 0.2; stroke: #008000; stroke-opacity: 0.2"/>
    </g>
   </g>
   <g id="FillBetweenPolyCollection_2">
    <defs>
     <path id="ma964c4d15c" d="M 73.832727 -62.38294 
L 73.832727 -59.965494 
L 83.978182 -65.420894 
L 94.123636 -70.745212 
L 104.269091 -75.690397 
L 114.414545 -79.541145 
L 124.56 -82.39758 
L 134.705455 -85.31017 
L 144.850909 -87.642709 
L 154.996364 -89.831453 
L 165.141818 -91.914927 
L 175.287273 -93.976357 
L 185.432727 -98.026855 
L 195.578182 -99.514102 
L 205.723636 -100.594677 
L 215.869091 -104.25897 
L 226.014545 -106.026958 
L 236.16 -107.880251 
L 246.305455 -110.015312 
L 256.450909 -111.236765 
L 266.596364 -113.421027 
L 276.741818 -115.409726 
L 286.887273 -116.051298 
L 297.032727 -117.868856 
L 307.178182 -119.418386 
L 317.323636 -120.034079 
L 327.469091 -121.298409 
L 337.614545 -122.719709 
L 347.76 -123.765775 
L 357.905455 -125.539496 
L 368.050909 -126.920472 
L 378.196364 -128.421323 
L 388.341818 -129.410679 
L 398.487273 -130.477149 
L 398.487273 -137.412969 
L 398.487273 -137.412969 
L 388.341818 -135.920829 
L 378.196364 -134.620243 
L 368.050909 -132.933635 
L 357.905455 -131.809059 
L 347.76 -130.510392 
L 337.614545 -129.35218 
L 327.469091 -127.435454 
L 317.323636 -126.054287 
L 307.178182 -125.507642 
L 297.032727 -124.102194 
L 286.887273 -122.296209 
L 276.741818 -121.42914 
L 266.596364 -119.845815 
L 256.450909 -118.065534 
L 246.305455 -116.82496 
L 236.16 -114.107041 
L 226.014545 -111.908196 
L 215.869091 -109.984202 
L 205.723636 -106.854681 
L 195.578182 -104.929354 
L 185.432727 -103.366926 
L 175.287273 -99.566236 
L 165.141818 -97.175816 
L 154.996364 -94.71874 
L 144.850909 -92.65026 
L 134.705455 -90.54014 
L 124.56 -87.27465 
L 114.414545 -85.100336 
L 104.269091 -80.283212 
L 94.123636 -74.966309 
L 83.978182 -69.383729 
L 73.832727 -62.38294 
z
" style="stroke: #0000ff; stroke-opacity: 0.2"/>
    </defs>
    <g clip-path="url(#p6b7a03304d)">
     <use xlink:href="#ma964c4d15c" x="0" y="345.6" style="fill: #0000ff; fill-opacity: 0.2; stroke: #0000ff; stroke-opacity: 0.2"/>
    </g>
   </g>
   <g id="FillBetweenPolyCollection_3">
    <defs>
     <path id="m298f30ef54" d="M 73.832727 -41.251371 
L 73.832727 -40.662138 
L 83.978182 -46.236977 
L 94.123636 -50.376736 
L 104.269091 -54.383595 
L 114.414545 -57.774684 
L 124.56 -60.985725 
L 134.705455 -63.428601 
L 144.850909 -65.641303 
L 154.996364 -67.675538 
L 165.141818 -69.188597 
L 175.287273 -70.837189 
L 185.432727 -73.743128 
L 195.578182 -74.899079 
L 205.723636 -76.054659 
L 215.869091 -77.854036 
L 226.014545 -79.325504 
L 236.16 -81.617351 
L 246.305455 -83.363204 
L 256.450909 -84.422978 
L 266.596364 -85.972875 
L 276.741818 -87.421677 
L 286.887273 -88.759127 
L 297.032727 -90.135256 
L 307.178182 -91.070694 
L 317.323636 -91.353528 
L 327.469091 -93.779787 
L 337.614545 -95.50481 
L 347.76 -96.413771 
L 357.905455 -96.948776 
L 368.050909 -98.104067 
L 378.196364 -99.572888 
L 388.341818 -100.360316 
L 398.487273 -101.000293 
L 398.487273 -106.121823 
L 398.487273 -106.121823 
L 388.341818 -105.324856 
L 378.196364 -104.409578 
L 368.050909 -102.862496 
L 357.905455 -102.091105 
L 347.76 -101.71473 
L 337.614545 -100.906834 
L 327.469091 -99.159792 
L 317.323636 -96.588988 
L 307.178182 -96.354465 
L 297.032727 -95.703726 
L 286.887273 -94.320207 
L 276.741818 -92.201693 
L 266.596364 -91.049919 
L 256.450909 -89.287809 
L 246.305455 -88.460772 
L 236.16 -85.585211 
L 226.014545 -82.88682 
L 215.869091 -80.822782 
L 205.723636 -78.660697 
L 195.578182 -77.660237 
L 185.432727 -75.81668 
L 175.287273 -73.509291 
L 165.141818 -71.8298 
L 154.996364 -69.93738 
L 144.850909 -67.99391 
L 134.705455 -65.54749 
L 124.56 -63.079212 
L 114.414545 -59.956554 
L 104.269091 -56.128967 
L 94.123636 -51.762713 
L 83.978182 -47.242211 
L 73.832727 -41.251371 
z
" style="stroke: #ff0000; stroke-opacity: 0.2"/>
    </defs>
    <g clip-path="url(#p6b7a03304d)">
     <use xlink:href="#m298f30ef54" x="0" y="345.6" style="fill: #ff0000; fill-opacity: 0.2; stroke: #ff0000; stroke-opacity: 0.2"/>
    </g>
   </g>
   <g id="matplotlib.axis_1">
    <g id="xtick_1">
     <g id="line2d_1">
      <defs>
       <path id="m2621c65b49" d="M 0 0 
L 0 3.5 
" style="stroke: #000000; stroke-width: 0.8"/>
      </defs>
      <g>
       <use xlink:href="#m2621c65b49" x="73.832727" y="307.584" style="stroke: #000000; stroke-width: 0.8"/>
      </g>
     </g>
     <g id="text_1">
      <!-- 0 -->
      <g transform="translate(70.651477 322.182437) scale(0.1 -0.1)">
       <defs>
        <path id="DejaVuSans-30" d="M 2034 4250 
Q 1547 4250 1301 3770 
Q 1056 3291 1056 2328 
Q 1056 1369 1301 889 
Q 1547 409 2034 409 
Q 2525 409 2770 889 
Q 3016 1369 3016 2328 
Q 3016 3291 2770 3770 
Q 2525 4250 2034 4250 
z
M 2034 4750 
Q 2819 4750 3233 4129 
Q 3647 3509 3647 2328 
Q 3647 1150 3233 529 
Q 2819 -91 2034 -91 
Q 1250 -91 836 529 
Q 422 1150 422 2328 
Q 422 3509 836 4129 
Q 1250 4750 2034 4750 
z
" transform="scale(0.015625)"/>
       </defs>
       <use xlink:href="#DejaVuSans-30"/>
      </g>
     </g>
    </g>
    <g id="xtick_2">
     <g id="line2d_2">
      <g>
       <use xlink:href="#m2621c65b49" x="124.56" y="307.584" style="stroke: #000000; stroke-width: 0.8"/>
      </g>
     </g>
     <g id="text_2">
      <!-- 5 -->
      <g transform="translate(121.37875 322.182437) scale(0.1 -0.1)">
       <defs>
        <path id="DejaVuSans-35" d="M 691 4666 
L 3169 4666 
L 3169 4134 
L 1269 4134 
L 1269 2991 
Q 1406 3038 1543 3061 
Q 1681 3084 1819 3084 
Q 2600 3084 3056 2656 
Q 3513 2228 3513 1497 
Q 3513 744 3044 326 
Q 2575 -91 1722 -91 
Q 1428 -91 1123 -41 
Q 819 9 494 109 
L 494 744 
Q 775 591 1075 516 
Q 1375 441 1709 441 
Q 2250 441 2565 725 
Q 2881 1009 2881 1497 
Q 2881 1984 2565 2268 
Q 2250 2553 1709 2553 
Q 1456 2553 1204 2497 
Q 953 2441 691 2322 
L 691 4666 
z
" transform="scale(0.015625)"/>
       </defs>
       <use xlink:href="#DejaVuSans-35"/>
      </g>
     </g>
    </g>
    <g id="xtick_3">
     <g id="line2d_3">
      <g>
       <use xlink:href="#m2621c65b49" x="175.287273" y="307.584" style="stroke: #000000; stroke-width: 0.8"/>
      </g>
     </g>
     <g id="text_3">
      <!-- 10 -->
      <g transform="translate(168.924773 322.182437) scale(0.1 -0.1)">
       <defs>
        <path id="DejaVuSans-31" d="M 794 531 
L 1825 531 
L 1825 4091 
L 703 3866 
L 703 4441 
L 1819 4666 
L 2450 4666 
L 2450 531 
L 3481 531 
L 3481 0 
L 794 0 
L 794 531 
z
" transform="scale(0.015625)"/>
       </defs>
       <use xlink:href="#DejaVuSans-31"/>
       <use xlink:href="#DejaVuSans-30" transform="translate(63.623047 0)"/>
      </g>
     </g>
    </g>
    <g id="xtick_4">
     <g id="line2d_4">
      <g>
       <use xlink:href="#m2621c65b49" x="226.014545" y="307.584" style="stroke: #000000; stroke-width: 0.8"/>
      </g>
     </g>
     <g id="text_4">
      <!-- 15 -->
      <g transform="translate(219.652045 322.182437) scale(0.1 -0.1)">
       <use xlink:href="#DejaVuSans-31"/>
       <use xlink:href="#DejaVuSans-35" transform="translate(63.623047 0)"/>
      </g>
     </g>
    </g>
    <g id="xtick_5">
     <g id="line2d_5">
      <g>
       <use xlink:href="#m2621c65b49" x="276.741818" y="307.584" style="stroke: #000000; stroke-width: 0.8"/>
      </g>
     </g>
     <g id="text_5">
      <!-- 20 -->
      <g transform="translate(270.379318 322.182437) scale(0.1 -0.1)">
       <defs>
        <path id="DejaVuSans-32" d="M 1228 531 
L 3431 531 
L 3431 0 
L 469 0 
L 469 531 
Q 828 903 1448 1529 
Q 2069 2156 2228 2338 
Q 2531 2678 2651 2914 
Q 2772 3150 2772 3378 
Q 2772 3750 2511 3984 
Q 2250 4219 1831 4219 
Q 1534 4219 1204 4116 
Q 875 4013 500 3803 
L 500 4441 
Q 881 4594 1212 4672 
Q 1544 4750 1819 4750 
Q 2544 4750 2975 4387 
Q 3406 4025 3406 3419 
Q 3406 3131 3298 2873 
Q 3191 2616 2906 2266 
Q 2828 2175 2409 1742 
Q 1991 1309 1228 531 
z
" transform="scale(0.015625)"/>
       </defs>
       <use xlink:href="#DejaVuSans-32"/>
       <use xlink:href="#DejaVuSans-30" transform="translate(63.623047 0)"/>
      </g>
     </g>
    </g>
    <g id="xtick_6">
     <g id="line2d_6">
      <g>
       <use xlink:href="#m2621c65b49" x="327.469091" y="307.584" style="stroke: #000000; stroke-width: 0.8"/>
      </g>
     </g>
     <g id="text_6">
      <!-- 25 -->
      <g transform="translate(321.106591 322.182437) scale(0.1 -0.1)">
       <use xlink:href="#DejaVuSans-32"/>
       <use xlink:href="#DejaVuSans-35" transform="translate(63.623047 0)"/>
      </g>
     </g>
    </g>
    <g id="xtick_7">
     <g id="line2d_7">
      <g>
       <use xlink:href="#m2621c65b49" x="378.196364" y="307.584" style="stroke: #000000; stroke-width: 0.8"/>
      </g>
     </g>
     <g id="text_7">
      <!-- 30 -->
      <g transform="translate(371.833864 322.182437) scale(0.1 -0.1)">
       <defs>
        <path id="DejaVuSans-33" d="M 2597 2516 
Q 3050 2419 3304 2112 
Q 3559 1806 3559 1356 
Q 3559 666 3084 287 
Q 2609 -91 1734 -91 
Q 1441 -91 1130 -33 
Q 819 25 488 141 
L 488 750 
Q 750 597 1062 519 
Q 1375 441 1716 441 
Q 2309 441 2620 675 
Q 2931 909 2931 1356 
Q 2931 1769 2642 2001 
Q 2353 2234 1838 2234 
L 1294 2234 
L 1294 2753 
L 1863 2753 
Q 2328 2753 2575 2939 
Q 2822 3125 2822 3475 
Q 2822 3834 2567 4026 
Q 2313 4219 1838 4219 
Q 1578 4219 1281 4162 
Q 984 4106 628 3988 
L 628 4550 
Q 988 4650 1302 4700 
Q 1616 4750 1894 4750 
Q 2613 4750 3031 4423 
Q 3450 4097 3450 3541 
Q 3450 3153 3228 2886 
Q 3006 2619 2597 2516 
z
" transform="scale(0.015625)"/>
       </defs>
       <use xlink:href="#DejaVuSans-33"/>
       <use xlink:href="#DejaVuSans-30" transform="translate(63.623047 0)"/>
      </g>
     </g>
    </g>
    <g id="text_8">
     <!-- Generation -->
     <g transform="translate(208.267031 335.860562) scale(0.1 -0.1)">
      <defs>
       <path id="DejaVuSans-47" d="M 3809 666 
L 3809 1919 
L 2778 1919 
L 2778 2438 
L 4434 2438 
L 4434 434 
Q 4069 175 3628 42 
Q 3188 -91 2688 -91 
Q 1594 -91 976 548 
Q 359 1188 359 2328 
Q 359 3472 976 4111 
Q 1594 4750 2688 4750 
Q 3144 4750 3555 4637 
Q 3966 4525 4313 4306 
L 4313 3634 
Q 3963 3931 3569 4081 
Q 3175 4231 2741 4231 
Q 1884 4231 1454 3753 
Q 1025 3275 1025 2328 
Q 1025 1384 1454 906 
Q 1884 428 2741 428 
Q 3075 428 3337 486 
Q 3600 544 3809 666 
z
" transform="scale(0.015625)"/>
       <path id="DejaVuSans-65" d="M 3597 1894 
L 3597 1613 
L 953 1613 
Q 991 1019 1311 708 
Q 1631 397 2203 397 
Q 2534 397 2845 478 
Q 3156 559 3463 722 
L 3463 178 
Q 3153 47 2828 -22 
Q 2503 -91 2169 -91 
Q 1331 -91 842 396 
Q 353 884 353 1716 
Q 353 2575 817 3079 
Q 1281 3584 2069 3584 
Q 2775 3584 3186 3129 
Q 3597 2675 3597 1894 
z
M 3022 2063 
Q 3016 2534 2758 2815 
Q 2500 3097 2075 3097 
Q 1594 3097 1305 2825 
Q 1016 2553 972 2059 
L 3022 2063 
z
" transform="scale(0.015625)"/>
       <path id="DejaVuSans-6e" d="M 3513 2113 
L 3513 0 
L 2938 0 
L 2938 2094 
Q 2938 2591 2744 2837 
Q 2550 3084 2163 3084 
Q 1697 3084 1428 2787 
Q 1159 2491 1159 1978 
L 1159 0 
L 581 0 
L 581 3500 
L 1159 3500 
L 1159 2956 
Q 1366 3272 1645 3428 
Q 1925 3584 2291 3584 
Q 2894 3584 3203 3211 
Q 3513 2838 3513 2113 
z
" transform="scale(0.015625)"/>
       <path id="DejaVuSans-72" d="M 2631 2963 
Q 2534 3019 2420 3045 
Q 2306 3072 2169 3072 
Q 1681 3072 1420 2755 
Q 1159 2438 1159 1844 
L 1159 0 
L 581 0 
L 581 3500 
L 1159 3500 
L 1159 2956 
Q 1341 3275 1631 3429 
Q 1922 3584 2338 3584 
Q 2397 3584 2469 3576 
Q 2541 3569 2628 3553 
L 2631 2963 
z
" transform="scale(0.015625)"/>
       <path id="DejaVuSans-61" d="M 2194 1759 
Q 1497 1759 1228 1600 
Q 959 1441 959 1056 
Q 959 750 1161 570 
Q 1363 391 1709 391 
Q 2188 391 2477 730 
Q 2766 1069 2766 1631 
L 2766 1759 
L 2194 1759 
z
M 3341 1997 
L 3341 0 
L 2766 0 
L 2766 531 
Q 2569 213 2275 61 
Q 1981 -91 1556 -91 
Q 1019 -91 701 211 
Q 384 513 384 1019 
Q 384 1609 779 1909 
Q 1175 2209 1959 2209 
L 2766 2209 
L 2766 2266 
Q 2766 2663 2505 2880 
Q 2244 3097 1772 3097 
Q 1472 3097 1187 3025 
Q 903 2953 641 2809 
L 641 3341 
Q 956 3463 1253 3523 
Q 1550 3584 1831 3584 
Q 2591 3584 2966 3190 
Q 3341 2797 3341 1997 
z
" transform="scale(0.015625)"/>
       <path id="DejaVuSans-74" d="M 1172 4494 
L 1172 3500 
L 2356 3500 
L 2356 3053 
L 1172 3053 
L 1172 1153 
Q 1172 725 1289 603 
Q 1406 481 1766 481 
L 2356 481 
L 2356 0 
L 1766 0 
Q 1100 0 847 248 
Q 594 497 594 1153 
L 594 3053 
L 172 3053 
L 172 3500 
L 594 3500 
L 594 4494 
L 1172 4494 
z
" transform="scale(0.015625)"/>
       <path id="DejaVuSans-69" d="M 603 3500 
L 1178 3500 
L 1178 0 
L 603 0 
L 603 3500 
z
M 603 4863 
L 1178 4863 
L 1178 4134 
L 603 4134 
L 603 4863 
z
" transform="scale(0.015625)"/>
       <path id="DejaVuSans-6f" d="M 1959 3097 
Q 1497 3097 1228 2736 
Q 959 2375 959 1747 
Q 959 1119 1226 758 
Q 1494 397 1959 397 
Q 2419 397 2687 759 
Q 2956 1122 2956 1747 
Q 2956 2369 2687 2733 
Q 2419 3097 1959 3097 
z
M 1959 3584 
Q 2709 3584 3137 3096 
Q 3566 2609 3566 1747 
Q 3566 888 3137 398 
Q 2709 -91 1959 -91 
Q 1206 -91 779 398 
Q 353 888 353 1747 
Q 353 2609 779 3096 
Q 1206 3584 1959 3584 
z
" transform="scale(0.015625)"/>
      </defs>
      <use xlink:href="#DejaVuSans-47"/>
      <use xlink:href="#DejaVuSans-65" transform="translate(77.490234 0)"/>
      <use xlink:href="#DejaVuSans-6e" transform="translate(139.013672 0)"/>
      <use xlink:href="#DejaVuSans-65" transform="translate(202.392578 0)"/>
      <use xlink:href="#DejaVuSans-72" transform="translate(263.916016 0)"/>
      <use xlink:href="#DejaVuSans-61" transform="translate(305.029297 0)"/>
      <use xlink:href="#DejaVuSans-74" transform="translate(366.308594 0)"/>
      <use xlink:href="#DejaVuSans-69" transform="translate(405.517578 0)"/>
      <use xlink:href="#DejaVuSans-6f" transform="translate(433.300781 0)"/>
      <use xlink:href="#DejaVuSans-6e" transform="translate(494.482422 0)"/>
     </g>
    </g>
   </g>
   <g id="matplotlib.axis_2">
    <g id="ytick_1">
     <g id="line2d_8">
      <defs>
       <path id="md587a536ca" d="M 0 0 
L -3.5 0 
" style="stroke: #000000; stroke-width: 0.8"/>
      </defs>
      <g>
       <use xlink:href="#md587a536ca" x="57.6" y="307.584" style="stroke: #000000; stroke-width: 0.8"/>
      </g>
     </g>
     <g id="text_9">
      <!-- 0 -->
      <g transform="translate(44.2375 311.383219) scale(0.1 -0.1)">
       <use xlink:href="#DejaVuSans-30"/>
      </g>
     </g>
    </g>
    <g id="ytick_2">
     <g id="line2d_9">
      <g>
       <use xlink:href="#md587a536ca" x="57.6" y="254.3616" style="stroke: #000000; stroke-width: 0.8"/>
      </g>
     </g>
     <g id="text_10">
      <!-- 2 -->
      <g transform="translate(44.2375 258.160819) scale(0.1 -0.1)">
       <use xlink:href="#DejaVuSans-32"/>
      </g>
     </g>
    </g>
    <g id="ytick_3">
     <g id="line2d_10">
      <g>
       <use xlink:href="#md587a536ca" x="57.6" y="201.1392" style="stroke: #000000; stroke-width: 0.8"/>
      </g>
     </g>
     <g id="text_11">
      <!-- 4 -->
      <g transform="translate(44.2375 204.938419) scale(0.1 -0.1)">
       <defs>
        <path id="DejaVuSans-34" d="M 2419 4116 
L 825 1625 
L 2419 1625 
L 2419 4116 
z
M 2253 4666 
L 3047 4666 
L 3047 1625 
L 3713 1625 
L 3713 1100 
L 3047 1100 
L 3047 0 
L 2419 0 
L 2419 1100 
L 313 1100 
L 313 1709 
L 2253 4666 
z
" transform="scale(0.015625)"/>
       </defs>
       <use xlink:href="#DejaVuSans-34"/>
      </g>
     </g>
    </g>
    <g id="ytick_4">
     <g id="line2d_11">
      <g>
       <use xlink:href="#md587a536ca" x="57.6" y="147.9168" style="stroke: #000000; stroke-width: 0.8"/>
      </g>
     </g>
     <g id="text_12">
      <!-- 6 -->
      <g transform="translate(44.2375 151.716019) scale(0.1 -0.1)">
       <defs>
        <path id="DejaVuSans-36" d="M 2113 2584 
Q 1688 2584 1439 2293 
Q 1191 2003 1191 1497 
Q 1191 994 1439 701 
Q 1688 409 2113 409 
Q 2538 409 2786 701 
Q 3034 994 3034 1497 
Q 3034 2003 2786 2293 
Q 2538 2584 2113 2584 
z
M 3366 4563 
L 3366 3988 
Q 3128 4100 2886 4159 
Q 2644 4219 2406 4219 
Q 1781 4219 1451 3797 
Q 1122 3375 1075 2522 
Q 1259 2794 1537 2939 
Q 1816 3084 2150 3084 
Q 2853 3084 3261 2657 
Q 3669 2231 3669 1497 
Q 3669 778 3244 343 
Q 2819 -91 2113 -91 
Q 1303 -91 875 529 
Q 447 1150 447 2328 
Q 447 3434 972 4092 
Q 1497 4750 2381 4750 
Q 2619 4750 2861 4703 
Q 3103 4656 3366 4563 
z
" transform="scale(0.015625)"/>
       </defs>
       <use xlink:href="#DejaVuSans-36"/>
      </g>
     </g>
    </g>
    <g id="ytick_5">
     <g id="line2d_12">
      <g>
       <use xlink:href="#md587a536ca" x="57.6" y="94.6944" style="stroke: #000000; stroke-width: 0.8"/>
      </g>
     </g>
     <g id="text_13">
      <!-- 8 -->
      <g transform="translate(44.2375 98.493619) scale(0.1 -0.1)">
       <defs>
        <path id="DejaVuSans-38" d="M 2034 2216 
Q 1584 2216 1326 1975 
Q 1069 1734 1069 1313 
Q 1069 891 1326 650 
Q 1584 409 2034 409 
Q 2484 409 2743 651 
Q 3003 894 3003 1313 
Q 3003 1734 2745 1975 
Q 2488 2216 2034 2216 
z
M 1403 2484 
Q 997 2584 770 2862 
Q 544 3141 544 3541 
Q 544 4100 942 4425 
Q 1341 4750 2034 4750 
Q 2731 4750 3128 4425 
Q 3525 4100 3525 3541 
Q 3525 3141 3298 2862 
Q 3072 2584 2669 2484 
Q 3125 2378 3379 2068 
Q 3634 1759 3634 1313 
Q 3634 634 3220 271 
Q 2806 -91 2034 -91 
Q 1263 -91 848 271 
Q 434 634 434 1313 
Q 434 1759 690 2068 
Q 947 2378 1403 2484 
z
M 1172 3481 
Q 1172 3119 1398 2916 
Q 1625 2713 2034 2713 
Q 2441 2713 2670 2916 
Q 2900 3119 2900 3481 
Q 2900 3844 2670 4047 
Q 2441 4250 2034 4250 
Q 1625 4250 1398 4047 
Q 1172 3844 1172 3481 
z
" transform="scale(0.015625)"/>
       </defs>
       <use xlink:href="#DejaVuSans-38"/>
      </g>
     </g>
    </g>
    <g id="ytick_6">
     <g id="line2d_13">
      <g>
       <use xlink:href="#md587a536ca" x="57.6" y="41.472" style="stroke: #000000; stroke-width: 0.8"/>
      </g>
     </g>
     <g id="text_14">
      <!-- 10 -->
      <g transform="translate(37.875 45.271219) scale(0.1 -0.1)">
       <use xlink:href="#DejaVuSans-31"/>
       <use xlink:href="#DejaVuSans-30" transform="translate(63.623047 0)"/>
      </g>
     </g>
    </g>
    <g id="text_15">
     <!-- Average Fitness -->
     <g transform="translate(31.795312 213.967062) rotate(-90) scale(0.1 -0.1)">
      <defs>
       <path id="DejaVuSans-41" d="M 2188 4044 
L 1331 1722 
L 3047 1722 
L 2188 4044 
z
M 1831 4666 
L 2547 4666 
L 4325 0 
L 3669 0 
L 3244 1197 
L 1141 1197 
L 716 0 
L 50 0 
L 1831 4666 
z
" transform="scale(0.015625)"/>
       <path id="DejaVuSans-76" d="M 191 3500 
L 800 3500 
L 1894 563 
L 2988 3500 
L 3597 3500 
L 2284 0 
L 1503 0 
L 191 3500 
z
" transform="scale(0.015625)"/>
       <path id="DejaVuSans-67" d="M 2906 1791 
Q 2906 2416 2648 2759 
Q 2391 3103 1925 3103 
Q 1463 3103 1205 2759 
Q 947 2416 947 1791 
Q 947 1169 1205 825 
Q 1463 481 1925 481 
Q 2391 481 2648 825 
Q 2906 1169 2906 1791 
z
M 3481 434 
Q 3481 -459 3084 -895 
Q 2688 -1331 1869 -1331 
Q 1566 -1331 1297 -1286 
Q 1028 -1241 775 -1147 
L 775 -588 
Q 1028 -725 1275 -790 
Q 1522 -856 1778 -856 
Q 2344 -856 2625 -561 
Q 2906 -266 2906 331 
L 2906 616 
Q 2728 306 2450 153 
Q 2172 0 1784 0 
Q 1141 0 747 490 
Q 353 981 353 1791 
Q 353 2603 747 3093 
Q 1141 3584 1784 3584 
Q 2172 3584 2450 3431 
Q 2728 3278 2906 2969 
L 2906 3500 
L 3481 3500 
L 3481 434 
z
" transform="scale(0.015625)"/>
       <path id="DejaVuSans-20" transform="scale(0.015625)"/>
       <path id="DejaVuSans-46" d="M 628 4666 
L 3309 4666 
L 3309 4134 
L 1259 4134 
L 1259 2759 
L 3109 2759 
L 3109 2228 
L 1259 2228 
L 1259 0 
L 628 0 
L 628 4666 
z
" transform="scale(0.015625)"/>
       <path id="DejaVuSans-73" d="M 2834 3397 
L 2834 2853 
Q 2591 2978 2328 3040 
Q 2066 3103 1784 3103 
Q 1356 3103 1142 2972 
Q 928 2841 928 2578 
Q 928 2378 1081 2264 
Q 1234 2150 1697 2047 
L 1894 2003 
Q 2506 1872 2764 1633 
Q 3022 1394 3022 966 
Q 3022 478 2636 193 
Q 2250 -91 1575 -91 
Q 1294 -91 989 -36 
Q 684 19 347 128 
L 347 722 
Q 666 556 975 473 
Q 1284 391 1588 391 
Q 1994 391 2212 530 
Q 2431 669 2431 922 
Q 2431 1156 2273 1281 
Q 2116 1406 1581 1522 
L 1381 1569 
Q 847 1681 609 1914 
Q 372 2147 372 2553 
Q 372 3047 722 3315 
Q 1072 3584 1716 3584 
Q 2034 3584 2315 3537 
Q 2597 3491 2834 3397 
z
" transform="scale(0.015625)"/>
      </defs>
      <use xlink:href="#DejaVuSans-41"/>
      <use xlink:href="#DejaVuSans-76" transform="translate(62.533203 0)"/>
      <use xlink:href="#DejaVuSans-65" transform="translate(121.712891 0)"/>
      <use xlink:href="#DejaVuSans-72" transform="translate(183.236328 0)"/>
      <use xlink:href="#DejaVuSans-61" transform="translate(224.349609 0)"/>
      <use xlink:href="#DejaVuSans-67" transform="translate(285.628906 0)"/>
      <use xlink:href="#DejaVuSans-65" transform="translate(349.105469 0)"/>
      <use xlink:href="#DejaVuSans-20" transform="translate(410.628906 0)"/>
      <use xlink:href="#DejaVuSans-46" transform="translate(442.416016 0)"/>
      <use xlink:href="#DejaVuSans-69" transform="translate(492.685547 0)"/>
      <use xlink:href="#DejaVuSans-74" transform="translate(520.46875 0)"/>
      <use xlink:href="#DejaVuSans-6e" transform="translate(559.677734 0)"/>
      <use xlink:href="#DejaVuSans-65" transform="translate(623.056641 0)"/>
      <use xlink:href="#DejaVuSans-73" transform="translate(684.580078 0)"/>
      <use xlink:href="#DejaVuSans-73" transform="translate(736.679688 0)"/>
     </g>
    </g>
   </g>
   <g id="line2d_14">
    <path d="M 73.832727 224.292719 
L 83.978182 202.709442 
L 94.123636 186.462002 
L 104.269091 172.031995 
L 114.414545 162.849405 
L 124.56 159.426402 
L 134.705455 156.640768 
L 144.850909 147.851037 
L 154.996364 147.851037 
L 165.141818 147.851037 
L 175.287273 147.851037 
L 185.432727 130.573188 
L 195.578182 130.573188 
L 205.723636 129.271893 
L 215.869091 125.480503 
L 226.014545 125.480503 
L 236.16 125.480503 
L 246.305455 125.480503 
L 256.450909 125.480503 
L 266.596364 125.480503 
L 276.741818 125.480503 
L 286.887273 125.480503 
L 297.032727 124.970842 
L 307.178182 124.970842 
L 317.323636 124.970842 
L 327.469091 124.970842 
L 337.614545 123.572069 
L 347.76 119.812659 
L 357.905455 116.563308 
L 368.050909 116.563308 
L 378.196364 116.563308 
L 388.341818 116.563308 
L 398.487273 116.563308 
" clip-path="url(#p6b7a03304d)" style="fill: none; stroke: #008000; stroke-width: 1.5; stroke-linecap: square"/>
   </g>
   <g id="line2d_15">
    <path d="M 73.832727 284.425783 
L 83.978182 278.197689 
L 94.123636 272.744239 
L 104.269091 267.613196 
L 114.414545 263.27926 
L 124.56 260.763885 
L 134.705455 257.674845 
L 144.850909 255.453516 
L 154.996364 253.324903 
L 165.141818 251.054629 
L 175.287273 248.828704 
L 185.432727 244.90311 
L 195.578182 243.378272 
L 205.723636 241.875321 
L 215.869091 238.478414 
L 226.014545 236.632423 
L 236.16 234.606354 
L 246.305455 232.179864 
L 256.450909 230.94885 
L 266.596364 228.966579 
L 276.741818 227.180567 
L 286.887273 226.426247 
L 297.032727 224.614475 
L 307.178182 223.136986 
L 317.323636 222.555817 
L 327.469091 221.233068 
L 337.614545 219.564056 
L 347.76 218.461916 
L 357.905455 216.925723 
L 368.050909 215.672947 
L 378.196364 214.079217 
L 388.341818 212.934246 
L 398.487273 211.654941 
" clip-path="url(#p6b7a03304d)" style="fill: none; stroke: #0000ff; stroke-width: 1.5; stroke-linecap: square"/>
   </g>
   <g id="line2d_16">
    <path d="M 73.832727 304.643246 
L 83.978182 298.860406 
L 94.123636 294.530275 
L 104.269091 290.343719 
L 114.414545 286.734381 
L 124.56 283.567532 
L 134.705455 281.111954 
L 144.850909 278.782394 
L 154.996364 276.793541 
L 165.141818 275.090802 
L 175.287273 273.42676 
L 185.432727 270.820096 
L 195.578182 269.320342 
L 205.723636 268.242322 
L 215.869091 266.261591 
L 226.014545 264.493838 
L 236.16 261.998719 
L 246.305455 259.688012 
L 256.450909 258.744606 
L 266.596364 257.088603 
L 276.741818 255.788315 
L 286.887273 254.060333 
L 297.032727 252.680509 
L 307.178182 251.88742 
L 317.323636 251.628742 
L 327.469091 249.130211 
L 337.614545 247.394178 
L 347.76 246.535749 
L 357.905455 246.080059 
L 368.050909 245.116718 
L 378.196364 243.608767 
L 388.341818 242.757414 
L 398.487273 242.038942 
" clip-path="url(#p6b7a03304d)" style="fill: none; stroke: #ff0000; stroke-width: 1.5; stroke-linecap: square"/>
   </g>
   <g id="line2d_17">
    <path d="M 73.832727 284.425783 
L 83.978182 278.197689 
L 94.123636 272.744239 
L 104.269091 267.613196 
L 114.414545 263.27926 
L 124.56 260.763885 
L 134.705455 257.674845 
L 144.850909 255.453516 
L 154.996364 253.324903 
L 165.141818 251.054629 
L 175.287273 248.828704 
L 185.432727 244.90311 
L 195.578182 243.378272 
L 205.723636 241.875321 
L 215.869091 238.478414 
L 226.014545 236.632423 
L 236.16 234.606354 
L 246.305455 232.179864 
L 256.450909 230.94885 
L 266.596364 228.966579 
L 276.741818 227.180567 
L 286.887273 226.426247 
L 297.032727 224.614475 
L 307.178182 223.136986 
L 317.323636 222.555817 
L 327.469091 221.233068 
L 337.614545 219.564056 
L 347.76 218.461916 
L 357.905455 216.925723 
L 368.050909 215.672947 
L 378.196364 214.079217 
L 388.341818 212.934246 
L 398.487273 211.654941 
" clip-path="url(#p6b7a03304d)" style="fill: none; stroke: #0000ff; stroke-width: 1.5; stroke-linecap: square"/>
   </g>
   <g id="line2d_18">
    <path d="M 73.832727 304.643246 
L 83.978182 298.860406 
L 94.123636 294.530275 
L 104.269091 290.343719 
L 114.414545 286.734381 
L 124.56 283.567532 
L 134.705455 281.111954 
L 144.850909 278.782394 
L 154.996364 276.793541 
L 165.141818 275.090802 
L 175.287273 273.42676 
L 185.432727 270.820096 
L 195.578182 269.320342 
L 205.723636 268.242322 
L 215.869091 266.261591 
L 226.014545 264.493838 
L 236.16 261.998719 
L 246.305455 259.688012 
L 256.450909 258.744606 
L 266.596364 257.088603 
L 276.741818 255.788315 
L 286.887273 254.060333 
L 297.032727 252.680509 
L 307.178182 251.88742 
L 317.323636 251.628742 
L 327.469091 249.130211 
L 337.614545 247.394178 
L 347.76 246.535749 
L 357.905455 246.080059 
L 368.050909 245.116718 
L 378.196364 243.608767 
L 388.341818 242.757414 
L 398.487273 242.038942 
" clip-path="url(#p6b7a03304d)" style="fill: none; stroke: #ff0000; stroke-width: 1.5; stroke-linecap: square"/>
   </g>
   <g id="patch_3">
    <path d="M 57.6 307.584 
L 57.6 41.472 
" style="fill: none; stroke: #000000; stroke-width: 0.8; stroke-linejoin: miter; stroke-linecap: square"/>
   </g>
   <g id="patch_4">
    <path d="M 414.72 307.584 
L 414.72 41.472 
" style="fill: none; stroke: #000000; stroke-width: 0.8; stroke-linejoin: miter; stroke-linecap: square"/>
   </g>
   <g id="patch_5">
    <path d="M 57.6 307.584 
L 414.72 307.584 
" style="fill: none; stroke: #000000; stroke-width: 0.8; stroke-linejoin: miter; stroke-linecap: square"/>
   </g>
   <g id="patch_6">
    <path d="M 57.6 41.472 
L 414.72 41.472 
" style="fill: none; stroke: #000000; stroke-width: 0.8; stroke-linejoin: miter; stroke-linecap: square"/>
   </g>
   <g id="legend_1">
    <g id="patch_7">
     <path d="M 309.248125 93.506375 
L 407.72 93.506375 
Q 409.72 93.506375 409.72 91.506375 
L 409.72 48.472 
Q 409.72 46.472 407.72 46.472 
L 309.248125 46.472 
Q 307.248125 46.472 307.248125 48.472 
L 307.248125 91.506375 
Q 307.248125 93.506375 309.248125 93.506375 
z
" style="fill: #ffffff; opacity: 0.8; stroke: #cccccc; stroke-linejoin: miter"/>
    </g>
    <g id="line2d_19">
     <path d="M 311.248125 54.570438 
L 321.248125 54.570438 
L 331.248125 54.570438 
" style="fill: none; stroke: #008000; stroke-width: 1.5; stroke-linecap: square"/>
    </g>
    <g id="text_16">
     <!-- Best Fitness -->
     <g transform="translate(339.248125 58.070438) scale(0.1 -0.1)">
      <defs>
       <path id="DejaVuSans-42" d="M 1259 2228 
L 1259 519 
L 2272 519 
Q 2781 519 3026 730 
Q 3272 941 3272 1375 
Q 3272 1813 3026 2020 
Q 2781 2228 2272 2228 
L 1259 2228 
z
M 1259 4147 
L 1259 2741 
L 2194 2741 
Q 2656 2741 2882 2914 
Q 3109 3088 3109 3444 
Q 3109 3797 2882 3972 
Q 2656 4147 2194 4147 
L 1259 4147 
z
M 628 4666 
L 2241 4666 
Q 2963 4666 3353 4366 
Q 3744 4066 3744 3513 
Q 3744 3084 3544 2831 
Q 3344 2578 2956 2516 
Q 3422 2416 3680 2098 
Q 3938 1781 3938 1306 
Q 3938 681 3513 340 
Q 3088 0 2303 0 
L 628 0 
L 628 4666 
z
" transform="scale(0.015625)"/>
      </defs>
      <use xlink:href="#DejaVuSans-42"/>
      <use xlink:href="#DejaVuSans-65" transform="translate(68.603516 0)"/>
      <use xlink:href="#DejaVuSans-73" transform="translate(130.126953 0)"/>
      <use xlink:href="#DejaVuSans-74" transform="translate(182.226562 0)"/>
      <use xlink:href="#DejaVuSans-20" transform="translate(221.435547 0)"/>
      <use xlink:href="#DejaVuSans-46" transform="translate(253.222656 0)"/>
      <use xlink:href="#DejaVuSans-69" transform="translate(303.492188 0)"/>
      <use xlink:href="#DejaVuSans-74" transform="translate(331.275391 0)"/>
      <use xlink:href="#DejaVuSans-6e" transform="translate(370.484375 0)"/>
      <use xlink:href="#DejaVuSans-65" transform="translate(433.863281 0)"/>
      <use xlink:href="#DejaVuSans-73" transform="translate(495.386719 0)"/>
      <use xlink:href="#DejaVuSans-73" transform="translate(547.486328 0)"/>
     </g>
    </g>
    <g id="line2d_20">
     <path d="M 311.248125 69.248563 
L 321.248125 69.248563 
L 331.248125 69.248563 
" style="fill: none; stroke: #0000ff; stroke-width: 1.5; stroke-linecap: square"/>
    </g>
    <g id="text_17">
     <!-- Mean Fitness -->
     <g transform="translate(339.248125 72.748563) scale(0.1 -0.1)">
      <defs>
       <path id="DejaVuSans-4d" d="M 628 4666 
L 1569 4666 
L 2759 1491 
L 3956 4666 
L 4897 4666 
L 4897 0 
L 4281 0 
L 4281 4097 
L 3078 897 
L 2444 897 
L 1241 4097 
L 1241 0 
L 628 0 
L 628 4666 
z
" transform="scale(0.015625)"/>
      </defs>
      <use xlink:href="#DejaVuSans-4d"/>
      <use xlink:href="#DejaVuSans-65" transform="translate(86.279297 0)"/>
      <use xlink:href="#DejaVuSans-61" transform="translate(147.802734 0)"/>
      <use xlink:href="#DejaVuSans-6e" transform="translate(209.082031 0)"/>
      <use xlink:href="#DejaVuSans-20" transform="translate(272.460938 0)"/>
      <use xlink:href="#DejaVuSans-46" transform="translate(304.248047 0)"/>
      <use xlink:href="#DejaVuSans-69" transform="translate(354.517578 0)"/>
      <use xlink:href="#DejaVuSans-74" transform="translate(382.300781 0)"/>
      <use xlink:href="#DejaVuSans-6e" transform="translate(421.509766 0)"/>
      <use xlink:href="#DejaVuSans-65" transform="translate(484.888672 0)"/>
      <use xlink:href="#DejaVuSans-73" transform="translate(546.412109 0)"/>
      <use xlink:href="#DejaVuSans-73" transform="translate(598.511719 0)"/>
     </g>
    </g>
    <g id="line2d_21">
     <path d="M 311.248125 83.926688 
L 321.248125 83.926688 
L 331.248125 83.926688 
" style="fill: none; stroke: #ff0000; stroke-width: 1.5; stroke-linecap: square"/>
    </g>
    <g id="text_18">
     <!-- Worst Fitness -->
     <g transform="translate(339.248125 87.426688) scale(0.1 -0.1)">
      <defs>
       <path id="DejaVuSans-57" d="M 213 4666 
L 850 4666 
L 1831 722 
L 2809 4666 
L 3519 4666 
L 4500 722 
L 5478 4666 
L 6119 4666 
L 4947 0 
L 4153 0 
L 3169 4050 
L 2175 0 
L 1381 0 
L 213 4666 
z
" transform="scale(0.015625)"/>
      </defs>
      <use xlink:href="#DejaVuSans-57"/>
      <use xlink:href="#DejaVuSans-6f" transform="translate(93.001953 0)"/>
      <use xlink:href="#DejaVuSans-72" transform="translate(154.183594 0)"/>
      <use xlink:href="#DejaVuSans-73" transform="translate(195.296875 0)"/>
      <use xlink:href="#DejaVuSans-74" transform="translate(247.396484 0)"/>
      <use xlink:href="#DejaVuSans-20" transform="translate(286.605469 0)"/>
      <use xlink:href="#DejaVuSans-46" transform="translate(318.392578 0)"/>
      <use xlink:href="#DejaVuSans-69" transform="translate(368.662109 0)"/>
      <use xlink:href="#DejaVuSans-74" transform="translate(396.445312 0)"/>
      <use xlink:href="#DejaVuSans-6e" transform="translate(435.654297 0)"/>
      <use xlink:href="#DejaVuSans-65" transform="translate(499.033203 0)"/>
      <use xlink:href="#DejaVuSans-73" transform="translate(560.556641 0)"/>
      <use xlink:href="#DejaVuSans-73" transform="translate(612.65625 0)"/>
     </g>
    </g>
   </g>
  </g>
 </g>
 <defs>
  <clipPath id="p6b7a03304d">
   <rect x="57.6" y="41.472" width="357.12" height="266.112"/>
  </clipPath>
 </defs>
</svg>
