<?xml version="1.0" encoding="utf-8" standalone="no"?>
<!DOCTYPE svg PUBLIC "-//W3C//DTD SVG 1.1//EN"
  "http://www.w3.org/Graphics/SVG/1.1/DTD/svg11.dtd">
<svg xmlns:xlink="http://www.w3.org/1999/xlink" width="460.8pt" height="345.6pt" viewBox="0 0 460.8 345.6" xmlns="http://www.w3.org/2000/svg" version="1.1">
 <metadata>
  <rdf:RDF xmlns:dc="http://purl.org/dc/elements/1.1/" xmlns:cc="http://creativecommons.org/ns#" xmlns:rdf="http://www.w3.org/1999/02/22-rdf-syntax-ns#">
   <cc:Work>
    <dc:type rdf:resource="http://purl.org/dc/dcmitype/StillImage"/>
    <dc:date>2025-11-11T16:22:38.371179</dc:date>
    <dc:format>image/svg+xml</dc:format>
    <dc:creator>
     <cc:Agent>
      <dc:title>Matplotlib v3.10.0, https://matplotlib.org/</dc:title>
     </cc:Agent>
    </dc:creator>
   </cc:Work>
  </rdf:RDF>
 </metadata>
 <defs>
  <style type="text/css">*{stroke-linejoin: round; stroke-linecap: butt}</style>
 </defs>
 <g id="figure_1">
  <g id="patch_1">
   <path d="M 0 345.6 
L 460.8 345.6 
L 460.8 0 
L 0 0 
z
" style="fill: #ffffff"/>
  </g>
  <g id="axes_1">
   <g id="patch_2">
    <path d="M 57.6 307.584 
L 414.72 307.584 
L 414.72 41.472 
L 57.6 41.472 
z
" style="fill: #ffffff"/>
   </g>
   <g id="FillBetweenPolyCollection_1">
    <defs>
     <path id="mcaac275473" d="M 73.832727 -171.687455 
L 73.832727 -148.481989 
L 80.325818 -162.460659 
L 86.818909 -163.046468 
L 93.312 -163.046468 
L 99.805091 -167.050846 
L 106.298182 -169.664358 
L 112.791273 -170.764224 
L 119.284364 -171.928903 
L 125.777455 -172.49716 
L 132.270545 -172.49716 
L 138.763636 -184.14564 
L 145.256727 -184.14564 
L 151.749818 -207.948857 
L 158.242909 -207.948857 
L 164.736 -209.015415 
L 171.229091 -209.015415 
L 177.722182 -209.015415 
L 184.215273 -210.474372 
L 190.708364 -210.474372 
L 197.201455 -210.474372 
L 203.694545 -210.474372 
L 210.187636 -210.474372 
L 216.680727 -210.474372 
L 223.173818 -210.474372 
L 229.666909 -210.474372 
L 236.16 -210.474372 
L 242.653091 -210.474372 
L 249.146182 -211.383106 
L 255.639273 -220.739135 
L 262.132364 -220.739135 
L 268.625455 -220.739135 
L 275.118545 -220.739135 
L 281.611636 -220.739135 
L 288.104727 -220.739135 
L 294.597818 -221.460361 
L 301.090909 -221.460361 
L 307.584 -227.892378 
L 314.077091 -227.892378 
L 320.570182 -227.892378 
L 327.063273 -227.892378 
L 333.556364 -227.892378 
L 340.049455 -228.538115 
L 346.542545 -234.272274 
L 353.035636 -238.652169 
L 359.528727 -238.652169 
L 366.021818 -248.066211 
L 372.514909 -248.066211 
L 379.008 -248.066211 
L 385.501091 -248.066211 
L 391.994182 -248.066211 
L 398.487273 -248.066211 
L 398.487273 -292.032 
L 398.487273 -292.032 
L 391.994182 -292.032 
L 385.501091 -292.032 
L 379.008 -292.032 
L 372.514909 -292.032 
L 366.021818 -292.032 
L 359.528727 -276.945306 
L 353.035636 -276.945306 
L 346.542545 -274.108951 
L 340.049455 -270.14866 
L 333.556364 -269.779821 
L 327.063273 -269.779821 
L 320.570182 -269.779821 
L 314.077091 -269.779821 
L 307.584 -269.779821 
L 301.090909 -261.734528 
L 294.597818 -261.734528 
L 288.104727 -258.221038 
L 281.611636 -258.221038 
L 275.118545 -258.221038 
L 268.625455 -258.221038 
L 262.132364 -258.221038 
L 255.639273 -258.221038 
L 249.146182 -252.565587 
L 242.653091 -251.987131 
L 236.16 -251.987131 
L 229.666909 -251.987131 
L 223.173818 -251.987131 
L 216.680727 -251.987131 
L 210.187636 -251.987131 
L 203.694545 -251.987131 
L 197.201455 -251.987131 
L 190.708364 -251.987131 
L 184.215273 -251.987131 
L 177.722182 -250.268896 
L 171.229091 -250.268896 
L 164.736 -250.268896 
L 158.242909 -249.630884 
L 151.749818 -249.630884 
L 145.256727 -222.384383 
L 138.763636 -222.384383 
L 132.270545 -212.464566 
L 125.777455 -212.464566 
L 119.284364 -211.993186 
L 112.791273 -211.506714 
L 106.298182 -210.979288 
L 99.805091 -209.039326 
L 93.312 -189.901976 
L 86.818909 -189.901976 
L 80.325818 -189.687943 
L 73.832727 -171.687455 
z
" style="stroke: #008000; stroke-opacity: 0.2"/>
    </defs>
    <g clip-path="url(#p23dec06887)">
     <use xlink:href="#mcaac275473" x="0" y="345.6" style="fill: #008000; fill-opacity: 0.2; stroke: #008000; stroke-opacity: 0.2"/>
    </g>
   </g>
   <g id="FillBetweenPolyCollection_2">
    <defs>
     <path id="m7ad744535b" d="M 73.832727 -68.85766 
L 73.832727 -66.920429 
L 80.325818 -72.140629 
L 86.818909 -74.955266 
L 93.312 -77.137699 
L 99.805091 -79.876995 
L 106.298182 -82.405238 
L 112.791273 -84.512822 
L 119.284364 -86.411398 
L 125.777455 -88.523124 
L 132.270545 -90.308002 
L 138.763636 -92.958534 
L 145.256727 -94.684187 
L 151.749818 -97.655781 
L 158.242909 -98.760493 
L 164.736 -100.097615 
L 171.229091 -101.347404 
L 177.722182 -101.957168 
L 184.215273 -103.185207 
L 190.708364 -104.008777 
L 197.201455 -105.354935 
L 203.694545 -105.945713 
L 210.187636 -107.409741 
L 216.680727 -108.015517 
L 223.173818 -109.016515 
L 229.666909 -109.567371 
L 236.16 -110.234399 
L 242.653091 -111.253747 
L 249.146182 -112.334882 
L 255.639273 -113.89339 
L 262.132364 -114.737718 
L 268.625455 -115.601528 
L 275.118545 -115.998229 
L 281.611636 -117.292171 
L 288.104727 -118.268657 
L 294.597818 -119.415147 
L 301.090909 -120.392385 
L 307.584 -121.644086 
L 314.077091 -122.059628 
L 320.570182 -123.193925 
L 327.063273 -123.696747 
L 333.556364 -125.034004 
L 340.049455 -125.894607 
L 346.542545 -126.839119 
L 353.035636 -127.512769 
L 359.528727 -128.325832 
L 366.021818 -129.488616 
L 372.514909 -130.308331 
L 379.008 -131.32228 
L 385.501091 -132.321853 
L 391.994182 -132.949538 
L 398.487273 -133.110519 
L 398.487273 -150.527533 
L 398.487273 -150.527533 
L 391.994182 -150.378542 
L 385.501091 -149.547988 
L 379.008 -148.332423 
L 372.514909 -147.416919 
L 366.021818 -146.061 
L 359.528727 -144.96314 
L 353.035636 -143.800917 
L 346.542545 -143.155411 
L 340.049455 -141.813997 
L 333.556364 -141.132172 
L 327.063273 -140.148335 
L 320.570182 -138.840569 
L 314.077091 -138.013814 
L 307.584 -136.3898 
L 301.090909 -134.436455 
L 294.597818 -133.39206 
L 288.104727 -128.697952 
L 281.611636 -126.88337 
L 275.118545 -125.57243 
L 268.625455 -123.409419 
L 262.132364 -122.267913 
L 255.639273 -121.386896 
L 249.146182 -119.092519 
L 242.653091 -117.048915 
L 236.16 -116.192816 
L 229.666909 -115.441222 
L 223.173818 -114.561554 
L 216.680727 -113.4995 
L 210.187636 -112.875806 
L 203.694545 -111.476939 
L 197.201455 -110.917393 
L 190.708364 -109.908923 
L 184.215273 -109.01514 
L 177.722182 -107.971213 
L 171.229091 -106.866009 
L 164.736 -105.652145 
L 158.242909 -104.183706 
L 151.749818 -102.090015 
L 145.256727 -99.145858 
L 138.763636 -97.494554 
L 132.270545 -94.678653 
L 125.777455 -93.170313 
L 119.284364 -91.048172 
L 112.791273 -89.446579 
L 106.298182 -87.177272 
L 99.805091 -83.912166 
L 93.312 -80.615603 
L 86.818909 -78.221071 
L 80.325818 -75.809954 
L 73.832727 -68.85766 
z
" style="stroke: #0000ff; stroke-opacity: 0.2"/>
    </defs>
    <g clip-path="url(#p23dec06887)">
     <use xlink:href="#m7ad744535b" x="0" y="345.6" style="fill: #0000ff; fill-opacity: 0.2; stroke: #0000ff; stroke-opacity: 0.2"/>
    </g>
   </g>
   <g id="FillBetweenPolyCollection_3">
    <defs>
     <path id="ma78bf06b4a" d="M 73.832727 -50.458366 
L 73.832727 -50.112 
L 80.325818 -53.819891 
L 86.818909 -57.34687 
L 93.312 -59.454501 
L 99.805091 -61.875378 
L 106.298182 -63.715939 
L 112.791273 -65.3786 
L 119.284364 -66.95987 
L 125.777455 -68.355482 
L 132.270545 -69.456711 
L 138.763636 -70.933976 
L 145.256727 -72.414098 
L 151.749818 -73.665612 
L 158.242909 -74.859468 
L 164.736 -76.211959 
L 171.229091 -77.440814 
L 177.722182 -78.182806 
L 184.215273 -79.233638 
L 190.708364 -79.912441 
L 197.201455 -81.112864 
L 203.694545 -81.739772 
L 210.187636 -83.30621 
L 216.680727 -83.891398 
L 223.173818 -84.291564 
L 229.666909 -84.830032 
L 236.16 -85.193343 
L 242.653091 -85.817896 
L 249.146182 -86.772504 
L 255.639273 -88.014489 
L 262.132364 -88.832607 
L 268.625455 -89.280468 
L 275.118545 -89.641784 
L 281.611636 -90.750656 
L 288.104727 -91.372256 
L 294.597818 -92.397461 
L 301.090909 -93.269014 
L 307.584 -93.906442 
L 314.077091 -94.466593 
L 320.570182 -95.157355 
L 327.063273 -95.774438 
L 333.556364 -96.32401 
L 340.049455 -96.704575 
L 346.542545 -97.388758 
L 353.035636 -97.976012 
L 359.528727 -98.352383 
L 366.021818 -98.986985 
L 372.514909 -99.858731 
L 379.008 -100.485843 
L 385.501091 -101.297427 
L 391.994182 -102.430149 
L 398.487273 -102.766092 
L 398.487273 -110.810721 
L 398.487273 -110.810721 
L 391.994182 -110.267868 
L 385.501091 -109.26984 
L 379.008 -107.700715 
L 372.514909 -107.209244 
L 366.021818 -105.156566 
L 359.528727 -104.743108 
L 353.035636 -104.120141 
L 346.542545 -103.6582 
L 340.049455 -102.771903 
L 333.556364 -102.426716 
L 327.063273 -102.069212 
L 320.570182 -101.202596 
L 314.077091 -100.721649 
L 307.584 -99.965233 
L 301.090909 -99.030415 
L 294.597818 -96.644741 
L 288.104727 -95.397489 
L 281.611636 -94.143023 
L 275.118545 -93.191291 
L 268.625455 -92.215199 
L 262.132364 -91.885069 
L 255.639273 -90.838205 
L 249.146182 -89.441972 
L 242.653091 -88.336791 
L 236.16 -87.83879 
L 229.666909 -87.363624 
L 223.173818 -86.788754 
L 216.680727 -86.18393 
L 210.187636 -85.429755 
L 203.694545 -84.402734 
L 197.201455 -83.491116 
L 190.708364 -82.947444 
L 184.215273 -82.090661 
L 177.722182 -81.078972 
L 171.229091 -80.130404 
L 164.736 -78.891493 
L 158.242909 -77.580489 
L 151.749818 -76.380847 
L 145.256727 -75.058851 
L 138.763636 -73.526034 
L 132.270545 -71.714536 
L 125.777455 -70.414996 
L 119.284364 -68.731588 
L 112.791273 -66.839934 
L 106.298182 -65.324728 
L 99.805091 -63.418331 
L 93.312 -60.899772 
L 86.818909 -58.713519 
L 80.325818 -54.669975 
L 73.832727 -50.458366 
z
" style="stroke: #ff0000; stroke-opacity: 0.2"/>
    </defs>
    <g clip-path="url(#p23dec06887)">
     <use xlink:href="#ma78bf06b4a" x="0" y="345.6" style="fill: #ff0000; fill-opacity: 0.2; stroke: #ff0000; stroke-opacity: 0.2"/>
    </g>
   </g>
   <g id="matplotlib.axis_1">
    <g id="xtick_1">
     <g id="line2d_1">
      <defs>
       <path id="mf118cc27b5" d="M 0 0 
L 0 3.5 
" style="stroke: #000000; stroke-width: 0.8"/>
      </defs>
      <g>
       <use xlink:href="#mf118cc27b5" x="73.832727" y="307.584" style="stroke: #000000; stroke-width: 0.8"/>
      </g>
     </g>
     <g id="text_1">
      <!-- 0 -->
      <g transform="translate(70.651477 322.182437) scale(0.1 -0.1)">
       <defs>
        <path id="DejaVuSans-30" d="M 2034 4250 
Q 1547 4250 1301 3770 
Q 1056 3291 1056 2328 
Q 1056 1369 1301 889 
Q 1547 409 2034 409 
Q 2525 409 2770 889 
Q 3016 1369 3016 2328 
Q 3016 3291 2770 3770 
Q 2525 4250 2034 4250 
z
M 2034 4750 
Q 2819 4750 3233 4129 
Q 3647 3509 3647 2328 
Q 3647 1150 3233 529 
Q 2819 -91 2034 -91 
Q 1250 -91 836 529 
Q 422 1150 422 2328 
Q 422 3509 836 4129 
Q 1250 4750 2034 4750 
z
" transform="scale(0.015625)"/>
       </defs>
       <use xlink:href="#DejaVuSans-30"/>
      </g>
     </g>
    </g>
    <g id="xtick_2">
     <g id="line2d_2">
      <g>
       <use xlink:href="#mf118cc27b5" x="138.763636" y="307.584" style="stroke: #000000; stroke-width: 0.8"/>
      </g>
     </g>
     <g id="text_2">
      <!-- 10 -->
      <g transform="translate(132.401136 322.182437) scale(0.1 -0.1)">
       <defs>
        <path id="DejaVuSans-31" d="M 794 531 
L 1825 531 
L 1825 4091 
L 703 3866 
L 703 4441 
L 1819 4666 
L 2450 4666 
L 2450 531 
L 3481 531 
L 3481 0 
L 794 0 
L 794 531 
z
" transform="scale(0.015625)"/>
       </defs>
       <use xlink:href="#DejaVuSans-31"/>
       <use xlink:href="#DejaVuSans-30" transform="translate(63.623047 0)"/>
      </g>
     </g>
    </g>
    <g id="xtick_3">
     <g id="line2d_3">
      <g>
       <use xlink:href="#mf118cc27b5" x="203.694545" y="307.584" style="stroke: #000000; stroke-width: 0.8"/>
      </g>
     </g>
     <g id="text_3">
      <!-- 20 -->
      <g transform="translate(197.332045 322.182437) scale(0.1 -0.1)">
       <defs>
        <path id="DejaVuSans-32" d="M 1228 531 
L 3431 531 
L 3431 0 
L 469 0 
L 469 531 
Q 828 903 1448 1529 
Q 2069 2156 2228 2338 
Q 2531 2678 2651 2914 
Q 2772 3150 2772 3378 
Q 2772 3750 2511 3984 
Q 2250 4219 1831 4219 
Q 1534 4219 1204 4116 
Q 875 4013 500 3803 
L 500 4441 
Q 881 4594 1212 4672 
Q 1544 4750 1819 4750 
Q 2544 4750 2975 4387 
Q 3406 4025 3406 3419 
Q 3406 3131 3298 2873 
Q 3191 2616 2906 2266 
Q 2828 2175 2409 1742 
Q 1991 1309 1228 531 
z
" transform="scale(0.015625)"/>
       </defs>
       <use xlink:href="#DejaVuSans-32"/>
       <use xlink:href="#DejaVuSans-30" transform="translate(63.623047 0)"/>
      </g>
     </g>
    </g>
    <g id="xtick_4">
     <g id="line2d_4">
      <g>
       <use xlink:href="#mf118cc27b5" x="268.625455" y="307.584" style="stroke: #000000; stroke-width: 0.8"/>
      </g>
     </g>
     <g id="text_4">
      <!-- 30 -->
      <g transform="translate(262.262955 322.182437) scale(0.1 -0.1)">
       <defs>
        <path id="DejaVuSans-33" d="M 2597 2516 
Q 3050 2419 3304 2112 
Q 3559 1806 3559 1356 
Q 3559 666 3084 287 
Q 2609 -91 1734 -91 
Q 1441 -91 1130 -33 
Q 819 25 488 141 
L 488 750 
Q 750 597 1062 519 
Q 1375 441 1716 441 
Q 2309 441 2620 675 
Q 2931 909 2931 1356 
Q 2931 1769 2642 2001 
Q 2353 2234 1838 2234 
L 1294 2234 
L 1294 2753 
L 1863 2753 
Q 2328 2753 2575 2939 
Q 2822 3125 2822 3475 
Q 2822 3834 2567 4026 
Q 2313 4219 1838 4219 
Q 1578 4219 1281 4162 
Q 984 4106 628 3988 
L 628 4550 
Q 988 4650 1302 4700 
Q 1616 4750 1894 4750 
Q 2613 4750 3031 4423 
Q 3450 4097 3450 3541 
Q 3450 3153 3228 2886 
Q 3006 2619 2597 2516 
z
" transform="scale(0.015625)"/>
       </defs>
       <use xlink:href="#DejaVuSans-33"/>
       <use xlink:href="#DejaVuSans-30" transform="translate(63.623047 0)"/>
      </g>
     </g>
    </g>
    <g id="xtick_5">
     <g id="line2d_5">
      <g>
       <use xlink:href="#mf118cc27b5" x="333.556364" y="307.584" style="stroke: #000000; stroke-width: 0.8"/>
      </g>
     </g>
     <g id="text_5">
      <!-- 40 -->
      <g transform="translate(327.193864 322.182437) scale(0.1 -0.1)">
       <defs>
        <path id="DejaVuSans-34" d="M 2419 4116 
L 825 1625 
L 2419 1625 
L 2419 4116 
z
M 2253 4666 
L 3047 4666 
L 3047 1625 
L 3713 1625 
L 3713 1100 
L 3047 1100 
L 3047 0 
L 2419 0 
L 2419 1100 
L 313 1100 
L 313 1709 
L 2253 4666 
z
" transform="scale(0.015625)"/>
       </defs>
       <use xlink:href="#DejaVuSans-34"/>
       <use xlink:href="#DejaVuSans-30" transform="translate(63.623047 0)"/>
      </g>
     </g>
    </g>
    <g id="xtick_6">
     <g id="line2d_6">
      <g>
       <use xlink:href="#mf118cc27b5" x="398.487273" y="307.584" style="stroke: #000000; stroke-width: 0.8"/>
      </g>
     </g>
     <g id="text_6">
      <!-- 50 -->
      <g transform="translate(392.124773 322.182437) scale(0.1 -0.1)">
       <defs>
        <path id="DejaVuSans-35" d="M 691 4666 
L 3169 4666 
L 3169 4134 
L 1269 4134 
L 1269 2991 
Q 1406 3038 1543 3061 
Q 1681 3084 1819 3084 
Q 2600 3084 3056 2656 
Q 3513 2228 3513 1497 
Q 3513 744 3044 326 
Q 2575 -91 1722 -91 
Q 1428 -91 1123 -41 
Q 819 9 494 109 
L 494 744 
Q 775 591 1075 516 
Q 1375 441 1709 441 
Q 2250 441 2565 725 
Q 2881 1009 2881 1497 
Q 2881 1984 2565 2268 
Q 2250 2553 1709 2553 
Q 1456 2553 1204 2497 
Q 953 2441 691 2322 
L 691 4666 
z
" transform="scale(0.015625)"/>
       </defs>
       <use xlink:href="#DejaVuSans-35"/>
       <use xlink:href="#DejaVuSans-30" transform="translate(63.623047 0)"/>
      </g>
     </g>
    </g>
    <g id="text_7">
     <!-- Generation -->
     <g transform="translate(208.267031 335.860562) scale(0.1 -0.1)">
      <defs>
       <path id="DejaVuSans-47" d="M 3809 666 
L 3809 1919 
L 2778 1919 
L 2778 2438 
L 4434 2438 
L 4434 434 
Q 4069 175 3628 42 
Q 3188 -91 2688 -91 
Q 1594 -91 976 548 
Q 359 1188 359 2328 
Q 359 3472 976 4111 
Q 1594 4750 2688 4750 
Q 3144 4750 3555 4637 
Q 3966 4525 4313 4306 
L 4313 3634 
Q 3963 3931 3569 4081 
Q 3175 4231 2741 4231 
Q 1884 4231 1454 3753 
Q 1025 3275 1025 2328 
Q 1025 1384 1454 906 
Q 1884 428 2741 428 
Q 3075 428 3337 486 
Q 3600 544 3809 666 
z
" transform="scale(0.015625)"/>
       <path id="DejaVuSans-65" d="M 3597 1894 
L 3597 1613 
L 953 1613 
Q 991 1019 1311 708 
Q 1631 397 2203 397 
Q 2534 397 2845 478 
Q 3156 559 3463 722 
L 3463 178 
Q 3153 47 2828 -22 
Q 2503 -91 2169 -91 
Q 1331 -91 842 396 
Q 353 884 353 1716 
Q 353 2575 817 3079 
Q 1281 3584 2069 3584 
Q 2775 3584 3186 3129 
Q 3597 2675 3597 1894 
z
M 3022 2063 
Q 3016 2534 2758 2815 
Q 2500 3097 2075 3097 
Q 1594 3097 1305 2825 
Q 1016 2553 972 2059 
L 3022 2063 
z
" transform="scale(0.015625)"/>
       <path id="DejaVuSans-6e" d="M 3513 2113 
L 3513 0 
L 2938 0 
L 2938 2094 
Q 2938 2591 2744 2837 
Q 2550 3084 2163 3084 
Q 1697 3084 1428 2787 
Q 1159 2491 1159 1978 
L 1159 0 
L 581 0 
L 581 3500 
L 1159 3500 
L 1159 2956 
Q 1366 3272 1645 3428 
Q 1925 3584 2291 3584 
Q 2894 3584 3203 3211 
Q 3513 2838 3513 2113 
z
" transform="scale(0.015625)"/>
       <path id="DejaVuSans-72" d="M 2631 2963 
Q 2534 3019 2420 3045 
Q 2306 3072 2169 3072 
Q 1681 3072 1420 2755 
Q 1159 2438 1159 1844 
L 1159 0 
L 581 0 
L 581 3500 
L 1159 3500 
L 1159 2956 
Q 1341 3275 1631 3429 
Q 1922 3584 2338 3584 
Q 2397 3584 2469 3576 
Q 2541 3569 2628 3553 
L 2631 2963 
z
" transform="scale(0.015625)"/>
       <path id="DejaVuSans-61" d="M 2194 1759 
Q 1497 1759 1228 1600 
Q 959 1441 959 1056 
Q 959 750 1161 570 
Q 1363 391 1709 391 
Q 2188 391 2477 730 
Q 2766 1069 2766 1631 
L 2766 1759 
L 2194 1759 
z
M 3341 1997 
L 3341 0 
L 2766 0 
L 2766 531 
Q 2569 213 2275 61 
Q 1981 -91 1556 -91 
Q 1019 -91 701 211 
Q 384 513 384 1019 
Q 384 1609 779 1909 
Q 1175 2209 1959 2209 
L 2766 2209 
L 2766 2266 
Q 2766 2663 2505 2880 
Q 2244 3097 1772 3097 
Q 1472 3097 1187 3025 
Q 903 2953 641 2809 
L 641 3341 
Q 956 3463 1253 3523 
Q 1550 3584 1831 3584 
Q 2591 3584 2966 3190 
Q 3341 2797 3341 1997 
z
" transform="scale(0.015625)"/>
       <path id="DejaVuSans-74" d="M 1172 4494 
L 1172 3500 
L 2356 3500 
L 2356 3053 
L 1172 3053 
L 1172 1153 
Q 1172 725 1289 603 
Q 1406 481 1766 481 
L 2356 481 
L 2356 0 
L 1766 0 
Q 1100 0 847 248 
Q 594 497 594 1153 
L 594 3053 
L 172 3053 
L 172 3500 
L 594 3500 
L 594 4494 
L 1172 4494 
z
" transform="scale(0.015625)"/>
       <path id="DejaVuSans-69" d="M 603 3500 
L 1178 3500 
L 1178 0 
L 603 0 
L 603 3500 
z
M 603 4863 
L 1178 4863 
L 1178 4134 
L 603 4134 
L 603 4863 
z
" transform="scale(0.015625)"/>
       <path id="DejaVuSans-6f" d="M 1959 3097 
Q 1497 3097 1228 2736 
Q 959 2375 959 1747 
Q 959 1119 1226 758 
Q 1494 397 1959 397 
Q 2419 397 2687 759 
Q 2956 1122 2956 1747 
Q 2956 2369 2687 2733 
Q 2419 3097 1959 3097 
z
M 1959 3584 
Q 2709 3584 3137 3096 
Q 3566 2609 3566 1747 
Q 3566 888 3137 398 
Q 2709 -91 1959 -91 
Q 1206 -91 779 398 
Q 353 888 353 1747 
Q 353 2609 779 3096 
Q 1206 3584 1959 3584 
z
" transform="scale(0.015625)"/>
      </defs>
      <use xlink:href="#DejaVuSans-47"/>
      <use xlink:href="#DejaVuSans-65" transform="translate(77.490234 0)"/>
      <use xlink:href="#DejaVuSans-6e" transform="translate(139.013672 0)"/>
      <use xlink:href="#DejaVuSans-65" transform="translate(202.392578 0)"/>
      <use xlink:href="#DejaVuSans-72" transform="translate(263.916016 0)"/>
      <use xlink:href="#DejaVuSans-61" transform="translate(305.029297 0)"/>
      <use xlink:href="#DejaVuSans-74" transform="translate(366.308594 0)"/>
      <use xlink:href="#DejaVuSans-69" transform="translate(405.517578 0)"/>
      <use xlink:href="#DejaVuSans-6f" transform="translate(433.300781 0)"/>
      <use xlink:href="#DejaVuSans-6e" transform="translate(494.482422 0)"/>
     </g>
    </g>
   </g>
   <g id="matplotlib.axis_2">
    <g id="ytick_1">
     <g id="line2d_7">
      <defs>
       <path id="m80f0af1dcd" d="M 0 0 
L -3.5 0 
" style="stroke: #000000; stroke-width: 0.8"/>
      </defs>
      <g>
       <use xlink:href="#m80f0af1dcd" x="57.6" y="297.614353" style="stroke: #000000; stroke-width: 0.8"/>
      </g>
     </g>
     <g id="text_8">
      <!-- 0 -->
      <g transform="translate(44.2375 301.413572) scale(0.1 -0.1)">
       <use xlink:href="#DejaVuSans-30"/>
      </g>
     </g>
    </g>
    <g id="ytick_2">
     <g id="line2d_8">
      <g>
       <use xlink:href="#m80f0af1dcd" x="57.6" y="253.594677" style="stroke: #000000; stroke-width: 0.8"/>
      </g>
     </g>
     <g id="text_9">
      <!-- 2 -->
      <g transform="translate(44.2375 257.393895) scale(0.1 -0.1)">
       <use xlink:href="#DejaVuSans-32"/>
      </g>
     </g>
    </g>
    <g id="ytick_3">
     <g id="line2d_9">
      <g>
       <use xlink:href="#m80f0af1dcd" x="57.6" y="209.575" style="stroke: #000000; stroke-width: 0.8"/>
      </g>
     </g>
     <g id="text_10">
      <!-- 4 -->
      <g transform="translate(44.2375 213.374219) scale(0.1 -0.1)">
       <use xlink:href="#DejaVuSans-34"/>
      </g>
     </g>
    </g>
    <g id="ytick_4">
     <g id="line2d_10">
      <g>
       <use xlink:href="#m80f0af1dcd" x="57.6" y="165.555323" style="stroke: #000000; stroke-width: 0.8"/>
      </g>
     </g>
     <g id="text_11">
      <!-- 6 -->
      <g transform="translate(44.2375 169.354542) scale(0.1 -0.1)">
       <defs>
        <path id="DejaVuSans-36" d="M 2113 2584 
Q 1688 2584 1439 2293 
Q 1191 2003 1191 1497 
Q 1191 994 1439 701 
Q 1688 409 2113 409 
Q 2538 409 2786 701 
Q 3034 994 3034 1497 
Q 3034 2003 2786 2293 
Q 2538 2584 2113 2584 
z
M 3366 4563 
L 3366 3988 
Q 3128 4100 2886 4159 
Q 2644 4219 2406 4219 
Q 1781 4219 1451 3797 
Q 1122 3375 1075 2522 
Q 1259 2794 1537 2939 
Q 1816 3084 2150 3084 
Q 2853 3084 3261 2657 
Q 3669 2231 3669 1497 
Q 3669 778 3244 343 
Q 2819 -91 2113 -91 
Q 1303 -91 875 529 
Q 447 1150 447 2328 
Q 447 3434 972 4092 
Q 1497 4750 2381 4750 
Q 2619 4750 2861 4703 
Q 3103 4656 3366 4563 
z
" transform="scale(0.015625)"/>
       </defs>
       <use xlink:href="#DejaVuSans-36"/>
      </g>
     </g>
    </g>
    <g id="ytick_5">
     <g id="line2d_11">
      <g>
       <use xlink:href="#m80f0af1dcd" x="57.6" y="121.535646" style="stroke: #000000; stroke-width: 0.8"/>
      </g>
     </g>
     <g id="text_12">
      <!-- 8 -->
      <g transform="translate(44.2375 125.334865) scale(0.1 -0.1)">
       <defs>
        <path id="DejaVuSans-38" d="M 2034 2216 
Q 1584 2216 1326 1975 
Q 1069 1734 1069 1313 
Q 1069 891 1326 650 
Q 1584 409 2034 409 
Q 2484 409 2743 651 
Q 3003 894 3003 1313 
Q 3003 1734 2745 1975 
Q 2488 2216 2034 2216 
z
M 1403 2484 
Q 997 2584 770 2862 
Q 544 3141 544 3541 
Q 544 4100 942 4425 
Q 1341 4750 2034 4750 
Q 2731 4750 3128 4425 
Q 3525 4100 3525 3541 
Q 3525 3141 3298 2862 
Q 3072 2584 2669 2484 
Q 3125 2378 3379 2068 
Q 3634 1759 3634 1313 
Q 3634 634 3220 271 
Q 2806 -91 2034 -91 
Q 1263 -91 848 271 
Q 434 634 434 1313 
Q 434 1759 690 2068 
Q 947 2378 1403 2484 
z
M 1172 3481 
Q 1172 3119 1398 2916 
Q 1625 2713 2034 2713 
Q 2441 2713 2670 2916 
Q 2900 3119 2900 3481 
Q 2900 3844 2670 4047 
Q 2441 4250 2034 4250 
Q 1625 4250 1398 4047 
Q 1172 3844 1172 3481 
z
" transform="scale(0.015625)"/>
       </defs>
       <use xlink:href="#DejaVuSans-38"/>
      </g>
     </g>
    </g>
    <g id="ytick_6">
     <g id="line2d_12">
      <g>
       <use xlink:href="#m80f0af1dcd" x="57.6" y="77.51597" style="stroke: #000000; stroke-width: 0.8"/>
      </g>
     </g>
     <g id="text_13">
      <!-- 10 -->
      <g transform="translate(37.875 81.315189) scale(0.1 -0.1)">
       <use xlink:href="#DejaVuSans-31"/>
       <use xlink:href="#DejaVuSans-30" transform="translate(63.623047 0)"/>
      </g>
     </g>
    </g>
    <g id="text_14">
     <!-- Average Fitness -->
     <g transform="translate(31.795312 213.967062) rotate(-90) scale(0.1 -0.1)">
      <defs>
       <path id="DejaVuSans-41" d="M 2188 4044 
L 1331 1722 
L 3047 1722 
L 2188 4044 
z
M 1831 4666 
L 2547 4666 
L 4325 0 
L 3669 0 
L 3244 1197 
L 1141 1197 
L 716 0 
L 50 0 
L 1831 4666 
z
" transform="scale(0.015625)"/>
       <path id="DejaVuSans-76" d="M 191 3500 
L 800 3500 
L 1894 563 
L 2988 3500 
L 3597 3500 
L 2284 0 
L 1503 0 
L 191 3500 
z
" transform="scale(0.015625)"/>
       <path id="DejaVuSans-67" d="M 2906 1791 
Q 2906 2416 2648 2759 
Q 2391 3103 1925 3103 
Q 1463 3103 1205 2759 
Q 947 2416 947 1791 
Q 947 1169 1205 825 
Q 1463 481 1925 481 
Q 2391 481 2648 825 
Q 2906 1169 2906 1791 
z
M 3481 434 
Q 3481 -459 3084 -895 
Q 2688 -1331 1869 -1331 
Q 1566 -1331 1297 -1286 
Q 1028 -1241 775 -1147 
L 775 -588 
Q 1028 -725 1275 -790 
Q 1522 -856 1778 -856 
Q 2344 -856 2625 -561 
Q 2906 -266 2906 331 
L 2906 616 
Q 2728 306 2450 153 
Q 2172 0 1784 0 
Q 1141 0 747 490 
Q 353 981 353 1791 
Q 353 2603 747 3093 
Q 1141 3584 1784 3584 
Q 2172 3584 2450 3431 
Q 2728 3278 2906 2969 
L 2906 3500 
L 3481 3500 
L 3481 434 
z
" transform="scale(0.015625)"/>
       <path id="DejaVuSans-20" transform="scale(0.015625)"/>
       <path id="DejaVuSans-46" d="M 628 4666 
L 3309 4666 
L 3309 4134 
L 1259 4134 
L 1259 2759 
L 3109 2759 
L 3109 2228 
L 1259 2228 
L 1259 0 
L 628 0 
L 628 4666 
z
" transform="scale(0.015625)"/>
       <path id="DejaVuSans-73" d="M 2834 3397 
L 2834 2853 
Q 2591 2978 2328 3040 
Q 2066 3103 1784 3103 
Q 1356 3103 1142 2972 
Q 928 2841 928 2578 
Q 928 2378 1081 2264 
Q 1234 2150 1697 2047 
L 1894 2003 
Q 2506 1872 2764 1633 
Q 3022 1394 3022 966 
Q 3022 478 2636 193 
Q 2250 -91 1575 -91 
Q 1294 -91 989 -36 
Q 684 19 347 128 
L 347 722 
Q 666 556 975 473 
Q 1284 391 1588 391 
Q 1994 391 2212 530 
Q 2431 669 2431 922 
Q 2431 1156 2273 1281 
Q 2116 1406 1581 1522 
L 1381 1569 
Q 847 1681 609 1914 
Q 372 2147 372 2553 
Q 372 3047 722 3315 
Q 1072 3584 1716 3584 
Q 2034 3584 2315 3537 
Q 2597 3491 2834 3397 
z
" transform="scale(0.015625)"/>
      </defs>
      <use xlink:href="#DejaVuSans-41"/>
      <use xlink:href="#DejaVuSans-76" transform="translate(62.533203 0)"/>
      <use xlink:href="#DejaVuSans-65" transform="translate(121.712891 0)"/>
      <use xlink:href="#DejaVuSans-72" transform="translate(183.236328 0)"/>
      <use xlink:href="#DejaVuSans-61" transform="translate(224.349609 0)"/>
      <use xlink:href="#DejaVuSans-67" transform="translate(285.628906 0)"/>
      <use xlink:href="#DejaVuSans-65" transform="translate(349.105469 0)"/>
      <use xlink:href="#DejaVuSans-20" transform="translate(410.628906 0)"/>
      <use xlink:href="#DejaVuSans-46" transform="translate(442.416016 0)"/>
      <use xlink:href="#DejaVuSans-69" transform="translate(492.685547 0)"/>
      <use xlink:href="#DejaVuSans-74" transform="translate(520.46875 0)"/>
      <use xlink:href="#DejaVuSans-6e" transform="translate(559.677734 0)"/>
      <use xlink:href="#DejaVuSans-65" transform="translate(623.056641 0)"/>
      <use xlink:href="#DejaVuSans-73" transform="translate(684.580078 0)"/>
      <use xlink:href="#DejaVuSans-73" transform="translate(736.679688 0)"/>
     </g>
    </g>
   </g>
   <g id="line2d_13">
    <path d="M 73.832727 185.515278 
L 80.325818 169.525699 
L 86.818909 169.125778 
L 93.312 169.125778 
L 99.805091 157.554914 
L 106.298182 155.278177 
L 112.791273 154.464531 
L 119.284364 153.638955 
L 125.777455 153.119137 
L 132.270545 153.119137 
L 138.763636 142.334989 
L 145.256727 142.334989 
L 151.749818 116.810129 
L 158.242909 116.810129 
L 164.736 115.957845 
L 171.229091 115.957845 
L 177.722182 115.957845 
L 184.215273 114.369248 
L 190.708364 114.369248 
L 197.201455 114.369248 
L 203.694545 114.369248 
L 210.187636 114.369248 
L 216.680727 114.369248 
L 223.173818 114.369248 
L 229.666909 114.369248 
L 236.16 114.369248 
L 242.653091 114.369248 
L 249.146182 113.625653 
L 255.639273 106.119914 
L 262.132364 106.119914 
L 268.625455 106.119914 
L 275.118545 106.119914 
L 281.611636 106.119914 
L 288.104727 106.119914 
L 294.597818 104.002555 
L 301.090909 104.002555 
L 307.584 96.7639 
L 314.077091 96.7639 
L 320.570182 96.7639 
L 327.063273 96.7639 
L 333.556364 96.7639 
L 340.049455 96.256613 
L 346.542545 91.409387 
L 353.035636 87.801262 
L 359.528727 87.801262 
L 366.021818 75.550895 
L 372.514909 75.550895 
L 379.008 75.550895 
L 385.501091 75.550895 
L 391.994182 75.550895 
L 398.487273 75.550895 
" clip-path="url(#p23dec06887)" style="fill: none; stroke: #008000; stroke-width: 1.5; stroke-linecap: square"/>
   </g>
   <g id="line2d_14">
    <path d="M 73.832727 277.710956 
L 80.325818 271.624709 
L 86.818909 269.011832 
L 93.312 266.723349 
L 99.805091 263.705419 
L 106.298182 260.808745 
L 112.791273 258.6203 
L 119.284364 256.870215 
L 125.777455 254.753282 
L 132.270545 253.106672 
L 138.763636 250.373456 
L 145.256727 248.684978 
L 151.749818 245.727102 
L 158.242909 244.127901 
L 164.736 242.72512 
L 171.229091 241.493294 
L 177.722182 240.635809 
L 184.215273 239.499827 
L 190.708364 238.64115 
L 197.201455 237.463836 
L 203.694545 236.888674 
L 210.187636 235.457226 
L 216.680727 234.842491 
L 223.173818 233.810966 
L 229.666909 233.095703 
L 236.16 232.386392 
L 242.653091 231.448669 
L 249.146182 229.886299 
L 255.639273 227.959857 
L 262.132364 227.097185 
L 268.625455 226.094527 
L 275.118545 224.81467 
L 281.611636 223.51223 
L 288.104727 222.116695 
L 294.597818 219.196396 
L 301.090909 218.18558 
L 307.584 216.583057 
L 314.077091 215.563279 
L 320.570182 214.582753 
L 327.063273 213.677459 
L 333.556364 212.516912 
L 340.049455 211.745698 
L 346.542545 210.602735 
L 353.035636 209.943157 
L 359.528727 208.955514 
L 366.021818 207.825192 
L 372.514909 206.737375 
L 379.008 205.772649 
L 385.501091 204.665079 
L 391.994182 203.93596 
L 398.487273 203.780974 
" clip-path="url(#p23dec06887)" style="fill: none; stroke: #0000ff; stroke-width: 1.5; stroke-linecap: square"/>
   </g>
   <g id="line2d_15">
    <path d="M 73.832727 295.314817 
L 80.325818 291.355067 
L 86.818909 287.569805 
L 93.312 285.422864 
L 99.805091 282.953146 
L 106.298182 281.079667 
L 112.791273 279.490733 
L 119.284364 277.754271 
L 125.777455 276.214761 
L 132.270545 275.014377 
L 138.763636 273.369995 
L 145.256727 271.863525 
L 151.749818 270.57677 
L 158.242909 269.380021 
L 164.736 268.048274 
L 171.229091 266.814391 
L 177.722182 265.969111 
L 184.215273 264.937851 
L 190.708364 264.170058 
L 197.201455 263.29801 
L 203.694545 262.528747 
L 210.187636 261.232017 
L 216.680727 260.562336 
L 223.173818 260.059841 
L 229.666909 259.503172 
L 236.16 259.083934 
L 242.653091 258.522656 
L 249.146182 257.492762 
L 255.639273 256.173653 
L 262.132364 255.241162 
L 268.625455 254.852166 
L 275.118545 254.183463 
L 281.611636 253.15316 
L 288.104727 252.215128 
L 294.597818 251.078899 
L 301.090909 249.450285 
L 307.584 248.664163 
L 314.077091 248.005879 
L 320.570182 247.420024 
L 327.063273 246.678175 
L 333.556364 246.224637 
L 340.049455 245.861761 
L 346.542545 245.076521 
L 353.035636 244.551924 
L 359.528727 244.052255 
L 366.021818 243.528224 
L 372.514909 242.066012 
L 379.008 241.506721 
L 385.501091 240.316367 
L 391.994182 239.250991 
L 398.487273 238.811593 
" clip-path="url(#p23dec06887)" style="fill: none; stroke: #ff0000; stroke-width: 1.5; stroke-linecap: square"/>
   </g>
   <g id="line2d_16">
    <path d="M 73.832727 277.710956 
L 80.325818 271.624709 
L 86.818909 269.011832 
L 93.312 266.723349 
L 99.805091 263.705419 
L 106.298182 260.808745 
L 112.791273 258.6203 
L 119.284364 256.870215 
L 125.777455 254.753282 
L 132.270545 253.106672 
L 138.763636 250.373456 
L 145.256727 248.684978 
L 151.749818 245.727102 
L 158.242909 244.127901 
L 164.736 242.72512 
L 171.229091 241.493294 
L 177.722182 240.635809 
L 184.215273 239.499827 
L 190.708364 238.64115 
L 197.201455 237.463836 
L 203.694545 236.888674 
L 210.187636 235.457226 
L 216.680727 234.842491 
L 223.173818 233.810966 
L 229.666909 233.095703 
L 236.16 232.386392 
L 242.653091 231.448669 
L 249.146182 229.886299 
L 255.639273 227.959857 
L 262.132364 227.097185 
L 268.625455 226.094527 
L 275.118545 224.81467 
L 281.611636 223.51223 
L 288.104727 222.116695 
L 294.597818 219.196396 
L 301.090909 218.18558 
L 307.584 216.583057 
L 314.077091 215.563279 
L 320.570182 214.582753 
L 327.063273 213.677459 
L 333.556364 212.516912 
L 340.049455 211.745698 
L 346.542545 210.602735 
L 353.035636 209.943157 
L 359.528727 208.955514 
L 366.021818 207.825192 
L 372.514909 206.737375 
L 379.008 205.772649 
L 385.501091 204.665079 
L 391.994182 203.93596 
L 398.487273 203.780974 
" clip-path="url(#p23dec06887)" style="fill: none; stroke: #0000ff; stroke-width: 1.5; stroke-linecap: square"/>
   </g>
   <g id="line2d_17">
    <path d="M 73.832727 295.314817 
L 80.325818 291.355067 
L 86.818909 287.569805 
L 93.312 285.422864 
L 99.805091 282.953146 
L 106.298182 281.079667 
L 112.791273 279.490733 
L 119.284364 277.754271 
L 125.777455 276.214761 
L 132.270545 275.014377 
L 138.763636 273.369995 
L 145.256727 271.863525 
L 151.749818 270.57677 
L 158.242909 269.380021 
L 164.736 268.048274 
L 171.229091 266.814391 
L 177.722182 265.969111 
L 184.215273 264.937851 
L 190.708364 264.170058 
L 197.201455 263.29801 
L 203.694545 262.528747 
L 210.187636 261.232017 
L 216.680727 260.562336 
L 223.173818 260.059841 
L 229.666909 259.503172 
L 236.16 259.083934 
L 242.653091 258.522656 
L 249.146182 257.492762 
L 255.639273 256.173653 
L 262.132364 255.241162 
L 268.625455 254.852166 
L 275.118545 254.183463 
L 281.611636 253.15316 
L 288.104727 252.215128 
L 294.597818 251.078899 
L 301.090909 249.450285 
L 307.584 248.664163 
L 314.077091 248.005879 
L 320.570182 247.420024 
L 327.063273 246.678175 
L 333.556364 246.224637 
L 340.049455 245.861761 
L 346.542545 245.076521 
L 353.035636 244.551924 
L 359.528727 244.052255 
L 366.021818 243.528224 
L 372.514909 242.066012 
L 379.008 241.506721 
L 385.501091 240.316367 
L 391.994182 239.250991 
L 398.487273 238.811593 
" clip-path="url(#p23dec06887)" style="fill: none; stroke: #ff0000; stroke-width: 1.5; stroke-linecap: square"/>
   </g>
   <g id="patch_3">
    <path d="M 57.6 307.584 
L 57.6 41.472 
" style="fill: none; stroke: #000000; stroke-width: 0.8; stroke-linejoin: miter; stroke-linecap: square"/>
   </g>
   <g id="patch_4">
    <path d="M 414.72 307.584 
L 414.72 41.472 
" style="fill: none; stroke: #000000; stroke-width: 0.8; stroke-linejoin: miter; stroke-linecap: square"/>
   </g>
   <g id="patch_5">
    <path d="M 57.6 307.584 
L 414.72 307.584 
" style="fill: none; stroke: #000000; stroke-width: 0.8; stroke-linejoin: miter; stroke-linecap: square"/>
   </g>
   <g id="patch_6">
    <path d="M 57.6 41.472 
L 414.72 41.472 
" style="fill: none; stroke: #000000; stroke-width: 0.8; stroke-linejoin: miter; stroke-linecap: square"/>
   </g>
   <g id="legend_1">
    <g id="patch_7">
     <path d="M 64.6 93.506375 
L 163.071875 93.506375 
Q 165.071875 93.506375 165.071875 91.506375 
L 165.071875 48.472 
Q 165.071875 46.472 163.071875 46.472 
L 64.6 46.472 
Q 62.6 46.472 62.6 48.472 
L 62.6 91.506375 
Q 62.6 93.506375 64.6 93.506375 
z
" style="fill: #ffffff; opacity: 0.8; stroke: #cccccc; stroke-linejoin: miter"/>
    </g>
    <g id="line2d_18">
     <path d="M 66.6 54.570438 
L 76.6 54.570438 
L 86.6 54.570438 
" style="fill: none; stroke: #008000; stroke-width: 1.5; stroke-linecap: square"/>
    </g>
    <g id="text_15">
     <!-- Best Fitness -->
     <g transform="translate(94.6 58.070438) scale(0.1 -0.1)">
      <defs>
       <path id="DejaVuSans-42" d="M 1259 2228 
L 1259 519 
L 2272 519 
Q 2781 519 3026 730 
Q 3272 941 3272 1375 
Q 3272 1813 3026 2020 
Q 2781 2228 2272 2228 
L 1259 2228 
z
M 1259 4147 
L 1259 2741 
L 2194 2741 
Q 2656 2741 2882 2914 
Q 3109 3088 3109 3444 
Q 3109 3797 2882 3972 
Q 2656 4147 2194 4147 
L 1259 4147 
z
M 628 4666 
L 2241 4666 
Q 2963 4666 3353 4366 
Q 3744 4066 3744 3513 
Q 3744 3084 3544 2831 
Q 3344 2578 2956 2516 
Q 3422 2416 3680 2098 
Q 3938 1781 3938 1306 
Q 3938 681 3513 340 
Q 3088 0 2303 0 
L 628 0 
L 628 4666 
z
" transform="scale(0.015625)"/>
      </defs>
      <use xlink:href="#DejaVuSans-42"/>
      <use xlink:href="#DejaVuSans-65" transform="translate(68.603516 0)"/>
      <use xlink:href="#DejaVuSans-73" transform="translate(130.126953 0)"/>
      <use xlink:href="#DejaVuSans-74" transform="translate(182.226562 0)"/>
      <use xlink:href="#DejaVuSans-20" transform="translate(221.435547 0)"/>
      <use xlink:href="#DejaVuSans-46" transform="translate(253.222656 0)"/>
      <use xlink:href="#DejaVuSans-69" transform="translate(303.492188 0)"/>
      <use xlink:href="#DejaVuSans-74" transform="translate(331.275391 0)"/>
      <use xlink:href="#DejaVuSans-6e" transform="translate(370.484375 0)"/>
      <use xlink:href="#DejaVuSans-65" transform="translate(433.863281 0)"/>
      <use xlink:href="#DejaVuSans-73" transform="translate(495.386719 0)"/>
      <use xlink:href="#DejaVuSans-73" transform="translate(547.486328 0)"/>
     </g>
    </g>
    <g id="line2d_19">
     <path d="M 66.6 69.248563 
L 76.6 69.248563 
L 86.6 69.248563 
" style="fill: none; stroke: #0000ff; stroke-width: 1.5; stroke-linecap: square"/>
    </g>
    <g id="text_16">
     <!-- Mean Fitness -->
     <g transform="translate(94.6 72.748563) scale(0.1 -0.1)">
      <defs>
       <path id="DejaVuSans-4d" d="M 628 4666 
L 1569 4666 
L 2759 1491 
L 3956 4666 
L 4897 4666 
L 4897 0 
L 4281 0 
L 4281 4097 
L 3078 897 
L 2444 897 
L 1241 4097 
L 1241 0 
L 628 0 
L 628 4666 
z
" transform="scale(0.015625)"/>
      </defs>
      <use xlink:href="#DejaVuSans-4d"/>
      <use xlink:href="#DejaVuSans-65" transform="translate(86.279297 0)"/>
      <use xlink:href="#DejaVuSans-61" transform="translate(147.802734 0)"/>
      <use xlink:href="#DejaVuSans-6e" transform="translate(209.082031 0)"/>
      <use xlink:href="#DejaVuSans-20" transform="translate(272.460938 0)"/>
      <use xlink:href="#DejaVuSans-46" transform="translate(304.248047 0)"/>
      <use xlink:href="#DejaVuSans-69" transform="translate(354.517578 0)"/>
      <use xlink:href="#DejaVuSans-74" transform="translate(382.300781 0)"/>
      <use xlink:href="#DejaVuSans-6e" transform="translate(421.509766 0)"/>
      <use xlink:href="#DejaVuSans-65" transform="translate(484.888672 0)"/>
      <use xlink:href="#DejaVuSans-73" transform="translate(546.412109 0)"/>
      <use xlink:href="#DejaVuSans-73" transform="translate(598.511719 0)"/>
     </g>
    </g>
    <g id="line2d_20">
     <path d="M 66.6 83.926688 
L 76.6 83.926688 
L 86.6 83.926688 
" style="fill: none; stroke: #ff0000; stroke-width: 1.5; stroke-linecap: square"/>
    </g>
    <g id="text_17">
     <!-- Worst Fitness -->
     <g transform="translate(94.6 87.426688) scale(0.1 -0.1)">
      <defs>
       <path id="DejaVuSans-57" d="M 213 4666 
L 850 4666 
L 1831 722 
L 2809 4666 
L 3519 4666 
L 4500 722 
L 5478 4666 
L 6119 4666 
L 4947 0 
L 4153 0 
L 3169 4050 
L 2175 0 
L 1381 0 
L 213 4666 
z
" transform="scale(0.015625)"/>
      </defs>
      <use xlink:href="#DejaVuSans-57"/>
      <use xlink:href="#DejaVuSans-6f" transform="translate(93.001953 0)"/>
      <use xlink:href="#DejaVuSans-72" transform="translate(154.183594 0)"/>
      <use xlink:href="#DejaVuSans-73" transform="translate(195.296875 0)"/>
      <use xlink:href="#DejaVuSans-74" transform="translate(247.396484 0)"/>
      <use xlink:href="#DejaVuSans-20" transform="translate(286.605469 0)"/>
      <use xlink:href="#DejaVuSans-46" transform="translate(318.392578 0)"/>
      <use xlink:href="#DejaVuSans-69" transform="translate(368.662109 0)"/>
      <use xlink:href="#DejaVuSans-74" transform="translate(396.445312 0)"/>
      <use xlink:href="#DejaVuSans-6e" transform="translate(435.654297 0)"/>
      <use xlink:href="#DejaVuSans-65" transform="translate(499.033203 0)"/>
      <use xlink:href="#DejaVuSans-73" transform="translate(560.556641 0)"/>
      <use xlink:href="#DejaVuSans-73" transform="translate(612.65625 0)"/>
     </g>
    </g>
   </g>
  </g>
 </g>
 <defs>
  <clipPath id="p23dec06887">
   <rect x="57.6" y="41.472" width="357.12" height="266.112"/>
  </clipPath>
 </defs>
</svg>
