<?xml version="1.0" encoding="utf-8" standalone="no"?>
<!DOCTYPE svg PUBLIC "-//W3C//DTD SVG 1.1//EN"
  "http://www.w3.org/Graphics/SVG/1.1/DTD/svg11.dtd">
<svg xmlns:xlink="http://www.w3.org/1999/xlink" width="460.8pt" height="345.6pt" viewBox="0 0 460.8 345.6" xmlns="http://www.w3.org/2000/svg" version="1.1">
 <metadata>
  <rdf:RDF xmlns:dc="http://purl.org/dc/elements/1.1/" xmlns:cc="http://creativecommons.org/ns#" xmlns:rdf="http://www.w3.org/1999/02/22-rdf-syntax-ns#">
   <cc:Work>
    <dc:type rdf:resource="http://purl.org/dc/dcmitype/StillImage"/>
    <dc:date>2025-11-17T16:01:31.395206</dc:date>
    <dc:format>image/svg+xml</dc:format>
    <dc:creator>
     <cc:Agent>
      <dc:title>Matplotlib v3.10.0, https://matplotlib.org/</dc:title>
     </cc:Agent>
    </dc:creator>
   </cc:Work>
  </rdf:RDF>
 </metadata>
 <defs>
  <style type="text/css">*{stroke-linejoin: round; stroke-linecap: butt}</style>
 </defs>
 <g id="figure_1">
  <g id="patch_1">
   <path d="M 0 345.6 
L 460.8 345.6 
L 460.8 0 
L 0 0 
z
" style="fill: #ffffff"/>
  </g>
  <g id="axes_1">
   <g id="patch_2">
    <path d="M 57.6 307.584 
L 414.72 307.584 
L 414.72 41.472 
L 57.6 41.472 
z
" style="fill: #ffffff"/>
   </g>
   <g id="FillBetweenPolyCollection_1">
    <defs>
     <path id="m387595d72a" d="M 73.832727 -157.532188 
L 73.832727 -137.028579 
L 77.250144 -149.379686 
L 80.66756 -149.897288 
L 84.084976 -149.897288 
L 87.502392 -153.435428 
L 90.919809 -155.744644 
L 94.337225 -156.71645 
L 97.754641 -157.745523 
L 101.172057 -158.247617 
L 104.589474 -158.247617 
L 108.00689 -168.539842 
L 111.424306 -168.539842 
L 114.841722 -189.571604 
L 118.259139 -189.571604 
L 121.676555 -190.51398 
L 125.093971 -190.51398 
L 128.511388 -190.51398 
L 131.928804 -191.803068 
L 135.34622 -191.803068 
L 138.763636 -191.803068 
L 142.181053 -191.803068 
L 145.598469 -191.803068 
L 149.015885 -191.803068 
L 152.433301 -191.803068 
L 155.850718 -191.803068 
L 159.268134 -191.803068 
L 162.68555 -191.803068 
L 166.102967 -192.605997 
L 169.520383 -200.872685 
L 172.937799 -200.872685 
L 176.355215 -200.872685 
L 179.772632 -200.872685 
L 183.190048 -200.872685 
L 186.607464 -200.872685 
L 190.02488 -201.509937 
L 193.442297 -201.509937 
L 196.859713 -207.193062 
L 200.277129 -207.193062 
L 203.694545 -207.193062 
L 207.111962 -207.193062 
L 210.529378 -207.193062 
L 213.946794 -207.763614 
L 217.364211 -212.830134 
L 220.781627 -216.700069 
L 224.199043 -216.700069 
L 227.616459 -225.018016 
L 231.033876 -225.018016 
L 234.451292 -225.018016 
L 237.868708 -225.018016 
L 241.286124 -225.018016 
L 244.703541 -225.018016 
L 248.120957 -225.018016 
L 251.538373 -231.939153 
L 254.955789 -231.939153 
L 258.373206 -231.939153 
L 261.790622 -231.939153 
L 265.208038 -231.939153 
L 268.625455 -231.939153 
L 272.042871 -232.560231 
L 275.460287 -232.560231 
L 278.877703 -232.560231 
L 282.29512 -232.560231 
L 285.712536 -232.560231 
L 289.129952 -233.415025 
L 292.547368 -233.415025 
L 295.964785 -233.415025 
L 299.382201 -235.78482 
L 302.799617 -253.265799 
L 306.217033 -253.265799 
L 309.63445 -253.265799 
L 313.051866 -253.265799 
L 316.469282 -253.265799 
L 319.886699 -253.265799 
L 323.304115 -253.265799 
L 326.721531 -253.265799 
L 330.138947 -253.265799 
L 333.556364 -254.043623 
L 336.97378 -254.043623 
L 340.391196 -254.043623 
L 343.808612 -255.684055 
L 347.226029 -255.684055 
L 350.643445 -255.684055 
L 354.060861 -255.684055 
L 357.478278 -255.684055 
L 360.895694 -255.684055 
L 364.31311 -255.684055 
L 367.730526 -255.684055 
L 371.147943 -255.684055 
L 374.565359 -255.684055 
L 377.982775 -255.684055 
L 381.400191 -255.684055 
L 384.817608 -255.684055 
L 388.235024 -255.684055 
L 391.65244 -255.684055 
L 395.069856 -255.684055 
L 398.487273 -255.684055 
L 398.487273 -292.032 
L 398.487273 -292.032 
L 395.069856 -292.032 
L 391.65244 -292.032 
L 388.235024 -292.032 
L 384.817608 -292.032 
L 381.400191 -292.032 
L 377.982775 -292.032 
L 374.565359 -292.032 
L 371.147943 -292.032 
L 367.730526 -292.032 
L 364.31311 -292.032 
L 360.895694 -292.032 
L 357.478278 -292.032 
L 354.060861 -292.032 
L 350.643445 -292.032 
L 347.226029 -292.032 
L 343.808612 -292.032 
L 340.391196 -291.446641 
L 336.97378 -291.446641 
L 333.556364 -291.446641 
L 330.138947 -291.200171 
L 326.721531 -291.200171 
L 323.304115 -291.200171 
L 319.886699 -291.200171 
L 316.469282 -291.200171 
L 313.051866 -291.200171 
L 309.63445 -291.200171 
L 306.217033 -291.200171 
L 302.799617 -291.200171 
L 299.382201 -274.678986 
L 295.964785 -272.640806 
L 292.547368 -272.640806 
L 289.129952 -272.640806 
L 285.712536 -272.287546 
L 282.29512 -272.287546 
L 278.877703 -272.287546 
L 275.460287 -272.287546 
L 272.042871 -272.287546 
L 268.625455 -271.47135 
L 265.208038 -271.47135 
L 261.790622 -271.47135 
L 258.373206 -271.47135 
L 254.955789 -271.47135 
L 251.538373 -271.47135 
L 248.120957 -263.864783 
L 244.703541 -263.864783 
L 241.286124 -263.864783 
L 237.868708 -263.864783 
L 234.451292 -263.864783 
L 231.033876 -263.864783 
L 227.616459 -263.864783 
L 224.199043 -250.534662 
L 220.781627 -250.534662 
L 217.364211 -248.028549 
L 213.946794 -244.529363 
L 210.529378 -244.203469 
L 207.111962 -244.203469 
L 203.694545 -244.203469 
L 200.277129 -244.203469 
L 196.859713 -244.203469 
L 193.442297 -237.094904 
L 190.02488 -237.094904 
L 186.607464 -233.990497 
L 183.190048 -233.990497 
L 179.772632 -233.990497 
L 176.355215 -233.990497 
L 172.937799 -233.990497 
L 169.520383 -233.990497 
L 166.102967 -228.993521 
L 162.68555 -228.482416 
L 159.268134 -228.482416 
L 155.850718 -228.482416 
L 152.433301 -228.482416 
L 149.015885 -228.482416 
L 145.598469 -228.482416 
L 142.181053 -228.482416 
L 138.763636 -228.482416 
L 135.34622 -228.482416 
L 131.928804 -228.482416 
L 128.511388 -226.964238 
L 125.093971 -226.964238 
L 121.676555 -226.964238 
L 118.259139 -226.400511 
L 114.841722 -226.400511 
L 111.424306 -202.326373 
L 108.00689 -202.326373 
L 104.589474 -193.56154 
L 101.172057 -193.56154 
L 97.754641 -193.145044 
L 94.337225 -192.715213 
L 90.919809 -192.249196 
L 87.502392 -190.535108 
L 84.084976 -173.625956 
L 80.66756 -173.625956 
L 77.250144 -173.436844 
L 73.832727 -157.532188 
z
" style="stroke: #008000; stroke-opacity: 0.2"/>
    </defs>
    <g clip-path="url(#p1254db9c92)">
     <use xlink:href="#m387595d72a" x="0" y="345.6" style="fill: #008000; fill-opacity: 0.2; stroke: #008000; stroke-opacity: 0.2"/>
    </g>
   </g>
   <g id="FillBetweenPolyCollection_2">
    <defs>
     <path id="m8847102571" d="M 73.832727 -66.675066 
L 73.832727 -64.963391 
L 77.250144 -69.575793 
L 80.66756 -72.062716 
L 84.084976 -73.991044 
L 87.502392 -76.411399 
L 90.919809 -78.645273 
L 94.337225 -80.507467 
L 97.754641 -82.184988 
L 101.172057 -84.050842 
L 104.589474 -85.627904 
L 108.00689 -87.969829 
L 111.424306 -89.49456 
L 114.841722 -92.120166 
L 118.259139 -93.096254 
L 121.676555 -94.277692 
L 125.093971 -95.381966 
L 128.511388 -95.920734 
L 131.928804 -97.00579 
L 135.34622 -97.73347 
L 138.763636 -98.922893 
L 142.181053 -99.444885 
L 145.598469 -100.738453 
L 149.015885 -101.273698 
L 152.433301 -102.158148 
L 155.850718 -102.644866 
L 159.268134 -103.234231 
L 162.68555 -104.134894 
L 166.102967 -105.090151 
L 169.520383 -106.467198 
L 172.937799 -107.213219 
L 176.355215 -107.976454 
L 179.772632 -108.326967 
L 183.190048 -109.470252 
L 186.607464 -110.333045 
L 190.02488 -111.346047 
L 193.442297 -112.209503 
L 196.859713 -113.315465 
L 200.277129 -113.682626 
L 203.694545 -114.684854 
L 207.111962 -115.129131 
L 210.529378 -116.310689 
L 213.946794 -117.071091 
L 217.364211 -117.905631 
L 220.781627 -118.500847 
L 224.199043 -119.219243 
L 227.616459 -120.246642 
L 231.033876 -120.970916 
L 234.451292 -121.866809 
L 237.868708 -122.749999 
L 241.286124 -123.304602 
L 244.703541 -123.44684 
L 248.120957 -123.556144 
L 251.538373 -124.458866 
L 254.955789 -125.001277 
L 258.373206 -125.199882 
L 261.790622 -125.388738 
L 265.208038 -126.081481 
L 268.625455 -126.582427 
L 272.042871 -128.51888 
L 275.460287 -128.904781 
L 278.877703 -129.263194 
L 282.29512 -130.051274 
L 285.712536 -130.616073 
L 289.129952 -131.435182 
L 292.547368 -132.326891 
L 295.964785 -132.632658 
L 299.382201 -133.52576 
L 302.799617 -134.883983 
L 306.217033 -134.889078 
L 309.63445 -135.184209 
L 313.051866 -135.707635 
L 316.469282 -136.189392 
L 319.886699 -136.389527 
L 323.304115 -136.862331 
L 326.721531 -137.124252 
L 330.138947 -137.774346 
L 333.556364 -138.473704 
L 336.97378 -138.706749 
L 340.391196 -138.945879 
L 343.808612 -140.282398 
L 347.226029 -140.384559 
L 350.643445 -140.423158 
L 354.060861 -140.523961 
L 357.478278 -140.631745 
L 360.895694 -141.134789 
L 364.31311 -141.682032 
L 367.730526 -142.004697 
L 371.147943 -142.287294 
L 374.565359 -142.561125 
L 377.982775 -143.226521 
L 381.400191 -143.57743 
L 384.817608 -144.244685 
L 388.235024 -144.811244 
L 391.65244 -145.036745 
L 395.069856 -145.44766 
L 398.487273 -145.639716 
L 398.487273 -171.662278 
L 398.487273 -171.662278 
L 395.069856 -171.449045 
L 391.65244 -170.123795 
L 388.235024 -169.986439 
L 384.817608 -169.280354 
L 381.400191 -168.208206 
L 377.982775 -167.618015 
L 374.565359 -166.610193 
L 371.147943 -166.09704 
L 367.730526 -164.836281 
L 364.31311 -164.250323 
L 360.895694 -163.488356 
L 357.478278 -162.088564 
L 354.060861 -162.018134 
L 350.643445 -161.951304 
L 347.226029 -161.921943 
L 343.808612 -160.929391 
L 340.391196 -159.308995 
L 336.97378 -159.102627 
L 333.556364 -158.236419 
L 330.138947 -157.67399 
L 326.721531 -157.187023 
L 323.304115 -156.894162 
L 319.886699 -155.801692 
L 316.469282 -155.664214 
L 313.051866 -155.312308 
L 309.63445 -154.589591 
L 306.217033 -154.389712 
L 302.799617 -154.383689 
L 299.382201 -153.15753 
L 295.964785 -152.471434 
L 292.547368 -152.259138 
L 289.129952 -151.32309 
L 285.712536 -150.238646 
L 282.29512 -149.503947 
L 278.877703 -148.672733 
L 275.460287 -147.589338 
L 272.042871 -146.108608 
L 268.625455 -143.489618 
L 265.208038 -143.089098 
L 261.790622 -141.773658 
L 258.373206 -141.545977 
L 254.955789 -141.371295 
L 251.538373 -140.556765 
L 248.120957 -138.915882 
L 244.703541 -138.835957 
L 241.286124 -138.704313 
L 237.868708 -137.970462 
L 234.451292 -136.896428 
L 231.033876 -136.087517 
L 227.616459 -134.889471 
L 224.199043 -133.919437 
L 220.781627 -132.892534 
L 217.364211 -132.322185 
L 213.946794 -131.136955 
L 210.529378 -130.534516 
L 207.111962 -129.665229 
L 203.694545 -128.509728 
L 200.277129 -127.779234 
L 196.859713 -126.344308 
L 193.442297 -124.618394 
L 190.02488 -123.695601 
L 186.607464 -119.548036 
L 183.190048 -117.94473 
L 179.772632 -116.786425 
L 176.355215 -114.875258 
L 172.937799 -113.86666 
L 169.520383 -113.088221 
L 166.102967 -111.060983 
L 162.68555 -109.255319 
L 159.268134 -108.498898 
L 155.850718 -107.834814 
L 152.433301 -107.057567 
L 149.015885 -106.11917 
L 145.598469 -105.568094 
L 142.181053 -104.332099 
L 138.763636 -103.837702 
L 135.34622 -102.946651 
L 131.928804 -102.156932 
L 128.511388 -101.234552 
L 125.093971 -100.258029 
L 121.676555 -99.185497 
L 118.259139 -97.888032 
L 114.841722 -96.038114 
L 111.424306 -93.43675 
L 108.00689 -91.977711 
L 104.589474 -89.489671 
L 101.172057 -88.15695 
L 97.754641 -86.281894 
L 94.337225 -84.866777 
L 90.919809 -82.86169 
L 87.502392 -79.976747 
L 84.084976 -77.064009 
L 80.66756 -74.948277 
L 77.250144 -72.817891 
L 73.832727 -66.675066 
z
" style="stroke: #0000ff; stroke-opacity: 0.2"/>
    </defs>
    <g clip-path="url(#p1254db9c92)">
     <use xlink:href="#m8847102571" x="0" y="345.6" style="fill: #0000ff; fill-opacity: 0.2; stroke: #0000ff; stroke-opacity: 0.2"/>
    </g>
   </g>
   <g id="FillBetweenPolyCollection_3">
    <defs>
     <path id="m769e9359ce" d="M 73.832727 -50.418038 
L 73.832727 -50.112 
L 77.250144 -53.388174 
L 80.66756 -56.5045 
L 84.084976 -58.366735 
L 87.502392 -60.505745 
L 90.919809 -62.132005 
L 94.337225 -63.60108 
L 97.754641 -64.998239 
L 101.172057 -66.231358 
L 104.589474 -67.204369 
L 108.00689 -68.509632 
L 111.424306 -69.817422 
L 114.841722 -70.923219 
L 118.259139 -71.978072 
L 121.676555 -73.17309 
L 125.093971 -74.258867 
L 128.511388 -74.914467 
L 131.928804 -75.842949 
L 135.34622 -76.442717 
L 138.763636 -77.503373 
L 142.181053 -78.057289 
L 145.598469 -79.441344 
L 149.015885 -79.958397 
L 152.433301 -80.311971 
L 155.850718 -80.787744 
L 159.268134 -81.108754 
L 162.68555 -81.660589 
L 166.102967 -82.50405 
L 169.520383 -83.601429 
L 172.937799 -84.324292 
L 176.355215 -84.720007 
L 179.772632 -85.039254 
L 183.190048 -86.019018 
L 186.607464 -86.568244 
L 190.02488 -87.474082 
L 193.442297 -88.244159 
L 196.859713 -88.807369 
L 200.277129 -89.302302 
L 203.694545 -89.912637 
L 207.111962 -90.457871 
L 210.529378 -90.943456 
L 213.946794 -91.279711 
L 217.364211 -91.884233 
L 220.781627 -92.403112 
L 224.199043 -92.735661 
L 227.616459 -93.296375 
L 231.033876 -94.066622 
L 234.451292 -94.620718 
L 237.868708 -95.337808 
L 241.286124 -96.338645 
L 244.703541 -96.635474 
L 248.120957 -97.008478 
L 251.538373 -97.206261 
L 254.955789 -97.343312 
L 258.373206 -97.734816 
L 261.790622 -97.792421 
L 265.208038 -98.081293 
L 268.625455 -98.514071 
L 272.042871 -98.868168 
L 275.460287 -99.374288 
L 278.877703 -99.487786 
L 282.29512 -100.074202 
L 285.712536 -100.796361 
L 289.129952 -101.207428 
L 292.547368 -102.017785 
L 295.964785 -102.253173 
L 299.382201 -102.649291 
L 302.799617 -103.825074 
L 306.217033 -103.83265 
L 309.63445 -104.10169 
L 313.051866 -104.675972 
L 316.469282 -104.880707 
L 319.886699 -105.338908 
L 323.304115 -105.913942 
L 326.721531 -106.028896 
L 330.138947 -106.56112 
L 333.556364 -106.697253 
L 336.97378 -106.912292 
L 340.391196 -107.094201 
L 343.808612 -107.795426 
L 347.226029 -108.230214 
L 350.643445 -108.296881 
L 354.060861 -108.531733 
L 357.478278 -108.608894 
L 360.895694 -109.120483 
L 364.31311 -109.846882 
L 367.730526 -110.191058 
L 371.147943 -110.69824 
L 374.565359 -110.810067 
L 377.982775 -111.311572 
L 381.400191 -112.605525 
L 384.817608 -113.222986 
L 388.235024 -113.89825 
L 391.65244 -113.999484 
L 395.069856 -114.223521 
L 398.487273 -114.429745 
L 398.487273 -131.911398 
L 398.487273 -131.911398 
L 395.069856 -131.283375 
L 391.65244 -130.742956 
L 388.235024 -130.687991 
L 384.817608 -130.065402 
L 381.400191 -128.149365 
L 377.982775 -126.432575 
L 374.565359 -125.60234 
L 371.147943 -125.469446 
L 367.730526 -124.580809 
L 364.31311 -123.923546 
L 360.895694 -122.158358 
L 357.478278 -121.280729 
L 354.060861 -121.232084 
L 350.643445 -121.093212 
L 347.226029 -121.038301 
L 343.808612 -120.241468 
L 340.391196 -119.240833 
L 336.97378 -119.063598 
L 333.556364 -118.820457 
L 330.138947 -118.714542 
L 326.721531 -118.343018 
L 323.304115 -118.19821 
L 319.886699 -117.517417 
L 316.469282 -117.144582 
L 313.051866 -117.005611 
L 309.63445 -116.401105 
L 306.217033 -116.2101 
L 302.799617 -116.201426 
L 299.382201 -114.122615 
L 295.964785 -113.857281 
L 292.547368 -113.624863 
L 289.129952 -112.838388 
L 285.712536 -111.542257 
L 282.29512 -110.849526 
L 278.877703 -110.374328 
L 275.460287 -109.801261 
L 272.042871 -109.194969 
L 268.625455 -107.551145 
L 265.208038 -107.114647 
L 261.790622 -106.450721 
L 258.373206 -106.063557 
L 254.955789 -105.681789 
L 251.538373 -105.007087 
L 248.120957 -104.054468 
L 244.703541 -103.743451 
L 241.286124 -103.263803 
L 237.868708 -102.381977 
L 234.451292 -100.995549 
L 231.033876 -100.561301 
L 227.616459 -98.74762 
L 224.199043 -98.382301 
L 220.781627 -97.831868 
L 217.364211 -97.423711 
L 213.946794 -96.640607 
L 210.529378 -96.335612 
L 207.111962 -96.019733 
L 203.694545 -95.254018 
L 200.277129 -94.829069 
L 196.859713 -94.160724 
L 193.442297 -93.334749 
L 190.02488 -91.226843 
L 186.607464 -90.124811 
L 183.190048 -89.016405 
L 179.772632 -88.175485 
L 176.355215 -87.313042 
L 172.937799 -87.021349 
L 169.520383 -86.096373 
L 166.102967 -84.862706 
L 162.68555 -83.886204 
L 159.268134 -83.446186 
L 155.850718 -83.026344 
L 152.433301 -82.518408 
L 149.015885 -81.984005 
L 145.598469 -81.31764 
L 142.181053 -80.410197 
L 138.763636 -79.604721 
L 135.34622 -79.124349 
L 131.928804 -78.367323 
L 128.511388 -77.473427 
L 125.093971 -76.635303 
L 121.676555 -75.540641 
L 118.259139 -74.38228 
L 114.841722 -73.322314 
L 111.424306 -72.154241 
L 108.00689 -70.799892 
L 104.589474 -69.199311 
L 101.172057 -68.051079 
L 97.754641 -66.563673 
L 94.337225 -64.892268 
L 90.919809 -63.55348 
L 87.502392 -61.869049 
L 84.084976 -59.643731 
L 80.66756 -57.712028 
L 77.250144 -54.139281 
L 73.832727 -50.418038 
z
" style="stroke: #ff0000; stroke-opacity: 0.2"/>
    </defs>
    <g clip-path="url(#p1254db9c92)">
     <use xlink:href="#m769e9359ce" x="0" y="345.6" style="fill: #ff0000; fill-opacity: 0.2; stroke: #ff0000; stroke-opacity: 0.2"/>
    </g>
   </g>
   <g id="matplotlib.axis_1">
    <g id="xtick_1">
     <g id="line2d_1">
      <defs>
       <path id="me1453d7427" d="M 0 0 
L 0 3.5 
" style="stroke: #000000; stroke-width: 0.8"/>
      </defs>
      <g>
       <use xlink:href="#me1453d7427" x="73.832727" y="307.584" style="stroke: #000000; stroke-width: 0.8"/>
      </g>
     </g>
     <g id="text_1">
      <!-- 0 -->
      <g transform="translate(70.651477 322.182437) scale(0.1 -0.1)">
       <defs>
        <path id="DejaVuSans-30" d="M 2034 4250 
Q 1547 4250 1301 3770 
Q 1056 3291 1056 2328 
Q 1056 1369 1301 889 
Q 1547 409 2034 409 
Q 2525 409 2770 889 
Q 3016 1369 3016 2328 
Q 3016 3291 2770 3770 
Q 2525 4250 2034 4250 
z
M 2034 4750 
Q 2819 4750 3233 4129 
Q 3647 3509 3647 2328 
Q 3647 1150 3233 529 
Q 2819 -91 2034 -91 
Q 1250 -91 836 529 
Q 422 1150 422 2328 
Q 422 3509 836 4129 
Q 1250 4750 2034 4750 
z
" transform="scale(0.015625)"/>
       </defs>
       <use xlink:href="#DejaVuSans-30"/>
      </g>
     </g>
    </g>
    <g id="xtick_2">
     <g id="line2d_2">
      <g>
       <use xlink:href="#me1453d7427" x="142.181053" y="307.584" style="stroke: #000000; stroke-width: 0.8"/>
      </g>
     </g>
     <g id="text_2">
      <!-- 20 -->
      <g transform="translate(135.818553 322.182437) scale(0.1 -0.1)">
       <defs>
        <path id="DejaVuSans-32" d="M 1228 531 
L 3431 531 
L 3431 0 
L 469 0 
L 469 531 
Q 828 903 1448 1529 
Q 2069 2156 2228 2338 
Q 2531 2678 2651 2914 
Q 2772 3150 2772 3378 
Q 2772 3750 2511 3984 
Q 2250 4219 1831 4219 
Q 1534 4219 1204 4116 
Q 875 4013 500 3803 
L 500 4441 
Q 881 4594 1212 4672 
Q 1544 4750 1819 4750 
Q 2544 4750 2975 4387 
Q 3406 4025 3406 3419 
Q 3406 3131 3298 2873 
Q 3191 2616 2906 2266 
Q 2828 2175 2409 1742 
Q 1991 1309 1228 531 
z
" transform="scale(0.015625)"/>
       </defs>
       <use xlink:href="#DejaVuSans-32"/>
       <use xlink:href="#DejaVuSans-30" transform="translate(63.623047 0)"/>
      </g>
     </g>
    </g>
    <g id="xtick_3">
     <g id="line2d_3">
      <g>
       <use xlink:href="#me1453d7427" x="210.529378" y="307.584" style="stroke: #000000; stroke-width: 0.8"/>
      </g>
     </g>
     <g id="text_3">
      <!-- 40 -->
      <g transform="translate(204.166878 322.182437) scale(0.1 -0.1)">
       <defs>
        <path id="DejaVuSans-34" d="M 2419 4116 
L 825 1625 
L 2419 1625 
L 2419 4116 
z
M 2253 4666 
L 3047 4666 
L 3047 1625 
L 3713 1625 
L 3713 1100 
L 3047 1100 
L 3047 0 
L 2419 0 
L 2419 1100 
L 313 1100 
L 313 1709 
L 2253 4666 
z
" transform="scale(0.015625)"/>
       </defs>
       <use xlink:href="#DejaVuSans-34"/>
       <use xlink:href="#DejaVuSans-30" transform="translate(63.623047 0)"/>
      </g>
     </g>
    </g>
    <g id="xtick_4">
     <g id="line2d_4">
      <g>
       <use xlink:href="#me1453d7427" x="278.877703" y="307.584" style="stroke: #000000; stroke-width: 0.8"/>
      </g>
     </g>
     <g id="text_4">
      <!-- 60 -->
      <g transform="translate(272.515203 322.182437) scale(0.1 -0.1)">
       <defs>
        <path id="DejaVuSans-36" d="M 2113 2584 
Q 1688 2584 1439 2293 
Q 1191 2003 1191 1497 
Q 1191 994 1439 701 
Q 1688 409 2113 409 
Q 2538 409 2786 701 
Q 3034 994 3034 1497 
Q 3034 2003 2786 2293 
Q 2538 2584 2113 2584 
z
M 3366 4563 
L 3366 3988 
Q 3128 4100 2886 4159 
Q 2644 4219 2406 4219 
Q 1781 4219 1451 3797 
Q 1122 3375 1075 2522 
Q 1259 2794 1537 2939 
Q 1816 3084 2150 3084 
Q 2853 3084 3261 2657 
Q 3669 2231 3669 1497 
Q 3669 778 3244 343 
Q 2819 -91 2113 -91 
Q 1303 -91 875 529 
Q 447 1150 447 2328 
Q 447 3434 972 4092 
Q 1497 4750 2381 4750 
Q 2619 4750 2861 4703 
Q 3103 4656 3366 4563 
z
" transform="scale(0.015625)"/>
       </defs>
       <use xlink:href="#DejaVuSans-36"/>
       <use xlink:href="#DejaVuSans-30" transform="translate(63.623047 0)"/>
      </g>
     </g>
    </g>
    <g id="xtick_5">
     <g id="line2d_5">
      <g>
       <use xlink:href="#me1453d7427" x="347.226029" y="307.584" style="stroke: #000000; stroke-width: 0.8"/>
      </g>
     </g>
     <g id="text_5">
      <!-- 80 -->
      <g transform="translate(340.863529 322.182437) scale(0.1 -0.1)">
       <defs>
        <path id="DejaVuSans-38" d="M 2034 2216 
Q 1584 2216 1326 1975 
Q 1069 1734 1069 1313 
Q 1069 891 1326 650 
Q 1584 409 2034 409 
Q 2484 409 2743 651 
Q 3003 894 3003 1313 
Q 3003 1734 2745 1975 
Q 2488 2216 2034 2216 
z
M 1403 2484 
Q 997 2584 770 2862 
Q 544 3141 544 3541 
Q 544 4100 942 4425 
Q 1341 4750 2034 4750 
Q 2731 4750 3128 4425 
Q 3525 4100 3525 3541 
Q 3525 3141 3298 2862 
Q 3072 2584 2669 2484 
Q 3125 2378 3379 2068 
Q 3634 1759 3634 1313 
Q 3634 634 3220 271 
Q 2806 -91 2034 -91 
Q 1263 -91 848 271 
Q 434 634 434 1313 
Q 434 1759 690 2068 
Q 947 2378 1403 2484 
z
M 1172 3481 
Q 1172 3119 1398 2916 
Q 1625 2713 2034 2713 
Q 2441 2713 2670 2916 
Q 2900 3119 2900 3481 
Q 2900 3844 2670 4047 
Q 2441 4250 2034 4250 
Q 1625 4250 1398 4047 
Q 1172 3844 1172 3481 
z
" transform="scale(0.015625)"/>
       </defs>
       <use xlink:href="#DejaVuSans-38"/>
       <use xlink:href="#DejaVuSans-30" transform="translate(63.623047 0)"/>
      </g>
     </g>
    </g>
    <g id="text_6">
     <!-- Generation -->
     <g transform="translate(208.267031 335.860562) scale(0.1 -0.1)">
      <defs>
       <path id="DejaVuSans-47" d="M 3809 666 
L 3809 1919 
L 2778 1919 
L 2778 2438 
L 4434 2438 
L 4434 434 
Q 4069 175 3628 42 
Q 3188 -91 2688 -91 
Q 1594 -91 976 548 
Q 359 1188 359 2328 
Q 359 3472 976 4111 
Q 1594 4750 2688 4750 
Q 3144 4750 3555 4637 
Q 3966 4525 4313 4306 
L 4313 3634 
Q 3963 3931 3569 4081 
Q 3175 4231 2741 4231 
Q 1884 4231 1454 3753 
Q 1025 3275 1025 2328 
Q 1025 1384 1454 906 
Q 1884 428 2741 428 
Q 3075 428 3337 486 
Q 3600 544 3809 666 
z
" transform="scale(0.015625)"/>
       <path id="DejaVuSans-65" d="M 3597 1894 
L 3597 1613 
L 953 1613 
Q 991 1019 1311 708 
Q 1631 397 2203 397 
Q 2534 397 2845 478 
Q 3156 559 3463 722 
L 3463 178 
Q 3153 47 2828 -22 
Q 2503 -91 2169 -91 
Q 1331 -91 842 396 
Q 353 884 353 1716 
Q 353 2575 817 3079 
Q 1281 3584 2069 3584 
Q 2775 3584 3186 3129 
Q 3597 2675 3597 1894 
z
M 3022 2063 
Q 3016 2534 2758 2815 
Q 2500 3097 2075 3097 
Q 1594 3097 1305 2825 
Q 1016 2553 972 2059 
L 3022 2063 
z
" transform="scale(0.015625)"/>
       <path id="DejaVuSans-6e" d="M 3513 2113 
L 3513 0 
L 2938 0 
L 2938 2094 
Q 2938 2591 2744 2837 
Q 2550 3084 2163 3084 
Q 1697 3084 1428 2787 
Q 1159 2491 1159 1978 
L 1159 0 
L 581 0 
L 581 3500 
L 1159 3500 
L 1159 2956 
Q 1366 3272 1645 3428 
Q 1925 3584 2291 3584 
Q 2894 3584 3203 3211 
Q 3513 2838 3513 2113 
z
" transform="scale(0.015625)"/>
       <path id="DejaVuSans-72" d="M 2631 2963 
Q 2534 3019 2420 3045 
Q 2306 3072 2169 3072 
Q 1681 3072 1420 2755 
Q 1159 2438 1159 1844 
L 1159 0 
L 581 0 
L 581 3500 
L 1159 3500 
L 1159 2956 
Q 1341 3275 1631 3429 
Q 1922 3584 2338 3584 
Q 2397 3584 2469 3576 
Q 2541 3569 2628 3553 
L 2631 2963 
z
" transform="scale(0.015625)"/>
       <path id="DejaVuSans-61" d="M 2194 1759 
Q 1497 1759 1228 1600 
Q 959 1441 959 1056 
Q 959 750 1161 570 
Q 1363 391 1709 391 
Q 2188 391 2477 730 
Q 2766 1069 2766 1631 
L 2766 1759 
L 2194 1759 
z
M 3341 1997 
L 3341 0 
L 2766 0 
L 2766 531 
Q 2569 213 2275 61 
Q 1981 -91 1556 -91 
Q 1019 -91 701 211 
Q 384 513 384 1019 
Q 384 1609 779 1909 
Q 1175 2209 1959 2209 
L 2766 2209 
L 2766 2266 
Q 2766 2663 2505 2880 
Q 2244 3097 1772 3097 
Q 1472 3097 1187 3025 
Q 903 2953 641 2809 
L 641 3341 
Q 956 3463 1253 3523 
Q 1550 3584 1831 3584 
Q 2591 3584 2966 3190 
Q 3341 2797 3341 1997 
z
" transform="scale(0.015625)"/>
       <path id="DejaVuSans-74" d="M 1172 4494 
L 1172 3500 
L 2356 3500 
L 2356 3053 
L 1172 3053 
L 1172 1153 
Q 1172 725 1289 603 
Q 1406 481 1766 481 
L 2356 481 
L 2356 0 
L 1766 0 
Q 1100 0 847 248 
Q 594 497 594 1153 
L 594 3053 
L 172 3053 
L 172 3500 
L 594 3500 
L 594 4494 
L 1172 4494 
z
" transform="scale(0.015625)"/>
       <path id="DejaVuSans-69" d="M 603 3500 
L 1178 3500 
L 1178 0 
L 603 0 
L 603 3500 
z
M 603 4863 
L 1178 4863 
L 1178 4134 
L 603 4134 
L 603 4863 
z
" transform="scale(0.015625)"/>
       <path id="DejaVuSans-6f" d="M 1959 3097 
Q 1497 3097 1228 2736 
Q 959 2375 959 1747 
Q 959 1119 1226 758 
Q 1494 397 1959 397 
Q 2419 397 2687 759 
Q 2956 1122 2956 1747 
Q 2956 2369 2687 2733 
Q 2419 3097 1959 3097 
z
M 1959 3584 
Q 2709 3584 3137 3096 
Q 3566 2609 3566 1747 
Q 3566 888 3137 398 
Q 2709 -91 1959 -91 
Q 1206 -91 779 398 
Q 353 888 353 1747 
Q 353 2609 779 3096 
Q 1206 3584 1959 3584 
z
" transform="scale(0.015625)"/>
      </defs>
      <use xlink:href="#DejaVuSans-47"/>
      <use xlink:href="#DejaVuSans-65" transform="translate(77.490234 0)"/>
      <use xlink:href="#DejaVuSans-6e" transform="translate(139.013672 0)"/>
      <use xlink:href="#DejaVuSans-65" transform="translate(202.392578 0)"/>
      <use xlink:href="#DejaVuSans-72" transform="translate(263.916016 0)"/>
      <use xlink:href="#DejaVuSans-61" transform="translate(305.029297 0)"/>
      <use xlink:href="#DejaVuSans-74" transform="translate(366.308594 0)"/>
      <use xlink:href="#DejaVuSans-69" transform="translate(405.517578 0)"/>
      <use xlink:href="#DejaVuSans-6f" transform="translate(433.300781 0)"/>
      <use xlink:href="#DejaVuSans-6e" transform="translate(494.482422 0)"/>
     </g>
    </g>
   </g>
   <g id="matplotlib.axis_2">
    <g id="ytick_1">
     <g id="line2d_6">
      <defs>
       <path id="m785da68f42" d="M 0 0 
L -3.5 0 
" style="stroke: #000000; stroke-width: 0.8"/>
      </defs>
      <g>
       <use xlink:href="#m785da68f42" x="57.6" y="297.366778" style="stroke: #000000; stroke-width: 0.8"/>
      </g>
     </g>
     <g id="text_7">
      <!-- 0 -->
      <g transform="translate(44.2375 301.165996) scale(0.1 -0.1)">
       <use xlink:href="#DejaVuSans-30"/>
      </g>
     </g>
    </g>
    <g id="ytick_2">
     <g id="line2d_7">
      <g>
       <use xlink:href="#m785da68f42" x="57.6" y="258.472398" style="stroke: #000000; stroke-width: 0.8"/>
      </g>
     </g>
     <g id="text_8">
      <!-- 2 -->
      <g transform="translate(44.2375 262.271617) scale(0.1 -0.1)">
       <use xlink:href="#DejaVuSans-32"/>
      </g>
     </g>
    </g>
    <g id="ytick_3">
     <g id="line2d_8">
      <g>
       <use xlink:href="#m785da68f42" x="57.6" y="219.578018" style="stroke: #000000; stroke-width: 0.8"/>
      </g>
     </g>
     <g id="text_9">
      <!-- 4 -->
      <g transform="translate(44.2375 223.377237) scale(0.1 -0.1)">
       <use xlink:href="#DejaVuSans-34"/>
      </g>
     </g>
    </g>
    <g id="ytick_4">
     <g id="line2d_9">
      <g>
       <use xlink:href="#m785da68f42" x="57.6" y="180.683638" style="stroke: #000000; stroke-width: 0.8"/>
      </g>
     </g>
     <g id="text_10">
      <!-- 6 -->
      <g transform="translate(44.2375 184.482857) scale(0.1 -0.1)">
       <use xlink:href="#DejaVuSans-36"/>
      </g>
     </g>
    </g>
    <g id="ytick_5">
     <g id="line2d_10">
      <g>
       <use xlink:href="#m785da68f42" x="57.6" y="141.789258" style="stroke: #000000; stroke-width: 0.8"/>
      </g>
     </g>
     <g id="text_11">
      <!-- 8 -->
      <g transform="translate(44.2375 145.588477) scale(0.1 -0.1)">
       <use xlink:href="#DejaVuSans-38"/>
      </g>
     </g>
    </g>
    <g id="ytick_6">
     <g id="line2d_11">
      <g>
       <use xlink:href="#m785da68f42" x="57.6" y="102.894878" style="stroke: #000000; stroke-width: 0.8"/>
      </g>
     </g>
     <g id="text_12">
      <!-- 10 -->
      <g transform="translate(37.875 106.694097) scale(0.1 -0.1)">
       <defs>
        <path id="DejaVuSans-31" d="M 794 531 
L 1825 531 
L 1825 4091 
L 703 3866 
L 703 4441 
L 1819 4666 
L 2450 4666 
L 2450 531 
L 3481 531 
L 3481 0 
L 794 0 
L 794 531 
z
" transform="scale(0.015625)"/>
       </defs>
       <use xlink:href="#DejaVuSans-31"/>
       <use xlink:href="#DejaVuSans-30" transform="translate(63.623047 0)"/>
      </g>
     </g>
    </g>
    <g id="ytick_7">
     <g id="line2d_12">
      <g>
       <use xlink:href="#m785da68f42" x="57.6" y="64.000498" style="stroke: #000000; stroke-width: 0.8"/>
      </g>
     </g>
     <g id="text_13">
      <!-- 12 -->
      <g transform="translate(37.875 67.799717) scale(0.1 -0.1)">
       <use xlink:href="#DejaVuSans-31"/>
       <use xlink:href="#DejaVuSans-32" transform="translate(63.623047 0)"/>
      </g>
     </g>
    </g>
    <g id="text_14">
     <!-- Average Fitness -->
     <g transform="translate(31.795312 213.967062) rotate(-90) scale(0.1 -0.1)">
      <defs>
       <path id="DejaVuSans-41" d="M 2188 4044 
L 1331 1722 
L 3047 1722 
L 2188 4044 
z
M 1831 4666 
L 2547 4666 
L 4325 0 
L 3669 0 
L 3244 1197 
L 1141 1197 
L 716 0 
L 50 0 
L 1831 4666 
z
" transform="scale(0.015625)"/>
       <path id="DejaVuSans-76" d="M 191 3500 
L 800 3500 
L 1894 563 
L 2988 3500 
L 3597 3500 
L 2284 0 
L 1503 0 
L 191 3500 
z
" transform="scale(0.015625)"/>
       <path id="DejaVuSans-67" d="M 2906 1791 
Q 2906 2416 2648 2759 
Q 2391 3103 1925 3103 
Q 1463 3103 1205 2759 
Q 947 2416 947 1791 
Q 947 1169 1205 825 
Q 1463 481 1925 481 
Q 2391 481 2648 825 
Q 2906 1169 2906 1791 
z
M 3481 434 
Q 3481 -459 3084 -895 
Q 2688 -1331 1869 -1331 
Q 1566 -1331 1297 -1286 
Q 1028 -1241 775 -1147 
L 775 -588 
Q 1028 -725 1275 -790 
Q 1522 -856 1778 -856 
Q 2344 -856 2625 -561 
Q 2906 -266 2906 331 
L 2906 616 
Q 2728 306 2450 153 
Q 2172 0 1784 0 
Q 1141 0 747 490 
Q 353 981 353 1791 
Q 353 2603 747 3093 
Q 1141 3584 1784 3584 
Q 2172 3584 2450 3431 
Q 2728 3278 2906 2969 
L 2906 3500 
L 3481 3500 
L 3481 434 
z
" transform="scale(0.015625)"/>
       <path id="DejaVuSans-20" transform="scale(0.015625)"/>
       <path id="DejaVuSans-46" d="M 628 4666 
L 3309 4666 
L 3309 4134 
L 1259 4134 
L 1259 2759 
L 3109 2759 
L 3109 2228 
L 1259 2228 
L 1259 0 
L 628 0 
L 628 4666 
z
" transform="scale(0.015625)"/>
       <path id="DejaVuSans-73" d="M 2834 3397 
L 2834 2853 
Q 2591 2978 2328 3040 
Q 2066 3103 1784 3103 
Q 1356 3103 1142 2972 
Q 928 2841 928 2578 
Q 928 2378 1081 2264 
Q 1234 2150 1697 2047 
L 1894 2003 
Q 2506 1872 2764 1633 
Q 3022 1394 3022 966 
Q 3022 478 2636 193 
Q 2250 -91 1575 -91 
Q 1294 -91 989 -36 
Q 684 19 347 128 
L 347 722 
Q 666 556 975 473 
Q 1284 391 1588 391 
Q 1994 391 2212 530 
Q 2431 669 2431 922 
Q 2431 1156 2273 1281 
Q 2116 1406 1581 1522 
L 1381 1569 
Q 847 1681 609 1914 
Q 372 2147 372 2553 
Q 372 3047 722 3315 
Q 1072 3584 1716 3584 
Q 2034 3584 2315 3537 
Q 2597 3491 2834 3397 
z
" transform="scale(0.015625)"/>
      </defs>
      <use xlink:href="#DejaVuSans-41"/>
      <use xlink:href="#DejaVuSans-76" transform="translate(62.533203 0)"/>
      <use xlink:href="#DejaVuSans-65" transform="translate(121.712891 0)"/>
      <use xlink:href="#DejaVuSans-72" transform="translate(183.236328 0)"/>
      <use xlink:href="#DejaVuSans-61" transform="translate(224.349609 0)"/>
      <use xlink:href="#DejaVuSans-67" transform="translate(285.628906 0)"/>
      <use xlink:href="#DejaVuSans-65" transform="translate(349.105469 0)"/>
      <use xlink:href="#DejaVuSans-20" transform="translate(410.628906 0)"/>
      <use xlink:href="#DejaVuSans-46" transform="translate(442.416016 0)"/>
      <use xlink:href="#DejaVuSans-69" transform="translate(492.685547 0)"/>
      <use xlink:href="#DejaVuSans-74" transform="translate(520.46875 0)"/>
      <use xlink:href="#DejaVuSans-6e" transform="translate(559.677734 0)"/>
      <use xlink:href="#DejaVuSans-65" transform="translate(623.056641 0)"/>
      <use xlink:href="#DejaVuSans-73" transform="translate(684.580078 0)"/>
      <use xlink:href="#DejaVuSans-73" transform="translate(736.679688 0)"/>
     </g>
    </g>
   </g>
   <g id="line2d_13">
    <path d="M 73.832727 198.319616 
L 77.250144 184.191735 
L 80.66756 183.838378 
L 84.084976 183.838378 
L 87.502392 173.614732 
L 90.919809 171.60308 
L 94.337225 170.884169 
L 97.754641 170.154716 
L 101.172057 169.695421 
L 104.589474 169.695421 
L 108.00689 160.166892 
L 111.424306 160.166892 
L 114.841722 137.613942 
L 118.259139 137.613942 
L 121.676555 136.860891 
L 125.093971 136.860891 
L 128.511388 136.860891 
L 131.928804 135.457258 
L 135.34622 135.457258 
L 138.763636 135.457258 
L 142.181053 135.457258 
L 145.598469 135.457258 
L 149.015885 135.457258 
L 152.433301 135.457258 
L 155.850718 135.457258 
L 159.268134 135.457258 
L 162.68555 135.457258 
L 166.102967 134.800241 
L 169.520383 128.168409 
L 172.937799 128.168409 
L 176.355215 128.168409 
L 179.772632 128.168409 
L 183.190048 128.168409 
L 186.607464 128.168409 
L 190.02488 126.297579 
L 193.442297 126.297579 
L 196.859713 119.901735 
L 200.277129 119.901735 
L 203.694545 119.901735 
L 207.111962 119.901735 
L 210.529378 119.901735 
L 213.946794 119.453512 
L 217.364211 115.170658 
L 220.781627 111.982634 
L 224.199043 111.982634 
L 227.616459 101.158601 
L 231.033876 101.158601 
L 234.451292 101.158601 
L 237.868708 101.158601 
L 241.286124 101.158601 
L 244.703541 101.158601 
L 248.120957 101.158601 
L 251.538373 93.894749 
L 254.955789 93.894749 
L 258.373206 93.894749 
L 261.790622 93.894749 
L 265.208038 93.894749 
L 268.625455 93.894749 
L 272.042871 93.176111 
L 275.460287 93.176111 
L 278.877703 93.176111 
L 282.29512 93.176111 
L 285.712536 93.176111 
L 289.129952 92.572085 
L 292.547368 92.572085 
L 295.964785 92.572085 
L 299.382201 90.368097 
L 302.799617 73.367015 
L 306.217033 73.367015 
L 309.63445 73.367015 
L 313.051866 73.367015 
L 316.469282 73.367015 
L 319.886699 73.367015 
L 323.304115 73.367015 
L 326.721531 73.367015 
L 330.138947 73.367015 
L 333.556364 72.854868 
L 336.97378 72.854868 
L 340.391196 72.854868 
L 343.808612 71.741972 
L 347.226029 71.741972 
L 350.643445 71.741972 
L 354.060861 71.741972 
L 357.478278 71.741972 
L 360.895694 71.741972 
L 364.31311 71.741972 
L 367.730526 71.741972 
L 371.147943 71.741972 
L 374.565359 71.741972 
L 377.982775 71.741972 
L 381.400191 71.741972 
L 384.817608 71.741972 
L 388.235024 71.741972 
L 391.65244 71.741972 
L 395.069856 71.741972 
L 398.487273 71.741972 
" clip-path="url(#p1254db9c92)" style="fill: none; stroke: #008000; stroke-width: 1.5; stroke-linecap: square"/>
   </g>
   <g id="line2d_14">
    <path d="M 73.832727 279.780772 
L 77.250144 274.403158 
L 80.66756 272.094504 
L 84.084976 270.072473 
L 87.502392 267.405927 
L 90.919809 264.846519 
L 94.337225 262.912878 
L 97.754641 261.366559 
L 101.172057 259.496104 
L 104.589474 258.041213 
L 108.00689 255.62623 
L 111.424306 254.134345 
L 114.841722 251.52086 
L 118.259139 250.107857 
L 121.676555 248.868405 
L 125.093971 247.780003 
L 128.511388 247.022357 
L 131.928804 246.018639 
L 135.34622 245.259939 
L 138.763636 244.219703 
L 142.181053 243.711508 
L 145.598469 242.446727 
L 149.015885 241.903566 
L 152.433301 240.992143 
L 155.850718 240.36016 
L 159.268134 239.733436 
L 162.68555 238.904893 
L 166.102967 237.524433 
L 169.520383 235.82229 
L 172.937799 235.060061 
L 176.355215 234.174144 
L 179.772632 233.043304 
L 183.190048 231.892509 
L 186.607464 230.65946 
L 190.02488 228.079176 
L 193.442297 227.186051 
L 196.859713 225.770113 
L 200.277129 224.86907 
L 203.694545 224.002709 
L 207.111962 223.20282 
L 210.529378 222.177398 
L 213.946794 221.495977 
L 217.364211 220.486092 
L 220.781627 219.90331 
L 224.199043 219.03066 
L 227.616459 218.031944 
L 231.033876 217.070784 
L 234.451292 216.218382 
L 237.868708 215.239769 
L 241.286124 214.595542 
L 244.703541 214.458602 
L 248.120957 214.363987 
L 251.538373 213.092184 
L 254.955789 212.413714 
L 258.373206 212.22707 
L 261.790622 212.018802 
L 265.208038 211.014711 
L 268.625455 210.563977 
L 272.042871 208.286256 
L 275.460287 207.352941 
L 278.877703 206.632036 
L 282.29512 205.822389 
L 285.712536 205.172641 
L 289.129952 204.220864 
L 292.547368 203.306986 
L 295.964785 203.047954 
L 299.382201 202.258355 
L 302.799617 200.966164 
L 306.217033 200.960605 
L 309.63445 200.7131 
L 313.051866 200.090029 
L 316.469282 199.673197 
L 319.886699 199.504391 
L 323.304115 198.721753 
L 326.721531 198.444363 
L 330.138947 197.875832 
L 333.556364 197.244939 
L 336.97378 196.695312 
L 340.391196 196.472563 
L 343.808612 194.994106 
L 347.226029 194.446749 
L 350.643445 194.412769 
L 354.060861 194.328953 
L 357.478278 194.239846 
L 360.895694 193.288428 
L 364.31311 192.633822 
L 367.730526 192.179511 
L 371.147943 191.407833 
L 374.565359 191.014341 
L 377.982775 190.177732 
L 381.400191 189.707182 
L 384.817608 188.837481 
L 388.235024 188.201159 
L 391.65244 188.01973 
L 395.069856 187.151648 
L 398.487273 186.949003 
" clip-path="url(#p1254db9c92)" style="fill: none; stroke: #0000ff; stroke-width: 1.5; stroke-linecap: square"/>
   </g>
   <g id="line2d_15">
    <path d="M 73.832727 295.334981 
L 77.250144 291.836272 
L 80.66756 288.491736 
L 84.084976 286.594767 
L 87.502392 284.412603 
L 90.919809 282.757257 
L 94.337225 281.353326 
L 97.754641 279.819044 
L 101.172057 278.458782 
L 104.589474 277.39816 
L 108.00689 275.945238 
L 111.424306 274.614169 
L 114.841722 273.477233 
L 118.259139 272.419824 
L 121.676555 271.243135 
L 125.093971 270.152915 
L 128.511388 269.406053 
L 131.928804 268.494864 
L 135.34622 267.816467 
L 138.763636 267.045953 
L 142.181053 266.366257 
L 145.598469 265.220508 
L 149.015885 264.628799 
L 152.433301 264.184811 
L 155.850718 263.692956 
L 159.268134 263.32253 
L 162.68555 262.826603 
L 166.102967 261.916622 
L 169.520383 260.751099 
L 172.937799 259.92718 
L 176.355215 259.583476 
L 179.772632 258.99263 
L 183.190048 258.082288 
L 186.607464 257.253473 
L 190.02488 256.249537 
L 193.442297 254.810546 
L 196.859713 254.115953 
L 200.277129 253.534315 
L 203.694545 253.016673 
L 207.111962 252.361198 
L 210.529378 251.960466 
L 213.946794 251.639841 
L 217.364211 250.946028 
L 220.781627 250.48251 
L 224.199043 250.041019 
L 227.616459 249.578002 
L 231.033876 248.286039 
L 234.451292 247.791867 
L 237.868708 246.740108 
L 241.286124 245.798776 
L 244.703541 245.410538 
L 248.120957 245.068527 
L 251.538373 244.493326 
L 254.955789 244.087449 
L 258.373206 243.700813 
L 261.790622 243.478429 
L 265.208038 243.00203 
L 268.625455 242.567392 
L 272.042871 241.568432 
L 275.460287 241.012226 
L 278.877703 240.668943 
L 282.29512 240.138136 
L 285.712536 239.430691 
L 289.129952 238.577092 
L 292.547368 237.778676 
L 295.964785 237.544773 
L 299.382201 237.214047 
L 302.799617 235.58675 
L 306.217033 235.578625 
L 309.63445 235.348602 
L 313.051866 234.759209 
L 316.469282 234.587355 
L 319.886699 234.171837 
L 323.304115 233.543924 
L 326.721531 233.414043 
L 330.138947 232.962169 
L 333.556364 232.841145 
L 336.97378 232.612055 
L 340.391196 232.432483 
L 343.808612 231.581553 
L 347.226029 230.965743 
L 350.643445 230.904953 
L 354.060861 230.718092 
L 357.478278 230.655188 
L 360.895694 229.96058 
L 364.31311 228.714786 
L 367.730526 228.214067 
L 371.147943 227.516157 
L 374.565359 227.393797 
L 377.982775 226.727926 
L 381.400191 225.222555 
L 384.817608 223.955806 
L 388.235024 223.30688 
L 391.65244 223.22878 
L 395.069856 222.846552 
L 398.487273 222.429429 
" clip-path="url(#p1254db9c92)" style="fill: none; stroke: #ff0000; stroke-width: 1.5; stroke-linecap: square"/>
   </g>
   <g id="line2d_16">
    <path d="M 73.832727 279.780772 
L 77.250144 274.403158 
L 80.66756 272.094504 
L 84.084976 270.072473 
L 87.502392 267.405927 
L 90.919809 264.846519 
L 94.337225 262.912878 
L 97.754641 261.366559 
L 101.172057 259.496104 
L 104.589474 258.041213 
L 108.00689 255.62623 
L 111.424306 254.134345 
L 114.841722 251.52086 
L 118.259139 250.107857 
L 121.676555 248.868405 
L 125.093971 247.780003 
L 128.511388 247.022357 
L 131.928804 246.018639 
L 135.34622 245.259939 
L 138.763636 244.219703 
L 142.181053 243.711508 
L 145.598469 242.446727 
L 149.015885 241.903566 
L 152.433301 240.992143 
L 155.850718 240.36016 
L 159.268134 239.733436 
L 162.68555 238.904893 
L 166.102967 237.524433 
L 169.520383 235.82229 
L 172.937799 235.060061 
L 176.355215 234.174144 
L 179.772632 233.043304 
L 183.190048 231.892509 
L 186.607464 230.65946 
L 190.02488 228.079176 
L 193.442297 227.186051 
L 196.859713 225.770113 
L 200.277129 224.86907 
L 203.694545 224.002709 
L 207.111962 223.20282 
L 210.529378 222.177398 
L 213.946794 221.495977 
L 217.364211 220.486092 
L 220.781627 219.90331 
L 224.199043 219.03066 
L 227.616459 218.031944 
L 231.033876 217.070784 
L 234.451292 216.218382 
L 237.868708 215.239769 
L 241.286124 214.595542 
L 244.703541 214.458602 
L 248.120957 214.363987 
L 251.538373 213.092184 
L 254.955789 212.413714 
L 258.373206 212.22707 
L 261.790622 212.018802 
L 265.208038 211.014711 
L 268.625455 210.563977 
L 272.042871 208.286256 
L 275.460287 207.352941 
L 278.877703 206.632036 
L 282.29512 205.822389 
L 285.712536 205.172641 
L 289.129952 204.220864 
L 292.547368 203.306986 
L 295.964785 203.047954 
L 299.382201 202.258355 
L 302.799617 200.966164 
L 306.217033 200.960605 
L 309.63445 200.7131 
L 313.051866 200.090029 
L 316.469282 199.673197 
L 319.886699 199.504391 
L 323.304115 198.721753 
L 326.721531 198.444363 
L 330.138947 197.875832 
L 333.556364 197.244939 
L 336.97378 196.695312 
L 340.391196 196.472563 
L 343.808612 194.994106 
L 347.226029 194.446749 
L 350.643445 194.412769 
L 354.060861 194.328953 
L 357.478278 194.239846 
L 360.895694 193.288428 
L 364.31311 192.633822 
L 367.730526 192.179511 
L 371.147943 191.407833 
L 374.565359 191.014341 
L 377.982775 190.177732 
L 381.400191 189.707182 
L 384.817608 188.837481 
L 388.235024 188.201159 
L 391.65244 188.01973 
L 395.069856 187.151648 
L 398.487273 186.949003 
" clip-path="url(#p1254db9c92)" style="fill: none; stroke: #0000ff; stroke-width: 1.5; stroke-linecap: square"/>
   </g>
   <g id="line2d_17">
    <path d="M 73.832727 295.334981 
L 77.250144 291.836272 
L 80.66756 288.491736 
L 84.084976 286.594767 
L 87.502392 284.412603 
L 90.919809 282.757257 
L 94.337225 281.353326 
L 97.754641 279.819044 
L 101.172057 278.458782 
L 104.589474 277.39816 
L 108.00689 275.945238 
L 111.424306 274.614169 
L 114.841722 273.477233 
L 118.259139 272.419824 
L 121.676555 271.243135 
L 125.093971 270.152915 
L 128.511388 269.406053 
L 131.928804 268.494864 
L 135.34622 267.816467 
L 138.763636 267.045953 
L 142.181053 266.366257 
L 145.598469 265.220508 
L 149.015885 264.628799 
L 152.433301 264.184811 
L 155.850718 263.692956 
L 159.268134 263.32253 
L 162.68555 262.826603 
L 166.102967 261.916622 
L 169.520383 260.751099 
L 172.937799 259.92718 
L 176.355215 259.583476 
L 179.772632 258.99263 
L 183.190048 258.082288 
L 186.607464 257.253473 
L 190.02488 256.249537 
L 193.442297 254.810546 
L 196.859713 254.115953 
L 200.277129 253.534315 
L 203.694545 253.016673 
L 207.111962 252.361198 
L 210.529378 251.960466 
L 213.946794 251.639841 
L 217.364211 250.946028 
L 220.781627 250.48251 
L 224.199043 250.041019 
L 227.616459 249.578002 
L 231.033876 248.286039 
L 234.451292 247.791867 
L 237.868708 246.740108 
L 241.286124 245.798776 
L 244.703541 245.410538 
L 248.120957 245.068527 
L 251.538373 244.493326 
L 254.955789 244.087449 
L 258.373206 243.700813 
L 261.790622 243.478429 
L 265.208038 243.00203 
L 268.625455 242.567392 
L 272.042871 241.568432 
L 275.460287 241.012226 
L 278.877703 240.668943 
L 282.29512 240.138136 
L 285.712536 239.430691 
L 289.129952 238.577092 
L 292.547368 237.778676 
L 295.964785 237.544773 
L 299.382201 237.214047 
L 302.799617 235.58675 
L 306.217033 235.578625 
L 309.63445 235.348602 
L 313.051866 234.759209 
L 316.469282 234.587355 
L 319.886699 234.171837 
L 323.304115 233.543924 
L 326.721531 233.414043 
L 330.138947 232.962169 
L 333.556364 232.841145 
L 336.97378 232.612055 
L 340.391196 232.432483 
L 343.808612 231.581553 
L 347.226029 230.965743 
L 350.643445 230.904953 
L 354.060861 230.718092 
L 357.478278 230.655188 
L 360.895694 229.96058 
L 364.31311 228.714786 
L 367.730526 228.214067 
L 371.147943 227.516157 
L 374.565359 227.393797 
L 377.982775 226.727926 
L 381.400191 225.222555 
L 384.817608 223.955806 
L 388.235024 223.30688 
L 391.65244 223.22878 
L 395.069856 222.846552 
L 398.487273 222.429429 
" clip-path="url(#p1254db9c92)" style="fill: none; stroke: #ff0000; stroke-width: 1.5; stroke-linecap: square"/>
   </g>
   <g id="patch_3">
    <path d="M 57.6 307.584 
L 57.6 41.472 
" style="fill: none; stroke: #000000; stroke-width: 0.8; stroke-linejoin: miter; stroke-linecap: square"/>
   </g>
   <g id="patch_4">
    <path d="M 414.72 307.584 
L 414.72 41.472 
" style="fill: none; stroke: #000000; stroke-width: 0.8; stroke-linejoin: miter; stroke-linecap: square"/>
   </g>
   <g id="patch_5">
    <path d="M 57.6 307.584 
L 414.72 307.584 
" style="fill: none; stroke: #000000; stroke-width: 0.8; stroke-linejoin: miter; stroke-linecap: square"/>
   </g>
   <g id="patch_6">
    <path d="M 57.6 41.472 
L 414.72 41.472 
" style="fill: none; stroke: #000000; stroke-width: 0.8; stroke-linejoin: miter; stroke-linecap: square"/>
   </g>
  </g>
 </g>
 <defs>
  <clipPath id="p1254db9c92">
   <rect x="57.6" y="41.472" width="357.12" height="266.112"/>
  </clipPath>
 </defs>
</svg>
