<?xml version="1.0" encoding="utf-8" standalone="no"?>
<!DOCTYPE svg PUBLIC "-//W3C//DTD SVG 1.1//EN"
  "http://www.w3.org/Graphics/SVG/1.1/DTD/svg11.dtd">
<svg xmlns:xlink="http://www.w3.org/1999/xlink" width="460.8pt" height="345.6pt" viewBox="0 0 460.8 345.6" xmlns="http://www.w3.org/2000/svg" version="1.1">
 <metadata>
  <rdf:RDF xmlns:dc="http://purl.org/dc/elements/1.1/" xmlns:cc="http://creativecommons.org/ns#" xmlns:rdf="http://www.w3.org/1999/02/22-rdf-syntax-ns#">
   <cc:Work>
    <dc:type rdf:resource="http://purl.org/dc/dcmitype/StillImage"/>
    <dc:date>2025-11-14T16:40:25.712582</dc:date>
    <dc:format>image/svg+xml</dc:format>
    <dc:creator>
     <cc:Agent>
      <dc:title>Matplotlib v3.10.0, https://matplotlib.org/</dc:title>
     </cc:Agent>
    </dc:creator>
   </cc:Work>
  </rdf:RDF>
 </metadata>
 <defs>
  <style type="text/css">*{stroke-linejoin: round; stroke-linecap: butt}</style>
 </defs>
 <g id="figure_1">
  <g id="patch_1">
   <path d="M 0 345.6 
L 460.8 345.6 
L 460.8 0 
L 0 0 
z
" style="fill: #ffffff"/>
  </g>
  <g id="axes_1">
   <g id="patch_2">
    <path d="M 57.6 307.584 
L 414.72 307.584 
L 414.72 41.472 
L 57.6 41.472 
z
" style="fill: #ffffff"/>
   </g>
   <g id="FillBetweenPolyCollection_1">
    <defs>
     <path id="m723c0d4394" d="M 57.6 -179.920813 
L 57.6 -153.300609 
L 66.310244 -169.336273 
L 75.020488 -170.008285 
L 83.730732 -170.008285 
L 92.440976 -174.601916 
L 101.15122 -177.600013 
L 109.861463 -178.861726 
L 118.571707 -180.197791 
L 127.281951 -180.849668 
L 135.992195 -180.849668 
L 144.702439 -194.212249 
L 153.412683 -194.212249 
L 162.122927 -221.518164 
L 170.833171 -221.518164 
L 179.543415 -222.741668 
L 188.253659 -222.741668 
L 196.963902 -222.741668 
L 205.674146 -224.415314 
L 214.38439 -224.415314 
L 223.094634 -224.415314 
L 231.804878 -224.415314 
L 240.515122 -224.415314 
L 249.225366 -224.415314 
L 257.93561 -224.415314 
L 266.645854 -224.415314 
L 275.356098 -224.415314 
L 284.066341 -224.415314 
L 292.776585 -225.457771 
L 301.486829 -236.19056 
L 310.197073 -236.19056 
L 318.907317 -236.19056 
L 327.617561 -236.19056 
L 336.327805 -236.19056 
L 345.038049 -236.19056 
L 353.748293 -237.017917 
L 362.458537 -237.017917 
L 371.16878 -244.396419 
L 379.879024 -244.396419 
L 388.589268 -244.396419 
L 397.299512 -244.396419 
L 406.009756 -244.396419 
L 406.009756 -292.447696 
L 406.009756 -292.447696 
L 397.299512 -292.447696 
L 388.589268 -292.447696 
L 379.879024 -292.447696 
L 371.16878 -292.447696 
L 362.458537 -283.218519 
L 353.748293 -283.218519 
L 345.038049 -279.188011 
L 336.327805 -279.188011 
L 327.617561 -279.188011 
L 318.907317 -279.188011 
L 310.197073 -279.188011 
L 301.486829 -279.188011 
L 292.776585 -272.700348 
L 284.066341 -272.036771 
L 275.356098 -272.036771 
L 266.645854 -272.036771 
L 257.93561 -272.036771 
L 249.225366 -272.036771 
L 240.515122 -272.036771 
L 231.804878 -272.036771 
L 223.094634 -272.036771 
L 214.38439 -272.036771 
L 205.674146 -272.036771 
L 196.963902 -270.065693 
L 188.253659 -270.065693 
L 179.543415 -270.065693 
L 170.833171 -269.333796 
L 162.122927 -269.333796 
L 153.412683 -238.07791 
L 144.702439 -238.07791 
L 135.992195 -226.698369 
L 127.281951 -226.698369 
L 118.571707 -226.157625 
L 109.861463 -225.599567 
L 101.15122 -224.99453 
L 92.440976 -222.769098 
L 83.730732 -200.815642 
L 75.020488 -200.815642 
L 66.310244 -200.570114 
L 57.6 -179.920813 
z
" style="stroke: #e71515; stroke-opacity: 0.2"/>
    </defs>
    <g clip-path="url(#p2318512f87)">
     <use xlink:href="#m723c0d4394" x="0" y="345.6" style="fill: #e71515; fill-opacity: 0.2; stroke: #e71515; stroke-opacity: 0.2"/>
    </g>
   </g>
   <g id="FillBetweenPolyCollection_2">
    <defs>
     <path id="mbbd8894130" d="M 57.6 -61.959378 
L 57.6 -59.737079 
L 66.310244 -65.725443 
L 75.020488 -68.95426 
L 83.730732 -71.457844 
L 92.440976 -74.600234 
L 101.15122 -77.500513 
L 109.861463 -79.918232 
L 118.571707 -82.096188 
L 127.281951 -84.518659 
L 135.992195 -86.566187 
L 144.702439 -89.606751 
L 153.412683 -91.586337 
L 162.122927 -94.995209 
L 170.833171 -96.262481 
L 179.543415 -97.796363 
L 188.253659 -99.230062 
L 196.963902 -99.929555 
L 205.674146 -101.338302 
L 214.38439 -102.283062 
L 223.094634 -103.827311 
L 231.804878 -104.505023 
L 240.515122 -106.184486 
L 249.225366 -106.879404 
L 257.93561 -108.027701 
L 266.645854 -108.659616 
L 275.356098 -109.424799 
L 284.066341 -110.594146 
L 292.776585 -111.834373 
L 301.486829 -113.622219 
L 310.197073 -114.590791 
L 318.907317 -115.581713 
L 327.617561 -116.03679 
L 336.327805 -117.521138 
L 345.038049 -118.641317 
L 353.748293 -119.956515 
L 362.458537 -121.077556 
L 371.16878 -122.513447 
L 379.879024 -122.990138 
L 388.589268 -124.291349 
L 397.299512 -124.868162 
L 406.009756 -126.4022 
L 406.009756 -144.86925 
L 406.009756 -144.86925 
L 397.299512 -143.74064 
L 388.589268 -142.240432 
L 379.879024 -141.292018 
L 371.16878 -139.429028 
L 362.458537 -137.188243 
L 353.748293 -135.990163 
L 345.038049 -130.605306 
L 336.327805 -128.523704 
L 327.617561 -127.019857 
L 318.907317 -124.538553 
L 310.197073 -123.229072 
L 301.486829 -122.218411 
L 292.776585 -119.586412 
L 284.066341 -117.242086 
L 275.356098 -116.26001 
L 266.645854 -115.397818 
L 257.93561 -114.388704 
L 249.225366 -113.170367 
L 240.515122 -112.454895 
L 231.804878 -110.850181 
L 223.094634 -110.208297 
L 214.38439 -109.051429 
L 205.674146 -108.026123 
L 196.963902 -106.82858 
L 188.253659 -105.560742 
L 179.543415 -104.168255 
L 170.833171 -102.483732 
L 162.122927 -100.081951 
L 153.412683 -96.704553 
L 144.702439 -94.810256 
L 135.992195 -91.579989 
L 127.281951 -89.849694 
L 118.571707 -87.415274 
L 109.861463 -85.578004 
L 101.15122 -82.974762 
L 92.440976 -79.229189 
L 83.730732 -75.447529 
L 75.020488 -72.700636 
L 66.310244 -69.934717 
L 57.6 -61.959378 
z
" style="stroke: #c82828; stroke-opacity: 0.2"/>
    </defs>
    <g clip-path="url(#p2318512f87)">
     <use xlink:href="#mbbd8894130" x="0" y="345.6" style="fill: #c82828; fill-opacity: 0.2; stroke: #c82828; stroke-opacity: 0.2"/>
    </g>
   </g>
   <g id="FillBetweenPolyCollection_3">
    <defs>
     <path id="m71a85518f2" d="M 57.6 -124.348097 
L 57.6 -109.737 
L 66.310244 -117.265895 
L 75.020488 -132.58213 
L 83.730732 -147.987376 
L 92.440976 -157.499284 
L 101.15122 -161.926624 
L 109.861463 -164.626703 
L 118.571707 -173.14585 
L 127.281951 -173.14585 
L 135.992195 -173.14585 
L 144.702439 -173.14585 
L 153.412683 -187.82706 
L 162.122927 -187.82706 
L 170.833171 -189.077132 
L 179.543415 -194.410291 
L 188.253659 -194.410291 
L 196.963902 -194.410291 
L 205.674146 -194.410291 
L 214.38439 -194.410291 
L 223.094634 -194.410291 
L 231.804878 -194.410291 
L 240.515122 -194.410291 
L 249.225366 -195.080412 
L 257.93561 -195.080412 
L 266.645854 -195.080412 
L 275.356098 -195.080412 
L 284.066341 -196.677651 
L 292.776585 -201.348628 
L 301.486829 -204.892351 
L 310.197073 -204.892351 
L 318.907317 -204.892351 
L 327.617561 -204.892351 
L 336.327805 -204.892351 
L 345.038049 -207.903723 
L 353.748293 -207.903723 
L 362.458537 -207.903723 
L 371.16878 -207.903723 
L 379.879024 -207.903723 
L 388.589268 -209.022897 
L 397.299512 -211.273388 
L 406.009756 -211.273388 
L 406.009756 -239.931261 
L 406.009756 -239.931261 
L 397.299512 -239.931261 
L 388.589268 -237.77513 
L 379.879024 -237.065879 
L 371.16878 -237.065879 
L 362.458537 -237.065879 
L 353.748293 -237.065879 
L 345.038049 -237.065879 
L 336.327805 -233.619508 
L 327.617561 -233.619508 
L 318.907317 -233.619508 
L 310.197073 -233.619508 
L 301.486829 -233.619508 
L 292.776585 -230.99728 
L 284.066341 -228.53442 
L 275.356098 -227.477357 
L 266.645854 -227.477357 
L 257.93561 -227.477357 
L 249.225366 -227.477357 
L 240.515122 -227.180346 
L 231.804878 -227.180346 
L 223.094634 -227.180346 
L 214.38439 -227.180346 
L 205.674146 -227.180346 
L 196.963902 -227.180346 
L 188.253659 -227.180346 
L 179.543415 -227.180346 
L 170.833171 -225.318984 
L 162.122927 -224.099726 
L 153.412683 -224.099726 
L 144.702439 -205.99458 
L 135.992195 -205.99458 
L 127.281951 -205.99458 
L 118.571707 -205.99458 
L 109.861463 -197.834381 
L 101.15122 -195.248454 
L 92.440976 -193.180322 
L 83.730732 -185.267396 
L 75.020488 -173.290335 
L 66.310244 -157.775514 
L 57.6 -124.348097 
z
" style="stroke: #2555e5; stroke-opacity: 0.2"/>
    </defs>
    <g clip-path="url(#p2318512f87)">
     <use xlink:href="#m71a85518f2" x="0" y="345.6" style="fill: #2555e5; fill-opacity: 0.2; stroke: #2555e5; stroke-opacity: 0.2"/>
    </g>
   </g>
   <g id="FillBetweenPolyCollection_4">
    <defs>
     <path id="m8fec37202d" d="M 57.6 -61.135289 
L 57.6 -58.841622 
L 66.310244 -64.017691 
L 75.020488 -69.06939 
L 83.730732 -73.761369 
L 92.440976 -77.414948 
L 101.15122 -80.125126 
L 109.861463 -82.888584 
L 118.571707 -85.101691 
L 127.281951 -87.178365 
L 135.992195 -89.15516 
L 144.702439 -91.11104 
L 153.412683 -94.954141 
L 162.122927 -96.365238 
L 170.833171 -97.390484 
L 179.543415 -100.867156 
L 188.253659 -102.544618 
L 196.963902 -104.303017 
L 205.674146 -106.328758 
L 214.38439 -107.48767 
L 223.094634 -109.560092 
L 231.804878 -111.446964 
L 240.515122 -112.055685 
L 249.225366 -113.78018 
L 257.93561 -115.250369 
L 266.645854 -115.834538 
L 275.356098 -117.034131 
L 284.066341 -118.382656 
L 292.776585 -119.375161 
L 301.486829 -121.058062 
L 310.197073 -122.368329 
L 318.907317 -123.792333 
L 327.617561 -124.731031 
L 336.327805 -125.742895 
L 345.038049 -127.015981 
L 353.748293 -127.856797 
L 362.458537 -128.439204 
L 371.16878 -128.981585 
L 379.879024 -130.487335 
L 388.589268 -131.496603 
L 397.299512 -132.710869 
L 406.009756 -133.336356 
L 406.009756 -141.504433 
L 406.009756 -141.504433 
L 397.299512 -139.957375 
L 388.589268 -138.896242 
L 379.879024 -137.813769 
L 371.16878 -135.783318 
L 362.458537 -135.014951 
L 353.748293 -134.414992 
L 345.038049 -133.337552 
L 336.327805 -132.323583 
L 327.617561 -130.907844 
L 318.907317 -129.673851 
L 310.197073 -128.073602 
L 301.486829 -127.006608 
L 292.776585 -125.774436 
L 284.066341 -124.675527 
L 275.356098 -122.856942 
L 266.645854 -121.546495 
L 257.93561 -121.02784 
L 249.225366 -119.694355 
L 240.515122 -117.98084 
L 231.804878 -117.158167 
L 223.094634 -115.655913 
L 214.38439 -113.966787 
L 205.674146 -112.789734 
L 196.963902 -110.21098 
L 188.253659 -108.124721 
L 179.543415 -106.299241 
L 170.833171 -103.329959 
L 162.122927 -101.503214 
L 153.412683 -100.020787 
L 144.702439 -96.414702 
L 135.992195 -94.146678 
L 127.281951 -91.815411 
L 118.571707 -89.852842 
L 109.861463 -87.850766 
L 101.15122 -84.752478 
L 92.440976 -82.689494 
L 83.730732 -78.119019 
L 75.020488 -73.074356 
L 66.310244 -67.777619 
L 57.6 -61.135289 
z
" style="stroke: #3131b9; stroke-opacity: 0.2"/>
    </defs>
    <g clip-path="url(#p2318512f87)">
     <use xlink:href="#m8fec37202d" x="0" y="345.6" style="fill: #3131b9; fill-opacity: 0.2; stroke: #3131b9; stroke-opacity: 0.2"/>
    </g>
   </g>
   <g id="matplotlib.axis_1">
    <g id="xtick_1">
     <g id="line2d_1">
      <defs>
       <path id="m69a31e8706" d="M 0 0 
L 0 3.5 
" style="stroke: #000000; stroke-width: 0.8"/>
      </defs>
      <g>
       <use xlink:href="#m69a31e8706" x="57.6" y="307.584" style="stroke: #000000; stroke-width: 0.8"/>
      </g>
     </g>
     <g id="text_1">
      <!-- 0 -->
      <g transform="translate(54.41875 322.182437) scale(0.1 -0.1)">
       <defs>
        <path id="DejaVuSans-30" d="M 2034 4250 
Q 1547 4250 1301 3770 
Q 1056 3291 1056 2328 
Q 1056 1369 1301 889 
Q 1547 409 2034 409 
Q 2525 409 2770 889 
Q 3016 1369 3016 2328 
Q 3016 3291 2770 3770 
Q 2525 4250 2034 4250 
z
M 2034 4750 
Q 2819 4750 3233 4129 
Q 3647 3509 3647 2328 
Q 3647 1150 3233 529 
Q 2819 -91 2034 -91 
Q 1250 -91 836 529 
Q 422 1150 422 2328 
Q 422 3509 836 4129 
Q 1250 4750 2034 4750 
z
" transform="scale(0.015625)"/>
       </defs>
       <use xlink:href="#DejaVuSans-30"/>
      </g>
     </g>
    </g>
    <g id="xtick_2">
     <g id="line2d_2">
      <g>
       <use xlink:href="#m69a31e8706" x="101.15122" y="307.584" style="stroke: #000000; stroke-width: 0.8"/>
      </g>
     </g>
     <g id="text_2">
      <!-- 5 -->
      <g transform="translate(97.96997 322.182437) scale(0.1 -0.1)">
       <defs>
        <path id="DejaVuSans-35" d="M 691 4666 
L 3169 4666 
L 3169 4134 
L 1269 4134 
L 1269 2991 
Q 1406 3038 1543 3061 
Q 1681 3084 1819 3084 
Q 2600 3084 3056 2656 
Q 3513 2228 3513 1497 
Q 3513 744 3044 326 
Q 2575 -91 1722 -91 
Q 1428 -91 1123 -41 
Q 819 9 494 109 
L 494 744 
Q 775 591 1075 516 
Q 1375 441 1709 441 
Q 2250 441 2565 725 
Q 2881 1009 2881 1497 
Q 2881 1984 2565 2268 
Q 2250 2553 1709 2553 
Q 1456 2553 1204 2497 
Q 953 2441 691 2322 
L 691 4666 
z
" transform="scale(0.015625)"/>
       </defs>
       <use xlink:href="#DejaVuSans-35"/>
      </g>
     </g>
    </g>
    <g id="xtick_3">
     <g id="line2d_3">
      <g>
       <use xlink:href="#m69a31e8706" x="144.702439" y="307.584" style="stroke: #000000; stroke-width: 0.8"/>
      </g>
     </g>
     <g id="text_3">
      <!-- 10 -->
      <g transform="translate(138.339939 322.182437) scale(0.1 -0.1)">
       <defs>
        <path id="DejaVuSans-31" d="M 794 531 
L 1825 531 
L 1825 4091 
L 703 3866 
L 703 4441 
L 1819 4666 
L 2450 4666 
L 2450 531 
L 3481 531 
L 3481 0 
L 794 0 
L 794 531 
z
" transform="scale(0.015625)"/>
       </defs>
       <use xlink:href="#DejaVuSans-31"/>
       <use xlink:href="#DejaVuSans-30" transform="translate(63.623047 0)"/>
      </g>
     </g>
    </g>
    <g id="xtick_4">
     <g id="line2d_4">
      <g>
       <use xlink:href="#m69a31e8706" x="188.253659" y="307.584" style="stroke: #000000; stroke-width: 0.8"/>
      </g>
     </g>
     <g id="text_4">
      <!-- 15 -->
      <g transform="translate(181.891159 322.182437) scale(0.1 -0.1)">
       <use xlink:href="#DejaVuSans-31"/>
       <use xlink:href="#DejaVuSans-35" transform="translate(63.623047 0)"/>
      </g>
     </g>
    </g>
    <g id="xtick_5">
     <g id="line2d_5">
      <g>
       <use xlink:href="#m69a31e8706" x="231.804878" y="307.584" style="stroke: #000000; stroke-width: 0.8"/>
      </g>
     </g>
     <g id="text_5">
      <!-- 20 -->
      <g transform="translate(225.442378 322.182437) scale(0.1 -0.1)">
       <defs>
        <path id="DejaVuSans-32" d="M 1228 531 
L 3431 531 
L 3431 0 
L 469 0 
L 469 531 
Q 828 903 1448 1529 
Q 2069 2156 2228 2338 
Q 2531 2678 2651 2914 
Q 2772 3150 2772 3378 
Q 2772 3750 2511 3984 
Q 2250 4219 1831 4219 
Q 1534 4219 1204 4116 
Q 875 4013 500 3803 
L 500 4441 
Q 881 4594 1212 4672 
Q 1544 4750 1819 4750 
Q 2544 4750 2975 4387 
Q 3406 4025 3406 3419 
Q 3406 3131 3298 2873 
Q 3191 2616 2906 2266 
Q 2828 2175 2409 1742 
Q 1991 1309 1228 531 
z
" transform="scale(0.015625)"/>
       </defs>
       <use xlink:href="#DejaVuSans-32"/>
       <use xlink:href="#DejaVuSans-30" transform="translate(63.623047 0)"/>
      </g>
     </g>
    </g>
    <g id="xtick_6">
     <g id="line2d_6">
      <g>
       <use xlink:href="#m69a31e8706" x="275.356098" y="307.584" style="stroke: #000000; stroke-width: 0.8"/>
      </g>
     </g>
     <g id="text_6">
      <!-- 25 -->
      <g transform="translate(268.993598 322.182437) scale(0.1 -0.1)">
       <use xlink:href="#DejaVuSans-32"/>
       <use xlink:href="#DejaVuSans-35" transform="translate(63.623047 0)"/>
      </g>
     </g>
    </g>
    <g id="xtick_7">
     <g id="line2d_7">
      <g>
       <use xlink:href="#m69a31e8706" x="318.907317" y="307.584" style="stroke: #000000; stroke-width: 0.8"/>
      </g>
     </g>
     <g id="text_7">
      <!-- 30 -->
      <g transform="translate(312.544817 322.182437) scale(0.1 -0.1)">
       <defs>
        <path id="DejaVuSans-33" d="M 2597 2516 
Q 3050 2419 3304 2112 
Q 3559 1806 3559 1356 
Q 3559 666 3084 287 
Q 2609 -91 1734 -91 
Q 1441 -91 1130 -33 
Q 819 25 488 141 
L 488 750 
Q 750 597 1062 519 
Q 1375 441 1716 441 
Q 2309 441 2620 675 
Q 2931 909 2931 1356 
Q 2931 1769 2642 2001 
Q 2353 2234 1838 2234 
L 1294 2234 
L 1294 2753 
L 1863 2753 
Q 2328 2753 2575 2939 
Q 2822 3125 2822 3475 
Q 2822 3834 2567 4026 
Q 2313 4219 1838 4219 
Q 1578 4219 1281 4162 
Q 984 4106 628 3988 
L 628 4550 
Q 988 4650 1302 4700 
Q 1616 4750 1894 4750 
Q 2613 4750 3031 4423 
Q 3450 4097 3450 3541 
Q 3450 3153 3228 2886 
Q 3006 2619 2597 2516 
z
" transform="scale(0.015625)"/>
       </defs>
       <use xlink:href="#DejaVuSans-33"/>
       <use xlink:href="#DejaVuSans-30" transform="translate(63.623047 0)"/>
      </g>
     </g>
    </g>
    <g id="xtick_8">
     <g id="line2d_8">
      <g>
       <use xlink:href="#m69a31e8706" x="362.458537" y="307.584" style="stroke: #000000; stroke-width: 0.8"/>
      </g>
     </g>
     <g id="text_8">
      <!-- 35 -->
      <g transform="translate(356.096037 322.182437) scale(0.1 -0.1)">
       <use xlink:href="#DejaVuSans-33"/>
       <use xlink:href="#DejaVuSans-35" transform="translate(63.623047 0)"/>
      </g>
     </g>
    </g>
    <g id="xtick_9">
     <g id="line2d_9">
      <g>
       <use xlink:href="#m69a31e8706" x="406.009756" y="307.584" style="stroke: #000000; stroke-width: 0.8"/>
      </g>
     </g>
     <g id="text_9">
      <!-- 40 -->
      <g transform="translate(399.647256 322.182437) scale(0.1 -0.1)">
       <defs>
        <path id="DejaVuSans-34" d="M 2419 4116 
L 825 1625 
L 2419 1625 
L 2419 4116 
z
M 2253 4666 
L 3047 4666 
L 3047 1625 
L 3713 1625 
L 3713 1100 
L 3047 1100 
L 3047 0 
L 2419 0 
L 2419 1100 
L 313 1100 
L 313 1709 
L 2253 4666 
z
" transform="scale(0.015625)"/>
       </defs>
       <use xlink:href="#DejaVuSans-34"/>
       <use xlink:href="#DejaVuSans-30" transform="translate(63.623047 0)"/>
      </g>
     </g>
    </g>
    <g id="text_10">
     <!-- Generation -->
     <g transform="translate(208.267031 335.860562) scale(0.1 -0.1)">
      <defs>
       <path id="DejaVuSans-47" d="M 3809 666 
L 3809 1919 
L 2778 1919 
L 2778 2438 
L 4434 2438 
L 4434 434 
Q 4069 175 3628 42 
Q 3188 -91 2688 -91 
Q 1594 -91 976 548 
Q 359 1188 359 2328 
Q 359 3472 976 4111 
Q 1594 4750 2688 4750 
Q 3144 4750 3555 4637 
Q 3966 4525 4313 4306 
L 4313 3634 
Q 3963 3931 3569 4081 
Q 3175 4231 2741 4231 
Q 1884 4231 1454 3753 
Q 1025 3275 1025 2328 
Q 1025 1384 1454 906 
Q 1884 428 2741 428 
Q 3075 428 3337 486 
Q 3600 544 3809 666 
z
" transform="scale(0.015625)"/>
       <path id="DejaVuSans-65" d="M 3597 1894 
L 3597 1613 
L 953 1613 
Q 991 1019 1311 708 
Q 1631 397 2203 397 
Q 2534 397 2845 478 
Q 3156 559 3463 722 
L 3463 178 
Q 3153 47 2828 -22 
Q 2503 -91 2169 -91 
Q 1331 -91 842 396 
Q 353 884 353 1716 
Q 353 2575 817 3079 
Q 1281 3584 2069 3584 
Q 2775 3584 3186 3129 
Q 3597 2675 3597 1894 
z
M 3022 2063 
Q 3016 2534 2758 2815 
Q 2500 3097 2075 3097 
Q 1594 3097 1305 2825 
Q 1016 2553 972 2059 
L 3022 2063 
z
" transform="scale(0.015625)"/>
       <path id="DejaVuSans-6e" d="M 3513 2113 
L 3513 0 
L 2938 0 
L 2938 2094 
Q 2938 2591 2744 2837 
Q 2550 3084 2163 3084 
Q 1697 3084 1428 2787 
Q 1159 2491 1159 1978 
L 1159 0 
L 581 0 
L 581 3500 
L 1159 3500 
L 1159 2956 
Q 1366 3272 1645 3428 
Q 1925 3584 2291 3584 
Q 2894 3584 3203 3211 
Q 3513 2838 3513 2113 
z
" transform="scale(0.015625)"/>
       <path id="DejaVuSans-72" d="M 2631 2963 
Q 2534 3019 2420 3045 
Q 2306 3072 2169 3072 
Q 1681 3072 1420 2755 
Q 1159 2438 1159 1844 
L 1159 0 
L 581 0 
L 581 3500 
L 1159 3500 
L 1159 2956 
Q 1341 3275 1631 3429 
Q 1922 3584 2338 3584 
Q 2397 3584 2469 3576 
Q 2541 3569 2628 3553 
L 2631 2963 
z
" transform="scale(0.015625)"/>
       <path id="DejaVuSans-61" d="M 2194 1759 
Q 1497 1759 1228 1600 
Q 959 1441 959 1056 
Q 959 750 1161 570 
Q 1363 391 1709 391 
Q 2188 391 2477 730 
Q 2766 1069 2766 1631 
L 2766 1759 
L 2194 1759 
z
M 3341 1997 
L 3341 0 
L 2766 0 
L 2766 531 
Q 2569 213 2275 61 
Q 1981 -91 1556 -91 
Q 1019 -91 701 211 
Q 384 513 384 1019 
Q 384 1609 779 1909 
Q 1175 2209 1959 2209 
L 2766 2209 
L 2766 2266 
Q 2766 2663 2505 2880 
Q 2244 3097 1772 3097 
Q 1472 3097 1187 3025 
Q 903 2953 641 2809 
L 641 3341 
Q 956 3463 1253 3523 
Q 1550 3584 1831 3584 
Q 2591 3584 2966 3190 
Q 3341 2797 3341 1997 
z
" transform="scale(0.015625)"/>
       <path id="DejaVuSans-74" d="M 1172 4494 
L 1172 3500 
L 2356 3500 
L 2356 3053 
L 1172 3053 
L 1172 1153 
Q 1172 725 1289 603 
Q 1406 481 1766 481 
L 2356 481 
L 2356 0 
L 1766 0 
Q 1100 0 847 248 
Q 594 497 594 1153 
L 594 3053 
L 172 3053 
L 172 3500 
L 594 3500 
L 594 4494 
L 1172 4494 
z
" transform="scale(0.015625)"/>
       <path id="DejaVuSans-69" d="M 603 3500 
L 1178 3500 
L 1178 0 
L 603 0 
L 603 3500 
z
M 603 4863 
L 1178 4863 
L 1178 4134 
L 603 4134 
L 603 4863 
z
" transform="scale(0.015625)"/>
       <path id="DejaVuSans-6f" d="M 1959 3097 
Q 1497 3097 1228 2736 
Q 959 2375 959 1747 
Q 959 1119 1226 758 
Q 1494 397 1959 397 
Q 2419 397 2687 759 
Q 2956 1122 2956 1747 
Q 2956 2369 2687 2733 
Q 2419 3097 1959 3097 
z
M 1959 3584 
Q 2709 3584 3137 3096 
Q 3566 2609 3566 1747 
Q 3566 888 3137 398 
Q 2709 -91 1959 -91 
Q 1206 -91 779 398 
Q 353 888 353 1747 
Q 353 2609 779 3096 
Q 1206 3584 1959 3584 
z
" transform="scale(0.015625)"/>
      </defs>
      <use xlink:href="#DejaVuSans-47"/>
      <use xlink:href="#DejaVuSans-65" transform="translate(77.490234 0)"/>
      <use xlink:href="#DejaVuSans-6e" transform="translate(139.013672 0)"/>
      <use xlink:href="#DejaVuSans-65" transform="translate(202.392578 0)"/>
      <use xlink:href="#DejaVuSans-72" transform="translate(263.916016 0)"/>
      <use xlink:href="#DejaVuSans-61" transform="translate(305.029297 0)"/>
      <use xlink:href="#DejaVuSans-74" transform="translate(366.308594 0)"/>
      <use xlink:href="#DejaVuSans-69" transform="translate(405.517578 0)"/>
      <use xlink:href="#DejaVuSans-6f" transform="translate(433.300781 0)"/>
      <use xlink:href="#DejaVuSans-6e" transform="translate(494.482422 0)"/>
     </g>
    </g>
   </g>
   <g id="matplotlib.axis_2">
    <g id="ytick_1">
     <g id="line2d_10">
      <defs>
       <path id="m46f3f8b26f" d="M 0 0 
L -3.5 0 
" style="stroke: #000000; stroke-width: 0.8"/>
      </defs>
      <g>
       <use xlink:href="#m46f3f8b26f" x="57.6" y="307.584" style="stroke: #000000; stroke-width: 0.8"/>
      </g>
     </g>
     <g id="text_11">
      <!-- 0 -->
      <g transform="translate(44.2375 311.383219) scale(0.1 -0.1)">
       <use xlink:href="#DejaVuSans-30"/>
      </g>
     </g>
    </g>
    <g id="ytick_2">
     <g id="line2d_11">
      <g>
       <use xlink:href="#m46f3f8b26f" x="57.6" y="257.086727" style="stroke: #000000; stroke-width: 0.8"/>
      </g>
     </g>
     <g id="text_12">
      <!-- 2 -->
      <g transform="translate(44.2375 260.885946) scale(0.1 -0.1)">
       <use xlink:href="#DejaVuSans-32"/>
      </g>
     </g>
    </g>
    <g id="ytick_3">
     <g id="line2d_12">
      <g>
       <use xlink:href="#m46f3f8b26f" x="57.6" y="206.589454" style="stroke: #000000; stroke-width: 0.8"/>
      </g>
     </g>
     <g id="text_13">
      <!-- 4 -->
      <g transform="translate(44.2375 210.388673) scale(0.1 -0.1)">
       <use xlink:href="#DejaVuSans-34"/>
      </g>
     </g>
    </g>
    <g id="ytick_4">
     <g id="line2d_13">
      <g>
       <use xlink:href="#m46f3f8b26f" x="57.6" y="156.092181" style="stroke: #000000; stroke-width: 0.8"/>
      </g>
     </g>
     <g id="text_14">
      <!-- 6 -->
      <g transform="translate(44.2375 159.891399) scale(0.1 -0.1)">
       <defs>
        <path id="DejaVuSans-36" d="M 2113 2584 
Q 1688 2584 1439 2293 
Q 1191 2003 1191 1497 
Q 1191 994 1439 701 
Q 1688 409 2113 409 
Q 2538 409 2786 701 
Q 3034 994 3034 1497 
Q 3034 2003 2786 2293 
Q 2538 2584 2113 2584 
z
M 3366 4563 
L 3366 3988 
Q 3128 4100 2886 4159 
Q 2644 4219 2406 4219 
Q 1781 4219 1451 3797 
Q 1122 3375 1075 2522 
Q 1259 2794 1537 2939 
Q 1816 3084 2150 3084 
Q 2853 3084 3261 2657 
Q 3669 2231 3669 1497 
Q 3669 778 3244 343 
Q 2819 -91 2113 -91 
Q 1303 -91 875 529 
Q 447 1150 447 2328 
Q 447 3434 972 4092 
Q 1497 4750 2381 4750 
Q 2619 4750 2861 4703 
Q 3103 4656 3366 4563 
z
" transform="scale(0.015625)"/>
       </defs>
       <use xlink:href="#DejaVuSans-36"/>
      </g>
     </g>
    </g>
    <g id="ytick_5">
     <g id="line2d_14">
      <g>
       <use xlink:href="#m46f3f8b26f" x="57.6" y="105.594908" style="stroke: #000000; stroke-width: 0.8"/>
      </g>
     </g>
     <g id="text_15">
      <!-- 8 -->
      <g transform="translate(44.2375 109.394126) scale(0.1 -0.1)">
       <defs>
        <path id="DejaVuSans-38" d="M 2034 2216 
Q 1584 2216 1326 1975 
Q 1069 1734 1069 1313 
Q 1069 891 1326 650 
Q 1584 409 2034 409 
Q 2484 409 2743 651 
Q 3003 894 3003 1313 
Q 3003 1734 2745 1975 
Q 2488 2216 2034 2216 
z
M 1403 2484 
Q 997 2584 770 2862 
Q 544 3141 544 3541 
Q 544 4100 942 4425 
Q 1341 4750 2034 4750 
Q 2731 4750 3128 4425 
Q 3525 4100 3525 3541 
Q 3525 3141 3298 2862 
Q 3072 2584 2669 2484 
Q 3125 2378 3379 2068 
Q 3634 1759 3634 1313 
Q 3634 634 3220 271 
Q 2806 -91 2034 -91 
Q 1263 -91 848 271 
Q 434 634 434 1313 
Q 434 1759 690 2068 
Q 947 2378 1403 2484 
z
M 1172 3481 
Q 1172 3119 1398 2916 
Q 1625 2713 2034 2713 
Q 2441 2713 2670 2916 
Q 2900 3119 2900 3481 
Q 2900 3844 2670 4047 
Q 2441 4250 2034 4250 
Q 1625 4250 1398 4047 
Q 1172 3844 1172 3481 
z
" transform="scale(0.015625)"/>
       </defs>
       <use xlink:href="#DejaVuSans-38"/>
      </g>
     </g>
    </g>
    <g id="ytick_6">
     <g id="line2d_15">
      <g>
       <use xlink:href="#m46f3f8b26f" x="57.6" y="55.097635" style="stroke: #000000; stroke-width: 0.8"/>
      </g>
     </g>
     <g id="text_16">
      <!-- 10 -->
      <g transform="translate(37.875 58.896853) scale(0.1 -0.1)">
       <use xlink:href="#DejaVuSans-31"/>
       <use xlink:href="#DejaVuSans-30" transform="translate(63.623047 0)"/>
      </g>
     </g>
    </g>
    <g id="text_17">
     <!-- Average Fitness -->
     <g transform="translate(31.795312 213.967062) rotate(-90) scale(0.1 -0.1)">
      <defs>
       <path id="DejaVuSans-41" d="M 2188 4044 
L 1331 1722 
L 3047 1722 
L 2188 4044 
z
M 1831 4666 
L 2547 4666 
L 4325 0 
L 3669 0 
L 3244 1197 
L 1141 1197 
L 716 0 
L 50 0 
L 1831 4666 
z
" transform="scale(0.015625)"/>
       <path id="DejaVuSans-76" d="M 191 3500 
L 800 3500 
L 1894 563 
L 2988 3500 
L 3597 3500 
L 2284 0 
L 1503 0 
L 191 3500 
z
" transform="scale(0.015625)"/>
       <path id="DejaVuSans-67" d="M 2906 1791 
Q 2906 2416 2648 2759 
Q 2391 3103 1925 3103 
Q 1463 3103 1205 2759 
Q 947 2416 947 1791 
Q 947 1169 1205 825 
Q 1463 481 1925 481 
Q 2391 481 2648 825 
Q 2906 1169 2906 1791 
z
M 3481 434 
Q 3481 -459 3084 -895 
Q 2688 -1331 1869 -1331 
Q 1566 -1331 1297 -1286 
Q 1028 -1241 775 -1147 
L 775 -588 
Q 1028 -725 1275 -790 
Q 1522 -856 1778 -856 
Q 2344 -856 2625 -561 
Q 2906 -266 2906 331 
L 2906 616 
Q 2728 306 2450 153 
Q 2172 0 1784 0 
Q 1141 0 747 490 
Q 353 981 353 1791 
Q 353 2603 747 3093 
Q 1141 3584 1784 3584 
Q 2172 3584 2450 3431 
Q 2728 3278 2906 2969 
L 2906 3500 
L 3481 3500 
L 3481 434 
z
" transform="scale(0.015625)"/>
       <path id="DejaVuSans-20" transform="scale(0.015625)"/>
       <path id="DejaVuSans-46" d="M 628 4666 
L 3309 4666 
L 3309 4134 
L 1259 4134 
L 1259 2759 
L 3109 2759 
L 3109 2228 
L 1259 2228 
L 1259 0 
L 628 0 
L 628 4666 
z
" transform="scale(0.015625)"/>
       <path id="DejaVuSans-73" d="M 2834 3397 
L 2834 2853 
Q 2591 2978 2328 3040 
Q 2066 3103 1784 3103 
Q 1356 3103 1142 2972 
Q 928 2841 928 2578 
Q 928 2378 1081 2264 
Q 1234 2150 1697 2047 
L 1894 2003 
Q 2506 1872 2764 1633 
Q 3022 1394 3022 966 
Q 3022 478 2636 193 
Q 2250 -91 1575 -91 
Q 1294 -91 989 -36 
Q 684 19 347 128 
L 347 722 
Q 666 556 975 473 
Q 1284 391 1588 391 
Q 1994 391 2212 530 
Q 2431 669 2431 922 
Q 2431 1156 2273 1281 
Q 2116 1406 1581 1522 
L 1381 1569 
Q 847 1681 609 1914 
Q 372 2147 372 2553 
Q 372 3047 722 3315 
Q 1072 3584 1716 3584 
Q 2034 3584 2315 3537 
Q 2597 3491 2834 3397 
z
" transform="scale(0.015625)"/>
      </defs>
      <use xlink:href="#DejaVuSans-41"/>
      <use xlink:href="#DejaVuSans-76" transform="translate(62.533203 0)"/>
      <use xlink:href="#DejaVuSans-65" transform="translate(121.712891 0)"/>
      <use xlink:href="#DejaVuSans-72" transform="translate(183.236328 0)"/>
      <use xlink:href="#DejaVuSans-61" transform="translate(224.349609 0)"/>
      <use xlink:href="#DejaVuSans-67" transform="translate(285.628906 0)"/>
      <use xlink:href="#DejaVuSans-65" transform="translate(349.105469 0)"/>
      <use xlink:href="#DejaVuSans-20" transform="translate(410.628906 0)"/>
      <use xlink:href="#DejaVuSans-46" transform="translate(442.416016 0)"/>
      <use xlink:href="#DejaVuSans-69" transform="translate(492.685547 0)"/>
      <use xlink:href="#DejaVuSans-74" transform="translate(520.46875 0)"/>
      <use xlink:href="#DejaVuSans-6e" transform="translate(559.677734 0)"/>
      <use xlink:href="#DejaVuSans-65" transform="translate(623.056641 0)"/>
      <use xlink:href="#DejaVuSans-73" transform="translate(684.580078 0)"/>
      <use xlink:href="#DejaVuSans-73" transform="translate(736.679688 0)"/>
     </g>
    </g>
   </g>
   <g id="line2d_16">
    <path d="M 57.6 178.989289 
L 66.310244 160.646806 
L 75.020488 160.188036 
L 83.730732 160.188036 
L 92.440976 146.914493 
L 101.15122 144.302729 
L 109.861463 143.369353 
L 118.571707 142.422292 
L 127.281951 141.825981 
L 135.992195 141.825981 
L 144.702439 129.454921 
L 153.412683 129.454921 
L 162.122927 100.17402 
L 170.833171 100.17402 
L 179.543415 99.19632 
L 188.253659 99.19632 
L 196.963902 99.19632 
L 205.674146 97.373958 
L 214.38439 97.373958 
L 223.094634 97.373958 
L 231.804878 97.373958 
L 240.515122 97.373958 
L 249.225366 97.373958 
L 257.93561 97.373958 
L 266.645854 97.373958 
L 275.356098 97.373958 
L 284.066341 97.373958 
L 292.776585 96.520941 
L 301.486829 87.910715 
L 310.197073 87.910715 
L 318.907317 87.910715 
L 327.617561 87.910715 
L 336.327805 87.910715 
L 345.038049 87.910715 
L 353.748293 85.481782 
L 362.458537 85.481782 
L 371.16878 77.177942 
L 379.879024 77.177942 
L 388.589268 77.177942 
L 397.299512 77.177942 
L 406.009756 77.177942 
" clip-path="url(#p2318512f87)" style="fill: none; stroke: #e71515; stroke-width: 1.5; stroke-linecap: square"/>
   </g>
   <g id="line2d_17">
    <path d="M 57.6 284.751772 
L 66.310244 277.76992 
L 75.020488 274.772552 
L 83.730732 272.147314 
L 92.440976 268.685289 
L 101.15122 265.362363 
L 109.861463 262.851882 
L 118.571707 260.844269 
L 127.281951 258.415824 
L 135.992195 256.526912 
L 144.702439 253.391496 
L 153.412683 251.454555 
L 162.122927 248.06142 
L 170.833171 246.226893 
L 179.543415 244.617691 
L 188.253659 243.204598 
L 196.963902 242.220932 
L 205.674146 240.917788 
L 214.38439 239.932754 
L 223.094634 238.582196 
L 231.804878 237.922398 
L 240.515122 236.28031 
L 249.225366 235.575115 
L 257.93561 234.391797 
L 266.645854 233.571283 
L 275.356098 232.757595 
L 284.066341 231.681884 
L 292.776585 229.889607 
L 301.486829 227.679685 
L 310.197073 226.690068 
L 318.907317 225.539867 
L 327.617561 224.071677 
L 336.327805 222.577579 
L 345.038049 220.976689 
L 353.748293 217.626661 
L 362.458537 216.467101 
L 371.16878 214.628763 
L 379.879024 213.458922 
L 388.589268 212.33411 
L 397.299512 211.295599 
L 406.009756 209.964275 
" clip-path="url(#p2318512f87)" style="fill: none; stroke: #c82828; stroke-width: 1.5; stroke-linecap: square"/>
   </g>
   <g id="line2d_18">
    <path d="M 57.6 228.557451 
L 66.310244 208.079296 
L 75.020488 192.663767 
L 83.730732 178.972614 
L 92.440976 170.260197 
L 101.15122 167.012461 
L 109.861463 164.369458 
L 118.571707 156.029785 
L 127.281951 156.029785 
L 135.992195 156.029785 
L 144.702439 156.029785 
L 153.412683 139.636607 
L 162.122927 139.636607 
L 170.833171 138.401942 
L 179.543415 134.804682 
L 188.253659 134.804682 
L 196.963902 134.804682 
L 205.674146 134.804682 
L 214.38439 134.804682 
L 223.094634 134.804682 
L 231.804878 134.804682 
L 240.515122 134.804682 
L 249.225366 134.321116 
L 257.93561 134.321116 
L 266.645854 134.321116 
L 275.356098 134.321116 
L 284.066341 132.993964 
L 292.776585 129.427046 
L 301.486829 126.34407 
L 310.197073 126.34407 
L 318.907317 126.34407 
L 327.617561 126.34407 
L 336.327805 126.34407 
L 345.038049 123.115199 
L 353.748293 123.115199 
L 362.458537 123.115199 
L 371.16878 123.115199 
L 379.879024 123.115199 
L 388.589268 122.200986 
L 397.299512 119.997675 
L 406.009756 119.997675 
" clip-path="url(#p2318512f87)" style="fill: none; stroke-dasharray: 5.55,2.4; stroke-dashoffset: 0; stroke: #2555e5; stroke-width: 1.5"/>
   </g>
   <g id="line2d_19">
    <path d="M 57.6 285.611545 
L 66.310244 279.702345 
L 75.020488 274.528127 
L 83.730732 269.659806 
L 92.440976 265.547779 
L 101.15122 263.161198 
L 109.861463 260.230325 
L 118.571707 258.122733 
L 127.281951 256.103112 
L 135.992195 253.949081 
L 144.702439 251.837129 
L 153.412683 248.112536 
L 162.122927 246.665774 
L 170.833171 245.239778 
L 179.543415 242.016802 
L 188.253659 240.265331 
L 196.963902 238.343001 
L 205.674146 236.040754 
L 214.38439 234.872772 
L 223.094634 232.991997 
L 231.804878 231.297434 
L 240.515122 230.581737 
L 249.225366 228.862733 
L 257.93561 227.460896 
L 266.645854 226.909484 
L 275.356098 225.654463 
L 284.066341 224.070908 
L 292.776585 223.025202 
L 301.486829 221.567665 
L 310.197073 220.379034 
L 318.907317 218.866908 
L 327.617561 217.780563 
L 336.327805 216.566761 
L 345.038049 215.423234 
L 353.748293 214.464105 
L 362.458537 213.872923 
L 371.16878 213.217548 
L 379.879024 211.449448 
L 388.589268 210.403577 
L 397.299512 209.265878 
L 406.009756 208.179605 
" clip-path="url(#p2318512f87)" style="fill: none; stroke-dasharray: 5.55,2.4; stroke-dashoffset: 0; stroke: #3131b9; stroke-width: 1.5"/>
   </g>
   <g id="patch_3">
    <path d="M 57.6 307.584 
L 57.6 41.472 
" style="fill: none; stroke: #000000; stroke-width: 0.8; stroke-linejoin: miter; stroke-linecap: square"/>
   </g>
   <g id="patch_4">
    <path d="M 414.72 307.584 
L 414.72 41.472 
" style="fill: none; stroke: #000000; stroke-width: 0.8; stroke-linejoin: miter; stroke-linecap: square"/>
   </g>
   <g id="patch_5">
    <path d="M 57.6 307.584 
L 414.72 307.584 
" style="fill: none; stroke: #000000; stroke-width: 0.8; stroke-linejoin: miter; stroke-linecap: square"/>
   </g>
   <g id="patch_6">
    <path d="M 57.6 41.472 
L 414.72 41.472 
" style="fill: none; stroke: #000000; stroke-width: 0.8; stroke-linejoin: miter; stroke-linecap: square"/>
   </g>
   <g id="legend_1">
    <g id="patch_7">
     <path d="M 292.012188 302.584 
L 407.72 302.584 
Q 409.72 302.584 409.72 300.584 
L 409.72 242.8715 
Q 409.72 240.8715 407.72 240.8715 
L 292.012188 240.8715 
Q 290.012188 240.8715 290.012188 242.8715 
L 290.012188 300.584 
Q 290.012188 302.584 292.012188 302.584 
z
" style="fill: #ffffff; opacity: 0.8; stroke: #cccccc; stroke-linejoin: miter"/>
    </g>
    <g id="line2d_20">
     <path d="M 294.012188 248.969937 
L 304.012188 248.969937 
L 314.012188 248.969937 
" style="fill: none; stroke: #e71515; stroke-width: 1.5; stroke-linecap: square"/>
    </g>
    <g id="text_18">
     <!-- Sequential -->
     <g transform="translate(322.012188 252.469937) scale(0.1 -0.1)">
      <defs>
       <path id="DejaVuSans-53" d="M 3425 4513 
L 3425 3897 
Q 3066 4069 2747 4153 
Q 2428 4238 2131 4238 
Q 1616 4238 1336 4038 
Q 1056 3838 1056 3469 
Q 1056 3159 1242 3001 
Q 1428 2844 1947 2747 
L 2328 2669 
Q 3034 2534 3370 2195 
Q 3706 1856 3706 1288 
Q 3706 609 3251 259 
Q 2797 -91 1919 -91 
Q 1588 -91 1214 -16 
Q 841 59 441 206 
L 441 856 
Q 825 641 1194 531 
Q 1563 422 1919 422 
Q 2459 422 2753 634 
Q 3047 847 3047 1241 
Q 3047 1584 2836 1778 
Q 2625 1972 2144 2069 
L 1759 2144 
Q 1053 2284 737 2584 
Q 422 2884 422 3419 
Q 422 4038 858 4394 
Q 1294 4750 2059 4750 
Q 2388 4750 2728 4690 
Q 3069 4631 3425 4513 
z
" transform="scale(0.015625)"/>
       <path id="DejaVuSans-71" d="M 947 1747 
Q 947 1113 1208 752 
Q 1469 391 1925 391 
Q 2381 391 2643 752 
Q 2906 1113 2906 1747 
Q 2906 2381 2643 2742 
Q 2381 3103 1925 3103 
Q 1469 3103 1208 2742 
Q 947 2381 947 1747 
z
M 2906 525 
Q 2725 213 2448 61 
Q 2172 -91 1784 -91 
Q 1150 -91 751 415 
Q 353 922 353 1747 
Q 353 2572 751 3078 
Q 1150 3584 1784 3584 
Q 2172 3584 2448 3432 
Q 2725 3281 2906 2969 
L 2906 3500 
L 3481 3500 
L 3481 -1331 
L 2906 -1331 
L 2906 525 
z
" transform="scale(0.015625)"/>
       <path id="DejaVuSans-75" d="M 544 1381 
L 544 3500 
L 1119 3500 
L 1119 1403 
Q 1119 906 1312 657 
Q 1506 409 1894 409 
Q 2359 409 2629 706 
Q 2900 1003 2900 1516 
L 2900 3500 
L 3475 3500 
L 3475 0 
L 2900 0 
L 2900 538 
Q 2691 219 2414 64 
Q 2138 -91 1772 -91 
Q 1169 -91 856 284 
Q 544 659 544 1381 
z
M 1991 3584 
L 1991 3584 
z
" transform="scale(0.015625)"/>
       <path id="DejaVuSans-6c" d="M 603 4863 
L 1178 4863 
L 1178 0 
L 603 0 
L 603 4863 
z
" transform="scale(0.015625)"/>
      </defs>
      <use xlink:href="#DejaVuSans-53"/>
      <use xlink:href="#DejaVuSans-65" transform="translate(63.476562 0)"/>
      <use xlink:href="#DejaVuSans-71" transform="translate(125 0)"/>
      <use xlink:href="#DejaVuSans-75" transform="translate(188.476562 0)"/>
      <use xlink:href="#DejaVuSans-65" transform="translate(251.855469 0)"/>
      <use xlink:href="#DejaVuSans-6e" transform="translate(313.378906 0)"/>
      <use xlink:href="#DejaVuSans-74" transform="translate(376.757812 0)"/>
      <use xlink:href="#DejaVuSans-69" transform="translate(415.966797 0)"/>
      <use xlink:href="#DejaVuSans-61" transform="translate(443.75 0)"/>
      <use xlink:href="#DejaVuSans-6c" transform="translate(505.029297 0)"/>
     </g>
    </g>
    <g id="line2d_21">
     <path d="M 294.012188 263.648062 
L 304.012188 263.648062 
L 314.012188 263.648062 
" style="fill: none; stroke: #c82828; stroke-width: 1.5; stroke-linecap: square"/>
    </g>
    <g id="text_19">
     <!-- Sequential Mean -->
     <g transform="translate(322.012188 267.148062) scale(0.1 -0.1)">
      <defs>
       <path id="DejaVuSans-4d" d="M 628 4666 
L 1569 4666 
L 2759 1491 
L 3956 4666 
L 4897 4666 
L 4897 0 
L 4281 0 
L 4281 4097 
L 3078 897 
L 2444 897 
L 1241 4097 
L 1241 0 
L 628 0 
L 628 4666 
z
" transform="scale(0.015625)"/>
      </defs>
      <use xlink:href="#DejaVuSans-53"/>
      <use xlink:href="#DejaVuSans-65" transform="translate(63.476562 0)"/>
      <use xlink:href="#DejaVuSans-71" transform="translate(125 0)"/>
      <use xlink:href="#DejaVuSans-75" transform="translate(188.476562 0)"/>
      <use xlink:href="#DejaVuSans-65" transform="translate(251.855469 0)"/>
      <use xlink:href="#DejaVuSans-6e" transform="translate(313.378906 0)"/>
      <use xlink:href="#DejaVuSans-74" transform="translate(376.757812 0)"/>
      <use xlink:href="#DejaVuSans-69" transform="translate(415.966797 0)"/>
      <use xlink:href="#DejaVuSans-61" transform="translate(443.75 0)"/>
      <use xlink:href="#DejaVuSans-6c" transform="translate(505.029297 0)"/>
      <use xlink:href="#DejaVuSans-20" transform="translate(532.8125 0)"/>
      <use xlink:href="#DejaVuSans-4d" transform="translate(564.599609 0)"/>
      <use xlink:href="#DejaVuSans-65" transform="translate(650.878906 0)"/>
      <use xlink:href="#DejaVuSans-61" transform="translate(712.402344 0)"/>
      <use xlink:href="#DejaVuSans-6e" transform="translate(773.681641 0)"/>
     </g>
    </g>
    <g id="line2d_22">
     <path d="M 294.012188 278.326187 
L 304.012188 278.326187 
L 314.012188 278.326187 
" style="fill: none; stroke-dasharray: 5.55,2.4; stroke-dashoffset: 0; stroke: #2555e5; stroke-width: 1.5"/>
    </g>
    <g id="text_20">
     <!-- Parallel -->
     <g transform="translate(322.012188 281.826187) scale(0.1 -0.1)">
      <defs>
       <path id="DejaVuSans-50" d="M 1259 4147 
L 1259 2394 
L 2053 2394 
Q 2494 2394 2734 2622 
Q 2975 2850 2975 3272 
Q 2975 3691 2734 3919 
Q 2494 4147 2053 4147 
L 1259 4147 
z
M 628 4666 
L 2053 4666 
Q 2838 4666 3239 4311 
Q 3641 3956 3641 3272 
Q 3641 2581 3239 2228 
Q 2838 1875 2053 1875 
L 1259 1875 
L 1259 0 
L 628 0 
L 628 4666 
z
" transform="scale(0.015625)"/>
      </defs>
      <use xlink:href="#DejaVuSans-50"/>
      <use xlink:href="#DejaVuSans-61" transform="translate(55.802734 0)"/>
      <use xlink:href="#DejaVuSans-72" transform="translate(117.082031 0)"/>
      <use xlink:href="#DejaVuSans-61" transform="translate(158.195312 0)"/>
      <use xlink:href="#DejaVuSans-6c" transform="translate(219.474609 0)"/>
      <use xlink:href="#DejaVuSans-6c" transform="translate(247.257812 0)"/>
      <use xlink:href="#DejaVuSans-65" transform="translate(275.041016 0)"/>
      <use xlink:href="#DejaVuSans-6c" transform="translate(336.564453 0)"/>
     </g>
    </g>
    <g id="line2d_23">
     <path d="M 294.012188 293.004312 
L 304.012188 293.004312 
L 314.012188 293.004312 
" style="fill: none; stroke-dasharray: 5.55,2.4; stroke-dashoffset: 0; stroke: #3131b9; stroke-width: 1.5"/>
    </g>
    <g id="text_21">
     <!-- Parallel Mean -->
     <g transform="translate(322.012188 296.504312) scale(0.1 -0.1)">
      <use xlink:href="#DejaVuSans-50"/>
      <use xlink:href="#DejaVuSans-61" transform="translate(55.802734 0)"/>
      <use xlink:href="#DejaVuSans-72" transform="translate(117.082031 0)"/>
      <use xlink:href="#DejaVuSans-61" transform="translate(158.195312 0)"/>
      <use xlink:href="#DejaVuSans-6c" transform="translate(219.474609 0)"/>
      <use xlink:href="#DejaVuSans-6c" transform="translate(247.257812 0)"/>
      <use xlink:href="#DejaVuSans-65" transform="translate(275.041016 0)"/>
      <use xlink:href="#DejaVuSans-6c" transform="translate(336.564453 0)"/>
      <use xlink:href="#DejaVuSans-20" transform="translate(364.347656 0)"/>
      <use xlink:href="#DejaVuSans-4d" transform="translate(396.134766 0)"/>
      <use xlink:href="#DejaVuSans-65" transform="translate(482.414062 0)"/>
      <use xlink:href="#DejaVuSans-61" transform="translate(543.9375 0)"/>
      <use xlink:href="#DejaVuSans-6e" transform="translate(605.216797 0)"/>
     </g>
    </g>
   </g>
  </g>
 </g>
 <defs>
  <clipPath id="p2318512f87">
   <rect x="57.6" y="41.472" width="357.12" height="266.112"/>
  </clipPath>
 </defs>
</svg>
