<?xml version="1.0" encoding="utf-8" standalone="no"?>
<!DOCTYPE svg PUBLIC "-//W3C//DTD SVG 1.1//EN"
  "http://www.w3.org/Graphics/SVG/1.1/DTD/svg11.dtd">
<svg xmlns:xlink="http://www.w3.org/1999/xlink" width="460.8pt" height="345.6pt" viewBox="0 0 460.8 345.6" xmlns="http://www.w3.org/2000/svg" version="1.1">
 <metadata>
  <rdf:RDF xmlns:dc="http://purl.org/dc/elements/1.1/" xmlns:cc="http://creativecommons.org/ns#" xmlns:rdf="http://www.w3.org/1999/02/22-rdf-syntax-ns#">
   <cc:Work>
    <dc:type rdf:resource="http://purl.org/dc/dcmitype/StillImage"/>
    <dc:date>2025-11-14T17:27:51.342509</dc:date>
    <dc:format>image/svg+xml</dc:format>
    <dc:creator>
     <cc:Agent>
      <dc:title>Matplotlib v3.10.0, https://matplotlib.org/</dc:title>
     </cc:Agent>
    </dc:creator>
   </cc:Work>
  </rdf:RDF>
 </metadata>
 <defs>
  <style type="text/css">*{stroke-linejoin: round; stroke-linecap: butt}</style>
 </defs>
 <g id="figure_1">
  <g id="patch_1">
   <path d="M 0 345.6 
L 460.8 345.6 
L 460.8 0 
L 0 0 
z
" style="fill: #ffffff"/>
  </g>
  <g id="axes_1">
   <g id="patch_2">
    <path d="M 57.6 307.584 
L 414.72 307.584 
L 414.72 41.472 
L 57.6 41.472 
z
" style="fill: #ffffff"/>
   </g>
   <g id="FillBetweenPolyCollection_1">
    <defs>
     <path id="mdef38ef4a4" d="M 57.6 -166.935918 
L 57.6 -142.751575 
L 65.198298 -157.319908 
L 72.796596 -157.930428 
L 80.394894 -157.930428 
L 87.993191 -162.103722 
L 95.591489 -164.82748 
L 103.189787 -165.973741 
L 110.788085 -167.18755 
L 118.386383 -167.779778 
L 125.984681 -167.779778 
L 133.582979 -179.919626 
L 141.181277 -179.919626 
L 148.779574 -204.726933 
L 156.377872 -204.726933 
L 163.97617 -205.838481 
L 171.574468 -205.838481 
L 179.172766 -205.838481 
L 186.771064 -207.358981 
L 194.369362 -207.358981 
L 201.96766 -207.358981 
L 209.565957 -207.358981 
L 217.164255 -207.358981 
L 224.762553 -207.358981 
L 232.360851 -207.358981 
L 239.959149 -207.358981 
L 247.557447 -207.358981 
L 255.155745 -207.358981 
L 262.754043 -208.306049 
L 270.35234 -218.056742 
L 277.950638 -218.056742 
L 285.548936 -218.056742 
L 293.147234 -218.056742 
L 300.745532 -218.056742 
L 308.34383 -218.056742 
L 315.942128 -218.808392 
L 323.540426 -218.808392 
L 331.138723 -225.51173 
L 338.737021 -225.51173 
L 346.335319 -225.51173 
L 353.933617 -225.51173 
L 361.531915 -225.51173 
L 369.130213 -226.184706 
L 376.728511 -232.16075 
L 384.326809 -236.725401 
L 391.925106 -236.725401 
L 399.523404 -246.536555 
L 407.121702 -246.536555 
L 407.121702 -292.356952 
L 407.121702 -292.356952 
L 399.523404 -292.356952 
L 391.925106 -276.633857 
L 384.326809 -276.633857 
L 376.728511 -273.677855 
L 369.130213 -269.550508 
L 361.531915 -269.16611 
L 353.933617 -269.16611 
L 346.335319 -269.16611 
L 338.737021 -269.16611 
L 331.138723 -269.16611 
L 323.540426 -260.781443 
L 315.942128 -260.781443 
L 308.34383 -257.119743 
L 300.745532 -257.119743 
L 293.147234 -257.119743 
L 285.548936 -257.119743 
L 277.950638 -257.119743 
L 270.35234 -257.119743 
L 262.754043 -251.225729 
L 255.155745 -250.622872 
L 247.557447 -250.622872 
L 239.959149 -250.622872 
L 232.360851 -250.622872 
L 224.762553 -250.622872 
L 217.164255 -250.622872 
L 209.565957 -250.622872 
L 201.96766 -250.622872 
L 194.369362 -250.622872 
L 186.771064 -250.622872 
L 179.172766 -248.832156 
L 171.574468 -248.832156 
L 163.97617 -248.832156 
L 156.377872 -248.167231 
L 148.779574 -248.167231 
L 141.181277 -219.771391 
L 133.582979 -219.771391 
L 125.984681 -209.433127 
L 118.386383 -209.433127 
L 110.788085 -208.941864 
L 103.189787 -208.43487 
L 95.591489 -207.885196 
L 87.993191 -205.863401 
L 80.394894 -185.91878 
L 72.796596 -185.91878 
L 65.198298 -185.695719 
L 57.6 -166.935918 
z
" style="stroke: #e71515; stroke-opacity: 0.2"/>
    </defs>
    <g clip-path="url(#p3c4fbabf66)">
     <use xlink:href="#mdef38ef4a4" x="0" y="345.6" style="fill: #e71515; fill-opacity: 0.2; stroke: #e71515; stroke-opacity: 0.2"/>
    </g>
   </g>
   <g id="FillBetweenPolyCollection_2">
    <defs>
     <path id="mf6afc9c71f" d="M 57.6 -59.768456 
L 57.6 -57.749507 
L 65.198298 -63.189911 
L 72.796596 -66.123277 
L 80.394894 -68.397773 
L 87.993191 -71.25262 
L 95.591489 -73.887511 
L 103.189787 -76.083999 
L 110.788085 -78.062663 
L 118.386383 -80.263468 
L 125.984681 -82.123638 
L 133.582979 -84.885977 
L 141.181277 -86.684423 
L 148.779574 -89.781368 
L 156.377872 -90.93268 
L 163.97617 -92.326205 
L 171.574468 -93.628714 
L 179.172766 -94.2642 
L 186.771064 -95.544041 
L 194.369362 -96.402352 
L 201.96766 -97.805295 
L 209.565957 -98.420993 
L 217.164255 -99.946778 
L 224.762553 -100.578108 
L 232.360851 -101.621331 
L 239.959149 -102.195424 
L 247.557447 -102.890589 
L 255.155745 -103.952936 
L 262.754043 -105.079677 
L 270.35234 -106.703927 
L 277.950638 -107.583871 
L 285.548936 -108.484119 
L 293.147234 -108.897555 
L 300.745532 -110.246078 
L 308.34383 -111.263756 
L 315.942128 -112.458608 
L 323.540426 -113.47707 
L 331.138723 -114.78157 
L 338.737021 -115.214642 
L 346.335319 -116.396786 
L 353.933617 -116.920818 
L 361.531915 -118.314485 
L 369.130213 -119.211392 
L 376.728511 -120.195745 
L 384.326809 -120.897812 
L 391.925106 -121.745172 
L 399.523404 -122.957006 
L 407.121702 -123.811299 
L 407.121702 -141.641578 
L 407.121702 -141.641578 
L 399.523404 -140.228462 
L 391.925106 -139.084291 
L 384.326809 -137.873042 
L 376.728511 -137.200307 
L 369.130213 -135.802308 
L 361.531915 -135.091721 
L 353.933617 -134.066384 
L 346.335319 -132.703452 
L 338.737021 -131.841822 
L 331.138723 -130.149303 
L 323.540426 -128.113559 
L 315.942128 -127.025109 
L 308.34383 -122.132989 
L 300.745532 -120.241863 
L 293.147234 -118.875624 
L 285.548936 -116.621371 
L 277.950638 -115.431713 
L 270.35234 -114.513531 
L 262.754043 -112.122371 
L 255.155745 -109.992561 
L 247.557447 -109.10035 
L 239.959149 -108.317052 
L 232.360851 -107.400276 
L 224.762553 -106.293422 
L 217.164255 -105.643419 
L 209.565957 -104.185543 
L 201.96766 -103.602394 
L 194.369362 -102.551384 
L 186.771064 -101.619898 
L 179.172766 -100.531936 
L 171.574468 -99.38011 
L 163.97617 -98.115042 
L 156.377872 -96.58466 
L 148.779574 -94.402651 
L 141.181277 -91.3343 
L 133.582979 -89.61334 
L 125.984681 -86.678656 
L 118.386383 -85.106689 
L 110.788085 -82.89503 
L 103.189787 -81.225877 
L 95.591489 -78.860844 
L 87.993191 -75.458006 
L 80.394894 -72.022384 
L 72.796596 -69.526844 
L 65.198298 -67.014019 
L 57.6 -59.768456 
z
" style="stroke: #c82828; stroke-opacity: 0.2"/>
    </defs>
    <g clip-path="url(#p3c4fbabf66)">
     <use xlink:href="#mf6afc9c71f" x="0" y="345.6" style="fill: #c82828; fill-opacity: 0.2; stroke: #c82828; stroke-opacity: 0.2"/>
    </g>
   </g>
   <g id="FillBetweenPolyCollection_3">
    <defs>
     <path id="madec111f09" d="M 57.6 -116.448342 
L 57.6 -103.174222 
L 65.198298 -110.014191 
L 72.796596 -123.928926 
L 80.394894 -137.924526 
L 87.993191 -146.566054 
L 95.591489 -150.588273 
L 103.189787 -153.041283 
L 110.788085 -160.780892 
L 118.386383 -160.780892 
L 125.984681 -160.780892 
L 133.582979 -160.780892 
L 141.181277 -174.118709 
L 148.779574 -174.118709 
L 156.377872 -175.254394 
L 163.97617 -180.099546 
L 171.574468 -180.099546 
L 179.172766 -180.099546 
L 186.771064 -180.099546 
L 194.369362 -180.099546 
L 201.96766 -180.099546 
L 209.565957 -180.099546 
L 217.164255 -180.099546 
L 224.762553 -180.708348 
L 232.360851 -180.708348 
L 239.959149 -180.708348 
L 247.557447 -180.708348 
L 255.155745 -182.159433 
L 262.754043 -186.402996 
L 270.35234 -189.622453 
L 277.950638 -189.622453 
L 285.548936 -189.622453 
L 293.147234 -189.622453 
L 300.745532 -189.622453 
L 308.34383 -192.358271 
L 315.942128 -192.358271 
L 323.540426 -192.358271 
L 331.138723 -192.358271 
L 338.737021 -192.358271 
L 346.335319 -193.375036 
L 353.933617 -195.419598 
L 361.531915 -195.419598 
L 369.130213 -195.419598 
L 376.728511 -195.419598 
L 384.326809 -195.419598 
L 391.925106 -195.419598 
L 399.523404 -195.419598 
L 407.121702 -198.919534 
L 407.121702 -226.344185 
L 407.121702 -226.344185 
L 399.523404 -221.455154 
L 391.925106 -221.455154 
L 384.326809 -221.455154 
L 376.728511 -221.455154 
L 369.130213 -221.455154 
L 361.531915 -221.455154 
L 353.933617 -221.455154 
L 346.335319 -219.496318 
L 338.737021 -218.851966 
L 331.138723 -218.851966 
L 323.540426 -218.851966 
L 315.942128 -218.851966 
L 308.34383 -218.851966 
L 300.745532 -215.720952 
L 293.147234 -215.720952 
L 285.548936 -215.720952 
L 277.950638 -215.720952 
L 270.35234 -215.720952 
L 262.754043 -213.33867 
L 255.155745 -211.101172 
L 247.557447 -210.140834 
L 239.959149 -210.140834 
L 232.360851 -210.140834 
L 224.762553 -210.140834 
L 217.164255 -209.871001 
L 209.565957 -209.871001 
L 201.96766 -209.871001 
L 194.369362 -209.871001 
L 186.771064 -209.871001 
L 179.172766 -209.871001 
L 171.574468 -209.871001 
L 163.97617 -209.871001 
L 156.377872 -208.179962 
L 148.779574 -207.072271 
L 141.181277 -207.072271 
L 133.582979 -190.623823 
L 125.984681 -190.623823 
L 118.386383 -190.623823 
L 110.788085 -190.623823 
L 103.189787 -183.210317 
L 95.591489 -180.861014 
L 87.993191 -178.982124 
L 80.394894 -171.793265 
L 72.796596 -160.912157 
L 65.198298 -146.817007 
L 57.6 -116.448342 
z
" style="stroke: #2555e5; stroke-opacity: 0.2"/>
    </defs>
    <g clip-path="url(#p3c4fbabf66)">
     <use xlink:href="#madec111f09" x="0" y="345.6" style="fill: #2555e5; fill-opacity: 0.2; stroke: #2555e5; stroke-opacity: 0.2"/>
    </g>
   </g>
   <g id="FillBetweenPolyCollection_4">
    <defs>
     <path id="m17edbe23be" d="M 57.6 -59.019775 
L 57.6 -56.935989 
L 65.198298 -61.638425 
L 72.796596 -66.227873 
L 80.394894 -70.490515 
L 87.993191 -73.809776 
L 95.591489 -76.271962 
L 103.189787 -78.782551 
L 110.788085 -80.793149 
L 118.386383 -82.679799 
L 125.984681 -84.475709 
L 133.582979 -86.252617 
L 141.181277 -89.744058 
L 148.779574 -91.026034 
L 156.377872 -91.957466 
L 163.97617 -95.116007 
L 171.574468 -96.639974 
L 179.172766 -98.237473 
L 186.771064 -100.077849 
L 194.369362 -101.130715 
L 201.96766 -103.013502 
L 209.565957 -104.727717 
L 217.164255 -105.280738 
L 224.762553 -106.847434 
L 232.360851 -108.183095 
L 239.959149 -108.713809 
L 247.557447 -109.803635 
L 255.155745 -111.028764 
L 262.754043 -111.930451 
L 270.35234 -113.459359 
L 277.950638 -114.649731 
L 285.548936 -115.943432 
L 293.147234 -116.796235 
L 300.745532 -117.71551 
L 308.34383 -118.872103 
L 315.942128 -119.635981 
L 323.540426 -120.165095 
L 331.138723 -120.657846 
L 338.737021 -122.025814 
L 346.335319 -122.942729 
L 353.933617 -124.045885 
L 361.531915 -124.614137 
L 369.130213 -124.931779 
L 376.728511 -125.710575 
L 384.326809 -126.135967 
L 391.925106 -126.172123 
L 399.523404 -126.716532 
L 407.121702 -127.910088 
L 407.121702 -137.217222 
L 407.121702 -137.217222 
L 399.523404 -134.927859 
L 391.925106 -134.256201 
L 384.326809 -134.219315 
L 376.728511 -133.492811 
L 369.130213 -132.597926 
L 361.531915 -132.0348 
L 353.933617 -130.629305 
L 346.335319 -129.66527 
L 338.737021 -128.681847 
L 331.138723 -126.837191 
L 323.540426 -126.139133 
L 315.942128 -125.594073 
L 308.34383 -124.615223 
L 300.745532 -123.694037 
L 293.147234 -122.407844 
L 285.548936 -121.286767 
L 277.950638 -119.832948 
L 270.35234 -118.863588 
L 262.754043 -117.744164 
L 255.155745 -116.74581 
L 247.557447 -115.093634 
L 239.959149 -113.903098 
L 232.360851 -113.431902 
L 224.762553 -112.220437 
L 217.164255 -110.663716 
L 209.565957 -109.916321 
L 201.96766 -108.55153 
L 194.369362 -107.016966 
L 186.771064 -105.947618 
L 179.172766 -103.604831 
L 171.574468 -101.709474 
L 163.97617 -100.051033 
L 156.377872 -97.353453 
L 148.779574 -95.693863 
L 141.181277 -94.347084 
L 133.582979 -91.070971 
L 125.984681 -89.010481 
L 118.386383 -86.892535 
L 110.788085 -85.10955 
L 103.189787 -83.290672 
L 95.591489 -80.475891 
L 87.993191 -78.601678 
L 80.394894 -74.449422 
L 72.796596 -69.866367 
L 65.198298 -65.054303 
L 57.6 -59.019775 
z
" style="stroke: #3131b9; stroke-opacity: 0.2"/>
    </defs>
    <g clip-path="url(#p3c4fbabf66)">
     <use xlink:href="#m17edbe23be" x="0" y="345.6" style="fill: #3131b9; fill-opacity: 0.2; stroke: #3131b9; stroke-opacity: 0.2"/>
    </g>
   </g>
   <g id="matplotlib.axis_1">
    <g id="xtick_1">
     <g id="line2d_1">
      <defs>
       <path id="m528142bd8f" d="M 0 0 
L 0 3.5 
" style="stroke: #000000; stroke-width: 0.8"/>
      </defs>
      <g>
       <use xlink:href="#m528142bd8f" x="57.6" y="307.584" style="stroke: #000000; stroke-width: 0.8"/>
      </g>
     </g>
     <g id="text_1">
      <!-- 0 -->
      <g transform="translate(54.41875 322.182437) scale(0.1 -0.1)">
       <defs>
        <path id="DejaVuSans-30" d="M 2034 4250 
Q 1547 4250 1301 3770 
Q 1056 3291 1056 2328 
Q 1056 1369 1301 889 
Q 1547 409 2034 409 
Q 2525 409 2770 889 
Q 3016 1369 3016 2328 
Q 3016 3291 2770 3770 
Q 2525 4250 2034 4250 
z
M 2034 4750 
Q 2819 4750 3233 4129 
Q 3647 3509 3647 2328 
Q 3647 1150 3233 529 
Q 2819 -91 2034 -91 
Q 1250 -91 836 529 
Q 422 1150 422 2328 
Q 422 3509 836 4129 
Q 1250 4750 2034 4750 
z
" transform="scale(0.015625)"/>
       </defs>
       <use xlink:href="#DejaVuSans-30"/>
      </g>
     </g>
    </g>
    <g id="xtick_2">
     <g id="line2d_2">
      <g>
       <use xlink:href="#m528142bd8f" x="133.582979" y="307.584" style="stroke: #000000; stroke-width: 0.8"/>
      </g>
     </g>
     <g id="text_2">
      <!-- 10 -->
      <g transform="translate(127.220479 322.182437) scale(0.1 -0.1)">
       <defs>
        <path id="DejaVuSans-31" d="M 794 531 
L 1825 531 
L 1825 4091 
L 703 3866 
L 703 4441 
L 1819 4666 
L 2450 4666 
L 2450 531 
L 3481 531 
L 3481 0 
L 794 0 
L 794 531 
z
" transform="scale(0.015625)"/>
       </defs>
       <use xlink:href="#DejaVuSans-31"/>
       <use xlink:href="#DejaVuSans-30" transform="translate(63.623047 0)"/>
      </g>
     </g>
    </g>
    <g id="xtick_3">
     <g id="line2d_3">
      <g>
       <use xlink:href="#m528142bd8f" x="209.565957" y="307.584" style="stroke: #000000; stroke-width: 0.8"/>
      </g>
     </g>
     <g id="text_3">
      <!-- 20 -->
      <g transform="translate(203.203457 322.182437) scale(0.1 -0.1)">
       <defs>
        <path id="DejaVuSans-32" d="M 1228 531 
L 3431 531 
L 3431 0 
L 469 0 
L 469 531 
Q 828 903 1448 1529 
Q 2069 2156 2228 2338 
Q 2531 2678 2651 2914 
Q 2772 3150 2772 3378 
Q 2772 3750 2511 3984 
Q 2250 4219 1831 4219 
Q 1534 4219 1204 4116 
Q 875 4013 500 3803 
L 500 4441 
Q 881 4594 1212 4672 
Q 1544 4750 1819 4750 
Q 2544 4750 2975 4387 
Q 3406 4025 3406 3419 
Q 3406 3131 3298 2873 
Q 3191 2616 2906 2266 
Q 2828 2175 2409 1742 
Q 1991 1309 1228 531 
z
" transform="scale(0.015625)"/>
       </defs>
       <use xlink:href="#DejaVuSans-32"/>
       <use xlink:href="#DejaVuSans-30" transform="translate(63.623047 0)"/>
      </g>
     </g>
    </g>
    <g id="xtick_4">
     <g id="line2d_4">
      <g>
       <use xlink:href="#m528142bd8f" x="285.548936" y="307.584" style="stroke: #000000; stroke-width: 0.8"/>
      </g>
     </g>
     <g id="text_4">
      <!-- 30 -->
      <g transform="translate(279.186436 322.182437) scale(0.1 -0.1)">
       <defs>
        <path id="DejaVuSans-33" d="M 2597 2516 
Q 3050 2419 3304 2112 
Q 3559 1806 3559 1356 
Q 3559 666 3084 287 
Q 2609 -91 1734 -91 
Q 1441 -91 1130 -33 
Q 819 25 488 141 
L 488 750 
Q 750 597 1062 519 
Q 1375 441 1716 441 
Q 2309 441 2620 675 
Q 2931 909 2931 1356 
Q 2931 1769 2642 2001 
Q 2353 2234 1838 2234 
L 1294 2234 
L 1294 2753 
L 1863 2753 
Q 2328 2753 2575 2939 
Q 2822 3125 2822 3475 
Q 2822 3834 2567 4026 
Q 2313 4219 1838 4219 
Q 1578 4219 1281 4162 
Q 984 4106 628 3988 
L 628 4550 
Q 988 4650 1302 4700 
Q 1616 4750 1894 4750 
Q 2613 4750 3031 4423 
Q 3450 4097 3450 3541 
Q 3450 3153 3228 2886 
Q 3006 2619 2597 2516 
z
" transform="scale(0.015625)"/>
       </defs>
       <use xlink:href="#DejaVuSans-33"/>
       <use xlink:href="#DejaVuSans-30" transform="translate(63.623047 0)"/>
      </g>
     </g>
    </g>
    <g id="xtick_5">
     <g id="line2d_5">
      <g>
       <use xlink:href="#m528142bd8f" x="361.531915" y="307.584" style="stroke: #000000; stroke-width: 0.8"/>
      </g>
     </g>
     <g id="text_5">
      <!-- 40 -->
      <g transform="translate(355.169415 322.182437) scale(0.1 -0.1)">
       <defs>
        <path id="DejaVuSans-34" d="M 2419 4116 
L 825 1625 
L 2419 1625 
L 2419 4116 
z
M 2253 4666 
L 3047 4666 
L 3047 1625 
L 3713 1625 
L 3713 1100 
L 3047 1100 
L 3047 0 
L 2419 0 
L 2419 1100 
L 313 1100 
L 313 1709 
L 2253 4666 
z
" transform="scale(0.015625)"/>
       </defs>
       <use xlink:href="#DejaVuSans-34"/>
       <use xlink:href="#DejaVuSans-30" transform="translate(63.623047 0)"/>
      </g>
     </g>
    </g>
    <g id="text_6">
     <!-- Generation -->
     <g transform="translate(208.267031 335.860562) scale(0.1 -0.1)">
      <defs>
       <path id="DejaVuSans-47" d="M 3809 666 
L 3809 1919 
L 2778 1919 
L 2778 2438 
L 4434 2438 
L 4434 434 
Q 4069 175 3628 42 
Q 3188 -91 2688 -91 
Q 1594 -91 976 548 
Q 359 1188 359 2328 
Q 359 3472 976 4111 
Q 1594 4750 2688 4750 
Q 3144 4750 3555 4637 
Q 3966 4525 4313 4306 
L 4313 3634 
Q 3963 3931 3569 4081 
Q 3175 4231 2741 4231 
Q 1884 4231 1454 3753 
Q 1025 3275 1025 2328 
Q 1025 1384 1454 906 
Q 1884 428 2741 428 
Q 3075 428 3337 486 
Q 3600 544 3809 666 
z
" transform="scale(0.015625)"/>
       <path id="DejaVuSans-65" d="M 3597 1894 
L 3597 1613 
L 953 1613 
Q 991 1019 1311 708 
Q 1631 397 2203 397 
Q 2534 397 2845 478 
Q 3156 559 3463 722 
L 3463 178 
Q 3153 47 2828 -22 
Q 2503 -91 2169 -91 
Q 1331 -91 842 396 
Q 353 884 353 1716 
Q 353 2575 817 3079 
Q 1281 3584 2069 3584 
Q 2775 3584 3186 3129 
Q 3597 2675 3597 1894 
z
M 3022 2063 
Q 3016 2534 2758 2815 
Q 2500 3097 2075 3097 
Q 1594 3097 1305 2825 
Q 1016 2553 972 2059 
L 3022 2063 
z
" transform="scale(0.015625)"/>
       <path id="DejaVuSans-6e" d="M 3513 2113 
L 3513 0 
L 2938 0 
L 2938 2094 
Q 2938 2591 2744 2837 
Q 2550 3084 2163 3084 
Q 1697 3084 1428 2787 
Q 1159 2491 1159 1978 
L 1159 0 
L 581 0 
L 581 3500 
L 1159 3500 
L 1159 2956 
Q 1366 3272 1645 3428 
Q 1925 3584 2291 3584 
Q 2894 3584 3203 3211 
Q 3513 2838 3513 2113 
z
" transform="scale(0.015625)"/>
       <path id="DejaVuSans-72" d="M 2631 2963 
Q 2534 3019 2420 3045 
Q 2306 3072 2169 3072 
Q 1681 3072 1420 2755 
Q 1159 2438 1159 1844 
L 1159 0 
L 581 0 
L 581 3500 
L 1159 3500 
L 1159 2956 
Q 1341 3275 1631 3429 
Q 1922 3584 2338 3584 
Q 2397 3584 2469 3576 
Q 2541 3569 2628 3553 
L 2631 2963 
z
" transform="scale(0.015625)"/>
       <path id="DejaVuSans-61" d="M 2194 1759 
Q 1497 1759 1228 1600 
Q 959 1441 959 1056 
Q 959 750 1161 570 
Q 1363 391 1709 391 
Q 2188 391 2477 730 
Q 2766 1069 2766 1631 
L 2766 1759 
L 2194 1759 
z
M 3341 1997 
L 3341 0 
L 2766 0 
L 2766 531 
Q 2569 213 2275 61 
Q 1981 -91 1556 -91 
Q 1019 -91 701 211 
Q 384 513 384 1019 
Q 384 1609 779 1909 
Q 1175 2209 1959 2209 
L 2766 2209 
L 2766 2266 
Q 2766 2663 2505 2880 
Q 2244 3097 1772 3097 
Q 1472 3097 1187 3025 
Q 903 2953 641 2809 
L 641 3341 
Q 956 3463 1253 3523 
Q 1550 3584 1831 3584 
Q 2591 3584 2966 3190 
Q 3341 2797 3341 1997 
z
" transform="scale(0.015625)"/>
       <path id="DejaVuSans-74" d="M 1172 4494 
L 1172 3500 
L 2356 3500 
L 2356 3053 
L 1172 3053 
L 1172 1153 
Q 1172 725 1289 603 
Q 1406 481 1766 481 
L 2356 481 
L 2356 0 
L 1766 0 
Q 1100 0 847 248 
Q 594 497 594 1153 
L 594 3053 
L 172 3053 
L 172 3500 
L 594 3500 
L 594 4494 
L 1172 4494 
z
" transform="scale(0.015625)"/>
       <path id="DejaVuSans-69" d="M 603 3500 
L 1178 3500 
L 1178 0 
L 603 0 
L 603 3500 
z
M 603 4863 
L 1178 4863 
L 1178 4134 
L 603 4134 
L 603 4863 
z
" transform="scale(0.015625)"/>
       <path id="DejaVuSans-6f" d="M 1959 3097 
Q 1497 3097 1228 2736 
Q 959 2375 959 1747 
Q 959 1119 1226 758 
Q 1494 397 1959 397 
Q 2419 397 2687 759 
Q 2956 1122 2956 1747 
Q 2956 2369 2687 2733 
Q 2419 3097 1959 3097 
z
M 1959 3584 
Q 2709 3584 3137 3096 
Q 3566 2609 3566 1747 
Q 3566 888 3137 398 
Q 2709 -91 1959 -91 
Q 1206 -91 779 398 
Q 353 888 353 1747 
Q 353 2609 779 3096 
Q 1206 3584 1959 3584 
z
" transform="scale(0.015625)"/>
      </defs>
      <use xlink:href="#DejaVuSans-47"/>
      <use xlink:href="#DejaVuSans-65" transform="translate(77.490234 0)"/>
      <use xlink:href="#DejaVuSans-6e" transform="translate(139.013672 0)"/>
      <use xlink:href="#DejaVuSans-65" transform="translate(202.392578 0)"/>
      <use xlink:href="#DejaVuSans-72" transform="translate(263.916016 0)"/>
      <use xlink:href="#DejaVuSans-61" transform="translate(305.029297 0)"/>
      <use xlink:href="#DejaVuSans-74" transform="translate(366.308594 0)"/>
      <use xlink:href="#DejaVuSans-69" transform="translate(405.517578 0)"/>
      <use xlink:href="#DejaVuSans-6f" transform="translate(433.300781 0)"/>
      <use xlink:href="#DejaVuSans-6e" transform="translate(494.482422 0)"/>
     </g>
    </g>
   </g>
   <g id="matplotlib.axis_2">
    <g id="ytick_1">
     <g id="line2d_6">
      <defs>
       <path id="m4452d53d57" d="M 0 0 
L -3.5 0 
" style="stroke: #000000; stroke-width: 0.8"/>
      </defs>
      <g>
       <use xlink:href="#m4452d53d57" x="57.6" y="307.584" style="stroke: #000000; stroke-width: 0.8"/>
      </g>
     </g>
     <g id="text_7">
      <!-- 0 -->
      <g transform="translate(44.2375 311.383219) scale(0.1 -0.1)">
       <use xlink:href="#DejaVuSans-30"/>
      </g>
     </g>
    </g>
    <g id="ytick_2">
     <g id="line2d_7">
      <g>
       <use xlink:href="#m4452d53d57" x="57.6" y="261.707443" style="stroke: #000000; stroke-width: 0.8"/>
      </g>
     </g>
     <g id="text_8">
      <!-- 2 -->
      <g transform="translate(44.2375 265.506662) scale(0.1 -0.1)">
       <use xlink:href="#DejaVuSans-32"/>
      </g>
     </g>
    </g>
    <g id="ytick_3">
     <g id="line2d_8">
      <g>
       <use xlink:href="#m4452d53d57" x="57.6" y="215.830886" style="stroke: #000000; stroke-width: 0.8"/>
      </g>
     </g>
     <g id="text_9">
      <!-- 4 -->
      <g transform="translate(44.2375 219.630104) scale(0.1 -0.1)">
       <use xlink:href="#DejaVuSans-34"/>
      </g>
     </g>
    </g>
    <g id="ytick_4">
     <g id="line2d_9">
      <g>
       <use xlink:href="#m4452d53d57" x="57.6" y="169.954329" style="stroke: #000000; stroke-width: 0.8"/>
      </g>
     </g>
     <g id="text_10">
      <!-- 6 -->
      <g transform="translate(44.2375 173.753547) scale(0.1 -0.1)">
       <defs>
        <path id="DejaVuSans-36" d="M 2113 2584 
Q 1688 2584 1439 2293 
Q 1191 2003 1191 1497 
Q 1191 994 1439 701 
Q 1688 409 2113 409 
Q 2538 409 2786 701 
Q 3034 994 3034 1497 
Q 3034 2003 2786 2293 
Q 2538 2584 2113 2584 
z
M 3366 4563 
L 3366 3988 
Q 3128 4100 2886 4159 
Q 2644 4219 2406 4219 
Q 1781 4219 1451 3797 
Q 1122 3375 1075 2522 
Q 1259 2794 1537 2939 
Q 1816 3084 2150 3084 
Q 2853 3084 3261 2657 
Q 3669 2231 3669 1497 
Q 3669 778 3244 343 
Q 2819 -91 2113 -91 
Q 1303 -91 875 529 
Q 447 1150 447 2328 
Q 447 3434 972 4092 
Q 1497 4750 2381 4750 
Q 2619 4750 2861 4703 
Q 3103 4656 3366 4563 
z
" transform="scale(0.015625)"/>
       </defs>
       <use xlink:href="#DejaVuSans-36"/>
      </g>
     </g>
    </g>
    <g id="ytick_5">
     <g id="line2d_10">
      <g>
       <use xlink:href="#m4452d53d57" x="57.6" y="124.077771" style="stroke: #000000; stroke-width: 0.8"/>
      </g>
     </g>
     <g id="text_11">
      <!-- 8 -->
      <g transform="translate(44.2375 127.87699) scale(0.1 -0.1)">
       <defs>
        <path id="DejaVuSans-38" d="M 2034 2216 
Q 1584 2216 1326 1975 
Q 1069 1734 1069 1313 
Q 1069 891 1326 650 
Q 1584 409 2034 409 
Q 2484 409 2743 651 
Q 3003 894 3003 1313 
Q 3003 1734 2745 1975 
Q 2488 2216 2034 2216 
z
M 1403 2484 
Q 997 2584 770 2862 
Q 544 3141 544 3541 
Q 544 4100 942 4425 
Q 1341 4750 2034 4750 
Q 2731 4750 3128 4425 
Q 3525 4100 3525 3541 
Q 3525 3141 3298 2862 
Q 3072 2584 2669 2484 
Q 3125 2378 3379 2068 
Q 3634 1759 3634 1313 
Q 3634 634 3220 271 
Q 2806 -91 2034 -91 
Q 1263 -91 848 271 
Q 434 634 434 1313 
Q 434 1759 690 2068 
Q 947 2378 1403 2484 
z
M 1172 3481 
Q 1172 3119 1398 2916 
Q 1625 2713 2034 2713 
Q 2441 2713 2670 2916 
Q 2900 3119 2900 3481 
Q 2900 3844 2670 4047 
Q 2441 4250 2034 4250 
Q 1625 4250 1398 4047 
Q 1172 3844 1172 3481 
z
" transform="scale(0.015625)"/>
       </defs>
       <use xlink:href="#DejaVuSans-38"/>
      </g>
     </g>
    </g>
    <g id="ytick_6">
     <g id="line2d_11">
      <g>
       <use xlink:href="#m4452d53d57" x="57.6" y="78.201214" style="stroke: #000000; stroke-width: 0.8"/>
      </g>
     </g>
     <g id="text_12">
      <!-- 10 -->
      <g transform="translate(37.875 82.000433) scale(0.1 -0.1)">
       <use xlink:href="#DejaVuSans-31"/>
       <use xlink:href="#DejaVuSans-30" transform="translate(63.623047 0)"/>
      </g>
     </g>
    </g>
    <g id="text_13">
     <!-- Average Fitness -->
     <g transform="translate(31.795312 213.967062) rotate(-90) scale(0.1 -0.1)">
      <defs>
       <path id="DejaVuSans-41" d="M 2188 4044 
L 1331 1722 
L 3047 1722 
L 2188 4044 
z
M 1831 4666 
L 2547 4666 
L 4325 0 
L 3669 0 
L 3244 1197 
L 1141 1197 
L 716 0 
L 50 0 
L 1831 4666 
z
" transform="scale(0.015625)"/>
       <path id="DejaVuSans-76" d="M 191 3500 
L 800 3500 
L 1894 563 
L 2988 3500 
L 3597 3500 
L 2284 0 
L 1503 0 
L 191 3500 
z
" transform="scale(0.015625)"/>
       <path id="DejaVuSans-67" d="M 2906 1791 
Q 2906 2416 2648 2759 
Q 2391 3103 1925 3103 
Q 1463 3103 1205 2759 
Q 947 2416 947 1791 
Q 947 1169 1205 825 
Q 1463 481 1925 481 
Q 2391 481 2648 825 
Q 2906 1169 2906 1791 
z
M 3481 434 
Q 3481 -459 3084 -895 
Q 2688 -1331 1869 -1331 
Q 1566 -1331 1297 -1286 
Q 1028 -1241 775 -1147 
L 775 -588 
Q 1028 -725 1275 -790 
Q 1522 -856 1778 -856 
Q 2344 -856 2625 -561 
Q 2906 -266 2906 331 
L 2906 616 
Q 2728 306 2450 153 
Q 2172 0 1784 0 
Q 1141 0 747 490 
Q 353 981 353 1791 
Q 353 2603 747 3093 
Q 1141 3584 1784 3584 
Q 2172 3584 2450 3431 
Q 2728 3278 2906 2969 
L 2906 3500 
L 3481 3500 
L 3481 434 
z
" transform="scale(0.015625)"/>
       <path id="DejaVuSans-20" transform="scale(0.015625)"/>
       <path id="DejaVuSans-46" d="M 628 4666 
L 3309 4666 
L 3309 4134 
L 1259 4134 
L 1259 2759 
L 3109 2759 
L 3109 2228 
L 1259 2228 
L 1259 0 
L 628 0 
L 628 4666 
z
" transform="scale(0.015625)"/>
       <path id="DejaVuSans-73" d="M 2834 3397 
L 2834 2853 
Q 2591 2978 2328 3040 
Q 2066 3103 1784 3103 
Q 1356 3103 1142 2972 
Q 928 2841 928 2578 
Q 928 2378 1081 2264 
Q 1234 2150 1697 2047 
L 1894 2003 
Q 2506 1872 2764 1633 
Q 3022 1394 3022 966 
Q 3022 478 2636 193 
Q 2250 -91 1575 -91 
Q 1294 -91 989 -36 
Q 684 19 347 128 
L 347 722 
Q 666 556 975 473 
Q 1284 391 1588 391 
Q 1994 391 2212 530 
Q 2431 669 2431 922 
Q 2431 1156 2273 1281 
Q 2116 1406 1581 1522 
L 1381 1569 
Q 847 1681 609 1914 
Q 372 2147 372 2553 
Q 372 3047 722 3315 
Q 1072 3584 1716 3584 
Q 2034 3584 2315 3537 
Q 2597 3491 2834 3397 
z
" transform="scale(0.015625)"/>
      </defs>
      <use xlink:href="#DejaVuSans-41"/>
      <use xlink:href="#DejaVuSans-76" transform="translate(62.533203 0)"/>
      <use xlink:href="#DejaVuSans-65" transform="translate(121.712891 0)"/>
      <use xlink:href="#DejaVuSans-72" transform="translate(183.236328 0)"/>
      <use xlink:href="#DejaVuSans-61" transform="translate(224.349609 0)"/>
      <use xlink:href="#DejaVuSans-67" transform="translate(285.628906 0)"/>
      <use xlink:href="#DejaVuSans-65" transform="translate(349.105469 0)"/>
      <use xlink:href="#DejaVuSans-20" transform="translate(410.628906 0)"/>
      <use xlink:href="#DejaVuSans-46" transform="translate(442.416016 0)"/>
      <use xlink:href="#DejaVuSans-69" transform="translate(492.685547 0)"/>
      <use xlink:href="#DejaVuSans-74" transform="translate(520.46875 0)"/>
      <use xlink:href="#DejaVuSans-6e" transform="translate(559.677734 0)"/>
      <use xlink:href="#DejaVuSans-65" transform="translate(623.056641 0)"/>
      <use xlink:href="#DejaVuSans-73" transform="translate(684.580078 0)"/>
      <use xlink:href="#DejaVuSans-73" transform="translate(736.679688 0)"/>
     </g>
    </g>
   </g>
   <g id="line2d_12">
    <path d="M 57.6 190.756253 
L 65.198298 174.092186 
L 72.796596 173.675396 
L 80.394894 173.675396 
L 87.993191 161.616438 
L 95.591489 159.243662 
L 103.189787 158.395694 
L 110.788085 157.535293 
L 118.386383 156.993547 
L 125.984681 156.993547 
L 133.582979 145.754491 
L 141.181277 145.754491 
L 148.779574 119.152918 
L 156.377872 119.152918 
L 163.97617 118.264682 
L 171.574468 118.264682 
L 179.172766 118.264682 
L 186.771064 116.609073 
L 194.369362 116.609073 
L 201.96766 116.609073 
L 209.565957 116.609073 
L 217.164255 116.609073 
L 224.762553 116.609073 
L 232.360851 116.609073 
L 239.959149 116.609073 
L 247.557447 116.609073 
L 255.155745 116.609073 
L 262.754043 115.834111 
L 270.35234 108.011758 
L 277.950638 108.011758 
L 285.548936 108.011758 
L 293.147234 108.011758 
L 300.745532 108.011758 
L 308.34383 108.011758 
L 315.942128 105.805083 
L 323.540426 105.805083 
L 331.138723 98.26108 
L 338.737021 98.26108 
L 346.335319 98.26108 
L 353.933617 98.26108 
L 361.531915 98.26108 
L 369.130213 97.732393 
L 376.728511 92.680698 
L 384.326809 88.920371 
L 391.925106 88.920371 
L 399.523404 76.153246 
L 407.121702 76.153246 
" clip-path="url(#p3c4fbabf66)" style="fill: none; stroke: #e71515; stroke-width: 1.5; stroke-linecap: square"/>
   </g>
   <g id="line2d_13">
    <path d="M 57.6 286.841018 
L 65.198298 280.498035 
L 72.796596 277.774939 
L 80.394894 275.389922 
L 87.993191 272.244687 
L 95.591489 269.225823 
L 103.189787 266.945062 
L 110.788085 265.121153 
L 118.386383 262.914921 
L 125.984681 261.198853 
L 133.582979 258.350342 
L 141.181277 256.590638 
L 148.779574 253.50799 
L 156.377872 251.84133 
L 163.97617 250.379377 
L 171.574468 249.095588 
L 179.172766 248.201932 
L 186.771064 247.018031 
L 194.369362 246.123132 
L 201.96766 244.896156 
L 209.565957 244.296732 
L 217.164255 242.804901 
L 224.762553 242.164235 
L 232.360851 241.089196 
L 239.959149 240.343762 
L 247.557447 239.604531 
L 255.155745 238.627251 
L 262.754043 236.998976 
L 270.35234 234.991271 
L 277.950638 234.092208 
L 285.548936 233.047255 
L 293.147234 231.713411 
L 300.745532 230.356029 
L 308.34383 228.901627 
L 315.942128 225.858141 
L 323.540426 224.804686 
L 331.138723 223.134564 
L 338.737021 222.071768 
L 346.335319 221.049881 
L 353.933617 220.106399 
L 361.531915 218.896897 
L 369.130213 218.09315 
L 376.728511 216.901974 
L 384.326809 216.214573 
L 391.925106 215.185268 
L 399.523404 214.007266 
L 407.121702 212.873562 
" clip-path="url(#p3c4fbabf66)" style="fill: none; stroke: #c82828; stroke-width: 1.5; stroke-linecap: square"/>
   </g>
   <g id="line2d_14">
    <path d="M 57.6 235.788718 
L 65.198298 217.184401 
L 72.796596 203.179459 
L 80.394894 190.741105 
L 87.993191 182.825911 
L 95.591489 179.875356 
L 103.189787 177.4742 
L 110.788085 169.897642 
L 118.386383 169.897642 
L 125.984681 169.897642 
L 133.582979 169.897642 
L 141.181277 155.00451 
L 148.779574 155.00451 
L 156.377872 153.882822 
L 163.97617 150.614726 
L 171.574468 150.614726 
L 179.172766 150.614726 
L 186.771064 150.614726 
L 194.369362 150.614726 
L 201.96766 150.614726 
L 209.565957 150.614726 
L 217.164255 150.614726 
L 224.762553 150.175409 
L 232.360851 150.175409 
L 239.959149 150.175409 
L 247.557447 150.175409 
L 255.155745 148.969697 
L 262.754043 145.729167 
L 270.35234 142.928297 
L 277.950638 142.928297 
L 285.548936 142.928297 
L 293.147234 142.928297 
L 300.745532 142.928297 
L 308.34383 139.994881 
L 315.942128 139.994881 
L 323.540426 139.994881 
L 331.138723 139.994881 
L 338.737021 139.994881 
L 346.335319 139.164323 
L 353.933617 137.162624 
L 361.531915 137.162624 
L 369.130213 137.162624 
L 376.728511 137.162624 
L 384.326809 137.162624 
L 391.925106 137.162624 
L 399.523404 137.162624 
L 407.121702 132.96814 
" clip-path="url(#p3c4fbabf66)" style="fill: none; stroke-dasharray: 5.55,2.4; stroke-dashoffset: 0; stroke: #2555e5; stroke-width: 1.5"/>
   </g>
   <g id="line2d_15">
    <path d="M 57.6 287.622118 
L 65.198298 282.253636 
L 72.796596 277.55288 
L 80.394894 273.130031 
L 87.993191 269.394273 
L 95.591489 267.226074 
L 103.189787 264.563388 
L 110.788085 262.64865 
L 118.386383 260.813833 
L 125.984681 258.856905 
L 133.582979 256.938206 
L 141.181277 253.554429 
L 148.779574 252.240052 
L 156.377872 250.944541 
L 163.97617 248.01648 
L 171.574468 246.425276 
L 179.172766 244.678848 
L 186.771064 242.587266 
L 194.369362 241.526159 
L 201.96766 239.817484 
L 209.565957 238.277981 
L 217.164255 237.627773 
L 224.762553 236.066064 
L 232.360851 234.792501 
L 239.959149 234.291546 
L 247.557447 233.151366 
L 255.155745 231.712713 
L 262.754043 230.762692 
L 270.35234 229.438527 
L 277.950638 228.358661 
L 285.548936 226.9849 
L 293.147234 225.99796 
L 300.745532 224.895227 
L 308.34383 223.856337 
L 315.942128 222.984973 
L 323.540426 222.447886 
L 331.138723 221.852481 
L 338.737021 220.246169 
L 346.335319 219.296001 
L 353.933617 218.262405 
L 361.531915 217.275532 
L 369.130213 216.835147 
L 376.728511 215.998307 
L 384.326809 215.422359 
L 391.925106 215.385838 
L 399.523404 214.777805 
L 407.121702 213.036345 
" clip-path="url(#p3c4fbabf66)" style="fill: none; stroke-dasharray: 5.55,2.4; stroke-dashoffset: 0; stroke: #3131b9; stroke-width: 1.5"/>
   </g>
   <g id="patch_3">
    <path d="M 57.6 307.584 
L 57.6 41.472 
" style="fill: none; stroke: #000000; stroke-width: 0.8; stroke-linejoin: miter; stroke-linecap: square"/>
   </g>
   <g id="patch_4">
    <path d="M 414.72 307.584 
L 414.72 41.472 
" style="fill: none; stroke: #000000; stroke-width: 0.8; stroke-linejoin: miter; stroke-linecap: square"/>
   </g>
   <g id="patch_5">
    <path d="M 57.6 307.584 
L 414.72 307.584 
" style="fill: none; stroke: #000000; stroke-width: 0.8; stroke-linejoin: miter; stroke-linecap: square"/>
   </g>
   <g id="patch_6">
    <path d="M 57.6 41.472 
L 414.72 41.472 
" style="fill: none; stroke: #000000; stroke-width: 0.8; stroke-linejoin: miter; stroke-linecap: square"/>
   </g>
   <g id="legend_1">
    <g id="patch_7">
     <path d="M 292.012188 302.584 
L 407.72 302.584 
Q 409.72 302.584 409.72 300.584 
L 409.72 242.8715 
Q 409.72 240.8715 407.72 240.8715 
L 292.012188 240.8715 
Q 290.012188 240.8715 290.012188 242.8715 
L 290.012188 300.584 
Q 290.012188 302.584 292.012188 302.584 
z
" style="fill: #ffffff; opacity: 0.8; stroke: #cccccc; stroke-linejoin: miter"/>
    </g>
    <g id="line2d_16">
     <path d="M 294.012188 248.969937 
L 304.012188 248.969937 
L 314.012188 248.969937 
" style="fill: none; stroke: #e71515; stroke-width: 1.5; stroke-linecap: square"/>
    </g>
    <g id="text_14">
     <!-- Sequential -->
     <g transform="translate(322.012188 252.469937) scale(0.1 -0.1)">
      <defs>
       <path id="DejaVuSans-53" d="M 3425 4513 
L 3425 3897 
Q 3066 4069 2747 4153 
Q 2428 4238 2131 4238 
Q 1616 4238 1336 4038 
Q 1056 3838 1056 3469 
Q 1056 3159 1242 3001 
Q 1428 2844 1947 2747 
L 2328 2669 
Q 3034 2534 3370 2195 
Q 3706 1856 3706 1288 
Q 3706 609 3251 259 
Q 2797 -91 1919 -91 
Q 1588 -91 1214 -16 
Q 841 59 441 206 
L 441 856 
Q 825 641 1194 531 
Q 1563 422 1919 422 
Q 2459 422 2753 634 
Q 3047 847 3047 1241 
Q 3047 1584 2836 1778 
Q 2625 1972 2144 2069 
L 1759 2144 
Q 1053 2284 737 2584 
Q 422 2884 422 3419 
Q 422 4038 858 4394 
Q 1294 4750 2059 4750 
Q 2388 4750 2728 4690 
Q 3069 4631 3425 4513 
z
" transform="scale(0.015625)"/>
       <path id="DejaVuSans-71" d="M 947 1747 
Q 947 1113 1208 752 
Q 1469 391 1925 391 
Q 2381 391 2643 752 
Q 2906 1113 2906 1747 
Q 2906 2381 2643 2742 
Q 2381 3103 1925 3103 
Q 1469 3103 1208 2742 
Q 947 2381 947 1747 
z
M 2906 525 
Q 2725 213 2448 61 
Q 2172 -91 1784 -91 
Q 1150 -91 751 415 
Q 353 922 353 1747 
Q 353 2572 751 3078 
Q 1150 3584 1784 3584 
Q 2172 3584 2448 3432 
Q 2725 3281 2906 2969 
L 2906 3500 
L 3481 3500 
L 3481 -1331 
L 2906 -1331 
L 2906 525 
z
" transform="scale(0.015625)"/>
       <path id="DejaVuSans-75" d="M 544 1381 
L 544 3500 
L 1119 3500 
L 1119 1403 
Q 1119 906 1312 657 
Q 1506 409 1894 409 
Q 2359 409 2629 706 
Q 2900 1003 2900 1516 
L 2900 3500 
L 3475 3500 
L 3475 0 
L 2900 0 
L 2900 538 
Q 2691 219 2414 64 
Q 2138 -91 1772 -91 
Q 1169 -91 856 284 
Q 544 659 544 1381 
z
M 1991 3584 
L 1991 3584 
z
" transform="scale(0.015625)"/>
       <path id="DejaVuSans-6c" d="M 603 4863 
L 1178 4863 
L 1178 0 
L 603 0 
L 603 4863 
z
" transform="scale(0.015625)"/>
      </defs>
      <use xlink:href="#DejaVuSans-53"/>
      <use xlink:href="#DejaVuSans-65" transform="translate(63.476562 0)"/>
      <use xlink:href="#DejaVuSans-71" transform="translate(125 0)"/>
      <use xlink:href="#DejaVuSans-75" transform="translate(188.476562 0)"/>
      <use xlink:href="#DejaVuSans-65" transform="translate(251.855469 0)"/>
      <use xlink:href="#DejaVuSans-6e" transform="translate(313.378906 0)"/>
      <use xlink:href="#DejaVuSans-74" transform="translate(376.757812 0)"/>
      <use xlink:href="#DejaVuSans-69" transform="translate(415.966797 0)"/>
      <use xlink:href="#DejaVuSans-61" transform="translate(443.75 0)"/>
      <use xlink:href="#DejaVuSans-6c" transform="translate(505.029297 0)"/>
     </g>
    </g>
    <g id="line2d_17">
     <path d="M 294.012188 263.648062 
L 304.012188 263.648062 
L 314.012188 263.648062 
" style="fill: none; stroke: #c82828; stroke-width: 1.5; stroke-linecap: square"/>
    </g>
    <g id="text_15">
     <!-- Sequential Mean -->
     <g transform="translate(322.012188 267.148062) scale(0.1 -0.1)">
      <defs>
       <path id="DejaVuSans-4d" d="M 628 4666 
L 1569 4666 
L 2759 1491 
L 3956 4666 
L 4897 4666 
L 4897 0 
L 4281 0 
L 4281 4097 
L 3078 897 
L 2444 897 
L 1241 4097 
L 1241 0 
L 628 0 
L 628 4666 
z
" transform="scale(0.015625)"/>
      </defs>
      <use xlink:href="#DejaVuSans-53"/>
      <use xlink:href="#DejaVuSans-65" transform="translate(63.476562 0)"/>
      <use xlink:href="#DejaVuSans-71" transform="translate(125 0)"/>
      <use xlink:href="#DejaVuSans-75" transform="translate(188.476562 0)"/>
      <use xlink:href="#DejaVuSans-65" transform="translate(251.855469 0)"/>
      <use xlink:href="#DejaVuSans-6e" transform="translate(313.378906 0)"/>
      <use xlink:href="#DejaVuSans-74" transform="translate(376.757812 0)"/>
      <use xlink:href="#DejaVuSans-69" transform="translate(415.966797 0)"/>
      <use xlink:href="#DejaVuSans-61" transform="translate(443.75 0)"/>
      <use xlink:href="#DejaVuSans-6c" transform="translate(505.029297 0)"/>
      <use xlink:href="#DejaVuSans-20" transform="translate(532.8125 0)"/>
      <use xlink:href="#DejaVuSans-4d" transform="translate(564.599609 0)"/>
      <use xlink:href="#DejaVuSans-65" transform="translate(650.878906 0)"/>
      <use xlink:href="#DejaVuSans-61" transform="translate(712.402344 0)"/>
      <use xlink:href="#DejaVuSans-6e" transform="translate(773.681641 0)"/>
     </g>
    </g>
    <g id="line2d_18">
     <path d="M 294.012188 278.326187 
L 304.012188 278.326187 
L 314.012188 278.326187 
" style="fill: none; stroke-dasharray: 5.55,2.4; stroke-dashoffset: 0; stroke: #2555e5; stroke-width: 1.5"/>
    </g>
    <g id="text_16">
     <!-- Parallel -->
     <g transform="translate(322.012188 281.826187) scale(0.1 -0.1)">
      <defs>
       <path id="DejaVuSans-50" d="M 1259 4147 
L 1259 2394 
L 2053 2394 
Q 2494 2394 2734 2622 
Q 2975 2850 2975 3272 
Q 2975 3691 2734 3919 
Q 2494 4147 2053 4147 
L 1259 4147 
z
M 628 4666 
L 2053 4666 
Q 2838 4666 3239 4311 
Q 3641 3956 3641 3272 
Q 3641 2581 3239 2228 
Q 2838 1875 2053 1875 
L 1259 1875 
L 1259 0 
L 628 0 
L 628 4666 
z
" transform="scale(0.015625)"/>
      </defs>
      <use xlink:href="#DejaVuSans-50"/>
      <use xlink:href="#DejaVuSans-61" transform="translate(55.802734 0)"/>
      <use xlink:href="#DejaVuSans-72" transform="translate(117.082031 0)"/>
      <use xlink:href="#DejaVuSans-61" transform="translate(158.195312 0)"/>
      <use xlink:href="#DejaVuSans-6c" transform="translate(219.474609 0)"/>
      <use xlink:href="#DejaVuSans-6c" transform="translate(247.257812 0)"/>
      <use xlink:href="#DejaVuSans-65" transform="translate(275.041016 0)"/>
      <use xlink:href="#DejaVuSans-6c" transform="translate(336.564453 0)"/>
     </g>
    </g>
    <g id="line2d_19">
     <path d="M 294.012188 293.004312 
L 304.012188 293.004312 
L 314.012188 293.004312 
" style="fill: none; stroke-dasharray: 5.55,2.4; stroke-dashoffset: 0; stroke: #3131b9; stroke-width: 1.5"/>
    </g>
    <g id="text_17">
     <!-- Parallel Mean -->
     <g transform="translate(322.012188 296.504312) scale(0.1 -0.1)">
      <use xlink:href="#DejaVuSans-50"/>
      <use xlink:href="#DejaVuSans-61" transform="translate(55.802734 0)"/>
      <use xlink:href="#DejaVuSans-72" transform="translate(117.082031 0)"/>
      <use xlink:href="#DejaVuSans-61" transform="translate(158.195312 0)"/>
      <use xlink:href="#DejaVuSans-6c" transform="translate(219.474609 0)"/>
      <use xlink:href="#DejaVuSans-6c" transform="translate(247.257812 0)"/>
      <use xlink:href="#DejaVuSans-65" transform="translate(275.041016 0)"/>
      <use xlink:href="#DejaVuSans-6c" transform="translate(336.564453 0)"/>
      <use xlink:href="#DejaVuSans-20" transform="translate(364.347656 0)"/>
      <use xlink:href="#DejaVuSans-4d" transform="translate(396.134766 0)"/>
      <use xlink:href="#DejaVuSans-65" transform="translate(482.414062 0)"/>
      <use xlink:href="#DejaVuSans-61" transform="translate(543.9375 0)"/>
      <use xlink:href="#DejaVuSans-6e" transform="translate(605.216797 0)"/>
     </g>
    </g>
   </g>
  </g>
 </g>
 <defs>
  <clipPath id="p3c4fbabf66">
   <rect x="57.6" y="41.472" width="357.12" height="266.112"/>
  </clipPath>
 </defs>
</svg>
